<?xml version="1.0" encoding="UTF-8" standalone="no"?>
<!-- Generator: Adobe Illustrator 15.0.2, SVG Export Plug-In . SVG Version: 6.00 Build 0)  -->

<svg
   xmlns:dc="http://purl.org/dc/elements/1.1/"
   xmlns:cc="http://creativecommons.org/ns#"
   xmlns:rdf="http://www.w3.org/1999/02/22-rdf-syntax-ns#"
   xmlns:svg="http://www.w3.org/2000/svg"
   xmlns="http://www.w3.org/2000/svg"
   xmlns:sodipodi="http://sodipodi.sourceforge.net/DTD/sodipodi-0.dtd"
   xmlns:inkscape="http://www.inkscape.org/namespaces/inkscape"
   version="1.0"
   id="Layer_1"
   x="0px"
   y="0px"
   width="50.491776"
   height="50.492439"
   viewBox="0 0 50.491776 50.49244"
   enable-background="new 0 0 50.292 50.293"
   xml:space="preserve"
   inkscape:version="0.48.4 r9939"
   sodipodi:docname="Ajax.svg"><metadata
   id="metadata17"><rdf:RDF><cc:Work
       rdf:about=""><dc:format>image/svg+xml</dc:format><dc:type
         rdf:resource="http://purl.org/dc/dcmitype/StillImage" /></cc:Work></rdf:RDF></metadata><defs
   id="defs15" /><sodipodi:namedview
   pagecolor="#ffffff"
   bordercolor="#666666"
   borderopacity="1"
   objecttolerance="10"
   gridtolerance="10"
   guidetolerance="10"
   inkscape:pageopacity="0"
   inkscape:pageshadow="2"
   inkscape:window-width="1280"
   inkscape:window-height="1001"
   id="namedview13"
   showgrid="false"
   fit-margin-top="0.1"
   fit-margin-bottom="0.1"
   fit-margin-right="0.1"
   fit-margin-left="0.1"
   inkscape:zoom="13.2724"
   inkscape:cx="20.674317"
   inkscape:cy="28.433628"
   inkscape:window-x="-8"
   inkscape:window-y="-8"
   inkscape:window-maximized="1"
   inkscape:current-layer="Layer_1" />
<path
   clip-rule="evenodd"
   d="M 1.1078884,22.547417 22.685888,1.0944168 c 1.421,-1.41300006 3.836,-1.30700006 5.37,0.234 l 21.125,21.2470002 c 1.531,1.54 1.623,3.958 0.203,5.37 l -21.578,21.453 c -1.42,1.412 -3.836,1.307 -5.37,-0.234 l -21.1249996,-21.247 c -1.53099996,-1.541 -1.62299996,-3.957 -0.203,-5.37"
   id="path3"
   style="fill:#ffd700;fill-opacity:1;fill-rule:evenodd;stroke:none"
   inkscape:connector-curvature="0" />
<path
   clip-rule="evenodd"
   d="M 2.5008884,23.464417 23.595888,2.4924168 c 0.92,-0.914 2.484,-0.847 3.474,0.151 l 20.789,20.9080002 c 0.992,0.999 1.051,2.562 0.133,3.476 l -21.096,20.974 c -0.918,0.914 -2.482,0.846 -3.474,-0.152 l -20.7889996,-20.908 c -0.992,-0.998 -1.052,-2.563 -0.132,-3.477"
   id="path5"
   style="fill:#ffd700;fill-opacity:1;fill-rule:evenodd;stroke:none"
   inkscape:connector-curvature="0" />
<path
   stroke-miterlimit="2.613"
   d="M 2.5008884,23.464417 23.595888,2.4924168 c 0.92,-0.914 2.484,-0.847 3.474,0.151 l 20.789,20.9080002 c 0.992,0.999 1.051,2.562 0.133,3.476 l -21.096,20.974 c -0.918,0.914 -2.482,0.846 -3.474,-0.152 l -20.7889996,-20.908 c -0.992,-0.998 -1.052,-2.563 -0.132,-3.477 z"
   id="path7"
   inkscape:connector-curvature="0"
   style="fill:none;stroke:#000000;stroke-width:1.63;stroke-miterlimit:2.61299992" />
<polyline
   clip-rule="evenodd"
   points="12.635,30.941 15.694,34.145 25.315,24.212   25.315,40.916 29.937,40.916 29.937,9.541 25.315,9.541 25.315,17.947 12.635,30.941 "
   id="polyline9"
   style="fill:#ecd21c;fill-rule:evenodd"
   transform="translate(0.09988844,0.09941674)" />
<polyline
   clip-rule="evenodd"
   points="12.635,30.941 15.694,34.145 25.315,24.212 25.315,40.916 29.937,40.916   29.937,9.541 25.315,9.541 25.315,17.947 12.635,30.941 "
   id="polyline11"
   style="fill-rule:evenodd;fill:#000000;stroke:none"
   transform="translate(0.09988844,0.09941674)" />
</svg>