<?xml version="1.0" encoding="UTF-8" standalone="no"?>
<!-- Generator: Adobe Illustrator 15.0.2, SVG Export Plug-In . SVG Version: 6.00 Build 0)  -->

<svg
   xmlns:dc="http://purl.org/dc/elements/1.1/"
   xmlns:cc="http://creativecommons.org/ns#"
   xmlns:rdf="http://www.w3.org/1999/02/22-rdf-syntax-ns#"
   xmlns:svg="http://www.w3.org/2000/svg"
   xmlns="http://www.w3.org/2000/svg"
   xmlns:sodipodi="http://sodipodi.sourceforge.net/DTD/sodipodi-0.dtd"
   xmlns:inkscape="http://www.inkscape.org/namespaces/inkscape"
   version="1.0"
   id="Layer_1"
   x="0px"
   y="0px"
   width="50.490448"
   height="50.493141"
   viewBox="0 0 50.490448 50.493142"
   enable-background="new 0 0 50.292 50.293"
   xml:space="preserve"
   inkscape:version="0.48.4 r9939"
   sodipodi:docname="Ajax.svg"><metadata
   id="metadata21"><rdf:RDF><cc:Work
       rdf:about=""><dc:format>image/svg+xml</dc:format><dc:type
         rdf:resource="http://purl.org/dc/dcmitype/StillImage" /></cc:Work></rdf:RDF></metadata><defs
   id="defs19" /><sodipodi:namedview
   pagecolor="#ffffff"
   bordercolor="#666666"
   borderopacity="1"
   objecttolerance="10"
   gridtolerance="10"
   guidetolerance="10"
   inkscape:pageopacity="0"
   inkscape:pageshadow="2"
   inkscape:window-width="1280"
   inkscape:window-height="1001"
   id="namedview17"
   showgrid="false"
   fit-margin-top="0.1"
   fit-margin-left="0.1"
   fit-margin-right="0.1"
   fit-margin-bottom="0.1"
   inkscape:zoom="9.385004"
   inkscape:cx="16.074325"
   inkscape:cy="18.396548"
   inkscape:window-x="-8"
   inkscape:window-y="-8"
   inkscape:window-maximized="1"
   inkscape:current-layer="Layer_1" />
<path
   clip-rule="evenodd"
   d="m 49.382099,22.547022 -21.577,-21.4530005 c -1.421,-1.41199996 -3.837,-1.30699996 -5.369,0.234 l -21.125,21.2470005 c -1.53200002,1.541 -1.62300002,3.957 -0.202,5.37 l 21.577,21.453 c 1.421,1.413 3.837,1.309 5.369,-0.234 l 21.125,-21.245 c 1.531,-1.542 1.622,-3.959 0.202,-5.372"
   id="path3"
   style="fill:#ffd700;fill-opacity:1;fill-rule:evenodd;stroke:none"
   inkscape:connector-curvature="0" />
<path
   clip-rule="evenodd"
   d="m 47.986099,23.466022 -21.094,-20.9730005 c -0.92,-0.914 -2.483,-0.846 -3.476,0.151 l -20.789,20.9090005 c -0.991,0.998 -1.051,2.562 -0.131,3.476 l 21.094,20.973 c 0.919,0.914 2.483,0.847 3.476,-0.15 l 20.789,-20.909 c 0.991,-0.998 1.05,-2.563 0.131,-3.477"
   id="path5"
   style="fill:#ffd700;fill-opacity:1;fill-rule:evenodd;stroke:none"
   inkscape:connector-curvature="0" />
<path
   stroke-miterlimit="2.613"
   d="m 47.986099,23.466022 -21.095,-20.9730005 c -0.919,-0.914 -2.483,-0.846 -3.475,0.151 l -20.789,20.9100005 c -0.992,0.998 -1.051,2.562 -0.132,3.476 l 21.095,20.973 c 0.919,0.914 2.483,0.847 3.475,-0.151 l 20.789,-20.909 c 0.991,-0.998 1.051,-2.563 0.132,-3.477 z"
   id="path7"
   inkscape:connector-curvature="0"
   style="fill:none;stroke:#000000;stroke-width:1.62800002;stroke-miterlimit:2.61299992" />
<path
   clip-rule="evenodd"
   d="m 10.057099,21.468022 v 2.445 h 2.138 c 1.487,-0.279 1.229,-2.35 0,-2.446 l -2.138,0.001 m -1.565,-1.487 v 9.444 c -10e-4,0.027 0.025,0.059 0.059,0.059 h 1.451 c 0.035,-0.003 0.056,-0.029 0.057,-0.057 l -10e-4,-3.945 c 0.711,0 1.365,0 2.076,0 3.457,-0.162 3.568,-5.35 -0.002,-5.58 l -3.568,0.016 c -0.038,-0.002 -0.072,0.015 -0.072,0.063 z"
   id="path9"
   inkscape:connector-curvature="0"
   style="fill-rule:evenodd;stroke:none;fill:#000000" />
<path
   clip-rule="evenodd"
   d="m 27.383099,21.468022 v 2.445 h 2.139 c 1.485,-0.279 1.229,-2.35 0,-2.446 l -2.139,0.001 m -1.567,-1.492 v 9.449 c 0,0.027 0.024,0.058 0.059,0.059 h 1.445 c 0.033,0.002 0.06,-0.023 0.062,-0.059 l 0.016,-3.943 h 1.514 l 1.538,3.966 c 0.011,0.023 0.029,0.037 0.056,0.037 l 1.532,-0.001 c 0.052,0.001 0.068,-0.053 0.052,-0.087 l -1.581,-4.149 c 2.938,-1.683 1.381,-5.298 -1.036,-5.346 l -3.596,0.015 c -0.034,0.002 -0.061,0.026 -0.061,0.059 z"
   id="path11"
   inkscape:connector-curvature="0"
   style="fill-rule:evenodd;stroke:none;fill:#000000" />
<path
   clip-rule="evenodd"
   d="m 18.955099,25.129022 0.036,-0.11 0.778,-2.396 0.835,2.506 h -1.649 m -2.962,4.355 c -0.079,-0.002 -0.077,-0.049 -0.063,-0.104 l 3.072,-9.424 c 0.013,-0.026 0.035,-0.039 0.061,-0.038 h 1.432 c 0.031,-0.003 0.059,0.015 0.065,0.038 l 3.079,9.446 c 0.015,0.041 -0.017,0.081 -0.055,0.082 l -1.516,0.001 c -0.029,-0.002 -0.05,-0.017 -0.059,-0.043 l -0.909,-2.766 h -2.641 l -0.896,2.739 c -0.014,0.049 -0.037,0.07 -0.087,0.068 h -1.483 z"
   id="path13"
   inkscape:connector-curvature="0"
   style="fill-rule:evenodd;stroke:none;fill:#000000" />
<path
   clip-rule="evenodd"
   d="m 34.675099,19.918022 h 5.345 c 0.042,0.002 0.06,0.039 0.058,0.057 v 1.437 c -0.007,0.033 -0.025,0.058 -0.085,0.054 l -3.81,-0.003 -0.004,2.447 2.629,0.008 c 0.025,0.003 0.053,0.026 0.052,0.058 l 0.001,1.453 c -0.001,0.029 -0.03,0.056 -0.053,0.054 l -2.625,0.002 v 2.438 l 4.1,-0.004 c 0.026,0.002 0.054,0.022 0.056,0.058 l 0.001,1.441 c 0.004,0.037 -0.025,0.066 -0.058,0.065 l -5.612,0.002 c -0.031,-0.004 -0.052,-0.032 -0.053,-0.058 v -9.452 c 0.003,-0.033 0.026,-0.055 0.058,-0.057"
   id="path15"
   inkscape:connector-curvature="0"
   style="fill-rule:evenodd;stroke:none;fill:#000000" />
</svg>