<?xml version="1.0" encoding="UTF-8" standalone="no"?>
<!-- Generator: Adobe Illustrator 15.0.2, SVG Export Plug-In . SVG Version: 6.00 Build 0)  -->

<svg
   xmlns:dc="http://purl.org/dc/elements/1.1/"
   xmlns:cc="http://creativecommons.org/ns#"
   xmlns:rdf="http://www.w3.org/1999/02/22-rdf-syntax-ns#"
   xmlns:svg="http://www.w3.org/2000/svg"
   xmlns="http://www.w3.org/2000/svg"
   xmlns:sodipodi="http://sodipodi.sourceforge.net/DTD/sodipodi-0.dtd"
   xmlns:inkscape="http://www.inkscape.org/namespaces/inkscape"
   version="1.0"
   id="Layer_1"
   x="0px"
   y="0px"
   width="50.491234"
   height="50.492393"
   viewBox="0 0 50.491234 50.492394"
   enable-background="new 0 0 50.292 50.293"
   xml:space="preserve"
   inkscape:version="0.48.4 r9939"
   sodipodi:docname="Ajax.svg"><metadata
   id="metadata25"><rdf:RDF><cc:Work
       rdf:about=""><dc:format>image/svg+xml</dc:format><dc:type
         rdf:resource="http://purl.org/dc/dcmitype/StillImage" /></cc:Work></rdf:RDF></metadata><defs
   id="defs23" /><sodipodi:namedview
   pagecolor="#ffffff"
   bordercolor="#666666"
   borderopacity="1"
   objecttolerance="10"
   gridtolerance="10"
   guidetolerance="10"
   inkscape:pageopacity="0"
   inkscape:pageshadow="2"
   inkscape:window-width="1280"
   inkscape:window-height="1001"
   id="namedview21"
   showgrid="false"
   fit-margin-top="0.1"
   fit-margin-bottom="0.1"
   fit-margin-right="0.1"
   fit-margin-left="0.1"
   inkscape:zoom="9.385004"
   inkscape:cx="22.973141"
   inkscape:cy="25.870206"
   inkscape:window-x="-8"
   inkscape:window-y="-8"
   inkscape:window-maximized="1"
   inkscape:current-layer="Layer_1" />
<path
   clip-rule="evenodd"
   d="m 49.382636,22.547022 -21.578,-21.4530005 c -1.42,-1.41199996 -3.836,-1.30699996 -5.368,0.234 L 1.3116365,22.575022 c -1.53199998,1.541 -1.62399998,3.957 -0.203,5.37 l 21.5769995,21.453 c 1.421,1.412 3.837,1.308 5.37,-0.234 l 21.124,-21.247 c 1.533,-1.541 1.623,-3.958 0.203,-5.37"
   id="path3"
   style="fill:#ffd700;fill-opacity:1;fill-rule:evenodd;stroke:none"
   inkscape:connector-curvature="0" />
<path
   clip-rule="evenodd"
   d="m 47.985636,23.467022 -21.095,-20.9740005 c -0.919,-0.914 -2.482,-0.846 -3.474,0.151 L 2.6276365,23.554022 c -0.992,0.997 -1.051,2.561 -0.131,3.475 l 21.0949995,20.973 c 0.919,0.914 2.483,0.848 3.474,-0.15 l 20.789,-20.909 c 0.991,-0.998 1.051,-2.562 0.131,-3.476"
   id="path5"
   style="fill:#ffd700;fill-opacity:1;fill-rule:evenodd;stroke:none"
   inkscape:connector-curvature="0" />
<path
   stroke-miterlimit="2.613"
   d="m 47.986636,23.467022 -21.096,-20.9740005 c -0.919,-0.914 -2.482,-0.846 -3.474,0.151 L 2.6286365,23.554022 c -0.993,0.998 -1.052,2.561 -0.132,3.475 l 21.0949995,20.975 c 0.919,0.914 2.482,0.846 3.476,-0.152 l 20.788,-20.908 c 0.99,-0.999 1.05,-2.563 0.131,-3.477 z"
   id="path7"
   inkscape:connector-curvature="0"
   style="fill:none;stroke:#000000;stroke-width:1.62800002;stroke-miterlimit:2.61299992" />
<path
   clip-rule="evenodd"
   d="m 27.328636,30.745022 c 0.76,0 1.375,0.617 1.375,1.376 0,0.759 -0.615,1.376 -1.375,1.376 -0.76,0 -1.376,-0.617 -1.376,-1.376 0,-0.759 0.616,-1.376 1.376,-1.376 m -6.292,0 c 0.76,0 1.376,0.617 1.376,1.376 0,0.759 -0.616,1.376 -1.376,1.376 -0.759,0 -1.375,-0.617 -1.375,-1.376 0,-0.759 0.616,-1.376 1.375,-1.376 z m 10.252,0 c 0.76,0 1.375,0.617 1.375,1.376 0,0.759 -0.615,1.376 -1.375,1.376 -0.76,0 -1.375,-0.617 -1.376,-1.376 0,-0.758 0.617,-1.376 1.376,-1.376 z m -10.672,-19.589 c 0.148,0 0.269,0.12 0.269,0.269 0,0.065 -0.023,0.125 -0.062,0.171 -0.023,0.028 -0.052,0.051 -0.085,0.068 -0.037,0.019 -0.078,0.03 -0.122,0.03 -0.148,0 -0.269,-0.121 -0.269,-0.269 0,-0.149 0.121,-0.269 0.269,-0.269 z m -1.542,17 h 3.291 v -6.574 h -3.291 v 6.574 z m -3.318,0 h 2.664 v -6.574 h -2.664 v 6.574 z m 14.49,0 h 2.647 v -6.574 h -2.647 v 6.574 z m -3.944,0 h 3.291 v -6.574 h -3.291 v 6.574 z m -14.491,2.642 1.327,0.002 v -9.219 h -1.327 v 9.217 z m -1.303,-0.002 h 0.65 v -9.215 h -0.65 v 9.215 z m 4.054,0.004 0.54,-0.684 v -8.535 h -1.31 v 9.219 h 0.77 z m 11.086,-0.722 -0.583,0.72 -0.431,0.002 v -9.219 h 1.014 v 8.497 z m -2.071,0.722 -0.559,-0.707 v -8.512 h 0.963 v 9.219 h -0.404 z m 12.567,-0.002 -0.973,0.002 v -9.219 h 0.973 v 9.217 z m 2.05,-0.002 -1.397,0.002 v -9.217 h 1.397 v 9.215 z m -5.31,-0.658 1.168,1.3 h 4.799 l 0.003,-0.642 h -0.007 v -9.215 h 0.231 l -0.971,-1.296 h -10.503 v -0.001 l -0.29,-0.678 h -2.332 c -0.154,-0.282 -0.467,-0.372 -0.753,-0.331 l -0.008,0.001 c -0.229,0.035 -0.44,0.155 -0.537,0.33 h -2.305 l -0.288,0.675 v 0.004 h -10.904 l -0.9689995,1.296 h 0.636 v 9.535 l -0.005,0.322 h 4.7649995 l 1.169,-1.3 h 6.572 l 1.168,1.3 1.608,-0.009 1.168,-1.291 h 6.585 z m 1.222,0.662 -0.558,-0.705 v -8.514 h 0.969 v 9.219 h -0.411 z m 5.038,-1.32 h 0.346 v 1.988 h -0.346 v -1.988 z m -22.068,1.265 c 0.759,0 1.375,0.617 1.375,1.376 0,0.759 -0.616,1.376 -1.375,1.376 -0.76,0 -1.376,-0.617 -1.376,-1.376 0,-0.759 0.616,-1.376 1.376,-1.376 z m 3.662,-19.082 3.483,7.613 -3.483,-7.613 z"
   id="path9"
   inkscape:connector-curvature="0"
   style="fill-rule:evenodd" />
<path
   stroke-miterlimit="2.613"
   d="m 27.328636,30.745022 c 0.76,0 1.375,0.617 1.375,1.376 0,0.759 -0.615,1.376 -1.375,1.376 -0.76,0 -1.376,-0.617 -1.376,-1.376 0,-0.759 0.616,-1.376 1.376,-1.376 z m -6.292,0 c 0.76,0 1.376,0.617 1.376,1.376 0,0.759 -0.616,1.376 -1.376,1.376 -0.759,0 -1.375,-0.617 -1.375,-1.376 0,-0.759 0.616,-1.376 1.375,-1.376 z m 10.252,0 c 0.76,0 1.375,0.617 1.375,1.376 0,0.759 -0.615,1.376 -1.375,1.376 -0.76,0 -1.375,-0.617 -1.376,-1.376 0,-0.758 0.617,-1.376 1.376,-1.376 z m -10.672,-19.589 c 0.148,0 0.269,0.12 0.269,0.269 0,0.065 -0.023,0.125 -0.062,0.171 -0.023,0.028 -0.052,0.051 -0.085,0.068 -0.037,0.019 -0.078,0.03 -0.122,0.03 -0.148,0 -0.269,-0.121 -0.269,-0.269 0,-0.149 0.121,-0.269 0.269,-0.269 z m -1.542,17 h 3.291 v -6.574 h -3.291 v 6.574 z m -3.318,0 h 2.664 v -6.574 h -2.664 v 6.574 z m 14.49,0 h 2.647 v -6.574 h -2.647 v 6.574 z m -3.944,0 h 3.291 v -6.574 h -3.291 v 6.574 z m -14.491,2.642 1.327,0.002 v -9.219 h -1.327 v 9.217 z m -1.303,-0.002 h 0.65 v -9.215 h -0.65 v 9.215 z m 4.054,0.004 0.54,-0.684 v -8.535 h -1.31 v 9.219 h 0.77 z m 11.086,-0.722 -0.583,0.72 -0.431,0.002 v -9.219 h 1.014 v 8.497 z m -2.071,0.722 -0.559,-0.707 v -8.512 h 0.963 v 9.219 h -0.404 z m 12.567,-0.002 -0.973,0.002 v -9.219 h 0.973 v 9.217 z m 2.05,-0.002 -1.397,0.002 v -9.217 h 1.397 v 9.215 z m -5.31,-0.658 1.168,1.3 h 4.799 l 0.003,-0.642 h -0.007 v -9.215 h 0.231 l -0.971,-1.296 h -10.503 v -0.001 l -0.29,-0.678 h -2.332 c -0.154,-0.282 -0.467,-0.372 -0.753,-0.331 l -0.008,0.001 c -0.229,0.035 -0.44,0.155 -0.537,0.33 h -2.305 l -0.288,0.675 v 0.004 h -10.904 l -0.9689995,1.296 h 0.636 v 9.535 l -0.005,0.322 h 4.7649995 l 1.169,-1.3 h 6.572 l 1.168,1.3 1.608,-0.009 1.168,-1.291 h 6.585 z m 1.222,0.662 -0.558,-0.705 v -8.514 h 0.969 v 9.219 h -0.411 z m 5.038,-1.32 h 0.346 v 1.988 h -0.346 v -1.988 z m -22.068,1.265 c 0.759,0 1.375,0.617 1.375,1.376 0,0.759 -0.616,1.376 -1.375,1.376 -0.76,0 -1.376,-0.617 -1.376,-1.376 0,-0.759 0.616,-1.376 1.376,-1.376 z m 3.662,-19.082 3.483,7.613"
   id="path11"
   inkscape:connector-curvature="0"
   style="fill:none;stroke:#000000;stroke-width:0.155;stroke-miterlimit:2.61299992" />
<polyline
   clip-rule="evenodd"
   points="36.488,26.154 38.59,26.154 38.59,30.957 36.488,30.957 36.488,26.154   "
   id="polyline13"
   style="fill-rule:evenodd"
   transform="translate(0.09963652,0.09902154)" />
<polyline
   clip-rule="evenodd"
   points="10.163,26.115 11.433,26.115 11.433,30.957 10.164,30.957 10.163,26.115   "
   id="polyline15"
   style="fill-rule:evenodd"
   transform="translate(0.09963652,0.09902154)" />
<polyline
   clip-rule="evenodd"
   points="20.51,11.632 24.058,19.339 24.314,19.25 20.729,11.516 20.51,11.632 "
   id="polyline17"
   style="fill-rule:evenodd"
   transform="translate(0.09963652,0.09902154)" />
<polygon
   stroke-miterlimit="2.613"
   points="20.51,11.632 24.058,19.339 24.314,19.25 20.729,11.516 "
   id="polygon19"
   style="fill:none;stroke:#000000;stroke-width:0.155;stroke-miterlimit:2.61299992"
   transform="translate(0.09963652,0.09902154)" />
</svg>