<?xml version="1.0" encoding="UTF-8" standalone="no"?>
<!-- Generator: Adobe Illustrator 15.0.2, SVG Export Plug-In . SVG Version: 6.00 Build 0)  -->

<svg
   xmlns:dc="http://purl.org/dc/elements/1.1/"
   xmlns:cc="http://creativecommons.org/ns#"
   xmlns:rdf="http://www.w3.org/1999/02/22-rdf-syntax-ns#"
   xmlns:svg="http://www.w3.org/2000/svg"
   xmlns="http://www.w3.org/2000/svg"
   xmlns:sodipodi="http://sodipodi.sourceforge.net/DTD/sodipodi-0.dtd"
   xmlns:inkscape="http://www.inkscape.org/namespaces/inkscape"
   version="1.0"
   id="Layer_1"
   x="0px"
   y="0px"
   width="50.491234"
   height="50.49379"
   viewBox="0 0 50.491234 50.49379"
   enable-background="new 0 0 50.292 50.293"
   xml:space="preserve"
   inkscape:version="0.48.4 r9939"
   sodipodi:docname="Ajax.svg"><metadata
   id="metadata15"><rdf:RDF><cc:Work
       rdf:about=""><dc:format>image/svg+xml</dc:format><dc:type
         rdf:resource="http://purl.org/dc/dcmitype/StillImage" /></cc:Work></rdf:RDF></metadata><defs
   id="defs13" /><sodipodi:namedview
   pagecolor="#ffffff"
   bordercolor="#666666"
   borderopacity="1"
   objecttolerance="10"
   gridtolerance="10"
   guidetolerance="10"
   inkscape:pageopacity="0"
   inkscape:pageshadow="2"
   inkscape:window-width="1280"
   inkscape:window-height="1001"
   id="namedview11"
   showgrid="false"
   fit-margin-top="0.1"
   fit-margin-bottom="0.1"
   fit-margin-right="0.1"
   fit-margin-left="0.1"
   inkscape:zoom="13.2724"
   inkscape:cx="29.818197"
   inkscape:cy="24.657747"
   inkscape:window-x="-8"
   inkscape:window-y="-8"
   inkscape:window-maximized="1"
   inkscape:current-layer="Layer_1" />
<path
   clip-rule="evenodd"
   d="m 49.382636,22.547417 -21.578,-21.4530002 c -1.419,-1.41300006 -3.836,-1.30700006 -5.368,0.234 L 1.3116366,22.575417 c -1.53199999,1.541 -1.62399999,3.958 -0.203,5.371 l 21.5769994,21.452 c 1.421,1.414 3.837,1.308 5.37,-0.232 l 21.124,-21.248 c 1.533,-1.541 1.623,-3.958 0.203,-5.371"
   id="path3"
   style="fill:#ffd700;fill-opacity:1;fill-rule:evenodd;stroke:none"
   inkscape:connector-curvature="0" />
<path
   clip-rule="evenodd"
   d="m 47.988636,23.466417 -21.094,-20.9740002 c -0.921,-0.914 -2.483,-0.846 -3.475,0.151 L 2.6306366,23.552417 c -0.992,0.998 -1.052,2.562 -0.131,3.476 l 21.0939994,20.974 c 0.92,0.915 2.483,0.846 3.475,-0.151 l 20.789,-20.908 c 0.99,-0.999 1.051,-2.563 0.131,-3.477"
   id="path5"
   style="fill:#ffd700;fill-opacity:1;fill-rule:evenodd;stroke:none"
   inkscape:connector-curvature="0" />
<path
   stroke-miterlimit="2.613"
   d="m 47.989636,23.466417 -21.096,-20.9730002 c -0.92,-0.914 -2.482,-0.847 -3.474,0.15 L 2.6306366,23.553417 c -0.992,0.998 -1.051,2.561 -0.131,3.476 l 21.0939994,20.974 c 0.919,0.914 2.483,0.846 3.475,-0.152 l 20.789,-20.908 c 0.991,-0.999 1.051,-2.563 0.132,-3.477 z"
   id="path7"
   inkscape:connector-curvature="0"
   style="fill:none;stroke:#000000;stroke-width:1.62800002;stroke-miterlimit:2.61299992" />
<path
   clip-rule="evenodd"
   d="m 8.6676366,24.019417 h 1.316 c 1.1949994,-5.224 7.3209994,-4.729 8.4499994,0 h 2.808 c 1.164,-5.317 7.386,-4.808 8.479,0 h 2.75 c 1.195,-5.224 7.322,-4.729 8.451,0 h 1.192 v 4.647 H 8.6676366 v -4.647"
   id="path9"
   inkscape:connector-curvature="0"
   style="fill-rule:evenodd;stroke:none;fill:#000000" />
</svg>