<?xml version="1.0" encoding="UTF-8" standalone="no"?>
<!-- Generator: Adobe Illustrator 15.0.2, SVG Export Plug-In . SVG Version: 6.00 Build 0)  -->

<svg
   xmlns:dc="http://purl.org/dc/elements/1.1/"
   xmlns:cc="http://creativecommons.org/ns#"
   xmlns:rdf="http://www.w3.org/1999/02/22-rdf-syntax-ns#"
   xmlns:svg="http://www.w3.org/2000/svg"
   xmlns="http://www.w3.org/2000/svg"
   xmlns:sodipodi="http://sodipodi.sourceforge.net/DTD/sodipodi-0.dtd"
   xmlns:inkscape="http://www.inkscape.org/namespaces/inkscape"
   version="1.0"
   id="Layer_1"
   x="0px"
   y="0px"
   width="50.491879"
   height="50.493542"
   viewBox="0 0 50.491879 50.493542"
   enable-background="new 0 0 50.292 50.293"
   xml:space="preserve"
   inkscape:version="0.48.4 r9939"
   sodipodi:docname="Ajax.svg"><metadata
   id="metadata15"><rdf:RDF><cc:Work
       rdf:about=""><dc:format>image/svg+xml</dc:format><dc:type
         rdf:resource="http://purl.org/dc/dcmitype/StillImage" /></cc:Work></rdf:RDF></metadata><defs
   id="defs13" /><sodipodi:namedview
   pagecolor="#ffffff"
   bordercolor="#666666"
   borderopacity="1"
   objecttolerance="10"
   gridtolerance="10"
   guidetolerance="10"
   inkscape:pageopacity="0"
   inkscape:pageshadow="2"
   inkscape:window-width="1280"
   inkscape:window-height="1001"
   id="namedview11"
   showgrid="false"
   fit-margin-top="0.1"
   fit-margin-bottom="0.1"
   fit-margin-right="0.1"
   fit-margin-left="0.1"
   inkscape:zoom="9.385004"
   inkscape:cx="15.338023"
   inkscape:cy="25.737435"
   inkscape:window-x="-8"
   inkscape:window-y="-8"
   inkscape:window-maximized="1"
   inkscape:current-layer="Layer_1" />
<path
   clip-rule="evenodd"
   d="m 49.383992,22.547521 -21.578,-21.4529997 c -1.42,-1.41299996 -3.836,-1.30699996 -5.369,0.233 L 1.3119921,22.575521 c -1.53299998,1.541 -1.62399998,3.958 -0.203,5.371 l 21.5769999,21.453 c 1.421,1.412 3.836,1.307 5.37,-0.234 l 21.125,-21.247 c 1.531,-1.542 1.623,-3.958 0.203,-5.371"
   id="path3"
   style="fill:#ffd700;fill-opacity:1;fill-rule:evenodd;stroke:none"
   inkscape:connector-curvature="0" />
<path
   clip-rule="evenodd"
   d="m 47.987992,23.465521 -21.094,-20.9719997 c -0.92,-0.914 -2.483,-0.846 -3.474,0.151 L 2.6309921,23.552521 c -0.992,0.998 -1.051,2.562 -0.131,3.476 l 21.0939999,20.974 c 0.92,0.915 2.483,0.847 3.474,-0.151 l 20.789,-20.908 c 0.992,-0.999 1.051,-2.563 0.131,-3.478"
   id="path5"
   style="fill:#ffd700;fill-opacity:1;fill-rule:evenodd;stroke:none"
   inkscape:connector-curvature="0" />
<path
   stroke-miterlimit="2.613"
   d="m 47.987992,23.466521 -21.094,-20.9729997 c -0.92,-0.915 -2.483,-0.846 -3.475,0.151 L 2.6309921,23.553521 c -0.993,0.999 -1.051,2.563 -0.132,3.477 l 21.0939999,20.973 c 0.919,0.914 2.483,0.846 3.475,-0.151 l 20.789,-20.909 c 0.992,-0.998 1.051,-2.563 0.131,-3.477 z"
   id="path7"
   inkscape:connector-curvature="0"
   style="fill:none;stroke:#000000;stroke-width:1.62800002;stroke-miterlimit:2.61299992" />
<path
   clip-rule="evenodd"
   d="m 10.023992,23.091521 h 6.03 c 2.555,4.673 13.118,6.568 18.473,0 h 5.775 v 5.716 h -30.278 v -5.716"
   id="path9"
   inkscape:connector-curvature="0"
   style="fill-rule:evenodd;stroke:none;fill:#000000" />
</svg>