<?xml version="1.0" encoding="UTF-8" standalone="no"?>
<!-- Generator: Adobe Illustrator 16.0.2, SVG Export Plug-In . SVG Version: 6.00 Build 0)  -->

<svg
   xmlns:dc="http://purl.org/dc/elements/1.1/"
   xmlns:cc="http://creativecommons.org/ns#"
   xmlns:rdf="http://www.w3.org/1999/02/22-rdf-syntax-ns#"
   xmlns:svg="http://www.w3.org/2000/svg"
   xmlns="http://www.w3.org/2000/svg"
   xmlns:sodipodi="http://sodipodi.sourceforge.net/DTD/sodipodi-0.dtd"
   xmlns:inkscape="http://www.inkscape.org/namespaces/inkscape"
   version="1.1"
   id="svg2"
   sodipodi:docname="Ajax.svg"
   inkscape:version="0.48.4 r9939"
   x="0px"
   y="0px"
   width="141.38774"
   height="141.39062"
   viewBox="0 0 141.38774 141.39062"
   enable-background="new 0 0 576.443 665.656"
   xml:space="preserve"><metadata
   id="metadata42"><rdf:RDF><cc:Work
       rdf:about=""><dc:format>image/svg+xml</dc:format><dc:type
         rdf:resource="http://purl.org/dc/dcmitype/StillImage" /></cc:Work></rdf:RDF></metadata><defs
   id="defs40" />
<sodipodi:namedview
   id="namedview42"
   inkscape:current-layer="svg2"
   inkscape:window-y="-8"
   inkscape:window-x="-8"
   fit-margin-bottom="0.1"
   fit-margin-right="0.1"
   inkscape:window-height="1001"
   inkscape:window-width="1280"
   inkscape:pageshadow="2"
   inkscape:pageopacity="0"
   inkscape:window-maximized="1"
   objecttolerance="10"
   fit-margin-top="0.1"
   inkscape:cy="90.364941"
   borderopacity="1"
   showgrid="false"
   inkscape:cx="48.397356"
   bordercolor="#666666"
   inkscape:zoom="2.860606"
   pagecolor="#ffffff"
   guidetolerance="10"
   fit-margin-left="0.1"
   gridtolerance="10">
	</sodipodi:namedview>





<path
   inkscape:connector-curvature="0"
   d="M 138.45567,63.118813 77.880685,2.891313 c -3.98875,-3.965 -10.77125,-3.66999999 -15.07375,0.65625 l -59.3049999,59.6475 c -4.30250024,4.3275 -4.5587502,11.11125 -0.57,15.0775 L 63.506935,138.49881 c 3.98875,3.96625 10.77125,3.67 15.07375,-0.65625 L 137.88692,78.195063 c 4.30125,-4.32625 4.5575,-11.11125 0.56875,-15.07625"
   style="fill:#ffd700;fill-opacity:1;fill-rule:evenodd;stroke:none"
   id="path3079" /><path
   inkscape:connector-curvature="0"
   d="M 134.54817,65.693813 75.328185,6.815063 c -2.5825,-2.5675 -6.97125,-2.37625 -9.75625,0.425 L 7.2094351,65.938813 c -2.785,2.8 -2.95125,7.19125 -0.36875,9.7575 L 66.060685,134.57631 c 2.58125,2.56625 6.97125,2.375 9.755,-0.425 L 134.17942,75.451313 c 2.78375,-2.8 2.95,-7.19125 0.36875,-9.7575"
   style="fill:#ffd700;fill-opacity:1;fill-rule:evenodd;stroke:none"
   id="path3081" /><path
   inkscape:connector-curvature="0"
   d="M 134.54817,65.693813 75.328185,6.815063 c -2.5825,-2.5675 -6.97125,-2.37625 -9.75625,0.425 L 7.2094351,65.938813 c -2.785,2.8 -2.95125,7.19125 -0.36875,9.7575 L 66.060685,134.57631 c 2.58125,2.56625 6.97125,2.375 9.755,-0.425 L 134.17942,75.451313 c 2.78375,-2.8 2.95,-7.19125 0.36875,-9.7575 z"
   style="fill:none;stroke:#000000;stroke-width:4.57500029;stroke-linecap:butt;stroke-linejoin:miter;stroke-miterlimit:22.9260006;stroke-opacity:1;stroke-dasharray:none"
   id="path3083" /><path
   inkscape:connector-curvature="0"
   d="m 62.365685,59.815063 16.79875,0.009 c 0.3975,-0.004 0.6725,0.10375 0.6775,0.46125 l 0.0538,42.963747 11.434995,-0.002 -0.04,-48.366247 c -0.195,-4.985 -1.702495,-6.43375 -8.126245,-6.2775 l -20.99375,0.006 2.4475,-5.32125 c 1.225,-2.87375 -0.9225,-4.04875 -3.0475,-2.77 l -20.215,12.7125 c -1.34375,0.75125 -1.32875,1.78875 0.09,2.54 l 20.125,12.4625 c 1.8725,1.28 4.31,-0.82 3.05625,-3.02875 l -2.26125,-5.38875"
   style="fill:#000000;fill-opacity:1;fill-rule:evenodd;stroke:none"
   id="path3085" /></svg>