<?xml version="1.0" encoding="UTF-8" standalone="no"?>
<!-- Generator: Adobe Illustrator 15.0.2, SVG Export Plug-In . SVG Version: 6.00 Build 0)  -->

<svg
   xmlns:dc="http://purl.org/dc/elements/1.1/"
   xmlns:cc="http://creativecommons.org/ns#"
   xmlns:rdf="http://www.w3.org/1999/02/22-rdf-syntax-ns#"
   xmlns:svg="http://www.w3.org/2000/svg"
   xmlns="http://www.w3.org/2000/svg"
   xmlns:sodipodi="http://sodipodi.sourceforge.net/DTD/sodipodi-0.dtd"
   xmlns:inkscape="http://www.inkscape.org/namespaces/inkscape"
   version="1.0"
   id="Layer_1"
   x="0px"
   y="0px"
   width="50.491772"
   height="50.492439"
   viewBox="0 0 50.491772 50.49244"
   enable-background="new 0 0 50.292 50.293"
   xml:space="preserve"
   inkscape:version="0.48.4 r9939"
   sodipodi:docname="Ajax.svg"><metadata
   id="metadata29"><rdf:RDF><cc:Work
       rdf:about=""><dc:format>image/svg+xml</dc:format><dc:type
         rdf:resource="http://purl.org/dc/dcmitype/StillImage" /></cc:Work></rdf:RDF></metadata><defs
   id="defs27" /><sodipodi:namedview
   pagecolor="#ffffff"
   bordercolor="#666666"
   borderopacity="1"
   objecttolerance="10"
   gridtolerance="10"
   guidetolerance="10"
   inkscape:pageopacity="0"
   inkscape:pageshadow="2"
   inkscape:window-width="1280"
   inkscape:window-height="1001"
   id="namedview25"
   showgrid="false"
   fit-margin-top="0.1"
   fit-margin-bottom="0.1"
   fit-margin-right="0.1"
   fit-margin-left="0.1"
   inkscape:zoom="9.385004"
   inkscape:cx="30.873783"
   inkscape:cy="16.178424"
   inkscape:window-x="-8"
   inkscape:window-y="-8"
   inkscape:window-maximized="1"
   inkscape:current-layer="Layer_1" />
<path
   clip-rule="evenodd"
   d="m 49.383992,22.547417 -21.578,-21.4530002 c -1.421,-1.41300006 -3.837,-1.30700006 -5.369,0.234 L 1.3119919,22.575417 c -1.533,1.541 -1.624,3.956 -0.203,5.37 l 21.5770001,21.453 c 1.422,1.412 3.838,1.307 5.369,-0.234 l 21.125,-21.246 c 1.532,-1.542 1.624,-3.958 0.204,-5.371"
   id="path3"
   style="fill:#ffd700;fill-opacity:1;fill-rule:evenodd;stroke:none"
   inkscape:connector-curvature="0" />
<path
   clip-rule="evenodd"
   d="m 47.988992,23.466417 -21.096,-20.9730002 c -0.92,-0.915 -2.482,-0.846 -3.475,0.151 L 2.6289919,23.553417 c -0.992,0.997 -1.051,2.561 -0.131,3.476 l 21.0940001,20.973 c 0.92,0.914 2.483,0.846 3.476,-0.152 l 20.789,-20.908 c 0.991,-0.998 1.051,-2.562 0.132,-3.476"
   id="path5"
   style="fill:#ffd700;fill-opacity:1;fill-rule:evenodd;stroke:none"
   inkscape:connector-curvature="0" />
<path
   stroke-miterlimit="2.613"
   d="m 47.988992,23.466417 -21.096,-20.9730002 c -0.919,-0.914 -2.483,-0.846 -3.475,0.151 L 2.6289919,23.553417 c -0.992,0.998 -1.051,2.562 -0.131,3.476 l 21.0950001,20.975 c 0.919,0.912 2.482,0.846 3.475,-0.154 l 20.789,-20.908 c 0.991,-0.998 1.05,-2.562 0.132,-3.476 z"
   id="path7"
   inkscape:connector-curvature="0"
   style="fill:none;stroke:#000000;stroke-width:1.62800002;stroke-miterlimit:2.61299992" />
<path
   clip-rule="evenodd"
   d="m 29.575992,20.337417 c 0.395,-0.245 0.913,-0.124 1.158,0.271 0.244,0.395 0.124,0.914 -0.271,1.159 -0.395,0.244 -0.914,0.123 -1.159,-0.272 -0.245,-0.395 -0.124,-0.913 0.272,-1.158 m -0.259,-0.418 c 0.626,-0.388 1.447,-0.195 1.836,0.43 0.388,0.626 0.194,1.447 -0.432,1.835 -0.626,0.388 -1.446,0.196 -1.835,-0.43 -0.388,-0.625 -0.195,-1.447 0.431,-1.835 z"
   id="path9"
   inkscape:connector-curvature="0"
   style="fill-rule:evenodd" />
<path
   stroke-miterlimit="2.613"
   d="m 29.575992,20.337417 c 0.395,-0.245 0.913,-0.124 1.158,0.271 0.244,0.395 0.124,0.914 -0.271,1.159 -0.395,0.244 -0.914,0.123 -1.159,-0.272 -0.245,-0.395 -0.124,-0.913 0.272,-1.158 z m -0.259,-0.418 c 0.626,-0.388 1.447,-0.195 1.836,0.43 0.388,0.626 0.194,1.447 -0.432,1.835 -0.626,0.388 -1.446,0.196 -1.835,-0.43 -0.388,-0.625 -0.195,-1.447 0.431,-1.835 z"
   id="path11"
   inkscape:connector-curvature="0"
   style="fill:none;stroke:#000000;stroke-width:0.155;stroke-miterlimit:2.61299992" />
<path
   clip-rule="evenodd"
   d="m 17.833992,27.143417 c 0.395,-0.244 0.914,-0.123 1.158,0.272 0.245,0.394 0.124,0.913 -0.271,1.157 -0.395,0.244 -0.914,0.123 -1.157,-0.271 -0.245,-0.395 -0.125,-0.914 0.27,-1.158 m -0.258,-0.418 c 0.626,-0.388 1.448,-0.195 1.836,0.43 0.388,0.627 0.195,1.449 -0.432,1.838 -0.625,0.387 -1.446,0.193 -1.835,-0.432 -0.388,-0.625 -0.194,-1.448 0.431,-1.836 z"
   id="path13"
   inkscape:connector-curvature="0"
   style="fill-rule:evenodd" />
<path
   stroke-miterlimit="2.613"
   d="m 17.833992,27.143417 c 0.395,-0.244 0.914,-0.123 1.158,0.272 0.245,0.394 0.124,0.913 -0.271,1.157 -0.395,0.244 -0.914,0.123 -1.157,-0.271 -0.245,-0.395 -0.125,-0.914 0.27,-1.158 z m -0.258,-0.418 c 0.626,-0.388 1.448,-0.195 1.836,0.43 0.388,0.627 0.195,1.449 -0.432,1.838 -0.625,0.387 -1.446,0.193 -1.835,-0.432 -0.388,-0.625 -0.194,-1.448 0.431,-1.836 z"
   id="path15"
   inkscape:connector-curvature="0"
   style="fill:none;stroke:#000000;stroke-width:0.155;stroke-miterlimit:2.61299992" />
<polyline
   clip-rule="evenodd"
   points="13.082,32.133 36.229,18.747 36.231,32.127 13.082,32.133 "
   id="polyline17"
   style="fill-rule:evenodd"
   transform="translate(0.0999919,0.87541674)" />
<polygon
   stroke-miterlimit="2.613"
   points="13.082,32.133 36.229,18.747 36.231,32.127 "
   id="polygon19"
   style="fill:none;stroke:#000000;stroke-width:0.155;stroke-linejoin:round;stroke-miterlimit:2.61299992"
   transform="translate(0.0999919,0.87541674)" />
<path
   clip-rule="evenodd"
   d="m 22.222992,18.579417 c 0.398,0.624 0.797,1.248 1.194,1.872 1.482,-0.854 2.964,-1.708 4.446,-2.561 0.535,-0.309 0.52,-0.508 -0.042,-0.594 -0.858,-0.083 -1.715,-0.167 -2.572,-0.25 -0.271,-0.018 -0.556,0.05 -0.85,0.177 -0.725,0.452 -1.45,0.904 -2.176,1.356 m -3.162,4.051 c 0.156,-0.68 0.314,-1.358 0.536,-2.008 0.192,-0.453 0.456,-0.767 0.77,-0.989 0.487,-0.282 0.977,-0.563 1.466,-0.844 0.39,0.629 0.78,1.258 1.17,1.887 -0.989,0.614 -1.979,1.227 -2.968,1.84 -0.325,0.038 -0.65,0.077 -0.974,0.114 z m -0.392,0.065 c -1.595,1.386 -3.189,2.772 -4.785,4.159 -0.311,0.603 0.196,1.561 0.678,1.408 0.34,0.246 0.678,0.494 1.016,0.742 0.374,0.223 0.589,-0.012 0.73,-0.453 -0.356,-2.147 1.817,-3.352 3.345,-2.074 0.348,0.301 0.747,0.244 1.146,0.008 2.461,-1.45 4.922,-2.899 7.381,-4.349 0.029,-0.094 0.059,-0.188 0.087,-0.282 -0.861,-1.599 1.261,-3.699 2.992,-2.117 0.116,0.161 0.257,0.214 0.425,0.161 0.543,-0.423 1.085,-0.847 1.627,-1.27 -0.106,-0.173 -0.214,-0.346 -0.321,-0.519 -0.255,-0.43 -0.512,-0.859 -0.767,-1.288 -0.195,-0.053 -0.391,-0.106 -0.588,-0.159 l -6.668,-0.236 c -0.143,0.007 -0.267,0.045 -0.373,0.11 l -4.51,2.783 c -0.378,0.299 -0.684,0.655 -0.828,1.138 -0.197,0.746 -0.391,1.492 -0.587,2.238 z"
   id="path21"
   inkscape:connector-curvature="0"
   style="fill-rule:evenodd" />
<path
   stroke-miterlimit="2.613"
   d="m 22.222992,18.579417 c 0.398,0.624 0.797,1.248 1.194,1.872 1.482,-0.854 2.964,-1.708 4.446,-2.561 0.535,-0.309 0.52,-0.508 -0.042,-0.594 -0.858,-0.083 -1.715,-0.167 -2.572,-0.25 -0.271,-0.018 -0.556,0.05 -0.85,0.177 -0.725,0.452 -1.45,0.904 -2.176,1.356 z m -3.162,4.051 c 0.156,-0.68 0.314,-1.358 0.536,-2.008 0.192,-0.453 0.456,-0.767 0.77,-0.989 0.487,-0.282 0.977,-0.563 1.466,-0.844 0.39,0.629 0.78,1.258 1.17,1.887 -0.989,0.614 -1.979,1.227 -2.968,1.84 -0.325,0.038 -0.65,0.077 -0.974,0.114 z m -0.392,0.065 c -1.595,1.386 -3.189,2.772 -4.785,4.159 -0.311,0.603 0.196,1.561 0.678,1.408 0.34,0.246 0.678,0.494 1.016,0.742 0.374,0.223 0.589,-0.012 0.73,-0.453 -0.356,-2.147 1.817,-3.352 3.345,-2.074 0.348,0.301 0.747,0.244 1.146,0.008 2.461,-1.45 4.922,-2.899 7.381,-4.349 0.029,-0.094 0.059,-0.188 0.087,-0.282 -0.861,-1.599 1.261,-3.699 2.992,-2.117 0.116,0.161 0.257,0.214 0.425,0.161 0.543,-0.423 1.085,-0.847 1.627,-1.27 -0.106,-0.173 -0.214,-0.346 -0.321,-0.519 -0.255,-0.43 -0.512,-0.859 -0.767,-1.288 -0.195,-0.053 -0.391,-0.106 -0.588,-0.159 l -6.668,-0.236 c -0.143,0.007 -0.267,0.045 -0.373,0.11 l -4.51,2.783 c -0.378,0.299 -0.684,0.655 -0.828,1.138 -0.197,0.746 -0.391,1.492 -0.587,2.238 z"
   id="path23"
   inkscape:connector-curvature="0"
   style="fill:none;stroke:#000000;stroke-width:0.155;stroke-miterlimit:2.61299992" />
</svg>