<?xml version="1.0" encoding="UTF-8" standalone="no"?>
<!-- Generator: Adobe Illustrator 15.0.2, SVG Export Plug-In . SVG Version: 6.00 Build 0)  -->

<svg
   xmlns:dc="http://purl.org/dc/elements/1.1/"
   xmlns:cc="http://creativecommons.org/ns#"
   xmlns:rdf="http://www.w3.org/1999/02/22-rdf-syntax-ns#"
   xmlns:svg="http://www.w3.org/2000/svg"
   xmlns="http://www.w3.org/2000/svg"
   xmlns:sodipodi="http://sodipodi.sourceforge.net/DTD/sodipodi-0.dtd"
   xmlns:inkscape="http://www.inkscape.org/namespaces/inkscape"
   version="1.0"
   id="Layer_1"
   x="0px"
   y="0px"
   width="50.492382"
   height="50.492439"
   viewBox="0 0 50.492382 50.49244"
   enable-background="new 0 0 50.292 50.293"
   xml:space="preserve"
   inkscape:version="0.48.4 r9939"
   sodipodi:docname="Ajax.svg"><metadata
   id="metadata29"><rdf:RDF><cc:Work
       rdf:about=""><dc:format>image/svg+xml</dc:format><dc:type
         rdf:resource="http://purl.org/dc/dcmitype/StillImage" /></cc:Work></rdf:RDF></metadata><defs
   id="defs27" /><sodipodi:namedview
   pagecolor="#ffffff"
   bordercolor="#666666"
   borderopacity="1"
   objecttolerance="10"
   gridtolerance="10"
   guidetolerance="10"
   inkscape:pageopacity="0"
   inkscape:pageshadow="2"
   inkscape:window-width="1280"
   inkscape:window-height="1001"
   id="namedview25"
   showgrid="false"
   fit-margin-top="0.1"
   fit-margin-bottom="0.1"
   fit-margin-right="0.1"
   fit-margin-left="0.1"
   inkscape:zoom="4.692502"
   inkscape:cx="25.246492"
   inkscape:cy="25.246511"
   inkscape:window-x="-8"
   inkscape:window-y="-8"
   inkscape:window-maximized="1"
   inkscape:current-layer="Layer_1" />
<path
   clip-rule="evenodd"
   d="m 49.384492,22.546417 -21.578,-21.4520002 c -1.42,-1.41300006 -3.836,-1.30700006 -5.37,0.234 L 1.3114917,22.575417 c -1.53200005,1.541 -1.62400005,3.956 -0.202,5.37 l 21.5770003,21.453 c 1.42,1.412 3.836,1.307 5.37,-0.234 l 21.125,-21.246 c 1.531,-1.543 1.623,-3.959 0.203,-5.372"
   id="path3"
   style="fill:#ffd700;fill-opacity:1;fill-rule:evenodd;stroke:none"
   inkscape:connector-curvature="0" />
<path
   clip-rule="evenodd"
   d="m 47.990492,23.463417 -21.094,-20.9710002 c -0.92,-0.914 -2.482,-0.847 -3.474,0.151 L 2.6324917,23.551417 c -0.991,0.999 -1.05,2.562 -0.13,3.476 l 21.0940003,20.975 c 0.919,0.914 2.484,0.846 3.474,-0.152 l 20.789,-20.91 c 0.992,-0.997 1.051,-2.562 0.131,-3.477"
   id="path5"
   style="fill:#ffd700;fill-opacity:1;fill-rule:evenodd;stroke:none"
   inkscape:connector-curvature="0" />
<path
   stroke-miterlimit="2.613"
   d="m 47.990492,23.463417 -21.094,-20.9710002 c -0.92,-0.914 -2.482,-0.847 -3.474,0.151 L 2.6324917,23.551417 c -0.991,0.999 -1.05,2.562 -0.13,3.476 l 21.0940003,20.975 c 0.919,0.914 2.484,0.846 3.474,-0.152 l 20.789,-20.91 c 0.992,-0.997 1.051,-2.562 0.131,-3.477 z"
   id="path7"
   inkscape:connector-curvature="0"
   style="fill:none;stroke:#000000;stroke-width:1.63;stroke-miterlimit:2.61299992" />
<polyline
   clip-rule="evenodd"
   points="37.032,32.908 13.886,19.523 13.883,32.902 37.032,32.908 "
   id="polyline9"
   style="fill-rule:evenodd"
   transform="translate(0.10049165,0.09941674)" />
<polygon
   stroke-miterlimit="2.613"
   points="37.032,32.908 13.886,19.523 13.883,32.902 "
   id="polygon11"
   style="fill:none;stroke:#000000;stroke-width:0.155;stroke-linejoin:round;stroke-miterlimit:2.61299992"
   transform="translate(0.10049165,0.09941674)" />
<path
   clip-rule="evenodd"
   d="m 32.531492,27.039417 c 0.408,0.22 0.564,0.729 0.346,1.14 -0.221,0.41 -0.73,0.564 -1.141,0.344 -0.408,-0.219 -0.563,-0.729 -0.344,-1.139 0.219,-0.408 0.729,-0.564 1.139,-0.345 m 0.232,-0.432 c 0.648,0.347 0.893,1.156 0.547,1.805 -0.348,0.648 -1.156,0.895 -1.805,0.547 -0.65,-0.348 -0.895,-1.156 -0.547,-1.807 0.348,-0.649 1.155,-0.893 1.805,-0.545 z"
   id="path13"
   inkscape:connector-curvature="0"
   style="fill-rule:evenodd" />
<path
   stroke-miterlimit="2.613"
   d="m 32.531492,27.039417 c 0.408,0.22 0.564,0.729 0.346,1.14 -0.221,0.41 -0.73,0.564 -1.141,0.344 -0.408,-0.219 -0.563,-0.729 -0.344,-1.139 0.219,-0.408 0.729,-0.564 1.139,-0.345 z m 0.232,-0.432 c 0.648,0.347 0.893,1.156 0.547,1.805 -0.348,0.648 -1.156,0.895 -1.805,0.547 -0.65,-0.348 -0.895,-1.156 -0.547,-1.807 0.348,-0.649 1.155,-0.893 1.805,-0.545 z"
   id="path15"
   inkscape:connector-curvature="0"
   style="fill:none;stroke:#000000;stroke-width:0.155;stroke-miterlimit:2.61299992" />
<path
   clip-rule="evenodd"
   d="m 20.761492,20.285417 c 0.409,0.219 0.563,0.73 0.345,1.139 -0.219,0.41 -0.729,0.564 -1.139,0.345 -0.41,-0.219 -0.564,-0.729 -0.345,-1.139 0.219,-0.41 0.728,-0.565 1.139,-0.345 m 0.23,-0.434 c 0.65,0.347 0.895,1.155 0.548,1.804 -0.348,0.649 -1.155,0.894 -1.805,0.547 -0.648,-0.348 -0.894,-1.155 -0.547,-1.805 0.348,-0.649 1.156,-0.893 1.804,-0.546 z"
   id="path17"
   inkscape:connector-curvature="0"
   style="fill-rule:evenodd" />
<path
   stroke-miterlimit="2.613"
   d="m 20.761492,20.285417 c 0.409,0.219 0.563,0.73 0.345,1.139 -0.219,0.41 -0.729,0.564 -1.139,0.345 -0.41,-0.219 -0.564,-0.729 -0.345,-1.139 0.219,-0.41 0.728,-0.565 1.139,-0.345 z m 0.23,-0.434 c 0.65,0.347 0.895,1.155 0.548,1.804 -0.348,0.649 -1.155,0.894 -1.805,0.547 -0.648,-0.348 -0.894,-1.155 -0.547,-1.805 0.348,-0.649 1.156,-0.893 1.804,-0.546 z"
   id="path19"
   inkscape:connector-curvature="0"
   style="fill:none;stroke:#000000;stroke-width:0.155;stroke-miterlimit:2.61299992" />
<path
   clip-rule="evenodd"
   d="m 30.371492,19.796417 c -0.34,0.656 -0.682,1.314 -1.021,1.971 1.48,0.855 2.961,1.71 4.441,2.565 0.535,0.309 0.699,0.196 0.492,-0.334 -0.355,-0.784 -0.713,-1.567 -1.07,-2.351 -0.119,-0.243 -0.322,-0.456 -0.578,-0.647 -0.755,-0.401 -1.509,-0.803 -2.264,-1.204 m -5.091,-0.709 c 0.667,-0.206 1.333,-0.408 2.006,-0.542 0.488,-0.06 0.893,0.011 1.242,0.17 0.488,0.283 0.977,0.565 1.463,0.847 -0.348,0.652 -0.697,1.305 -1.047,1.957 -1.025,-0.549 -2.053,-1.098 -3.078,-1.647 -0.195,-0.262 -0.39,-0.523 -0.586,-0.785 z m -0.253,-0.307 c -1.998,-0.686 -3.996,-1.373 -5.994,-2.06 -0.679,0.033 -1.254,0.951 -0.88,1.292 -0.044,0.417 -0.09,0.833 -0.134,1.25 -0.005,0.435 0.305,0.504 0.757,0.406 1.682,-1.383 3.812,-0.105 3.472,1.857 -0.088,0.451 0.16,0.768 0.566,0.995 2.487,1.404 4.974,2.808 7.46,4.211 0.096,-0.022 0.191,-0.045 0.287,-0.065 0.953,-1.547 3.834,-0.761 3.33,1.53 -0.08,0.182 -0.055,0.33 0.076,0.449 0.637,0.256 1.273,0.514 1.912,0.771 0.096,-0.18 0.191,-0.359 0.289,-0.539 0.244,-0.436 0.486,-0.872 0.73,-1.309 -0.053,-0.195 -0.104,-0.391 -0.158,-0.588 l -3.133,-5.89 c -0.078,-0.12 -0.172,-0.208 -0.283,-0.267 l -4.668,-2.51 c -0.445,-0.179 -0.908,-0.265 -1.398,-0.148 -0.743,0.205 -1.487,0.411 -2.231,0.615 z"
   id="path21"
   inkscape:connector-curvature="0"
   style="fill-rule:evenodd" />
<path
   stroke-miterlimit="2.613"
   d="m 30.371492,19.796417 c -0.34,0.656 -0.682,1.314 -1.021,1.971 1.48,0.855 2.961,1.71 4.441,2.565 0.535,0.309 0.699,0.196 0.492,-0.334 -0.355,-0.784 -0.713,-1.567 -1.07,-2.351 -0.119,-0.243 -0.322,-0.456 -0.578,-0.647 -0.755,-0.401 -1.509,-0.803 -2.264,-1.204 z m -5.091,-0.709 c 0.667,-0.206 1.333,-0.408 2.006,-0.542 0.488,-0.06 0.893,0.011 1.242,0.17 0.488,0.283 0.977,0.565 1.463,0.847 -0.348,0.652 -0.697,1.305 -1.047,1.957 -1.025,-0.549 -2.053,-1.098 -3.078,-1.647 -0.195,-0.262 -0.39,-0.523 -0.586,-0.785 z m -0.253,-0.307 c -1.998,-0.686 -3.996,-1.373 -5.994,-2.06 -0.679,0.033 -1.254,0.951 -0.88,1.292 -0.044,0.417 -0.09,0.833 -0.134,1.25 -0.005,0.435 0.305,0.504 0.757,0.406 1.682,-1.383 3.812,-0.105 3.472,1.857 -0.088,0.451 0.16,0.768 0.566,0.995 2.487,1.404 4.974,2.808 7.46,4.211 0.096,-0.022 0.191,-0.045 0.287,-0.065 0.953,-1.547 3.834,-0.761 3.33,1.53 -0.08,0.182 -0.055,0.33 0.076,0.449 0.637,0.256 1.273,0.514 1.912,0.771 0.096,-0.18 0.191,-0.359 0.289,-0.539 0.244,-0.436 0.486,-0.872 0.73,-1.309 -0.053,-0.195 -0.104,-0.391 -0.158,-0.588 l -3.133,-5.89 c -0.078,-0.12 -0.172,-0.208 -0.283,-0.267 l -4.668,-2.51 c -0.445,-0.179 -0.908,-0.265 -1.398,-0.148 -0.743,0.205 -1.487,0.411 -2.231,0.615 z"
   id="path23"
   inkscape:connector-curvature="0"
   style="fill:none;stroke:#000000;stroke-width:0.155;stroke-miterlimit:2.61299992" />
</svg>