<?xml version="1.0" encoding="UTF-8" standalone="no"?>
<!-- Generator: Adobe Illustrator 15.0.2, SVG Export Plug-In . SVG Version: 6.00 Build 0)  -->

<svg
   xmlns:dc="http://purl.org/dc/elements/1.1/"
   xmlns:cc="http://creativecommons.org/ns#"
   xmlns:rdf="http://www.w3.org/1999/02/22-rdf-syntax-ns#"
   xmlns:svg="http://www.w3.org/2000/svg"
   xmlns="http://www.w3.org/2000/svg"
   xmlns:sodipodi="http://sodipodi.sourceforge.net/DTD/sodipodi-0.dtd"
   xmlns:inkscape="http://www.inkscape.org/namespaces/inkscape"
   version="1.0"
   id="Layer_1"
   x="0px"
   y="0px"
   width="50.908302"
   height="50.909859"
   viewBox="0 0 50.908302 50.90986"
   enable-background="new 0 0 50.708 50.71"
   xml:space="preserve"
   inkscape:version="0.48.4 r9939"
   sodipodi:docname="Ajax.svg"><metadata
   id="metadata17"><rdf:RDF><cc:Work
       rdf:about=""><dc:format>image/svg+xml</dc:format><dc:type
         rdf:resource="http://purl.org/dc/dcmitype/StillImage" /></cc:Work></rdf:RDF></metadata><defs
   id="defs15" /><sodipodi:namedview
   pagecolor="#ffffff"
   bordercolor="#666666"
   borderopacity="1"
   objecttolerance="10"
   gridtolerance="10"
   guidetolerance="10"
   inkscape:pageopacity="0"
   inkscape:pageshadow="2"
   inkscape:window-width="1280"
   inkscape:window-height="1001"
   id="namedview13"
   showgrid="false"
   fit-margin-top="0.1"
   fit-margin-bottom="0.1"
   fit-margin-right="0.1"
   fit-margin-left="0.1"
   inkscape:zoom="9.307829"
   inkscape:cx="33.737167"
   inkscape:cy="17.495104"
   inkscape:window-x="-8"
   inkscape:window-y="-8"
   inkscape:window-maximized="1"
   inkscape:current-layer="Layer_1" />
<path
   clip-rule="evenodd"
   d="m 49.791899,28.17543 -21.756,21.632 c -1.432,1.424 -3.868,1.318 -5.413,-0.236 l -21.301,-21.423 c -1.54500001,-1.554 -1.63800001,-3.991 -0.204,-5.415 l 21.756,-21.6309998 c 1.432,-1.42400001 3.868,-1.31800001 5.414,0.236 l 21.3,21.4219998 c 1.543,1.556 1.636,3.991 0.204,5.415"
   id="path3"
   style="fill:#ffd700;fill-opacity:1;fill-rule:evenodd;stroke:none"
   inkscape:connector-curvature="0" />
<path
   clip-rule="evenodd"
   d="m 48.387899,27.25143 -21.269,21.147 c -0.927,0.922 -2.504,0.853 -3.504,-0.153 l -20.961,-21.082 c -1,-1.006 -1.061,-2.583 -0.133,-3.505 l 21.27,-21.1459998 c 0.927,-0.922 2.504,-0.854 3.504,0.152 l 20.961,21.0819998 c 0.999,1.006 1.06,2.583 0.132,3.505"
   id="path5"
   style="fill:#ffd700;fill-opacity:1;fill-rule:evenodd;stroke:none"
   inkscape:connector-curvature="0" />
<path
   stroke-miterlimit="2.613"
   d="m 48.387899,27.25143 -21.269,21.147 c -0.927,0.922 -2.504,0.853 -3.504,-0.153 l -20.961,-21.082 c -1,-1.006 -1.061,-2.583 -0.133,-3.505 l 21.27,-21.1459998 c 0.927,-0.922 2.504,-0.854 3.504,0.152 l 20.961,21.0819998 c 0.999,1.006 1.06,2.583 0.132,3.505 z"
   id="path7"
   inkscape:connector-curvature="0"
   style="fill:none;stroke:#000000;stroke-width:1.653;stroke-miterlimit:2.61299992" />
<polyline
   clip-rule="evenodd"
   points="19.963,12.311 24.174,12.311 24.174,23.162 24.173,25.325 20.254,29.262   20.254,38.885 16.043,38.885 16.043,26.832 16.096,26.832 19.963,23.214 19.963,12.311 "
   id="polyline9"
   style="fill-rule:evenodd"
   transform="matrix(1,0,0,-1,0.09989899,50.81043)" />
<rect
   x="28.342899"
   y="-38.497429"
   width="4.211"
   height="26.573999"
   id="rect11"
   transform="scale(1,-1)" />
</svg>