<?xml version="1.0" encoding="UTF-8" standalone="no"?>
<!-- Generator: Adobe Illustrator 15.0.2, SVG Export Plug-In . SVG Version: 6.00 Build 0)  -->

<svg
   xmlns:dc="http://purl.org/dc/elements/1.1/"
   xmlns:cc="http://creativecommons.org/ns#"
   xmlns:rdf="http://www.w3.org/1999/02/22-rdf-syntax-ns#"
   xmlns:svg="http://www.w3.org/2000/svg"
   xmlns="http://www.w3.org/2000/svg"
   xmlns:sodipodi="http://sodipodi.sourceforge.net/DTD/sodipodi-0.dtd"
   xmlns:inkscape="http://www.inkscape.org/namespaces/inkscape"
   version="1.0"
   id="Layer_1"
   x="0px"
   y="0px"
   width="50.194874"
   height="50.194748"
   viewBox="0 0 50.194874 50.194747"
   enable-background="new 0 0 49.966 49.991"
   xml:space="preserve"
   inkscape:version="0.48.4 r9939"
   sodipodi:docname="Ajax.svg"><metadata
   id="metadata35"><rdf:RDF><cc:Work
       rdf:about=""><dc:format>image/svg+xml</dc:format><dc:type
         rdf:resource="http://purl.org/dc/dcmitype/StillImage" /></cc:Work></rdf:RDF></metadata><defs
   id="defs33" /><sodipodi:namedview
   pagecolor="#ffffff"
   bordercolor="#666666"
   borderopacity="1"
   objecttolerance="10"
   gridtolerance="10"
   guidetolerance="10"
   inkscape:pageopacity="0"
   inkscape:pageshadow="2"
   inkscape:window-width="1280"
   inkscape:window-height="1001"
   id="namedview31"
   showgrid="false"
   fit-margin-top="0.1"
   fit-margin-bottom="0.1"
   fit-margin-right="0.1"
   fit-margin-left="0.1"
   inkscape:zoom="11.313709"
   inkscape:cx="29.598347"
   inkscape:cy="14.396962"
   inkscape:window-x="-8"
   inkscape:window-y="-8"
   inkscape:window-maximized="1"
   inkscape:current-layer="Layer_1" />
<path
   clip-rule="evenodd"
   d="m 49.092366,22.414498 -21.45,-21.3260003 c -1.412,-1.40399995 -3.815,-1.29999995 -5.338,0.233 L 1.3043661,22.441498 c -1.52300001,1.533 -1.61400001,3.935 -0.202,5.339 l 21.4499999,21.326 c 1.412,1.404 3.815,1.299 5.338,-0.232 l 20.998,-21.121 c 1.526,-1.531 1.616,-3.935 0.204,-5.339"
   id="path3"
   style="fill:#ffd700;fill-opacity:1;fill-rule:evenodd;stroke:none"
   inkscape:connector-curvature="0" />
<path
   clip-rule="evenodd"
   d="m 47.707366,23.327498 -20.969,-20.8500003 c -0.914,-0.909 -2.469,-0.841 -3.455,0.15 L 2.6173661,23.413498 c -0.986,0.991 -1.045,2.546 -0.13,3.455 l 20.9689999,20.85 c 0.914,0.908 2.467,0.84 3.454,-0.15 l 20.668,-20.787 c 0.984,-0.991 1.043,-2.547 0.129,-3.454"
   id="path5"
   style="fill:#ffd700;fill-opacity:1;fill-rule:evenodd;stroke:none"
   inkscape:connector-curvature="0" />
<path
   stroke-miterlimit="2.613"
   d="m 47.707366,23.327498 -20.969,-20.8500003 c -0.914,-0.909 -2.469,-0.841 -3.455,0.15 L 2.6173661,23.413498 c -0.986,0.991 -1.045,2.546 -0.13,3.455 l 20.9689999,20.85 c 0.914,0.908 2.467,0.84 3.454,-0.15 l 20.668,-20.787 c 0.984,-0.991 1.043,-2.547 0.129,-3.454 z"
   id="path7"
   inkscape:connector-curvature="0"
   style="fill:none;stroke:#000000;stroke-width:1.63;stroke-miterlimit:2.61299992" />
<polyline
   clip-rule="evenodd"
   points="9.883,28.608 18.139,28.608 18.139,23.481 12.466,23.481 9.883,28.608   "
   id="polyline9"
   style="fill-rule:evenodd"
   transform="translate(0.11436609,0.10049775)" />
<polygon
   stroke-miterlimit="2.613"
   points="18.139,28.608 18.139,23.481 12.466,23.481 9.883,28.608 "
   id="polygon11"
   style="fill:none;stroke:#000000;stroke-width:0.155;stroke-miterlimit:2.61299992"
   transform="translate(0.11436609,0.10049775)" />
<polyline
   clip-rule="evenodd"
   points="17.631,22.549 19.338,22.549 19.338,24.137 22.66,20.61 21.135,19.084   17.631,22.549 "
   id="polyline13"
   style="fill-rule:evenodd"
   transform="translate(0.11436609,0.10049775)" />
<polygon
   stroke-miterlimit="2.613"
   points="19.338,22.549 19.338,24.137 22.66,20.61 21.135,19.084 17.631,22.549 "
   id="polygon15"
   style="fill:none;stroke:#000000;stroke-width:0.155;stroke-miterlimit:2.61299992"
   transform="translate(0.11436609,0.10049775)" />
<polyline
   clip-rule="evenodd"
   points="40.009,28.608 31.753,28.608 31.753,23.481 37.425,23.481 40.009,28.608   "
   id="polyline17"
   style="fill-rule:evenodd"
   transform="translate(0.11436609,0.10049775)" />
<polygon
   stroke-miterlimit="2.613"
   points="31.753,28.608 31.753,23.481 37.425,23.481 40.009,28.608 "
   id="polygon19"
   style="fill:none;stroke:#000000;stroke-width:0.155;stroke-miterlimit:2.61299992"
   transform="translate(0.11436609,0.10049775)" />
<polyline
   clip-rule="evenodd"
   points="32.259,22.549 30.554,22.549 30.554,24.137 27.231,20.61 28.755,19.084   32.259,22.549 "
   id="polyline21"
   style="fill-rule:evenodd"
   transform="translate(0.11436609,0.10049775)" />
<polygon
   stroke-miterlimit="2.613"
   points="30.554,22.549 30.554,24.137 27.231,20.61 28.755,19.084 32.259,22.549 "
   id="polygon23"
   style="fill:none;stroke:#000000;stroke-width:0.155;stroke-miterlimit:2.61299992"
   transform="translate(0.11436609,0.10049775)" />
<path
   clip-rule="evenodd"
   d="m 31.691366,30.587498 c -0.539,0.57 -1.053,0.57 -1.543,0 -1.188,-1.758 -2.346,-1.568 -3.482,-0.047 -0.85,1.283 -2.724,1.092 -3.342,0.004 -1.313,-2.061 -2.453,-1.504 -3.53,0 -0.367,0.459 -0.875,0.414 -1.427,-0.008 0,0.191 0,0.271 0,0.461 0.542,0.33 1.151,0.383 1.537,0.016 1.267,-1.738 2.003,-1.959 3.082,-0.229 0.643,1.27 3.124,1.51 4.014,0.072 1.146,-1.725 1.994,-1.203 3.143,0.254 0.617,0.5 1.402,0.197 1.555,-0.004 -0.003,-0.173 -0.005,-0.345 -0.007,-0.519"
   id="path25"
   inkscape:connector-curvature="0"
   style="fill-rule:evenodd" />
<path
   clip-rule="evenodd"
   d="m 31.691366,32.546498 c -0.539,0.568 -1.053,0.568 -1.543,0 -1.188,-1.758 -2.346,-1.57 -3.482,-0.049 -0.85,1.285 -2.724,1.094 -3.342,0.006 -1.313,-2.063 -2.453,-1.504 -3.53,0 -0.367,0.459 -0.875,0.414 -1.427,-0.008 0,0.189 0,0.27 0,0.461 0.542,0.328 1.151,0.383 1.537,0.014 1.267,-1.738 2.003,-1.959 3.082,-0.227 0.643,1.27 3.124,1.51 4.014,0.072 1.146,-1.725 1.994,-1.205 3.143,0.254 0.617,0.5 1.402,0.197 1.555,-0.004 -0.003,-0.173 -0.005,-0.345 -0.007,-0.519"
   id="path27"
   inkscape:connector-curvature="0"
   style="fill-rule:evenodd" />
<path
   clip-rule="evenodd"
   d="m 31.691366,34.460498 c -0.539,0.568 -1.053,0.568 -1.543,0 -1.188,-1.758 -2.346,-1.57 -3.482,-0.049 -0.85,1.283 -2.724,1.094 -3.342,0.006 -1.313,-2.063 -2.453,-1.504 -3.53,0 -0.367,0.459 -0.875,0.412 -1.427,-0.008 0,0.189 0,0.27 0,0.461 0.542,0.328 1.151,0.381 1.537,0.014 1.267,-1.738 2.003,-1.959 3.082,-0.229 0.643,1.27 3.124,1.51 4.014,0.074 1.146,-1.725 1.994,-1.205 3.143,0.252 0.617,0.502 1.402,0.197 1.555,-0.002 -0.003,-0.173 -0.005,-0.347 -0.007,-0.519"
   id="path29"
   inkscape:connector-curvature="0"
   style="fill-rule:evenodd" />
</svg>