<?xml version="1.0" encoding="UTF-8" standalone="no"?>
<!-- Generator: Adobe Illustrator 15.0.2, SVG Export Plug-In . SVG Version: 6.00 Build 0)  -->

<svg
   xmlns:dc="http://purl.org/dc/elements/1.1/"
   xmlns:cc="http://creativecommons.org/ns#"
   xmlns:rdf="http://www.w3.org/1999/02/22-rdf-syntax-ns#"
   xmlns:svg="http://www.w3.org/2000/svg"
   xmlns="http://www.w3.org/2000/svg"
   xmlns:sodipodi="http://sodipodi.sourceforge.net/DTD/sodipodi-0.dtd"
   xmlns:inkscape="http://www.inkscape.org/namespaces/inkscape"
   version="1.0"
   id="Layer_1"
   x="0px"
   y="0px"
   width="50.193623"
   height="50.195496"
   viewBox="0 0 50.193622 50.195497"
   enable-background="new 0 0 49.979 49.996"
   xml:space="preserve"
   inkscape:version="0.48.4 r9939"
   sodipodi:docname="Ajax.svg"><metadata
   id="metadata17"><rdf:RDF><cc:Work
       rdf:about=""><dc:format>image/svg+xml</dc:format><dc:type
         rdf:resource="http://purl.org/dc/dcmitype/StillImage" /></cc:Work></rdf:RDF></metadata><defs
   id="defs15" /><sodipodi:namedview
   pagecolor="#ffffff"
   bordercolor="#666666"
   borderopacity="1"
   objecttolerance="10"
   gridtolerance="10"
   guidetolerance="10"
   inkscape:pageopacity="0"
   inkscape:pageshadow="2"
   inkscape:window-width="1280"
   inkscape:window-height="1001"
   id="namedview13"
   showgrid="false"
   fit-margin-top="0.1"
   fit-margin-bottom="0.1"
   fit-margin-right="0.1"
   fit-margin-left="0.1"
   inkscape:zoom="9.4407556"
   inkscape:cx="36.119139"
   inkscape:cy="26.594635"
   inkscape:window-x="-8"
   inkscape:window-y="-8"
   inkscape:window-maximized="1"
   inkscape:current-layer="Layer_1" />
<path
   clip-rule="evenodd"
   d="m 49.090365,22.414998 -21.449,-21.3259998 c -1.412,-1.40499999 -3.815,-1.29999999 -5.337,0.232 L 1.3043651,22.441998 c -1.52299999,1.532 -1.61399999,3.936 -0.202,5.339 l 21.4499999,21.326 c 1.412,1.404 3.814,1.3 5.337,-0.233 l 21,-21.12 c 1.522,-1.532 1.615,-3.935 0.201,-5.339"
   id="path3"
   style="fill:#ffd700;fill-opacity:1;fill-rule:evenodd;stroke:none"
   inkscape:connector-curvature="0" />
<path
   clip-rule="evenodd"
   d="m 47.708365,23.326998 -20.971,-20.8489998 c -0.914,-0.909 -2.468,-0.841 -3.455,0.15 L 2.6153651,23.413998 c -0.984,0.991 -1.044,2.546 -0.13,3.455 l 20.9709999,20.85 c 0.914,0.907 2.468,0.84 3.453,-0.151 l 20.668,-20.786 c 0.986,-0.991 1.045,-2.546 0.131,-3.455"
   id="path5"
   style="fill:#ffd700;fill-opacity:1;fill-rule:evenodd;stroke:none"
   inkscape:connector-curvature="0" />
<path
   stroke-miterlimit="2.613"
   d="m 47.708365,23.326998 -20.971,-20.8489998 c -0.914,-0.909 -2.468,-0.841 -3.455,0.15 L 2.6153651,23.413998 c -0.984,0.991 -1.044,2.546 -0.13,3.455 l 20.9709999,20.85 c 0.914,0.907 2.468,0.84 3.453,-0.151 l 20.668,-20.786 c 0.986,-0.991 1.045,-2.546 0.131,-3.455 z"
   id="path7"
   inkscape:connector-curvature="0"
   style="fill:none;stroke:#000000;stroke-width:1.63;stroke-miterlimit:2.61299992" />
<path
   clip-rule="evenodd"
   d="m 30.501365,22.008998 -0.063,15.61 4.531,0.018 0.059,-15.587 0.291,-0.005 1.479,0.864 c 0.672,0.361 1.477,-0.408 1.053,-1.125 l -4.676,-7.656 c -0.271,-0.421 -0.664,-0.436 -0.941,0.008 l -4.752,7.625 c -0.381,0.607 0.246,1.522 1,1.124 l 1.861,-0.972 c 0.081,-0.031 0.163,-0.011 0.158,0.096"
   id="path9"
   inkscape:connector-curvature="0"
   style="fill-rule:evenodd" />
<path
   clip-rule="evenodd"
   d="m 15.102365,29.478998 0.044,-15.61 4.53,0.013 -0.046,15.588 0.291,0.008 1.482,-0.856 c 0.677,-0.354 1.476,0.419 1.047,1.134 l -4.729,7.625 c -0.273,0.418 -0.665,0.432 -0.939,-0.016 l -4.701,-7.657 c -0.376,-0.61 0.257,-1.52 1.008,-1.116 l 1.854,0.984 c 0.082,0.03 0.164,0.012 0.159,-0.097"
   id="path11"
   inkscape:connector-curvature="0"
   style="fill-rule:evenodd" />
</svg>