<?xml version="1.0" encoding="UTF-8" standalone="no"?>
<!-- Generator: Adobe Illustrator 15.0.2, SVG Export Plug-In . SVG Version: 6.00 Build 0)  -->

<svg
   xmlns:dc="http://purl.org/dc/elements/1.1/"
   xmlns:cc="http://creativecommons.org/ns#"
   xmlns:rdf="http://www.w3.org/1999/02/22-rdf-syntax-ns#"
   xmlns:svg="http://www.w3.org/2000/svg"
   xmlns="http://www.w3.org/2000/svg"
   xmlns:sodipodi="http://sodipodi.sourceforge.net/DTD/sodipodi-0.dtd"
   xmlns:inkscape="http://www.inkscape.org/namespaces/inkscape"
   version="1.0"
   id="Layer_1"
   x="0px"
   y="0px"
   width="50.549999"
   height="25.406"
   viewBox="0 0 50.550001 25.405999"
   enable-background="new 0 0 50.35 25.207"
   xml:space="preserve"
   inkscape:version="0.48.4 r9939"
   sodipodi:docname="Ajax.svg"><metadata
   id="metadata15"><rdf:RDF><cc:Work
       rdf:about=""><dc:format>image/svg+xml</dc:format><dc:type
         rdf:resource="http://purl.org/dc/dcmitype/StillImage" /></cc:Work></rdf:RDF></metadata><defs
   id="defs13" /><sodipodi:namedview
   pagecolor="#ffffff"
   bordercolor="#666666"
   borderopacity="1"
   objecttolerance="10"
   gridtolerance="10"
   guidetolerance="10"
   inkscape:pageopacity="0"
   inkscape:pageshadow="2"
   inkscape:window-width="1280"
   inkscape:window-height="1001"
   id="namedview11"
   showgrid="false"
   fit-margin-top="0.1"
   fit-margin-bottom="0.1"
   fit-margin-right="0.1"
   fit-margin-left="0.1"
   inkscape:zoom="12.552135"
   inkscape:cx="42.255007"
   inkscape:cy="7.2587356"
   inkscape:window-x="-8"
   inkscape:window-y="-8"
   inkscape:window-maximized="1"
   inkscape:current-layer="Layer_1" />
<path
   clip-rule="evenodd"
   d="m 1.871,0.09999899 h 46.808 c 0.975,0 1.771,0.8 1.771,1.77800001 v 21.649 c 0,0.979 -0.797,1.779 -1.771,1.779 H 1.871 c -0.974,0.001 -1.771,-0.8 -1.771,-1.778 v -21.65 C 0.1,0.89999899 0.897,0.09999899 1.871,0.09999899"
   id="path3"
   style="fill:#ffd700;fill-opacity:1;fill-rule:evenodd;stroke:none"
   inkscape:connector-curvature="0" />
<path
   clip-rule="evenodd"
   d="m 2.426,1.327999 h 45.52 c 0.654,0 1.189,0.509 1.189,1.132 v 20.485 c 0,0.623 -0.535,1.133 -1.189,1.133 H 2.426 c -0.653,0 -1.188,-0.51 -1.188,-1.133 v -20.485 c 0,-0.623 0.535,-1.132 1.188,-1.132"
   id="path5"
   style="fill:#ffd700;fill-opacity:1;fill-rule:evenodd;stroke:none"
   inkscape:connector-curvature="0" />
<path
   stroke-miterlimit="2.613"
   d="m 2.426,1.327999 h 45.52 c 0.654,0 1.189,0.509 1.189,1.132 v 20.485 c 0,0.623 -0.535,1.133 -1.189,1.133 H 2.426 c -0.653,0 -1.188,-0.51 -1.188,-1.133 v -20.485 c 0,-0.623 0.535,-1.132 1.188,-1.132 z"
   id="path7"
   inkscape:connector-curvature="0"
   style="fill:none;stroke:#000000;stroke-width:1.60699999;stroke-miterlimit:2.61299992" />
<path
   clip-rule="evenodd"
   d="m 32.833,9.864999 -25.472,0.074 0.021,5.392 25.448,-0.075 0.008,0.347 -1.015,1.767 c -0.422,0.805 0.501,1.755 1.35,1.244 l 9.07,-5.64 c 0.499,-0.328 0.514,-0.793 -0.019,-1.119 l -9.121,-5.587 c -0.728,-0.447 -1.81,0.307 -1.328,1.202 l 1.175,2.206 c 0.036,0.099 0.012,0.197 -0.117,0.189"
   id="path9"
   inkscape:connector-curvature="0"
   style="fill-rule:evenodd" />
</svg>