<?xml version="1.0" encoding="UTF-8" standalone="no"?>
<!-- Generator: Adobe Illustrator 15.0.2, SVG Export Plug-In . SVG Version: 6.00 Build 0)  -->

<svg
   xmlns:dc="http://purl.org/dc/elements/1.1/"
   xmlns:cc="http://creativecommons.org/ns#"
   xmlns:rdf="http://www.w3.org/1999/02/22-rdf-syntax-ns#"
   xmlns:svg="http://www.w3.org/2000/svg"
   xmlns="http://www.w3.org/2000/svg"
   xmlns:sodipodi="http://sodipodi.sourceforge.net/DTD/sodipodi-0.dtd"
   xmlns:inkscape="http://www.inkscape.org/namespaces/inkscape"
   version="1.0"
   id="Layer_1"
   x="0px"
   y="0px"
   width="50.601997"
   height="25.693998"
   viewBox="0 0 50.601999 25.693997"
   enable-background="new 0 0 50.35 25.495"
   xml:space="preserve"
   inkscape:version="0.48.4 r9939"
   sodipodi:docname="Ajax.svg"><metadata
   id="metadata15"><rdf:RDF><cc:Work
       rdf:about=""><dc:format>image/svg+xml</dc:format><dc:type
         rdf:resource="http://purl.org/dc/dcmitype/StillImage" /></cc:Work></rdf:RDF></metadata><defs
   id="defs13" /><sodipodi:namedview
   pagecolor="#ffffff"
   bordercolor="#666666"
   borderopacity="1"
   objecttolerance="10"
   gridtolerance="10"
   guidetolerance="10"
   inkscape:pageopacity="0"
   inkscape:pageshadow="2"
   inkscape:window-width="1280"
   inkscape:window-height="1001"
   id="namedview11"
   showgrid="false"
   fit-margin-top="0.1"
   fit-margin-bottom="0.1"
   fit-margin-right="0.1"
   fit-margin-left="0.1"
   inkscape:zoom="12.552135"
   inkscape:cx="16.621063"
   inkscape:cy="12.775649"
   inkscape:window-x="-8"
   inkscape:window-y="-8"
   inkscape:window-maximized="1"
   inkscape:current-layer="Layer_1" />
<path
   clip-rule="evenodd"
   d="m 1.874,0.09999892 h 46.855 c 0.976,0 1.773,0.809 1.773,1.79799998 V 23.794999 c 0,0.99 -0.798,1.799 -1.773,1.799 H 1.874 c -0.976,0 -1.774,-0.809 -1.774,-1.799 V 1.8979989 C 0.1,0.90899892 0.898,0.09999892 1.874,0.09999892"
   id="path3"
   style="fill:#ffd700;fill-opacity:1;fill-rule:evenodd;stroke:none"
   inkscape:connector-curvature="0" />
<path
   clip-rule="evenodd"
   d="m 2.503,1.5479989 h 45.52 c 0.654,0 1.189,0.509 1.189,1.132 V 23.163999 c 0,0.623 -0.535,1.133 -1.189,1.133 H 2.503 c -0.654,0 -1.189,-0.51 -1.189,-1.133 V 2.6799989 c 0,-0.623 0.535,-1.132 1.189,-1.132"
   id="path5"
   style="fill:#ffd700;fill-opacity:1;fill-rule:evenodd;stroke:none"
   inkscape:connector-curvature="0" />
<path
   stroke-miterlimit="2.613"
   d="m 2.503,1.5479989 h 45.52 c 0.654,0 1.189,0.509 1.189,1.132 V 23.163999 c 0,0.623 -0.535,1.133 -1.189,1.133 H 2.503 c -0.654,0 -1.189,-0.51 -1.189,-1.133 V 2.6799989 c 0,-0.623 0.535,-1.132 1.189,-1.132 z"
   id="path7"
   inkscape:connector-curvature="0"
   style="fill:none;stroke:#000000;stroke-width:1.60699999;stroke-miterlimit:2.61299992" />
<path
   clip-rule="evenodd"
   d="m 35.091,10.568999 -9.924,0.03 -9.923,-0.03 c -0.129,0.008 -0.152,-0.09 -0.116,-0.189 l 1.175,-2.2060001 c 0.481,-0.894 -0.601,-1.649 -1.328,-1.202 L 5.854,12.558999 c -0.534,0.326 -0.519,0.793 -0.019,1.119 l 9.07,5.639 c 0.849,0.512 1.772,-0.438 1.349,-1.243 l -1.015,-1.767 0.007,-0.289 9.921,-0.028 9.922,0.028 0.008,0.289 -1.018,1.767 c -0.421,0.805 0.501,1.755 1.35,1.243 l 9.07,-5.639 c 0.5,-0.326 0.514,-0.793 -0.02,-1.119 l -9.12,-5.5870001 c -0.726,-0.447 -1.808,0.308 -1.328,1.202 l 1.175,2.2060001 c 0.036,0.099 0.014,0.197 -0.115,0.189"
   id="path9"
   inkscape:connector-curvature="0"
   style="fill-rule:evenodd" />
</svg>