<?xml version="1.0" encoding="UTF-8" standalone="no"?>
<!-- Generator: Adobe Illustrator 15.0.2, SVG Export Plug-In . SVG Version: 6.00 Build 0)  -->

<svg
   xmlns:dc="http://purl.org/dc/elements/1.1/"
   xmlns:cc="http://creativecommons.org/ns#"
   xmlns:rdf="http://www.w3.org/1999/02/22-rdf-syntax-ns#"
   xmlns:svg="http://www.w3.org/2000/svg"
   xmlns="http://www.w3.org/2000/svg"
   xmlns:sodipodi="http://sodipodi.sourceforge.net/DTD/sodipodi-0.dtd"
   xmlns:inkscape="http://www.inkscape.org/namespaces/inkscape"
   version="1.0"
   id="Layer_1"
   x="0px"
   y="0px"
   width="50.908802"
   height="50.195099"
   viewBox="0 0 50.908802 50.195101"
   enable-background="new 0 0 50.709 49.996"
   xml:space="preserve"
   inkscape:version="0.48.4 r9939"
   sodipodi:docname="Ajax.svg"><metadata
   id="metadata47"><rdf:RDF><cc:Work
       rdf:about=""><dc:format>image/svg+xml</dc:format><dc:type
         rdf:resource="http://purl.org/dc/dcmitype/StillImage" /></cc:Work></rdf:RDF></metadata><defs
   id="defs45" /><sodipodi:namedview
   pagecolor="#ffffff"
   bordercolor="#666666"
   borderopacity="1"
   objecttolerance="10"
   gridtolerance="10"
   guidetolerance="10"
   inkscape:pageopacity="0"
   inkscape:pageshadow="2"
   inkscape:window-width="1280"
   inkscape:window-height="1001"
   id="namedview43"
   showgrid="false"
   fit-margin-top="0.1"
   fit-margin-bottom="0.1"
   fit-margin-right="0.1"
   fit-margin-left="0.1"
   inkscape:zoom="9.4407556"
   inkscape:cx="18.585589"
   inkscape:cy="19.968965"
   inkscape:window-x="-8"
   inkscape:window-y="-8"
   inkscape:window-maximized="1"
   inkscape:current-layer="Layer_1" />
<path
   clip-rule="evenodd"
   d="m 49.792044,22.414146 -21.757,-21.326 c -1.432,-1.404 -3.868,-1.299 -5.413,0.233 l -21.3000006,21.121 c -1.54500002,1.532 -1.63800002,3.934 -0.205,5.338 l 21.7560006,21.326 c 1.433,1.404 3.869,1.301 5.414,-0.232 l 21.301,-21.121 c 1.544,-1.531 1.636,-3.934 0.204,-5.339"
   id="path3"
   style="fill:#ffd700;fill-opacity:1;fill-rule:evenodd;stroke:none"
   inkscape:connector-curvature="0" />
<path
   clip-rule="evenodd"
   d="m 48.388044,23.326146 -21.269,-20.849 c -0.927,-0.908 -2.504,-0.841 -3.504,0.151 l -20.9620006,20.785 c -1,0.992 -1.059,2.546 -0.132,3.455 l 21.2690006,20.85 c 0.927,0.908 2.504,0.84 3.504,-0.15 l 20.961,-20.785 c 1,-0.993 1.06,-2.548 0.133,-3.457"
   id="path5"
   style="fill:#ffd700;fill-opacity:1;fill-rule:evenodd;stroke:none"
   inkscape:connector-curvature="0" />
<path
   stroke-miterlimit="2.613"
   d="m 48.388044,23.327146 -21.27,-20.85 c -0.928,-0.908 -2.503,-0.84 -3.503,0.151 l -20.9620006,20.786 c -1,0.991 -1.06,2.546 -0.132,3.454 l 21.2680006,20.85 c 0.928,0.908 2.504,0.842 3.504,-0.15 l 20.962,-20.785 c 1,-0.993 1.06,-2.547 0.133,-3.456 z"
   id="path7"
   inkscape:connector-curvature="0"
   style="fill:none;stroke:#000000;stroke-width:1.64100003;stroke-miterlimit:2.61299992" />
<path
   clip-rule="evenodd"
   d="m 11.373044,21.424146 c 4.442,-0.458 8.87,-0.424 13.287,0.018 1.105,0.07 1.275,0.827 1.449,1.634 0.164,0.883 0.139,2.049 -0.191,2.983 -0.142,0.451 -0.453,0.74 -0.879,0.75 l -13.945,-0.002 c -0.582,0.009 -0.889,-0.301 -1.043,-0.746 -0.3060006,-0.782 -0.2620006,-1.989 -0.1820006,-2.983 0.1590006,-1.28 0.8410006,-1.629 1.5040006,-1.654"
   id="path9"
   inkscape:connector-curvature="0"
   style="fill-rule:evenodd" />
<path
   clip-rule="evenodd"
   d="m 23.883044,20.504146 c -4.005,-0.329 -8.11,-0.311 -11.915,-0.002 -0.015,-0.001 -0.013,-0.012 -0.011,-0.024 l 0.806,-2.251 c 0.03,-0.084 0.079,-0.143 0.158,-0.168 3.307,-0.335 6.73,-0.388 9.911,-0.036 0.125,0.013 0.217,0.074 0.262,0.204 l 0.811,2.261 c 0.003,0.01 -0.001,0.016 -0.022,0.016 m -12.936,0.462 c -0.024,0.117 0.025,0.286 0.206,0.318 4.616,-0.431 9.117,-0.383 13.515,0.018 0.267,0.035 0.376,-0.173 0.328,-0.348 -0.344,-1.214 -0.688,-2.418 -1.033,-3.633 -0.053,-0.163 -0.15,-0.298 -0.41,-0.331 -3.678,-0.372 -7.392,-0.458 -11.162,-10e-4 -0.188,0.023 -0.359,0.129 -0.411,0.334 -0.345,1.214 -0.689,2.429 -1.033,3.643 z"
   id="path11"
   inkscape:connector-curvature="0"
   style="fill-rule:evenodd" />
<path
   clip-rule="evenodd"
   d="m 10.702044,26.934146 h 14.614 c 0.678,0 0.738,1.045 0,1.045 h -14.614 c -0.7390006,0 -0.678,-1.045 0,-1.045"
   id="path13"
   inkscape:connector-curvature="0"
   style="fill-rule:evenodd" />
<path
   clip-rule="evenodd"
   d="m 22.547044,28.354146 c -0.054,0.006 -0.088,0.035 -0.092,0.084 0,0.643 10e-4,1.285 10e-4,1.928 0.002,0.268 0.207,0.441 0.482,0.451 0.407,0 0.814,0 1.221,0 0.217,-0.014 0.484,-0.133 0.48,-0.451 0,-0.643 0.001,-1.285 0.001,-1.928 -0.001,-0.045 -0.035,-0.082 -0.091,-0.084 -0.668,0 -1.335,0 -2.002,0"
   id="path15"
   inkscape:connector-curvature="0"
   style="fill-rule:evenodd" />
<path
   clip-rule="evenodd"
   d="m 13.443044,28.354146 c 0.054,0.006 0.088,0.035 0.091,0.084 0,0.643 0,1.285 0,1.928 -0.002,0.268 -0.207,0.441 -0.482,0.451 -0.407,0 -0.814,0 -1.221,0 -0.217,-0.014 -0.484,-0.133 -0.481,-0.451 0,-0.643 0,-1.285 0,-1.928 10e-4,-0.045 0.035,-0.082 0.091,-0.084 0.668,0 1.334,0 2.002,0"
   id="path17"
   inkscape:connector-curvature="0"
   style="fill-rule:evenodd" />
<path
   clip-rule="evenodd"
   d="m 36.130044,13.678146 c -0.103,0.471 -0.205,0.941 -0.31,1.412 -0.937,0.779 -1.625,1.579 -0.583,2.52 0.398,0.59 0.085,1.239 -0.331,1.897 -0.373,0.418 -0.563,0.905 -0.106,1.637 0.154,0.44 0.162,0.826 -0.152,1.097 -0.455,0.449 -0.924,0.887 -0.502,2.032 0.143,0.529 0.059,0.979 -0.255,1.347 -0.392,0.484 -0.589,1.164 -0.761,1.872 -0.801,0.702 -1.459,1.538 -1.596,2.843 -0.215,-0.002 -0.609,0.332 -0.773,0.326 -0.129,0.121 -0.293,0.291 0.074,0.385 l 10.961,-0.16 c 1.922,-1.867 3.846,-3.731 5.77,-5.598 -3.813,-3.87 -7.623,-7.74 -11.436,-11.61"
   id="path19"
   inkscape:connector-curvature="0"
   style="fill-rule:evenodd" />
<path
   stroke-miterlimit="2.613"
   d="m 36.130044,13.678146 c -0.104,0.471 -0.206,0.941 -0.309,1.412 -0.937,0.779 -1.625,1.579 -0.584,2.52 0.398,0.59 0.086,1.239 -0.33,1.896 -0.374,0.418 -0.564,0.904 -0.107,1.637 0.154,0.44 0.162,0.826 -0.152,1.097 -0.455,0.45 -0.924,0.887 -0.502,2.032 0.143,0.53 0.059,0.979 -0.255,1.347 -0.392,0.486 -0.589,1.165 -0.761,1.871 -0.803,0.703 -1.459,1.537 -1.596,2.844 -0.215,-0.002 -0.608,0.332 -0.773,0.326 -0.129,0.121 -0.293,0.291 0.073,0.385 l 10.962,-0.16 c 1.924,-1.865 3.846,-3.731 5.77,-5.597 -3.813,-3.87 -7.623,-7.74 -11.436,-11.61 z"
   id="path21"
   inkscape:connector-curvature="0"
   style="fill:none;stroke:#000000;stroke-width:0.156;stroke-miterlimit:2.61299992" />
<path
   clip-rule="evenodd"
   d="m 33.407044,13.523146 c 0,0 -0.092,-0.061 -0.094,-0.078 l -0.019,-0.016 c -0.035,0.003 -0.002,-0.017 -0.035,-0.014 l -0.004,-0.034 c -0.018,0.001 -0.019,-0.016 -0.021,-0.033 -0.017,10e-4 -0.019,-0.016 -0.019,-0.032 -0.035,0.003 -0.002,-0.018 -0.037,-0.015 l -0.004,-0.033 -0.018,-0.016 c 0,0 -0.035,-0.015 -0.037,-0.032 l -0.035,0.003 c -0.002,-0.034 -0.018,10e-4 -0.021,-0.032 -0.034,0.003 -0.069,0.005 -0.103,0.008 -0.019,0.002 -0.069,0.006 -0.086,0.007 -0.064,0.005 -0.127,0.01 -0.19,0.016 -0.019,10e-4 -0.052,0.004 -0.07,0.005 0,0 -0.032,0.02 -0.03,0.037 -0.018,10e-4 -0.053,0.004 -0.069,0.006 -0.017,0.018 -0.032,0.036 -0.05,0.038 l -0.016,0.018 -0.016,0.019 c 10e-4,0.017 -0.016,0.035 -0.03,0.054 l 0.003,0.034 -0.016,0.018 0.003,0.034 -0.017,0.019 c 0.002,0.017 0.004,0.051 0.006,0.068 0.004,0.051 0.009,0.102 0.014,0.153 0,0.018 0.003,0.051 0.005,0.069 10e-4,0.016 -0.015,0.035 -0.013,0.052 -0.018,0.001 -0.016,0.018 -0.014,0.035 -0.019,0.002 -0.033,0.037 -0.033,0.037 l 0.004,0.034 c -0.035,0.003 0,0.017 -0.033,0.02 -0.029,0.091 -0.025,0.133 -0.016,0.225 0,0.016 0.004,0.051 0.006,0.067 l 0.035,0.015 0.002,0.033 c 0.019,-10e-4 0.039,0.032 0.039,0.032 l 0.004,0.051 c 0.017,-0.001 0.035,0.014 0.053,0.013 l 0.004,0.051 0.003,0.034 c 0.002,0.017 0.003,0.034 0.005,0.051 l 0.001,0.017 0.002,0.017 0.001,0.018 c 0.002,0.016 0.006,0.051 0.006,0.067 0.059,-0.005 0.115,-0.008 0.174,-0.014 0.016,-10e-4 0.051,-0.004 0.068,-0.005 l 0.018,0.016 0.004,0.033 0.021,0.033 0.019,0.015 c 0.035,-0.002 0,0.018 0.035,0.015 0.002,0.017 0.006,0.051 0.006,0.068 0.018,-0.001 0.056,0.03 0.072,0.028 0.002,0.035 0.018,-10e-4 0.021,0.033 0.017,-0.001 0.036,0.014 0.037,0.031 l 0.019,0.016 c 0.018,-0.002 0.053,-0.004 0.069,-0.006 0.052,-0.004 0.104,-0.008 0.155,-0.013 0.018,-10e-4 0.052,-0.003 0.07,-0.005 -0.003,-0.017 0.014,-0.019 0.032,-0.02 l 0.017,-0.019 0.014,-0.035 -0.004,-0.034 c 0.017,-0.018 0.033,-0.037 0.049,-0.055 -0.004,-0.04 -0.008,-0.08 -0.012,-0.119 0,-0.017 -0.004,-0.051 -0.004,-0.069 l 0.016,-0.018 -0.003,-0.034 0.032,-0.037 0.015,-0.018 0.017,-0.019 0.016,-0.018 0.016,-0.019 0.034,-0.003 c -10e-4,-0.017 0.017,-0.018 0.034,-0.02 l 0.015,-0.018 0.035,-0.002 c -0.003,-0.035 0.019,-0.002 0.015,-0.036 l 0.034,-0.003 0.017,-0.018 0.015,-0.019 c -10e-4,-0.017 0.015,-0.035 0.014,-0.052 0.034,-0.003 -0.002,-0.018 0.032,-0.021 0,-0.016 -0.003,-0.051 -0.005,-0.067 -0.005,-0.063 -0.011,-0.125 -0.017,-0.188 0,-0.017 -0.004,-0.051 -0.006,-0.068 l -0.018,-0.016 -0.003,-0.034 c -0.017,0.002 -0.019,-0.015 -0.021,-0.032 -0.037,-0.032 -0.074,-0.063 -0.111,-0.094 -0.035,0.003 -0.002,-0.017 -0.037,-0.014 l -0.002,-0.034 c -0.019,10e-4 -0.02,-0.016 -0.021,-0.033 l -0.019,-0.015 -0.004,-0.051 c -0.018,10e-4 -0.019,-0.016 -0.02,-0.033 l -0.019,-0.015 -0.02,-0.016 c -0.016,10e-4 -0.035,0.003 0.039,0.031"
   id="path23"
   inkscape:connector-curvature="0"
   style="fill-rule:evenodd" />
<path
   stroke-miterlimit="2.613"
   d="m 33.407044,13.523146 c 0,0 -0.092,-0.062 -0.094,-0.079 l -0.019,-0.016 c -0.035,0.003 -0.002,-0.017 -0.035,-0.014 l -0.004,-0.034 c -0.018,10e-4 -0.02,-0.016 -0.02,-0.033 -0.018,10e-4 -0.019,-0.016 -0.021,-0.033 -0.035,0.003 -0.001,-0.017 -0.036,-0.014 l -0.004,-0.034 -0.018,-0.016 c 0,0 -0.036,-0.015 -0.038,-0.032 l -0.034,0.003 c -0.003,-0.034 -0.018,0.001 -0.02,-0.033 -0.035,0.003 -0.069,0.006 -0.104,0.009 -0.017,10e-4 -0.068,0.006 -0.085,0.006 -0.064,0.006 -0.127,0.011 -0.191,0.016 -0.017,0.002 -0.051,0.005 -0.068,0.006 0,0 -0.033,0.02 -0.031,0.037 -0.018,0.001 -0.052,0.004 -0.07,0.006 -0.016,0.019 -0.031,0.037 -0.049,0.038 l -0.016,0.019 -0.016,0.019 c 0,0.016 -0.014,0.035 -0.03,0.054 l 0.003,0.034 -0.016,0.019 0.002,0.034 -0.016,0.019 c 0.002,0.017 0.005,0.051 0.006,0.068 0.004,0.051 0.01,0.102 0.014,0.154 0,0.017 0.004,0.05 0.004,0.067 0.003,0.017 -0.014,0.036 -0.012,0.053 -0.017,0.002 -0.016,0.018 -0.015,0.036 -0.017,10e-4 -0.031,0.037 -0.031,0.037 l 0.002,0.034 c -0.034,0.003 0.002,0.017 -0.032,0.02 -0.029,0.091 -0.026,0.134 -0.016,0.225 0,0.017 0.004,0.051 0.006,0.067 l 0.035,0.015 0.003,0.034 c 0.019,-10e-4 0.037,0.032 0.037,0.032 l 0.004,0.05 c 0.019,-10e-4 0.038,0.015 0.054,0.013 l 0.005,0.051 0.002,0.034 c 0.002,0.017 0.003,0.034 0.005,0.05 l 10e-4,0.017 0.002,0.018 10e-4,0.017 c 0.002,0.017 0.004,0.051 0.006,0.067 0.058,-0.005 0.115,-0.008 0.173,-0.014 0.017,-10e-4 0.052,-0.004 0.069,-0.005 l 0.018,0.015 0.004,0.035 0.02,0.033 0.02,0.015 c 0.034,-0.003 10e-4,0.017 0.036,0.015 0.001,0.017 0.004,0.05 0.006,0.067 0.017,-0.001 0.055,0.03 0.071,0.028 0.002,0.035 0.018,-10e-4 0.021,0.034 0.017,-0.002 0.035,0.014 0.037,0.031 l 0.019,0.016 c 0.018,-0.002 0.053,-0.005 0.069,-0.006 0.052,-0.004 0.104,-0.009 0.155,-0.013 0.018,-0.001 0.053,-0.004 0.069,-0.005 -10e-4,-0.017 0.015,-0.019 0.033,-0.02 l 0.017,-0.019 0.014,-0.036 -0.005,-0.034 c 0.017,-0.018 0.031,-0.037 0.048,-0.055 -0.003,-0.04 -0.006,-0.079 -0.01,-0.12 -0.001,-0.017 -0.004,-0.051 -0.005,-0.067 l 0.015,-0.019 -0.003,-0.034 0.016,-0.019 0.017,-0.019 0.015,-0.018 0.017,-0.019 0.017,-0.018 0.016,-0.019 0.034,-0.002 c -10e-4,-0.018 0.017,-0.019 0.033,-0.021 l 0.017,-0.018 0.034,-0.003 c -0.003,-0.034 0.019,-10e-4 0.015,-0.036 l 0.035,-0.002 0.016,-0.019 0.015,-0.019 c -0.001,-0.017 0.015,-0.035 0.013,-0.053 0.035,-0.002 0,-0.017 0.033,-0.02 0,-0.016 -0.004,-0.051 -0.004,-0.067 -0.006,-0.063 -0.012,-0.125 -0.017,-0.188 -0.002,-0.017 -0.005,-0.05 -0.006,-0.067 l -0.019,-0.016 -0.003,-0.034 c -0.019,10e-4 -0.019,-0.016 -0.021,-0.033 -0.037,-0.032 -0.075,-0.063 -0.112,-0.094 -0.034,0.003 -10e-4,-0.017 -0.035,-0.014 l -0.003,-0.034 c -0.018,0.001 -0.02,-0.016 -0.021,-0.034 l -0.019,-0.015 -0.004,-0.051 c -0.018,0.004 -0.02,-0.013 -0.021,-0.03 l -0.019,-0.016 -0.02,-0.016 c -0.016,0.003 -0.035,0.004 0.039,0.032 z"
   id="path25"
   inkscape:connector-curvature="0"
   style="fill:none;stroke:#000000;stroke-width:0.156;stroke-linejoin:round;stroke-miterlimit:2.61299992" />
<path
   clip-rule="evenodd"
   d="m 32.726044,18.451146 c -0.002,-0.022 0.07,-0.065 0.076,-0.072 l 0.016,-0.002 c 0,0 0.005,-0.015 0.014,-0.016 l -0.002,-0.015 c 0.008,-0.001 0.022,-0.008 0.021,-0.016 0.007,-10e-4 0.014,-0.016 0.021,-0.017 0,-0.007 0.012,-0.023 0.012,-0.03 l 0.015,-0.009 -0.001,-0.015 c 0.007,-0.001 0.006,-0.015 0.005,-0.022 l 0.015,-0.009 -0.002,-0.022 c 0.016,-0.001 0,-0.007 0.014,-0.009 l -0.002,-0.014 c 0.009,-0.001 0.015,-0.017 0.015,-0.024 l 0.015,-0.008 0.006,-0.008 0.008,-0.008 0.006,-0.016 -10e-4,-0.014 c 0.021,-0.024 0.04,-0.056 0.046,-0.078 0.005,-0.023 0.01,-0.06 0.031,-0.084 -0.004,-0.022 0.008,-0.068 0.008,-0.083 l -0.016,-0.272 c -0.006,-0.067 -0.021,-0.147 -0.025,-0.213 l -0.026,-0.043 -0.016,-0.006 c -0.001,-0.015 -0.009,-0.021 -0.011,-0.028 -0.022,0.001 -0.043,-0.071 -0.072,-0.069 l -0.001,-0.015 -0.017,-0.005 c 0,-0.008 -0.009,-0.015 -0.016,-0.014 l -0.002,-0.015 -0.015,10e-4 c -0.002,-0.007 -0.008,-0.013 -0.016,-0.013 -0.002,-0.008 -0.018,-0.021 -0.025,-0.021 0,-0.007 -0.016,-0.005 -0.016,-0.02 -0.009,0 -0.017,-0.006 -0.025,-0.005 l -0.008,-0.015 c -0.008,0.001 -0.039,-0.019 -0.047,-0.026 -0.022,0.002 -0.039,-0.011 -0.054,-0.01 -10e-4,-0.008 -0.03,-0.013 -0.039,-0.012 0,-0.007 -0.03,-0.012 -0.038,-0.019 -0.029,0.003 -0.068,-0.002 -0.098,0.001 -0.001,-0.008 -0.127,0.003 -0.135,0.003 l -0.538,0.037 c -0.067,0.005 -0.164,0.013 -0.238,0.019 -0.038,0.004 -0.09,0 -0.128,0.003 -0.037,0.003 -0.107,-0.021 -0.15,-0.017 -0.008,0 -0.016,-0.006 -0.024,-0.005 0,-0.008 -0.075,-0.009 -0.091,-0.008 0,-0.007 -0.101,-0.044 -0.116,-0.043 0,-0.007 -0.038,-0.018 -0.038,-0.018 l -0.03,0.002 c -0.017,-0.014 -0.086,-0.038 -0.108,-0.035 -0.008,-0.008 -0.063,-0.026 -0.076,-0.024 -0.002,-0.015 -0.107,-0.021 -0.123,-0.02 -0.014,0.001 -0.083,-0.008 -0.098,-0.014 l -0.045,0.004 c 0,-0.008 -0.098,0 -0.113,10e-4 -0.037,0.003 -0.149,0.005 -0.178,0.022 -0.021,0.01 -0.164,0.021 -0.16,0.058 l -0.016,10e-4 c 10e-4,0.008 -0.021,0.01 -0.029,0.01 0.002,0.015 -0.006,0 -0.006,0.015 -0.008,10e-4 -0.022,0.01 -0.021,0.017 -0.014,0.001 -0.036,0.01 -0.045,0.011 0.003,0.015 -0.008,0.001 -0.006,0.015 -0.015,0.001 -0.069,0.058 -0.068,0.072 -0.021,0.003 -0.035,0.026 -0.051,0.027 l 0.002,0.014 c -0.008,0.001 -0.021,0.017 -0.029,0.018 0.001,0.007 0.003,0.022 -0.013,0.023 0.002,0.022 -0.033,0.054 -0.046,0.071 l -0.023,10e-4 -0.007,0.008 -0.005,0.023 -0.014,0.009 c 0,0.022 -0.033,0.054 -0.033,0.069 l -0.014,0.008 -0.007,0.016 c 0.002,0.015 -0.013,0.023 -0.011,0.038 l -0.016,0.009 c 0.002,0.006 -0.012,0.023 -0.012,0.03 -0.015,0.002 -0.021,0.024 -0.035,0.025 l -0.008,0.008 c 0.002,0.007 -0.005,0.016 -0.014,0.016 l 0.002,0.015 c -0.016,0.001 -0.04,0.063 -0.063,0.064 0,0.008 -0.014,0.016 -0.014,0.016 0.002,0.015 -0.02,0.031 -0.02,0.047 -0.006,0 -0.021,0.009 -0.021,0.016 -0.007,10e-4 -0.021,0.009 -0.028,0.009 0,0.015 -0.015,0.009 -0.014,0.031 -0.007,0.001 -0.035,0.025 -0.033,0.033 -0.009,0 -0.015,0.008 -0.015,0.015 -0.008,0.001 -0.015,0.009 -0.021,0.017 l -0.016,10e-4 c 0,0 -0.006,0.015 -0.014,0.016 l 0.002,0.015 c -0.016,0.002 0,0.008 -0.014,0.009 v 0.014 l -0.006,0.008 c -0.016,0.002 0,0.008 -0.016,0.009 0.005,0.052 0.003,0.118 0.007,0.17 l 0.005,0.044 c 0.002,0.029 0.057,0.144 0.064,0.15 l 0.002,0.022 c 0.018,0.029 0.074,0.098 0.1,0.111 0.01,0.022 0.043,0.056 0.043,0.071 0.031,0.019 0.066,0.069 0.098,0.095 0.025,0.02 0.074,0.068 0.091,0.089 0.041,0.041 0.13,0.116 0.177,0.149 0.032,0.019 0.073,0.061 0.113,0.08 0.023,0.013 0.072,0.054 0.102,0.066 0.016,0.006 0.049,0.026 0.072,0.038 0.016,0.006 0.039,0.027 0.055,0.033 l 0.094,0.051 c 0.024,0.014 0.08,0.046 0.103,0.044 0,0.015 0.142,0.085 0.158,0.091 0.022,0.006 0.067,0.017 0.084,0.03 0.016,0.014 0.071,0.046 0.094,0.044 0.009,0.007 0.103,0.058 0.126,0.057 0,0 0.086,0.052 0.094,0.052 0.002,0.014 0.094,0.044 0.096,0.059 0.029,-0.003 0.07,0.031 0.092,0.029 0.001,0.007 0.023,0.013 0.031,0.019 0.023,0.013 0.047,0.019 0.047,0.034 0.023,-0.002 0.154,0.032 0.171,0.045 0.075,-0.006 0.174,0.016 0.249,0.01 0.037,0.011 0.135,0.003 0.188,-0.001 l 0.096,-0.008 c 0.037,-0.003 0.074,-0.021 0.104,-0.023 -0.001,-0.008 0.063,-0.042 0.071,-0.043 -10e-4,-0.007 0.021,-0.016 0.02,-0.024 0.016,-0.001 0.022,-0.016 0.036,-0.018 -10e-4,-0.007 0.007,-0.015 0.015,-0.015 -0.002,-0.008 0.027,-0.025 0.035,-0.026 0,-0.007 0.014,-0.008 0.014,-0.023 l 0.006,-0.008 0.015,-0.001 c 0.007,-0.008 0.015,-0.024 0.021,-0.024 -0.002,-0.022 0.035,-0.04 0.033,-0.055 l 0.008,-0.008 0.013,-0.016 c 0.017,-0.001 0.028,-0.031 0.026,-0.039 0.016,-0.001 0.021,-0.017 0.021,-0.024 0.014,-10e-4 0.033,-0.054 0.055,-0.056 0,-0.008 0.014,-0.016 0.014,-0.024 0.021,-0.009 0.074,-0.087 0.088,-0.11 0.006,-0.016 0.035,-0.107 0.052,-0.108 l -0.003,-0.022 c 0.008,-10e-4 0.007,-0.016 0.006,-0.023 0.016,-10e-4 -10e-4,-0.008 0.016,-0.009 l -0.002,-0.022 0.013,-0.016 -0.001,-0.014 c 0.008,-10e-4 0.007,-0.008 0.006,-0.016 0.016,-0.001 0.012,-0.038 0.027,-0.039 l -0.002,-0.022 c 0.008,-0.001 0.002,-0.074 0,-0.089 -0.002,-0.027 -0.014,-0.123 0.002,-0.141 0.036,-0.003 0.059,-0.057 0.093,-0.06"
   id="path27"
   inkscape:connector-curvature="0"
   style="fill-rule:evenodd" />
<path
   stroke-miterlimit="2.613"
   d="m 32.726044,18.451146 c -0.002,-0.021 0.069,-0.064 0.076,-0.072 l 0.016,-10e-4 c 0,0 0.006,-0.016 0.014,-0.016 l -0.002,-0.016 c 0.008,0 0.021,-0.008 0.021,-0.016 0.008,-10e-4 0.014,-0.016 0.021,-0.017 0,-0.007 0.012,-0.023 0.012,-0.03 l 0.015,-0.009 -0.001,-0.015 c 0.008,-0.001 0.005,-0.015 0.005,-0.023 l 0.015,-0.008 -0.002,-0.023 c 0.015,-10e-4 0,-0.007 0.014,-0.008 l -0.001,-0.015 c 0.009,-0.001 0.015,-0.017 0.013,-0.024 l 0.016,-0.008 0.006,-0.008 0.008,-0.008 0.006,-0.016 -0.002,-0.015 c 0.021,-0.024 0.041,-0.056 0.047,-0.078 0.005,-0.023 0.01,-0.061 0.03,-0.084 -0.002,-0.022 0.009,-0.067 0.008,-0.083 l -0.015,-0.272 c -0.006,-0.066 -0.021,-0.147 -0.025,-0.213 l -0.026,-0.042 -0.015,-0.006 c -0.002,-0.015 -0.011,-0.021 -0.012,-0.029 -0.021,0.002 -0.043,-0.07 -0.072,-0.067 l -0.001,-0.016 -0.017,-0.005 c 0,-0.008 -0.009,-0.015 -0.016,-0.014 l -0.002,-0.014 -0.015,10e-4 c -0.002,-0.007 -0.009,-0.014 -0.017,-0.014 -10e-4,-0.007 -0.017,-0.021 -0.024,-0.02 -10e-4,-0.007 -0.016,-0.006 -0.018,-0.021 -0.006,0.001 -0.016,-0.006 -0.022,-0.005 l -0.009,-0.014 c -0.008,0 -0.039,-0.02 -0.047,-0.026 -0.021,0.001 -0.038,-0.012 -0.053,-0.011 -0.002,-0.008 -0.031,-0.013 -0.039,-0.012 0,-0.007 -0.031,-0.012 -0.039,-0.019 -0.03,0.003 -0.067,-0.002 -0.098,0.001 -0.001,-0.008 -0.128,0.003 -0.135,0.003 l -0.538,0.037 c -0.067,0.006 -0.164,0.014 -0.238,0.019 -0.038,0.004 -0.091,0 -0.127,0.003 -0.038,0.004 -0.108,-0.021 -0.152,-0.017 -0.007,10e-4 -0.015,-0.006 -0.022,-0.005 -0.002,-0.008 -0.076,-0.009 -0.092,-0.008 0,-0.007 -0.1,-0.044 -0.116,-0.043 0,-0.007 -0.038,-0.019 -0.038,-0.019 l -0.03,0.003 c -0.017,-0.014 -0.086,-0.038 -0.108,-0.036 -0.009,-0.007 -0.063,-0.025 -0.077,-0.024 -0.001,-0.014 -0.106,-0.021 -0.122,-0.02 -0.015,10e-4 -0.084,-0.008 -0.099,-0.014 l -0.044,0.004 c -10e-4,-0.007 -0.098,0.001 -0.113,0.001 -0.037,0.003 -0.15,0.005 -0.178,0.023 -0.021,0.009 -0.164,0.021 -0.16,0.057 l -0.016,0.001 c 0.002,0.007 -0.021,0.009 -0.029,0.009 0.002,0.016 -0.007,0.001 -0.007,0.016 -0.007,0.001 -0.021,0.01 -0.021,0.017 -0.015,10e-4 -0.037,0.01 -0.044,0.011 10e-4,0.015 -0.008,10e-4 -0.007,0.015 -0.014,0.002 -0.069,0.059 -0.068,0.072 -0.022,0.002 -0.035,0.026 -0.051,0.027 l 0.002,0.014 c -0.008,10e-4 -0.021,0.017 -0.029,0.018 0.002,0.007 0.002,0.022 -0.013,0.024 0.002,0.021 -0.033,0.054 -0.046,0.07 l -0.023,0.001 -0.006,0.008 -0.006,0.023 -0.015,0.009 c 0.002,0.022 -0.032,0.055 -0.032,0.068 l -0.014,0.009 -0.006,0.016 c 0,0.014 -0.014,0.023 -0.013,0.038 l -0.015,0.009 c 0.002,0.006 -0.013,0.023 -0.012,0.03 -0.015,0.002 -0.021,0.023 -0.036,0.025 l -0.006,0.008 c 0,0.007 -0.006,0.016 -0.015,0.016 l 0.002,0.015 c -0.016,10e-4 -0.039,0.063 -0.063,0.063 0,0.008 -0.014,0.016 -0.014,0.016 0.002,0.015 -0.02,0.032 -0.02,0.047 -0.006,0 -0.021,0.01 -0.021,0.017 -0.007,0.001 -0.021,0.009 -0.029,0.009 0.002,0.015 -0.013,0.009 -0.013,0.031 -0.006,10e-4 -0.035,0.026 -0.035,0.033 -0.006,0.001 -0.013,0.009 -0.013,0.016 -0.008,10e-4 -0.015,0.009 -0.021,0.017 l -0.016,0.001 c 0,0 -0.006,0.015 -0.014,0.016 l 0.002,0.015 c -0.016,0.001 0,0.007 -0.015,0.009 l 10e-4,0.014 -0.007,0.008 c -0.015,0.002 0.001,0.008 -0.015,0.009 0.004,0.052 0.004,0.118 0.007,0.17 l 0.005,0.045 c 0.002,0.029 0.057,0.143 0.064,0.15 l 0.001,0.022 c 0.019,0.029 0.077,0.098 0.101,0.111 0.01,0.021 0.043,0.056 0.043,0.071 0.031,0.019 0.066,0.068 0.098,0.095 0.024,0.02 0.074,0.068 0.092,0.089 0.039,0.041 0.129,0.115 0.177,0.148 0.031,0.02 0.072,0.062 0.112,0.081 0.022,0.013 0.072,0.053 0.102,0.065 0.017,0.006 0.048,0.026 0.072,0.039 0.015,0.006 0.039,0.027 0.055,0.033 l 0.094,0.051 c 0.024,0.014 0.08,0.047 0.102,0.044 0.002,0.015 0.143,0.084 0.158,0.092 0.023,0.005 0.068,0.016 0.085,0.03 0.017,0.014 0.071,0.045 0.094,0.043 0.008,0.007 0.103,0.059 0.126,0.057 0,0 0.086,0.052 0.094,0.052 0.002,0.015 0.094,0.043 0.096,0.06 0.029,-0.003 0.07,0.031 0.092,0.029 0,0.008 0.023,0.013 0.031,0.02 0.023,0.013 0.047,0.019 0.048,0.033 0.023,-10e-4 0.153,0.033 0.169,0.046 0.076,-0.006 0.174,0.016 0.25,0.01 0.037,0.012 0.135,0.004 0.188,-10e-4 l 0.097,-0.008 c 0.037,-0.003 0.072,-0.021 0.104,-0.023 -0.001,-0.008 0.063,-0.042 0.071,-0.042 0,-0.008 0.021,-0.017 0.021,-0.024 0.015,-0.002 0.021,-0.017 0.035,-0.018 0,-0.008 0.007,-0.016 0.015,-0.016 -0.002,-0.008 0.027,-0.025 0.035,-0.026 0,-0.008 0.014,-0.008 0.014,-0.023 l 0.006,-0.008 0.016,-10e-4 c 0.007,-0.009 0.013,-0.024 0.02,-0.025 -0.002,-0.022 0.035,-0.04 0.033,-0.055 l 0.008,-0.008 0.013,-0.016 c 0.017,-10e-4 0.028,-0.032 0.026,-0.039 0.016,-0.001 0.021,-0.017 0.021,-0.024 0.015,-0.001 0.033,-0.055 0.055,-0.057 0,-0.008 0.014,-0.016 0.014,-0.023 0.021,-0.009 0.075,-0.087 0.088,-0.11 0.006,-0.016 0.035,-0.107 0.052,-0.108 l -0.002,-0.022 c 0.007,-0.001 0.006,-0.016 0.005,-0.022 0.016,-0.001 0,-0.008 0.016,-0.009 l -0.002,-0.021 0.013,-0.016 -0.001,-0.015 c 0.008,-0.001 0.007,-0.008 0.006,-0.016 0.016,0 0.012,-0.037 0.026,-0.039 l -10e-4,-0.022 c 0.007,-10e-4 10e-4,-0.075 0,-0.089 -0.002,-0.027 -0.014,-0.122 0.003,-0.141 0.034,-0.005 0.057,-0.059 0.092,-0.062 z"
   id="path29"
   inkscape:connector-curvature="0"
   style="fill:none;stroke:#000000;stroke-width:0.156;stroke-linejoin:round;stroke-miterlimit:2.61299992" />
<path
   clip-rule="evenodd"
   d="m 29.900044,23.023146 c -0.021,10e-4 -0.021,-0.019 -0.023,-0.039 -0.041,0.004 -0.002,-0.02 -0.043,-0.017 l -0.004,-0.04 c -0.021,0.002 -0.021,-0.019 -0.023,-0.039 -0.021,0.002 -0.022,-0.018 -0.024,-0.038 l -0.021,-0.019 c -0.043,0.004 -0.004,-0.02 -0.043,-0.017 l -0.004,-0.04 c -0.041,0.003 -0.002,-0.02 -0.043,-0.017 l -0.004,-0.04 -0.021,-0.019 -0.043,-0.017 -0.021,-0.018 c -0.004,-0.041 -0.021,10e-4 -0.024,-0.039 l -0.041,0.003 c -0.003,-0.04 -0.021,0.002 -0.024,-0.039 l -0.04,0.004 c -0.002,-0.02 -0.022,-0.019 -0.043,-0.017 -0.001,-0.021 -0.022,-0.018 -0.042,-0.017 l -0.023,-0.019 c -0.02,0.003 -0.061,0.005 -0.08,0.007 l -0.022,-0.018 -0.021,0.001 -0.023,0.002 -0.021,0.002 -0.021,0.001 -0.02,0.003 c -0.041,0.002 -0.081,0.006 -0.122,0.009 -0.021,0.002 -0.062,0.006 -0.082,0.007 -0.075,0.006 -0.15,0.012 -0.226,0.018 -0.021,0.002 -0.061,0.005 -0.082,0.007 l -0.018,0.022 -0.062,0.005 -0.019,0.021 -0.041,0.004 -0.017,0.042 -0.02,0.022 -0.019,0.021 c -0.04,0.004 0.002,0.021 -0.039,0.024 0.002,0.02 -0.015,0.063 -0.036,0.064 l 0.004,0.04 c -0.02,0.003 -0.02,0.023 -0.018,0.043 -0.021,0.001 -0.019,0.021 -0.017,0.041 10e-4,0.021 -0.017,0.043 -0.016,0.063 l -0.019,0.022 0.004,0.04 0.002,0.041 0.002,0.02 0.002,0.02 0.002,0.02 c 0.002,0.02 0.005,0.06 0.007,0.081 l -0.019,0.022 0.006,0.06 c -0.021,0.002 -0.02,0.023 -0.019,0.043 -0.021,0.001 -0.037,0.043 -0.037,0.043 l 0.005,0.041 -0.041,0.023 -0.017,0.042 -0.017,0.042 -0.018,0.042 0.005,0.061 -0.019,0.022 0.004,0.04 10e-4,0.02 0.002,0.02 10e-4,0.02 c 0.003,0.021 0.005,0.061 0.008,0.082 l -0.02,0.021 0.004,0.04 c -0.04,0.004 0.002,0.021 -0.039,0.024 10e-4,0.02 0.005,0.061 0.007,0.081 0.005,0.06 0.011,0.121 0.015,0.181 0.002,0.021 0.006,0.062 0.006,0.082 l 0.024,0.039 0.046,0.056 0.006,0.061 0.022,0.018 0.003,0.041 c 0.041,-0.003 0.002,0.02 0.043,0.017 l 0.003,0.04 0.024,0.039 0.041,-0.004 0.021,0.019 0.002,0.02 0.044,0.037 0.044,0.037 0.065,0.035 0.022,0.019 c 0.002,0.041 0.021,-10e-4 0.023,0.039 0.041,-0.004 0.064,0.035 0.066,0.055 l 0.062,-0.005 c 0.003,0.041 0.021,-0.001 0.022,0.039 l 0.043,0.017 c 0.021,-10e-4 0.063,-0.005 0.082,-0.006 0.002,0.02 0.045,0.036 0.045,0.036 l 0.041,-0.003 0.021,0.018 0.021,-0.001 0.021,-0.002 c 0.034,-0.002 0.068,-0.005 0.103,-0.008 0.02,-0.002 0.061,-0.005 0.082,-0.007 0.074,-0.005 0.149,-0.012 0.225,-0.018 0.02,-0.002 0.061,-0.005 0.081,-0.007 -0.003,-0.04 0.021,-0.001 0.017,-0.042 l 0.043,-0.003 c -0.002,-0.02 0.018,-0.022 0.037,-0.024 l 0.02,-0.022 c -0.004,-0.04 0.021,-0.001 0.017,-0.042 l 0.042,-0.003 -0.004,-0.04 0.02,-0.022 0.039,-0.024 c 0.02,-0.001 0.039,-0.023 0.059,-0.025 l 0.018,-0.042 0.041,-0.003 -0.004,-0.04 c 0.021,-0.003 0.02,-0.023 0.018,-0.043 l 0.019,-0.021 c 0,0 0.017,-0.043 0.038,-0.044 l -0.004,-0.04 c 0.02,-0.003 0.02,-0.023 0.017,-0.043 l 0.019,-0.021 -0.002,-0.041 0.035,-0.064 -0.004,-0.041 -0.004,-0.04 c -0.006,-0.081 -0.014,-0.161 -0.02,-0.242 -0.008,-0.081 -0.014,-0.162 -0.02,-0.242 -0.002,-0.02 -0.006,-0.061 -0.007,-0.081 -0.009,-0.074 -0.013,-0.148 -0.019,-0.222 -0.004,-0.021 -0.006,-0.061 -0.008,-0.081 0,0 0.018,-0.042 0.037,-0.044 l -0.002,-0.04 c 0.076,-0.177 0.009,0.047 -0.012,-0.202"
   id="path31"
   inkscape:connector-curvature="0"
   style="fill-rule:evenodd" />
<path
   stroke-miterlimit="2.613"
   d="m 29.900044,23.024146 c -0.02,0.001 -0.022,-0.019 -0.023,-0.039 -0.042,0.003 -0.003,-0.021 -0.043,-0.018 l -0.004,-0.04 c -0.021,0.002 -0.021,-0.019 -0.023,-0.039 -0.021,0.002 -0.021,-0.019 -0.023,-0.039 l -0.021,-0.019 c -0.043,0.004 -0.004,-0.02 -0.043,-0.017 l -0.005,-0.041 c -0.04,0.004 -10e-4,-0.02 -0.042,-0.016 l -0.004,-0.041 -0.021,-0.019 -0.043,-0.017 -0.021,-0.018 c -0.003,-0.041 -0.021,0.001 -0.023,-0.039 l -0.042,0.003 c -0.003,-0.041 -0.021,0.002 -0.024,-0.039 l -0.04,0.003 c -0.002,-0.02 -0.022,-0.018 -0.042,-0.016 -0.002,-0.021 -0.022,-0.019 -0.043,-0.018 l -0.023,-0.018 c -0.02,0.002 -0.06,0.005 -0.081,0.006 l -0.021,-0.018 -0.021,0.001 -0.024,0.005 -0.021,0.002 -0.021,0.001 -0.021,0.003 c -0.04,0.002 -0.081,0.006 -0.122,0.009 -0.02,0.002 -0.063,0.006 -0.081,0.007 -0.075,0.006 -0.149,0.013 -0.226,0.018 -0.02,0.003 -0.062,0.005 -0.082,0.008 l -0.018,0.021 -0.061,0.005 -0.019,0.021 -0.042,0.004 -0.017,0.042 -0.019,0.021 -0.019,0.022 c -0.042,0.003 0,0.021 -0.04,0.024 10e-4,0.02 -0.015,0.063 -0.036,0.063 l 0.004,0.041 c -0.02,0.002 -0.02,0.021 -0.018,0.042 -0.021,0.002 -0.018,0.022 -0.017,0.042 10e-4,0.021 -0.017,0.043 -0.015,0.063 l -0.02,0.022 0.004,0.041 0.002,0.041 0.004,0.02 v 0.02 l 0.002,0.021 c 0.002,0.02 0.006,0.06 0.008,0.081 l -0.02,0.022 0.005,0.061 c -0.021,0.002 -0.019,0.021 -0.017,0.042 -0.021,10e-4 -0.037,0.042 -0.037,0.042 l 0.002,0.041 -0.039,0.024 -0.017,0.042 -0.017,0.042 -0.017,0.043 0.005,0.061 -0.02,0.022 0.004,0.041 0.002,0.02 v 0.02 l 0.002,0.02 c 0.002,0.021 0.006,0.061 0.008,0.082 l -0.02,0.021 0.004,0.04 c -0.041,0.004 0.002,0.021 -0.039,0.024 10e-4,0.021 0.006,0.061 0.006,0.08 0.006,0.061 0.01,0.122 0.016,0.182 0.002,0.021 0.006,0.062 0.007,0.081 l 0.024,0.039 0.045,0.058 0.006,0.06 0.022,0.019 0.003,0.041 c 0.041,-0.003 0.002,0.021 0.043,0.017 l 0.002,0.041 0.025,0.039 0.041,-0.004 0.021,0.019 0.002,0.02 0.045,0.038 0.043,0.037 0.065,0.035 0.022,0.019 c 0.003,0.041 0.02,-0.002 0.023,0.039 0.042,-0.004 0.064,0.035 0.066,0.056 l 0.063,-0.005 c 0.002,0.041 0.02,-0.002 0.022,0.039 l 0.044,0.017 c 0.02,-0.001 0.061,-0.005 0.081,-0.006 0.001,0.02 0.044,0.037 0.044,0.037 l 0.041,-0.004 0.021,0.019 0.021,-0.002 0.02,-0.002 c 0.035,-0.002 0.069,-0.005 0.104,-0.008 0.02,-0.002 0.061,-0.005 0.082,-0.006 0.074,-0.006 0.149,-0.013 0.225,-0.019 0.021,-0.002 0.061,-0.005 0.081,-0.007 -0.003,-0.04 0.021,-0.001 0.017,-0.042 l 0.041,-0.003 c 0,-0.021 0.02,-0.023 0.04,-0.024 l 0.019,-0.023 c -0.002,-0.04 0.021,-0.001 0.017,-0.042 l 0.042,-0.003 -0.004,-0.041 0.02,-0.021 0.039,-0.023 c 0.02,-0.002 0.039,-0.024 0.059,-0.026 l 0.018,-0.042 0.041,-0.003 -0.004,-0.041 c 0.021,-0.002 0.019,-0.022 0.018,-0.042 l 0.02,-0.021 c 0,0 0.016,-0.043 0.037,-0.044 l -0.004,-0.041 c 0.02,-0.002 0.02,-0.022 0.018,-0.042 l 0.019,-0.021 -0.003,-0.042 0.035,-0.063 -0.004,-0.042 -0.004,-0.04 c -0.006,-0.081 -0.014,-0.162 -0.02,-0.243 -0.007,-0.08 -0.014,-0.162 -0.02,-0.242 -0.002,-0.02 -0.006,-0.061 -0.007,-0.081 -0.009,-0.074 -0.013,-0.148 -0.019,-0.222 -0.002,-0.021 -0.006,-0.061 -0.008,-0.081 0,0 0.018,-0.042 0.037,-0.044 l -0.004,-0.04 c 0.078,-0.182 0.011,0.042 -0.01,-0.206 z"
   id="path33"
   inkscape:connector-curvature="0"
   style="fill:none;stroke:#000000;stroke-width:0.156;stroke-linejoin:round;stroke-miterlimit:2.61299992" />
<path
   clip-rule="evenodd"
   d="m 33.016044,20.948146 c -0.021,-0.017 -0.101,-0.049 -0.103,-0.086 l -0.039,0.004 -0.002,-0.038 -0.021,-0.017 -0.038,0.003 c -0.003,-0.037 -0.02,10e-4 -0.021,-0.036 l -0.039,0.004 -0.039,-0.016 -0.037,0.003 -0.039,0.003 -0.037,0.003 -0.02,0.002 -0.019,0.001 -0.019,0.001 c -0.057,0.005 -0.115,0.009 -0.17,0.015 0,0 -0.058,0.004 -0.076,0.006 -0.069,0.006 -0.139,0.01 -0.209,0.017 -0.019,10e-4 -0.057,0.004 -0.076,0.006 0.004,0.037 -0.018,10e-4 -0.016,0.038 l -0.037,0.003 c 0.004,0.038 -0.02,0.002 -0.016,0.04 -0.02,10e-4 -0.054,0.041 -0.072,0.044 l -0.018,0.019 c 0.003,0.038 -0.035,0.041 -0.033,0.06 l -0.038,0.003 c 0.003,0.037 -0.019,0.001 -0.016,0.038 -0.019,0.002 -0.036,0.023 -0.056,0.024 -0.037,0.003 -0.055,0.023 -0.074,0.025 l -0.037,0.003 -0.02,0.002 -0.019,10e-4 -0.019,0.001 c -0.02,0.002 -0.058,0.005 -0.076,0.007 0.002,0.018 -0.035,0.021 -0.055,0.023 0.004,0.037 -0.02,10e-4 -0.016,0.039 l -0.038,0.003 -0.037,0.022 -0.019,10e-4 -0.018,0.02 -0.074,0.007 -0.019,0.02 -0.017,0.02 c -0.084,0.128 -0.063,0.149 -0.053,0.287 0.002,0.019 0.004,0.037 0.004,0.055 0.004,0.057 0.012,0.113 0.015,0.169 0.002,0.018 0.004,0.037 0.005,0.056 l 0.002,0.018 c 0.001,0.019 0.004,0.056 0.006,0.075 0.006,0.075 0.014,0.149 0.02,0.224 0,0.019 0.023,0.055 0.024,0.073 0.019,-10e-4 0.022,0.036 0.022,0.055 0.02,-10e-4 0.021,0.017 0.023,0.036 0.021,0.017 0.041,0.034 0.061,0.032 l 0.004,0.056 c 0.021,0.018 0.041,0.035 0.061,0.033 0.002,0.019 0.022,0.036 0.023,0.055 0.076,-0.007 0.02,0.016 0.058,0.014 0.003,0.018 0.022,0.036 0.044,0.053 0.018,-0.002 0.076,0.012 0.096,0.011 v 0.018 l 0.02,-10e-4 0.021,0.017 0.019,-0.001 0.019,-0.003 0.02,-10e-4 c 0.031,-0.002 0.063,-0.005 0.094,-0.007 0.02,-0.002 0.076,-0.007 0.096,-0.008 0.019,-0.001 0.057,-0.005 0.076,-0.007 l 0.055,-0.004 0.039,-0.003 0.017,-0.021 0.019,-0.001 0.037,-0.022 0.076,-0.006 -0.002,-0.019 0.038,-0.003 c 0.038,-0.002 0.076,-0.006 0.112,-0.009 0.02,-10e-4 0.058,-0.004 0.076,-0.006 0.02,-0.002 0.058,-0.005 0.076,-0.006 0.02,-0.002 0.038,-0.003 0.057,-0.004 0.019,-0.003 0.037,-0.004 0.057,-0.005 l 0.02,-0.002 0.019,-10e-4 c 0.019,-0.003 0.058,-0.005 0.076,-0.007 -0.003,-0.019 0.018,-0.02 0.036,-0.021 l 0.035,-0.022 0.019,-0.02 0.017,-0.021 c 0,-0.019 0.016,-0.039 0.034,-0.04 -10e-4,-0.019 -0.004,-0.056 -0.005,-0.075 l 0.035,-0.04 -0.006,-0.056 0.019,-0.002 c 0.019,-0.02 0.034,-0.059 0.052,-0.079 l -0.002,-0.019 -0.002,-0.019 -0.002,-0.018 c 0,-0.019 -0.005,-0.057 -0.006,-0.075 0.018,-0.02 0.035,-0.04 0.055,-0.042 l 0.017,-0.02 -0.002,-0.019 0.018,-0.02 c -0.002,-0.019 0.015,-0.058 0.052,-0.061 l -0.004,-0.037 c 0.02,-0.002 0.035,-0.04 0.034,-0.059 0.019,-0.002 0.015,-0.039 0.054,-0.042 l -0.002,-0.019 -0.002,-0.019 v -0.019 l 0.017,-0.02 -0.002,-0.018 -0.001,-0.019 -0.002,-0.019 0.018,-0.02 -0.003,-0.037 -0.002,-0.019 c 0,0 -0.005,-0.056 -0.006,-0.075 -0.007,-0.068 -0.011,-0.137 -0.019,-0.205 0,-0.019 -0.004,-0.056 -0.006,-0.075 -0.019,0.002 -0.021,-0.017 -0.021,-0.036 -0.02,0.002 -0.022,-0.035 -0.024,-0.054 l -0.04,-0.034 -0.037,0.003 -0.021,-0.018 c -0.006,-0.037 -0.022,0.002 -0.003,-0.018"
   id="path35"
   inkscape:connector-curvature="0"
   style="fill-rule:evenodd" />
<path
   stroke-miterlimit="2.613"
   d="m 33.016044,20.948146 c -0.021,-0.016 -0.101,-0.048 -0.103,-0.085 l -0.039,0.004 -0.002,-0.038 -0.021,-0.017 -0.037,0.003 c -0.002,-0.038 -0.019,0.001 -0.021,-0.036 l -0.039,0.003 -0.039,-0.016 -0.075,0.006 -0.038,0.004 -0.039,0.003 -0.018,10e-4 c -0.057,0.005 -0.115,0.009 -0.171,0.015 0,0 -0.057,0.004 -0.075,0.005 -0.07,0.007 -0.139,0.011 -0.208,0.018 -0.019,0.001 -0.058,0.004 -0.077,0.005 0.004,0.038 -0.018,0.002 -0.015,0.04 l -0.038,0.002 c 0.004,0.039 -0.02,0.003 -0.016,0.04 -0.019,0.002 -0.054,0.042 -0.073,0.044 l -0.017,0.02 c 0.004,0.038 -0.035,0.041 -0.033,0.06 l -0.037,0.003 c 0.002,0.038 -0.02,10e-4 -0.017,0.039 -0.019,0.001 -0.036,0.021 -0.054,0.023 -0.039,0.003 -0.057,0.023 -0.075,0.024 l -0.038,0.004 -0.02,0.002 -0.02,0.001 -0.018,10e-4 c -0.02,0.002 -0.058,0.005 -0.076,0.007 0.003,0.018 -0.035,0.021 -0.055,0.022 0.003,0.038 -0.02,0.002 -0.016,0.039 l -0.037,0.004 -0.038,0.022 -0.019,0.001 -0.018,0.02 -0.074,0.007 -0.019,0.02 -0.017,0.02 c -0.085,0.129 -0.063,0.15 -0.053,0.287 0.002,0.019 0.003,0.038 0.005,0.055 0.005,0.057 0.011,0.112 0.015,0.169 0,0.018 0.002,0.037 0.004,0.056 l 0.002,0.018 c 0.002,0.019 0.004,0.057 0.006,0.075 0.006,0.075 0.014,0.149 0.02,0.224 0,0.019 0.023,0.056 0.025,0.073 0.019,-10e-4 0.021,0.037 0.022,0.055 0.019,-0.001 0.021,0.018 0.023,0.037 0.019,0.017 0.04,0.034 0.06,0.032 l 0.004,0.057 c 0.021,0.017 0.041,0.034 0.061,0.033 0.002,0.019 0.021,0.036 0.023,0.055 0.076,-0.007 0.021,0.016 0.058,0.014 0.002,0.018 0.022,0.036 0.042,0.053 0.02,-0.001 0.078,0.012 0.098,0.011 v 0.019 l 0.02,-0.002 0.02,0.018 0.021,-0.002 0.018,-0.002 0.02,-10e-4 c 0.031,-0.003 0.063,-0.005 0.094,-0.008 0.02,-0.002 0.076,-0.006 0.096,-0.008 0.019,-10e-4 0.057,-0.005 0.074,-0.006 l 0.057,-0.004 0.039,-0.003 0.017,-0.021 0.02,-0.002 0.036,-0.021 0.076,-0.007 -0.002,-0.019 0.02,-0.001 0.02,-0.002 c 0.037,-0.003 0.075,-0.006 0.112,-0.009 0.019,-0.001 0.056,-0.004 0.075,-0.006 0.019,-0.002 0.057,-0.005 0.076,-0.006 0.019,-0.002 0.038,-0.003 0.057,-0.005 0.02,-0.002 0.037,-0.003 0.057,-0.005 l 0.02,-0.001 0.02,-0.002 c 0.019,-0.002 0.056,-0.005 0.074,-0.006 -0.002,-0.019 0.018,-0.02 0.037,-0.022 l 0.036,-0.021 0.017,-0.02 0.018,-0.021 c -10e-4,-0.019 0.016,-0.039 0.035,-0.04 -0.002,-0.019 -0.005,-0.057 -0.006,-0.076 l 0.034,-0.04 -0.005,-0.057 0.02,-0.001 c 0.018,-0.021 0.033,-0.06 0.05,-0.08 l -10e-4,-0.019 -0.002,-0.019 -10e-4,-0.019 c -0.002,-0.019 -0.005,-0.056 -0.007,-0.075 0.018,-0.02 0.035,-0.041 0.055,-0.042 l 0.017,-0.02 -0.002,-0.019 0.017,-0.02 c 0,-0.02 0.016,-0.059 0.053,-0.062 l -0.003,-0.038 c 0.019,-10e-4 0.035,-0.04 0.033,-0.059 0.019,-0.001 0.015,-0.039 0.054,-0.042 l -0.002,-0.019 -0.002,-0.019 v -0.019 l 0.017,-0.02 -0.002,-0.019 -0.002,-0.019 -10e-4,-0.019 0.018,-0.02 -0.004,-0.038 -10e-4,-0.019 c 0,0 -0.005,-0.056 -0.006,-0.075 -0.006,-0.067 -0.011,-0.137 -0.019,-0.206 0,-0.019 -0.004,-0.055 -0.006,-0.074 -0.018,0.002 -0.021,-0.017 -0.021,-0.036 -0.02,0.002 -0.022,-0.036 -0.023,-0.055 l -0.021,-0.017 -0.021,-0.017 -0.037,0.003 -0.021,-0.018 c -0.008,-0.032 -0.023,0.006 -0.005,-0.014 z"
   id="path37"
   inkscape:connector-curvature="0"
   style="fill:none;stroke:#000000;stroke-width:0.156;stroke-linejoin:round;stroke-miterlimit:2.61299992" />
<path
   clip-rule="evenodd"
   d="m 32.238044,24.171146 -0.076,0.006 -0.019,0.002 c -0.019,0.001 -0.056,0.005 -0.075,0.006 l -0.018,0.02 -0.075,0.007 -0.019,0.02 -0.017,0.021 c 0.002,0.019 -0.015,0.039 -0.033,0.059 l 0.003,0.037 0.002,0.019 0.002,0.019 0.002,0.018 c 0.002,0.019 0.004,0.056 0.006,0.075 0.002,0.019 -0.016,0.039 -0.015,0.057 -0.019,0.002 -0.017,0.021 -0.016,0.039 l -0.017,0.02 -0.018,0.021 -0.018,0.02 -0.037,0.003 c 0,0.019 -0.019,0.02 -0.037,0.022 l -0.018,0.02 -0.018,0.021 -0.018,0.02 0.004,0.037 c -0.02,0.002 -0.018,0.02 -0.017,0.039 l -0.017,0.02 0.006,0.075 c 0.002,0.019 -0.016,0.039 -0.014,0.076 0.006,0.062 0.012,0.125 0.017,0.187 0.002,0.019 0.005,0.056 0.007,0.075 l 0.02,0.017 0.002,0.019 0.002,0.018 0.002,0.019 c 0.002,0.019 0.005,0.056 0.006,0.075 l 0.02,-0.002 v 0.019 l 0.002,0.019 c 0.002,0.018 0.063,0.069 0.065,0.088 0.019,0 0.058,0.014 0.06,0.033 0.02,-0.001 0.039,0.016 0.041,0.035 0.034,0.027 0.068,0.057 0.103,0.085 0.019,-0.001 0.058,0.015 0.077,0.012 0.003,0.038 0.019,-0.001 0.021,0.036 l 0.057,-0.004 0.041,0.034 0.02,-0.003 c 0.02,0 0.057,-0.004 0.076,-0.004 0.068,-0.006 0.139,-0.014 0.208,-0.019 0.019,-0.001 0.056,-0.004 0.075,-0.006 l 0.037,-0.022 -0.006,-0.056 0.02,-0.001 -0.004,-0.074 c 0,0 0.035,-0.022 0.035,-0.041 l 0.037,-0.004 c -0.004,-0.037 0.02,0 0.016,-0.039 l 0.038,-0.002 -0.003,-0.019 0.039,-0.003 0.057,-0.005 c -10e-4,-0.019 0.018,-0.02 0.037,-0.022 l 0.016,-0.02 c -0.001,-0.018 0.016,-0.039 0.035,-0.041 l 0.018,-0.02 0.018,-0.02 c -0.003,-0.037 0.02,-0.001 0.016,-0.039 l 0.038,-0.003 0.017,-0.02 v -0.019 l -0.002,-0.018 -0.002,-0.019 c -0.004,-0.031 -0.006,-0.062 -0.008,-0.093 0,0 -0.005,-0.057 -0.007,-0.075 -0.005,-0.069 -0.012,-0.137 -0.017,-0.205 -0.002,-0.019 -0.006,-0.057 -0.006,-0.075 l 0.017,-0.02 -0.006,-0.076 -0.005,-0.055 -0.006,-0.056 -0.002,-0.038 -0.002,-0.018 -0.002,-0.019 v -0.019 c -0.002,-0.018 -0.006,-0.056 -0.008,-0.074 -0.019,0.001 -0.039,-0.035 -0.039,-0.035 -0.02,0.002 -0.041,-0.016 -0.043,-0.034 -0.019,0.001 -0.058,-0.014 -0.06,-0.033 l -0.038,0.003 -10e-4,-0.018 -0.038,0.003 -0.038,0.003 c -0.019,10e-4 -0.057,0.004 -0.075,0.006 -0.07,0.006 -0.139,0.012 -0.207,0.017 -0.02,10e-4 -0.058,0.004 -0.076,0.006 -0.002,-0.018 -0.021,-0.017 -0.041,-0.015 l -0.02,-0.018 -0.02,-0.017 -0.021,-0.017 -0.021,-0.017 c -0.003,-0.038 -0.019,0.002 -0.022,-0.036 -0.02,0.002 -0.057,0.005 0,0"
   id="path39"
   inkscape:connector-curvature="0"
   style="fill-rule:evenodd" />
<path
   stroke-miterlimit="2.613"
   d="m 32.238044,24.170146 -0.076,0.007 -0.018,0.001 c -0.02,0.002 -0.058,0.005 -0.076,0.007 l -0.017,0.02 -0.077,0.007 -0.017,0.02 -0.017,0.02 c 0.002,0.019 -0.017,0.039 -0.033,0.06 l 0.002,0.037 0.002,0.019 0.002,0.019 0.002,0.019 c 0,0.018 0.004,0.056 0.006,0.075 0.002,0.019 -0.016,0.039 -0.014,0.058 -0.02,0.001 -0.018,0.02 -0.017,0.039 l -0.017,0.02 -0.018,0.021 -0.018,0.02 -0.038,0.003 c 0.002,0.019 -0.017,0.021 -0.036,0.022 l -0.018,0.02 -0.018,0.021 -0.016,0.021 0.002,0.037 c -0.019,0.002 -0.018,0.02 -0.016,0.039 l -0.018,0.021 0.006,0.075 c 0.002,0.019 -0.016,0.039 -0.013,0.076 0.005,0.062 0.011,0.125 0.017,0.187 0,0.019 0.004,0.056 0.006,0.074 l 0.02,0.017 0.002,0.019 0.002,0.019 0.002,0.019 c 0.002,0.019 0.005,0.055 0.006,0.074 l 0.02,-0.001 v 0.018 l 0.002,0.019 c 0.002,0.019 0.064,0.07 0.064,0.088 0.02,-10e-4 0.059,0.016 0.061,0.033 0.019,-0.002 0.039,0.017 0.041,0.035 0.033,0.028 0.069,0.057 0.103,0.084 0.019,0 0.058,0.015 0.077,0.014 0.004,0.037 0.02,-0.002 0.022,0.035 l 0.056,-0.004 0.042,0.034 0.019,-0.002 c 0.019,-0.001 0.057,-0.004 0.076,-0.006 0.069,-0.005 0.139,-0.013 0.209,-0.017 0.019,-0.002 0.055,-0.004 0.074,-0.006 l 0.036,-0.022 -0.005,-0.056 0.02,-0.002 -0.007,-0.074 c 0,0 0.037,-0.023 0.035,-0.041 l 0.038,-0.004 c -0.004,-0.037 0.02,-0.001 0.016,-0.039 l 0.038,-0.003 -0.002,-0.018 0.038,-0.003 0.057,-0.005 c -0.001,-0.019 0.018,-0.021 0.036,-0.022 l 0.017,-0.021 c 0,-0.018 0.017,-0.038 0.035,-0.041 l 0.035,-0.04 c -0.004,-0.038 0.02,-0.002 0.016,-0.039 l 0.037,-0.003 0.019,-0.021 -0.002,-0.019 -10e-4,-0.018 -0.002,-0.019 c -0.004,-0.032 -0.006,-0.063 -0.008,-0.093 0,0 -0.006,-0.057 -0.006,-0.075 -0.006,-0.068 -0.013,-0.137 -0.018,-0.206 -0.002,-0.019 -0.006,-0.057 -0.006,-0.074 l 0.017,-0.021 -0.006,-0.075 -0.005,-0.055 -0.006,-0.057 -0.002,-0.038 -0.002,-0.018 -0.002,-0.019 v -0.019 c -0.002,-0.019 -0.006,-0.056 -0.007,-0.075 -0.019,10e-4 -0.041,-0.035 -0.041,-0.035 -0.019,0.002 -0.04,-0.016 -0.042,-0.035 -0.019,0.002 -0.058,-0.013 -0.06,-0.032 l -0.038,0.003 -0.002,-0.019 -0.037,0.003 -0.019,0.002 -0.02,10e-4 c -0.019,0.002 -0.056,0.005 -0.075,0.006 -0.07,0.006 -0.139,0.012 -0.209,0.018 -0.018,0.001 -0.057,0.004 -0.075,0.006 -0.001,-0.019 -0.021,-0.017 -0.039,-0.016 l -0.021,-0.017 -0.041,-0.035 -0.021,-0.017 c 0,-0.036 -0.014,0.004 -0.018,-0.035 -0.019,0.003 -0.057,0.007 0,0 z"
   id="path41"
   inkscape:connector-curvature="0"
   style="fill:none;stroke:#000000;stroke-width:0.156;stroke-linejoin:round;stroke-miterlimit:2.61299992" />
</svg>