<?xml version="1.0" encoding="UTF-8" standalone="no"?>
<!-- Generator: Adobe Illustrator 16.0.2, SVG Export Plug-In . SVG Version: 6.00 Build 0)  -->

<svg
   xmlns:dc="http://purl.org/dc/elements/1.1/"
   xmlns:cc="http://creativecommons.org/ns#"
   xmlns:rdf="http://www.w3.org/1999/02/22-rdf-syntax-ns#"
   xmlns:svg="http://www.w3.org/2000/svg"
   xmlns="http://www.w3.org/2000/svg"
   xmlns:sodipodi="http://sodipodi.sourceforge.net/DTD/sodipodi-0.dtd"
   xmlns:inkscape="http://www.inkscape.org/namespaces/inkscape"
   version="1.1"
   id="svg2"
   sodipodi:docname="Ajax.svg"
   inkscape:version="0.48.4 r9939"
   x="0px"
   y="0px"
   width="141.38774"
   height="141.39062"
   viewBox="0 0 141.38774 141.39062"
   enable-background="new 0 0 576.443 665.656"
   xml:space="preserve"><metadata
   id="metadata42"><rdf:RDF><cc:Work
       rdf:about=""><dc:format>image/svg+xml</dc:format><dc:type
         rdf:resource="http://purl.org/dc/dcmitype/StillImage" /></cc:Work></rdf:RDF></metadata><defs
   id="defs40" />
<sodipodi:namedview
   id="namedview42"
   inkscape:current-layer="svg2"
   inkscape:window-y="-8"
   inkscape:window-x="-8"
   fit-margin-bottom="0.1"
   fit-margin-right="0.1"
   inkscape:window-height="1001"
   inkscape:window-width="1280"
   inkscape:pageshadow="2"
   inkscape:pageopacity="0"
   inkscape:window-maximized="1"
   objecttolerance="10"
   fit-margin-top="0.1"
   inkscape:cy="57.010261"
   borderopacity="1"
   showgrid="false"
   inkscape:cx="48.397356"
   bordercolor="#666666"
   inkscape:zoom="2.860606"
   pagecolor="#ffffff"
   guidetolerance="10"
   fit-margin-left="0.1"
   gridtolerance="10">
	</sodipodi:namedview>





<path
   inkscape:connector-curvature="0"
   d="M 138.45567,63.118813 77.880681,2.891313 c -3.98875,-3.965 -10.77125,-3.66999999 -15.07375,0.65625 l -59.3049961,59.6475 c -4.30249997,4.3275 -4.55875,11.11125 -0.57,15.0775 L 63.506931,138.49881 c 3.98875,3.96625 10.77125,3.67 15.07375,-0.65625 L 137.88692,78.195063 c 4.30125,-4.32625 4.5575,-11.11125 0.56875,-15.07625"
   style="fill:#ffd700;fill-opacity:1;fill-rule:evenodd;stroke:none"
   id="path3079" /><path
   inkscape:connector-curvature="0"
   d="M 134.54817,65.693813 75.328181,6.815063 c -2.5825,-2.5675 -6.97125,-2.37625 -9.75625,0.425 L 7.2094349,65.938813 c -2.785,2.8 -2.95125,7.19125 -0.36875,9.7575 L 66.060681,134.57631 c 2.58125,2.56625 6.97125,2.375 9.755,-0.425 L 134.17942,75.451313 c 2.78375,-2.8 2.95,-7.19125 0.36875,-9.7575"
   style="fill:#ffd700;fill-opacity:1;fill-rule:evenodd;stroke:none"
   id="path3081" /><path
   inkscape:connector-curvature="0"
   d="M 134.54817,65.693813 75.328181,6.815063 c -2.5825,-2.5675 -6.97125,-2.37625 -9.75625,0.425 L 7.2094349,65.938813 c -2.785,2.8 -2.95125,7.19125 -0.36875,9.7575 L 66.060681,134.57631 c 2.58125,2.56625 6.97125,2.375 9.755,-0.425 L 134.17942,75.451313 c 2.78375,-2.8 2.95,-7.19125 0.36875,-9.7575 z"
   style="fill:none;stroke:#000000;stroke-width:4.57500029;stroke-linecap:butt;stroke-linejoin:miter;stroke-miterlimit:22.9260006;stroke-opacity:1;stroke-dasharray:none"
   id="path3083" /><path
   inkscape:connector-curvature="0"
   d="M 83.717053,60.876931 C 82.205803,58.308181 56.763304,75.01443 56.585804,84.70943 l -0.08875,20.77625 -10.7575,-0.002 0.41625,-20.7825 c 0.54,-14.043749 12.43375,-24.912499 32.093749,-33.607499 l -4.793749,-3.3675 c -2.50375,-1.8675 -1.23875,-3.96375 1.24125,-3.92625 l 23.866246,0.81625 c 1.53875,-0.02625 2.04875,0.87875 1.2,2.24125 l -11.125,20.895 c -0.97375,2.04875 -4.137497,1.46 -4.163747,-1.08 l -0.7575,-5.795"
   style="fill:#000000;fill-opacity:1;fill-rule:evenodd;stroke:none"
   id="path5266" /></svg>