<?xml version="1.0" encoding="UTF-8" standalone="no"?>
<!-- Generator: Adobe Illustrator 15.0.2, SVG Export Plug-In . SVG Version: 6.00 Build 0)  -->

<svg
   xmlns:dc="http://purl.org/dc/elements/1.1/"
   xmlns:cc="http://creativecommons.org/ns#"
   xmlns:rdf="http://www.w3.org/1999/02/22-rdf-syntax-ns#"
   xmlns:svg="http://www.w3.org/2000/svg"
   xmlns="http://www.w3.org/2000/svg"
   xmlns:sodipodi="http://sodipodi.sourceforge.net/DTD/sodipodi-0.dtd"
   xmlns:inkscape="http://www.inkscape.org/namespaces/inkscape"
   version="1.0"
   id="Layer_1"
   x="0px"
   y="0px"
   width="50.194046"
   height="50.194767"
   viewBox="0 0 50.194046 50.194766"
   enable-background="new 0 0 49.973 49.949"
   xml:space="preserve"
   inkscape:version="0.48.4 r9939"
   sodipodi:docname="Ajax.svg"><metadata
   id="metadata57"><rdf:RDF><cc:Work
       rdf:about=""><dc:format>image/svg+xml</dc:format><dc:type
         rdf:resource="http://purl.org/dc/dcmitype/StillImage" /></cc:Work></rdf:RDF></metadata><defs
   id="defs55" /><sodipodi:namedview
   pagecolor="#ffffff"
   bordercolor="#666666"
   borderopacity="1"
   objecttolerance="10"
   gridtolerance="10"
   guidetolerance="10"
   inkscape:pageopacity="0"
   inkscape:pageshadow="2"
   inkscape:window-width="1280"
   inkscape:window-height="1001"
   id="namedview53"
   showgrid="false"
   fit-margin-top="0.1"
   fit-margin-bottom="0.1"
   fit-margin-right="0.1"
   fit-margin-left="0.1"
   inkscape:zoom="9.4496384"
   inkscape:cx="18.757478"
   inkscape:cy="23.086697"
   inkscape:window-x="-8"
   inkscape:window-y="-8"
   inkscape:window-maximized="1"
   inkscape:current-layer="Layer_1" />
<path
   clip-rule="evenodd"
   d="M 1.1027215,22.414602 22.552722,1.0886026 c 1.412,-1.40400007 3.813,-1.30000007 5.336,0.232 l 21,21.1219994 c 1.525,1.532 1.615,3.933 0.201,5.338 l -21.449,21.325 c -1.412,1.404 -3.814,1.301 -5.336,-0.23 l -21.0000005,-21.121 c -1.52399995,-1.534 -1.61399995,-3.935 -0.202,-5.34"
   id="path3"
   style="fill:#ffd700;fill-opacity:1;fill-rule:evenodd;stroke:none"
   inkscape:connector-curvature="0" />
<path
   clip-rule="evenodd"
   d="M 2.4867215,23.326602 23.456722,2.4776026 c 0.914,-0.909 2.467,-0.841 3.454,0.15 l 20.666,20.7859994 c 0.986,0.991 1.045,2.545 0.131,3.455 l -20.969,20.848 c -0.914,0.91 -2.47,0.842 -3.456,-0.15 l -20.6650005,-20.785 c -0.986,-0.991 -1.045,-2.546 -0.131,-3.455"
   id="path5"
   style="fill:#ffd700;fill-opacity:1;fill-rule:evenodd;stroke:none"
   inkscape:connector-curvature="0" />
<path
   stroke-miterlimit="2.613"
   d="M 2.4867215,23.326602 23.456722,2.4776026 c 0.914,-0.909 2.467,-0.841 3.454,0.15 l 20.666,20.7859994 c 0.986,0.991 1.045,2.545 0.131,3.455 l -20.969,20.848 c -0.914,0.91 -2.47,0.842 -3.456,-0.15 l -20.6650005,-20.785 c -0.986,-0.991 -1.045,-2.546 -0.131,-3.455 z"
   id="path7"
   inkscape:connector-curvature="0"
   style="fill:none;stroke:#000000;stroke-width:1.63;stroke-miterlimit:2.61299992" />
<path
   clip-rule="evenodd"
   d="m 23.943722,10.366602 c 1.095,0 1.984,0.887 1.984,1.982 0,1.094 -0.889,1.982 -1.984,1.982 -1.094,0 -1.981,-0.888 -1.981,-1.982 0,-1.095 0.888,-1.982 1.981,-1.982"
   id="path9"
   inkscape:connector-curvature="0"
   style="fill-rule:evenodd" />
<circle
   stroke-miterlimit="2.613"
   cx="23.833"
   cy="12.226"
   r="1.982"
   id="circle11"
   sodipodi:cx="23.833"
   sodipodi:cy="12.226"
   sodipodi:rx="1.982"
   sodipodi:ry="1.982"
   style="fill:none;stroke:#000000;stroke-width:0.155;stroke-miterlimit:2.61299992"
   transform="translate(0.11072155,0.12260253)" />
<path
   clip-rule="evenodd"
   d="m 26.047722,27.453602 c 0.422,-1.189 0.844,-2.379 1.268,-3.568 -0.018,-0.128 -0.104,-0.199 -0.277,-0.12 -0.807,0.291 -1.611,0.582 -2.418,0.873 0.473,0.938 0.95,1.875 1.427,2.815 m 1.226,-13.004 c -0.5,-0.635 -1.002,-0.635 -1.506,0 -1.505,1.81 -3.012,3.621 -4.518,5.431 -1.019,1.07 -0.396,2.247 1.149,1.15 0.754,-0.899 1.507,-1.797 2.26,-2.696 0.224,-0.158 0.396,-0.158 0.515,0 0.477,0.992 0.951,1.983 1.428,2.974 -1.217,0.621 -2.432,1.242 -3.648,1.863 -0.832,0.476 -0.938,0.951 -0.713,1.427 0.634,1.308 1.269,2.617 1.902,3.925 0.403,0.408 0.839,0.688 1.349,0.674 -0.119,0.33 -0.238,0.66 -0.357,0.99 -0.49,1.561 1.123,2.432 1.863,0.713 1.137,-2.932 2.271,-5.866 3.41,-8.8 0.158,-0.497 0.105,-1.066 -0.16,-1.704 -0.99,-1.982 -1.982,-3.964 -2.974,-5.947 z"
   id="path13"
   inkscape:connector-curvature="0"
   style="fill-rule:evenodd" />
<path
   stroke-miterlimit="2.613"
   d="m 26.047722,27.453602 c 0.422,-1.189 0.844,-2.379 1.268,-3.568 -0.018,-0.128 -0.104,-0.199 -0.277,-0.12 -0.807,0.291 -1.611,0.582 -2.418,0.873 0.473,0.938 0.95,1.875 1.427,2.815 z m 1.226,-13.004 c -0.5,-0.635 -1.002,-0.635 -1.506,0 -1.505,1.81 -3.012,3.621 -4.518,5.431 -1.019,1.07 -0.396,2.247 1.149,1.15 0.754,-0.899 1.507,-1.797 2.26,-2.696 0.224,-0.158 0.396,-0.158 0.515,0 0.477,0.992 0.951,1.983 1.428,2.974 -1.217,0.621 -2.432,1.242 -3.648,1.863 -0.832,0.476 -0.938,0.951 -0.713,1.427 0.634,1.308 1.269,2.617 1.902,3.925 0.403,0.408 0.839,0.688 1.349,0.674 -0.119,0.33 -0.238,0.66 -0.357,0.99 -0.49,1.561 1.123,2.432 1.863,0.713 1.137,-2.932 2.271,-5.866 3.41,-8.8 0.158,-0.497 0.105,-1.066 -0.16,-1.704 -0.99,-1.982 -1.982,-3.964 -2.974,-5.947 z"
   id="path15"
   inkscape:connector-curvature="0"
   style="fill:none;stroke:#000000;stroke-width:0.155;stroke-miterlimit:2.61299992" />
<path
   clip-rule="evenodd"
   d="m 16.090722,23.990602 c 2.115,0 3.83,1.715 3.83,3.83 0,2.115 -1.715,3.83 -3.83,3.83 -2.115,0 -3.831,-1.715 -3.831,-3.83 0,-2.115 1.716,-3.83 3.831,-3.83 m 0,-0.624 c 2.459,0 4.454,1.995 4.454,4.454 0,2.461 -1.995,4.455 -4.454,4.455 -2.46,0 -4.455,-1.994 -4.455,-4.455 0,-2.459 1.995,-4.454 4.455,-4.454 z"
   id="path17"
   inkscape:connector-curvature="0"
   style="fill-rule:evenodd" />
<path
   stroke-miterlimit="2.613"
   d="m 16.090722,23.990602 c 2.115,0 3.83,1.715 3.83,3.83 0,2.115 -1.715,3.83 -3.83,3.83 -2.115,0 -3.831,-1.715 -3.831,-3.83 0,-2.115 1.716,-3.83 3.831,-3.83 z m 0,-0.624 c 2.459,0 4.454,1.995 4.454,4.454 0,2.461 -1.995,4.455 -4.454,4.455 -2.46,0 -4.455,-1.994 -4.455,-4.455 0,-2.459 1.995,-4.454 4.455,-4.454 z"
   id="path19"
   inkscape:connector-curvature="0"
   style="fill:none;stroke:#000000;stroke-width:0.155;stroke-miterlimit:2.61299992" />
<path
   clip-rule="evenodd"
   d="m 34.205722,23.990602 c 2.115,0 3.83,1.715 3.83,3.83 0,2.115 -1.715,3.83 -3.83,3.83 -2.115,0 -3.83,-1.715 -3.83,-3.83 0,-2.115 1.714,-3.83 3.83,-3.83 m 0,-0.624 c 2.459,0 4.455,1.995 4.455,4.454 0,2.461 -1.996,4.455 -4.455,4.455 -2.461,0 -4.455,-1.994 -4.455,-4.455 0,-2.459 1.994,-4.454 4.455,-4.454 z"
   id="path21"
   inkscape:connector-curvature="0"
   style="fill-rule:evenodd" />
<path
   stroke-miterlimit="2.613"
   d="m 34.205722,23.990602 c 2.115,0 3.83,1.715 3.83,3.83 0,2.115 -1.715,3.83 -3.83,3.83 -2.115,0 -3.83,-1.715 -3.83,-3.83 0,-2.115 1.714,-3.83 3.83,-3.83 z m 0,-0.624 c 2.459,0 4.455,1.995 4.455,4.454 0,2.461 -1.996,4.455 -4.455,4.455 -2.461,0 -4.455,-1.994 -4.455,-4.455 0,-2.459 1.994,-4.454 4.455,-4.454 z"
   id="path23"
   inkscape:connector-curvature="0"
   style="fill:none;stroke:#000000;stroke-width:0.155;stroke-miterlimit:2.61299992" />
<path
   clip-rule="evenodd"
   d="m 16.309722,27.158602 c 0.376,0 0.683,0.305 0.683,0.682 0,0.377 -0.307,0.684 -0.683,0.684 -0.377,0 -0.683,-0.307 -0.683,-0.684 0,-0.377 0.306,-0.682 0.683,-0.682"
   id="path25"
   inkscape:connector-curvature="0"
   style="fill-rule:evenodd" />
<circle
   stroke-miterlimit="2.613"
   cx="16.198999"
   cy="27.718"
   r="0.68300003"
   id="circle27"
   sodipodi:cx="16.198999"
   sodipodi:cy="27.718"
   sodipodi:rx="0.68300003"
   sodipodi:ry="0.68300003"
   style="fill:none;stroke:#000000;stroke-width:0.155;stroke-miterlimit:2.61299992"
   transform="translate(0.11072155,0.12260253)" />
<path
   clip-rule="evenodd"
   d="m 34.017722,27.376602 c 0.377,0 0.682,0.307 0.682,0.682 0,0.377 -0.305,0.684 -0.682,0.684 -0.377,0 -0.682,-0.307 -0.682,-0.684 0.001,-0.375 0.305,-0.682 0.682,-0.682"
   id="path29"
   inkscape:connector-curvature="0"
   style="fill-rule:evenodd" />
<circle
   stroke-miterlimit="2.613"
   cx="33.907001"
   cy="27.937"
   r="0.68300003"
   id="circle31"
   sodipodi:cx="33.907001"
   sodipodi:cy="27.937"
   sodipodi:rx="0.68300003"
   sodipodi:ry="0.68300003"
   style="fill:none;stroke:#000000;stroke-width:0.155;stroke-miterlimit:2.61299992"
   transform="translate(0.11072155,0.12260253)" />
<path
   clip-rule="evenodd"
   d="m 16.439722,27.164602 c 1.232,-1.741 2.466,-3.481 3.698,-5.222 0.423,-0.648 0.788,-0.415 0.404,0.246 -0.146,0.236 -0.289,0.473 -0.434,0.709 0.771,-0.029 1.54,-0.058 2.312,-0.087 -0.337,0.146 -0.644,0.3 -0.737,0.506 -0.587,0.029 -1.175,0.058 -1.762,0.087 0.852,0.844 1.704,1.688 2.556,2.53 l 0.267,0.625 c 0.083,0.166 -0.12,0.193 -0.338,0.056 -0.958,-0.907 -1.916,-1.813 -2.874,-2.719 -0.862,1.21 -1.725,2.42 -2.585,3.63 -0.107,0 -0.213,0 -0.319,0 -0.071,-0.063 -0.145,-0.125 -0.216,-0.188 0.008,-0.058 0.018,-0.117 0.028,-0.173"
   id="path33"
   inkscape:connector-curvature="0"
   style="fill-rule:evenodd" />
<path
   stroke-miterlimit="2.613"
   d="m 16.439722,27.164602 c 1.232,-1.741 2.466,-3.481 3.698,-5.222 0.423,-0.648 0.788,-0.415 0.404,0.246 -0.146,0.236 -0.289,0.473 -0.434,0.709 0.771,-0.029 1.54,-0.058 2.312,-0.087 -0.337,0.146 -0.644,0.3 -0.737,0.506 -0.587,0.029 -1.175,0.058 -1.762,0.087 0.852,0.844 1.704,1.688 2.556,2.53 l 0.267,0.625 c 0.083,0.166 -0.12,0.193 -0.338,0.056 -0.958,-0.907 -1.916,-1.813 -2.874,-2.719 -0.862,1.21 -1.725,2.42 -2.585,3.63 -0.107,0 -0.213,0 -0.319,0 -0.071,-0.063 -0.145,-0.125 -0.216,-0.188 0.008,-0.058 0.018,-0.117 0.028,-0.173 z"
   id="path35"
   inkscape:connector-curvature="0"
   style="fill:none;stroke:#000000;stroke-width:0.155;stroke-linejoin:round;stroke-miterlimit:2.61299992" />
<path
   clip-rule="evenodd"
   d="m 31.191722,23.957602 2.924,3.827 -0.344,0.595 -4.688,0.031 c -0.365,-0.072 -0.357,-0.631 0,-0.626 h 3.813 l 0.188,-0.344 -2.344,-3.224 c -0.19,-0.242 -0.002,-0.589 0.451,-0.259"
   id="path37"
   inkscape:connector-curvature="0"
   style="fill-rule:evenodd" />
<path
   stroke-miterlimit="2.613"
   d="m 31.191722,23.957602 2.924,3.827 -0.344,0.595 -4.688,0.031 c -0.365,-0.072 -0.357,-0.631 0,-0.626 h 3.813 l 0.188,-0.344 -2.344,-3.224 c -0.19,-0.242 -0.002,-0.589 0.451,-0.259 z"
   id="path39"
   inkscape:connector-curvature="0"
   style="fill:none;stroke:#000000;stroke-width:0.155;stroke-miterlimit:2.61299992" />
<path
   stroke-miterlimit="2.613"
   d="m 19.510722,35.708602 v -1.568 m -3.845,1.568 v -1.568"
   id="path41"
   inkscape:connector-curvature="0"
   style="fill:none;stroke:#000000;stroke-width:2.08100009;stroke-miterlimit:2.61299992" />
<path
   stroke-miterlimit="2.613"
   d="m 38.851722,26.302602 v -1.57 m -27.362,1.57 v -1.57 m -4.0660005,1.57 v -1.57"
   id="path43"
   inkscape:connector-curvature="0"
   style="fill:none;stroke:#000000;stroke-width:2.08100009;stroke-miterlimit:2.61299992" />
<line
   stroke-miterlimit="2.613"
   x1="42.86372"
   y1="26.302603"
   x2="42.86372"
   y2="24.732603"
   id="line45"
   style="fill:none;stroke:#000000;stroke-width:2.08100009;stroke-miterlimit:2.61299992" />
<path
   stroke-miterlimit="2.613"
   d="m 26.980722,35.708602 v -1.568 m -3.734,1.568 v -1.568"
   id="path47"
   inkscape:connector-curvature="0"
   style="fill:none;stroke:#000000;stroke-width:2.08100009;stroke-miterlimit:2.61299992" />
<line
   stroke-miterlimit="2.613"
   x1="30.826721"
   y1="35.708599"
   x2="30.826721"
   y2="34.140602"
   id="line49"
   style="fill:none;stroke:#000000;stroke-width:2.08100009;stroke-miterlimit:2.61299992" />
<line
   stroke-miterlimit="2.613"
   x1="34.507721"
   y1="35.708599"
   x2="34.507721"
   y2="34.140602"
   id="line51"
   style="fill:none;stroke:#000000;stroke-width:2.08100009;stroke-miterlimit:2.61299992" />
</svg>