<?xml version="1.0" encoding="UTF-8" standalone="no"?>
<!-- Generator: Adobe Illustrator 15.0.2, SVG Export Plug-In . SVG Version: 6.00 Build 0)  -->

<svg
   xmlns:dc="http://purl.org/dc/elements/1.1/"
   xmlns:cc="http://creativecommons.org/ns#"
   xmlns:rdf="http://www.w3.org/1999/02/22-rdf-syntax-ns#"
   xmlns:svg="http://www.w3.org/2000/svg"
   xmlns="http://www.w3.org/2000/svg"
   xmlns:sodipodi="http://sodipodi.sourceforge.net/DTD/sodipodi-0.dtd"
   xmlns:inkscape="http://www.inkscape.org/namespaces/inkscape"
   version="1.0"
   id="Layer_1"
   x="0px"
   y="0px"
   width="50.193768"
   height="50.195103"
   viewBox="0 0 50.193768 50.195101"
   enable-background="new 0 0 49.973 49.949"
   xml:space="preserve"
   inkscape:version="0.48.4 r9939"
   sodipodi:docname="Ajax.svg"><metadata
   id="metadata29"><rdf:RDF><cc:Work
       rdf:about=""><dc:format>image/svg+xml</dc:format><dc:type
         rdf:resource="http://purl.org/dc/dcmitype/StillImage" /></cc:Work></rdf:RDF></metadata><defs
   id="defs27" /><sodipodi:namedview
   pagecolor="#ffffff"
   bordercolor="#666666"
   borderopacity="1"
   objecttolerance="10"
   gridtolerance="10"
   guidetolerance="10"
   inkscape:pageopacity="0"
   inkscape:pageshadow="2"
   inkscape:window-width="1280"
   inkscape:window-height="1001"
   id="namedview25"
   showgrid="false"
   fit-margin-top="0.1"
   fit-margin-bottom="0.1"
   fit-margin-right="0.1"
   fit-margin-left="0.1"
   inkscape:zoom="9.4496384"
   inkscape:cx="20.642476"
   inkscape:cy="20.456446"
   inkscape:window-x="-8"
   inkscape:window-y="-8"
   inkscape:window-maximized="1"
   inkscape:current-layer="Layer_1" />
<path
   clip-rule="evenodd"
   d="m 1.102866,22.415145 21.449,-21.3270001 c 1.413,-1.40399997 3.816,-1.29899997 5.337,0.233 l 21,21.1210001 c 1.523,1.532 1.615,3.934 0.203,5.337 l -21.451,21.327 c -1.412,1.404 -3.813,1.301 -5.336,-0.232 l -21.001,-21.121 c -1.52199996,-1.532 -1.61399996,-3.934 -0.201,-5.338"
   id="path3"
   style="fill:#ffd700;fill-opacity:1;fill-rule:evenodd;stroke:none"
   inkscape:connector-curvature="0" />
<path
   clip-rule="evenodd"
   d="m 2.486866,23.327145 20.97,-20.8490001 c 0.914,-0.908 2.467,-0.841 3.454,0.15 l 20.666,20.7860001 c 0.986,0.991 1.045,2.547 0.131,3.456 l -20.969,20.847 c -0.914,0.908 -2.469,0.842 -3.455,-0.15 l -20.667,-20.785 c -0.986,-0.992 -1.044,-2.546 -0.13,-3.455"
   id="path5"
   style="fill:#ffd700;fill-opacity:1;fill-rule:evenodd;stroke:none"
   inkscape:connector-curvature="0" />
<path
   stroke-miterlimit="2.613"
   d="m 2.486866,23.327145 20.97,-20.8490001 c 0.914,-0.908 2.467,-0.841 3.454,0.15 l 20.666,20.7860001 c 0.986,0.991 1.045,2.547 0.131,3.456 l -20.969,20.847 c -0.914,0.908 -2.469,0.842 -3.455,-0.15 l -20.667,-20.785 c -0.986,-0.992 -1.044,-2.546 -0.13,-3.455 z"
   id="path7"
   inkscape:connector-curvature="0"
   style="fill:none;stroke:#000000;stroke-width:1.63;stroke-miterlimit:2.61299992" />
<path
   clip-rule="evenodd"
   d="m 18.745866,26.604145 c -0.15,-0.11 -0.299,-0.219 -0.415,-0.363 -0.044,-0.068 -0.075,-0.155 -0.092,-0.262 -0.003,-0.061 0.014,-0.078 0.05,-0.055 0.22,0.137 0.378,0.363 0.502,0.641 0.025,0.051 0.009,0.064 -0.045,0.039 m 0.051,-9.257 c -0.867,0 -1.734,-0.001 -2.602,-0.001 -1.249,0.614 -1.978,1.67 -1.973,3.35 0,0.366 0,0.731 0,1.096 0.227,0.623 0.861,0.521 0.939,0 -0.001,-0.366 -0.001,-0.732 -0.003,-1.098 -0.004,-0.593 0.162,-1.078 0.497,-1.458 0.017,0.046 0.032,0.093 0.049,0.14 0.004,1.526 0.008,3.052 0.012,4.579 -0.114,-0.701 -1.166,-0.656 -1.236,0 0,1.34 0,2.68 0,4.021 0.182,0.814 1.315,0.68 1.323,0 0,-0.771 0,-1.543 0,-2.316 -0.016,-0.268 0.154,-0.278 0.299,-0.184 0.319,0.2 0.638,0.4 0.955,0.6 0.085,0.082 0.03,0.225 -0.092,0.275 -0.921,0.258 -1.089,1.086 -1.047,2.074 0.004,0.803 0.008,1.607 0.012,2.41 0.058,0.346 0.527,0.268 0.53,0 0,-1.057 0,-2.115 0,-3.172 0.121,-1.462 2.286,-1.112 2.345,-0.001 0,1.323 0,2.649 0,3.972 0.211,0.932 1.287,0.844 1.33,0 0,-1.777 0,-3.558 0,-5.337 -0.103,-0.593 -0.403,-0.885 -0.783,-1.054 -0.053,-0.031 -0.051,-0.113 -0.055,-0.19 -0.001,-1.892 -0.002,-3.783 -0.004,-5.675 -0.008,-0.124 0,-0.193 0.044,-0.143 0.314,0.386 0.477,0.878 0.501,1.465 -0.002,0.367 -0.004,0.733 -0.007,1.1 0.087,0.686 0.935,0.552 0.94,-0.005 0.002,-0.365 0.005,-0.728 0.007,-1.093 0.043,-1.504 -0.595,-2.635 -1.981,-3.355 z"
   id="path9"
   inkscape:connector-curvature="0"
   style="fill-rule:evenodd" />
<path
   clip-rule="evenodd"
   d="m 17.560866,14.760145 c -0.679,0 -1.229,0.55 -1.229,1.23 0,0.679 0.551,1.23 1.229,1.23 0.681,0 1.231,-0.551 1.231,-1.23 0,-0.679 -0.551,-1.23 -1.231,-1.23"
   id="path11"
   inkscape:connector-curvature="0"
   style="fill-rule:evenodd" />
<path
   clip-rule="evenodd"
   d="m 15.978866,28.407145 h -1.369 c -0.038,0 -0.07,0.031 -0.07,0.07 v 0.453 c 0,0.037 0.032,0.068 0.07,0.068 h 1.369 c 0.039,0 0.071,-0.031 0.071,-0.068 v -0.453 c 0,-0.039 -0.032,-0.07 -0.071,-0.07"
   id="path13"
   inkscape:connector-curvature="0"
   style="fill-rule:evenodd" />
<path
   clip-rule="evenodd"
   d="m 17.527866,26.716145 c -0.344,0 -0.624,0.298 -0.624,0.66 v 7.157 c 0,0.363 0.28,0.66 0.624,0.66 0.344,0 0.624,-0.297 0.624,-0.66 v -7.157 c 0.001,-0.362 -0.28,-0.66 -0.624,-0.66"
   id="path15"
   inkscape:connector-curvature="0"
   style="fill-rule:evenodd" />
<path
   clip-rule="evenodd"
   d="m 20.947866,22.110145 h -6.712 c -0.038,0 -0.069,0.031 -0.069,0.07 v 0.464 c 0,0.039 0.031,0.07 0.069,0.07 h 6.712 c 0.039,0 0.068,-0.031 0.068,-0.07 v -0.464 c 0.001,-0.038 -0.029,-0.07 -0.068,-0.07"
   id="path17"
   inkscape:connector-curvature="0"
   style="fill-rule:evenodd" />
<path
   clip-rule="evenodd"
   d="m 19.933866,32.102145 c 0.107,0.041 0.213,0.082 0.319,0.123 0.021,0.01 0.033,0.027 0.036,0.057 0,0.162 0,0.324 0,0.488 -0.002,0.031 -0.015,0.057 -0.061,0.061 -0.478,0 -0.956,0 -1.434,0 -0.036,0 -0.064,-0.025 -0.064,-0.061 0,-0.162 0,-0.324 0,-0.488 -0.002,-0.031 0.017,-0.049 0.042,-0.061 0.09,-0.035 0.179,-0.07 0.268,-0.107 0.298,-0.004 0.596,-0.008 0.894,-0.012"
   id="path19"
   inkscape:connector-curvature="0"
   style="fill-rule:evenodd" />
<path
   clip-rule="evenodd"
   d="m 32.047866,14.065145 c 0.93,0 1.684,0.754 1.684,1.683 0,0.93 -0.754,1.683 -1.684,1.683 -0.928,0 -1.682,-0.753 -1.682,-1.683 0,-0.929 0.754,-1.683 1.682,-1.683"
   id="path21"
   inkscape:connector-curvature="0"
   style="fill-rule:evenodd" />
<path
   clip-rule="evenodd"
   d="m 29.302866,18.749145 c 1.125,-1.478 5.406,-1.654 5.85,1.246 l 0.801,3.49 0.207,1.736 c 0.08,1.166 -1.313,1.185 -1.412,0.153 l -0.221,-1.703 -0.416,-2.416 0.074,12.944 c -0.088,1.287 -1.949,1.146 -2.018,-0.006 l -0.232,-7.83 c -0.004,-0.106 -0.129,-0.086 -0.133,-0.02 l -0.627,6.768 c -0.336,1.375 -1.963,0.715 -1.871,-0.197 l 0.568,-6.999 0.055,-5.083 c -0.002,-0.013 -0.004,-0.015 -0.012,-0.006 l -0.979,2.084 0.014,2.432 c -0.102,0.859 -1.234,0.688 -1.209,0.001 l -0.049,-2.977 0.033,-0.273 1.577,-3.344"
   id="path23"
   inkscape:connector-curvature="0"
   style="fill-rule:evenodd" />
</svg>