<?xml version="1.0" encoding="UTF-8" standalone="no"?>
<!-- Generator: Adobe Illustrator 15.0.2, SVG Export Plug-In . SVG Version: 6.00 Build 0)  -->

<svg
   xmlns:dc="http://purl.org/dc/elements/1.1/"
   xmlns:cc="http://creativecommons.org/ns#"
   xmlns:rdf="http://www.w3.org/1999/02/22-rdf-syntax-ns#"
   xmlns:svg="http://www.w3.org/2000/svg"
   xmlns="http://www.w3.org/2000/svg"
   xmlns:sodipodi="http://sodipodi.sourceforge.net/DTD/sodipodi-0.dtd"
   xmlns:inkscape="http://www.inkscape.org/namespaces/inkscape"
   version="1.0"
   id="Layer_1"
   x="0px"
   y="0px"
   width="50.909153"
   height="50.194767"
   viewBox="0 0 50.909153 50.194766"
   enable-background="new 0 0 50.702 49.949"
   xml:space="preserve"
   inkscape:version="0.48.4 r9939"
   sodipodi:docname="Ajax.svg"><metadata
   id="metadata21"><rdf:RDF><cc:Work
       rdf:about=""><dc:format>image/svg+xml</dc:format><dc:type
         rdf:resource="http://purl.org/dc/dcmitype/StillImage" /></cc:Work></rdf:RDF></metadata><defs
   id="defs19" /><sodipodi:namedview
   pagecolor="#ffffff"
   bordercolor="#666666"
   borderopacity="1"
   objecttolerance="10"
   gridtolerance="10"
   guidetolerance="10"
   inkscape:pageopacity="0"
   inkscape:pageshadow="2"
   inkscape:window-width="1280"
   inkscape:window-height="1001"
   id="namedview17"
   showgrid="false"
   fit-margin-top="0.1"
   fit-margin-bottom="0.1"
   fit-margin-right="0.1"
   fit-margin-left="0.1"
   inkscape:zoom="9.4496384"
   inkscape:cx="19.498853"
   inkscape:cy="20.719672"
   inkscape:window-x="-8"
   inkscape:window-y="-8"
   inkscape:window-maximized="1"
   inkscape:current-layer="Layer_1" />
<path
   clip-rule="evenodd"
   d="M 1.1170072,22.414602 22.873007,1.0886024 c 1.433,-1.40399995 3.869,-1.29999995 5.414,0.232 l 21.299,21.1219996 c 1.547,1.531 1.639,3.935 0.205,5.339 l -21.756,21.324 c -1.433,1.404 -3.869,1.301 -5.414,-0.23 l -21.2989998,-21.122 c -1.54600002,-1.533 -1.63700002,-3.934 -0.205,-5.339"
   id="path3"
   style="fill:#ffd700;fill-opacity:1;fill-rule:evenodd;stroke:none"
   inkscape:connector-curvature="0" />
<path
   clip-rule="evenodd"
   d="M 2.5200072,23.326602 23.790007,2.4776024 c 0.927,-0.909 2.502,-0.841 3.502,0.15 l 20.963,20.7859996 c 1,0.991 1.06,2.545 0.132,3.456 l -21.268,20.847 c -0.928,0.91 -2.503,0.842 -3.503,-0.148 l -20.9629998,-20.787 c -1,-0.991 -1.059,-2.546 -0.133,-3.455"
   id="path5"
   style="fill:#ffd700;fill-opacity:1;fill-rule:evenodd;stroke:none"
   inkscape:connector-curvature="0" />
<path
   stroke-miterlimit="2.613"
   d="M 2.5190072,23.326602 23.790007,2.4776024 c 0.927,-0.909 2.504,-0.841 3.504,0.15 l 20.961,20.7859996 c 1,0.991 1.059,2.547 0.133,3.456 l -21.27,20.848 c -0.928,0.91 -2.504,0.842 -3.504,-0.148 l -20.9609998,-20.788 c -1,-0.991 -1.059,-2.546 -0.134,-3.455 z"
   id="path7"
   inkscape:connector-curvature="0"
   style="fill:none;stroke:#000000;stroke-width:1.64100003;stroke-miterlimit:2.61299992" />
<path
   clip-rule="evenodd"
   d="m 22.825007,18.461602 c 0.441,1.669 0.882,3.338 1.324,5.008 -1.556,4.246 -3.113,8.492 -4.669,12.738 -0.699,2.408 1.694,3.178 2.814,1.199 1.343,-3.26 2.725,-6.623 4.069,-9.881 0.194,-0.57 0.43,-0.49 0.536,-0.02 0.747,3.195 1.493,6.389 2.239,9.584 0.307,2.016 3.346,2.348 3.135,-0.566 -1.195,-6.139 -2.389,-12.502 -3.582,-18.64 1.897,1.052 3.864,2.241 5.764,3.292 2.009,0.718 2.086,-0.755 0.988,-1.594 -1.259,-0.82 -2.552,-1.536 -3.81,-2.356 -1.259,-0.904 -2.517,-1.807 -3.774,-2.711 -0.367,-0.289 -0.888,-0.522 -1.564,-0.465 -1.066,0.147 -2.103,0.381 -3.168,0.528 -0.688,0.165 -1.134,0.463 -1.472,0.819 -0.81,0.925 -1.62,1.85 -2.43,2.776 -1.237,0.398 -2.473,0.798 -3.71,1.198 -1.525,0.499 -0.998,2.16 0.447,1.891 1.599,-0.378 3.199,-0.757 4.798,-1.135 0.234,-0.168 0.469,-0.336 0.703,-0.504 0.309,-0.429 0.616,-0.858 0.924,-1.286 0.146,0.042 0.292,0.083 0.438,0.125"
   id="path9"
   inkscape:connector-curvature="0"
   style="fill-rule:evenodd" />
<path
   stroke-miterlimit="2.613"
   d="m 22.825007,18.461602 c 0.441,1.669 0.882,3.338 1.323,5.007 -1.556,4.246 -3.113,8.492 -4.669,12.738 -0.699,2.408 1.694,3.176 2.815,1.199 1.343,-3.26 2.725,-6.623 4.068,-9.881 0.193,-0.57 0.431,-0.49 0.536,-0.02 0.747,3.195 1.493,6.389 2.24,9.586 0.305,2.014 3.345,2.346 3.134,-0.568 -1.194,-6.139 -2.389,-12.501 -3.582,-18.64 1.897,1.052 3.865,2.241 5.763,3.292 2.011,0.718 2.087,-0.754 0.989,-1.594 -1.26,-0.82 -2.553,-1.536 -3.811,-2.356 -1.258,-0.904 -2.516,-1.807 -3.773,-2.712 -0.367,-0.288 -0.887,-0.521 -1.564,-0.464 -1.066,0.147 -2.104,0.381 -3.169,0.528 -0.687,0.166 -1.133,0.463 -1.472,0.819 -0.81,0.925 -1.62,1.85 -2.43,2.775 -1.236,0.399 -2.473,0.798 -3.71,1.198 -1.524,0.5 -0.997,2.161 0.448,1.892 1.598,-0.379 3.197,-0.757 4.797,-1.135 0.234,-0.168 0.469,-0.337 0.704,-0.504 0.308,-0.428 0.615,-0.858 0.923,-1.286 0.148,0.043 0.294,0.084 0.44,0.126 z"
   id="path11"
   inkscape:connector-curvature="0"
   style="fill:none;stroke:#000000;stroke-width:0.156;stroke-miterlimit:2.61299992" />
<path
   clip-rule="evenodd"
   d="m 24.336007,9.0686024 c 1.224,0 2.218,0.9789996 2.218,2.1859996 0,1.207 -0.994,2.186 -2.218,2.186 -1.224,0 -2.218,-0.979 -2.218,-2.186 0,-1.207 0.994,-2.1859996 2.218,-2.1859996"
   id="path13"
   inkscape:connector-curvature="0"
   style="fill-rule:evenodd" />
<ellipse
   stroke-miterlimit="2.613"
   cx="24.236"
   cy="11.132"
   rx="2.2179999"
   ry="2.1860001"
   id="ellipse15"
   sodipodi:cx="24.236"
   sodipodi:cy="11.132"
   sodipodi:rx="2.2179999"
   sodipodi:ry="2.1860001"
   style="fill:none;stroke:#000000;stroke-width:0.156;stroke-miterlimit:2.61299992"
   transform="translate(0.10000718,0.12260245)" />
</svg>