<?xml version="1.0" encoding="UTF-8" standalone="no"?>
<!-- Generator: Adobe Illustrator 15.0.2, SVG Export Plug-In . SVG Version: 6.00 Build 0)  -->

<svg
   xmlns:dc="http://purl.org/dc/elements/1.1/"
   xmlns:cc="http://creativecommons.org/ns#"
   xmlns:rdf="http://www.w3.org/1999/02/22-rdf-syntax-ns#"
   xmlns:svg="http://www.w3.org/2000/svg"
   xmlns="http://www.w3.org/2000/svg"
   xmlns:sodipodi="http://sodipodi.sourceforge.net/DTD/sodipodi-0.dtd"
   xmlns:inkscape="http://www.inkscape.org/namespaces/inkscape"
   version="1.0"
   id="Layer_1"
   x="0px"
   y="0px"
   width="50.194088"
   height="50.195599"
   viewBox="0 0 50.194089 50.1956"
   enable-background="new 0 0 49.994 49.996"
   xml:space="preserve"
   inkscape:version="0.48.4 r9939"
   sodipodi:docname="Ajax.svg"><metadata
   id="metadata29"><rdf:RDF><cc:Work
       rdf:about=""><dc:format>image/svg+xml</dc:format><dc:type
         rdf:resource="http://purl.org/dc/dcmitype/StillImage" /></cc:Work></rdf:RDF></metadata><defs
   id="defs27" /><sodipodi:namedview
   pagecolor="#ffffff"
   bordercolor="#666666"
   borderopacity="1"
   objecttolerance="10"
   gridtolerance="10"
   guidetolerance="10"
   inkscape:pageopacity="0"
   inkscape:pageshadow="2"
   inkscape:window-width="1280"
   inkscape:window-height="1001"
   id="namedview25"
   showgrid="false"
   fit-margin-top="0.1"
   fit-margin-bottom="0.1"
   fit-margin-right="0.1"
   fit-margin-left="0.1"
   inkscape:zoom="9.4407556"
   inkscape:cx="36.115889"
   inkscape:cy="19.925137"
   inkscape:window-x="-8"
   inkscape:window-y="-8"
   inkscape:window-maximized="1"
   inkscape:current-layer="Layer_1" />
<path
   clip-rule="evenodd"
   d="m 1.1023659,22.414603 21.4500001,-21.326 c 1.412,-1.40399995 3.814,-1.29999995 5.338,0.232 l 20.999,21.121 c 1.524,1.532 1.614,3.936 0.202,5.339 l -21.449,21.326 c -1.413,1.405 -3.815,1.3 -5.338,-0.232 l -21.0000001,-21.12 c -1.52299999,-1.532 -1.61399999,-3.936 -0.202,-5.34"
   id="path3"
   style="fill:#ffd700;fill-opacity:1;fill-rule:evenodd;stroke:none"
   inkscape:connector-curvature="0" />
<path
   clip-rule="evenodd"
   d="m 2.4863659,23.326603 20.9700001,-20.849 c 0.914,-0.909 2.468,-0.841 3.454,0.151 l 20.668,20.785 c 0.986,0.992 1.043,2.546 0.131,3.455 l -20.971,20.85 c -0.914,0.909 -2.469,0.841 -3.455,-0.15 l -20.6660001,-20.787 c -0.986,-0.992 -1.045,-2.546 -0.131,-3.455"
   id="path5"
   style="fill:#ffd700;fill-opacity:1;fill-rule:evenodd;stroke:none"
   inkscape:connector-curvature="0" />
<path
   stroke-miterlimit="2.613"
   d="m 2.4863659,23.326603 20.9700001,-20.849 c 0.914,-0.909 2.468,-0.841 3.454,0.151 l 20.668,20.785 c 0.986,0.992 1.043,2.546 0.131,3.455 l -20.971,20.85 c -0.914,0.909 -2.469,0.841 -3.455,-0.15 l -20.6660001,-20.787 c -0.986,-0.992 -1.045,-2.546 -0.131,-3.455 z"
   id="path7"
   inkscape:connector-curvature="0"
   style="fill:none;stroke:#000000;stroke-width:1.63;stroke-miterlimit:2.61299992" />
<path
   clip-rule="evenodd"
   d="m 27.169366,22.392603 -3.283,11.128 c -0.86,2.845 1.313,3.55 2.188,1.475 l 3.102,-9.014 c 0.216,-0.708 0.839,-0.668 0.96,-0.099 l 2.013,8.9 c 0.336,2.048 2.896,2.528 2.619,-0.438 l -3.427,-16.074 c -0.107,-0.429 0.061,-0.517 0.449,-0.2 l 2.9,3.283 c 1.564,1.352 2.215,-0.212 1.365,-1.364 l -5.044,-5.73 c -0.444,-0.601 -1.035,-0.858 -1.772,-0.772 l -3.506,0.465 c -0.673,0.041 -1.246,0.558 -1.507,0.968 l -1.312,3.329 -2.001,1.987 c -1.232,0.774 -0.04,2.486 1.102,1.247 l 2.169,-1.938 1.143,-1.759 c 0.152,-0.439 0.354,-0.534 0.606,-0.286 l 1.236,4.892"
   id="path9"
   inkscape:connector-curvature="0"
   style="fill-rule:evenodd" />
<path
   stroke-miterlimit="2.613"
   d="m 27.169366,22.392603 -3.283,11.128 c -0.86,2.845 1.313,3.55 2.188,1.475 l 3.102,-9.014 c 0.216,-0.708 0.839,-0.668 0.96,-0.099 l 2.013,8.9 c 0.336,2.048 2.896,2.528 2.619,-0.438 l -3.427,-16.074 c -0.107,-0.429 0.061,-0.517 0.449,-0.2 l 2.9,3.283 c 1.564,1.352 2.215,-0.212 1.365,-1.364 l -5.044,-5.73 c -0.444,-0.601 -1.035,-0.858 -1.772,-0.772 l -3.506,0.465 c -0.673,0.041 -1.246,0.558 -1.507,0.968 l -1.312,3.329 -2.001,1.987 c -1.232,0.774 -0.04,2.486 1.102,1.247 l 2.169,-1.938 1.143,-1.759 c 0.152,-0.439 0.354,-0.534 0.606,-0.286 l 1.236,4.892 z"
   id="path11"
   inkscape:connector-curvature="0"
   style="fill:none;stroke:#000000;stroke-width:0.155;stroke-miterlimit:2.61299992" />
<path
   clip-rule="evenodd"
   d="m 26.638366,9.149603 c 1.102,0 1.993,0.893 1.993,1.994 0,1.101 -0.892,1.993 -1.993,1.993 -1.101,0 -1.994,-0.892 -1.994,-1.993 0,-1.101 0.893,-1.994 1.994,-1.994"
   id="path13"
   inkscape:connector-curvature="0"
   style="fill-rule:evenodd" />
<circle
   stroke-miterlimit="2.613"
   cx="26.538"
   cy="11.043"
   r="1.994"
   id="circle15"
   sodipodi:cx="26.538"
   sodipodi:cy="11.043"
   sodipodi:rx="1.994"
   sodipodi:ry="1.994"
   style="fill:none;stroke:#000000;stroke-width:0.155;stroke-miterlimit:2.61299992"
   transform="translate(0.10036591,0.10060305)" />
<path
   clip-rule="evenodd"
   d="m 17.377366,17.439603 c 0.885,0 1.602,0.718 1.602,1.602 0,0.887 -0.717,1.604 -1.602,1.604 -0.885,0 -1.603,-0.718 -1.603,-1.604 0,-0.884 0.718,-1.602 1.603,-1.602"
   id="path17"
   inkscape:connector-curvature="0"
   style="fill-rule:evenodd" />
<circle
   stroke-miterlimit="2.613"
   cx="17.277"
   cy="18.941999"
   r="1.603"
   id="circle19"
   sodipodi:cx="17.277"
   sodipodi:cy="18.941999"
   sodipodi:rx="1.603"
   sodipodi:ry="1.603"
   style="fill:none;stroke:#000000;stroke-width:0.155;stroke-miterlimit:2.61299992"
   transform="translate(0.10036591,0.10060305)" />
<path
   clip-rule="evenodd"
   d="m 17.839366,21.139603 c -0.417,0 -0.833,0 -1.25,0 -0.38,0.044 -0.688,0.21 -0.923,0.598 -0.508,0.635 -1.014,1.27 -1.522,1.905 -0.543,0.47 -1.086,0.942 -1.63,1.413 -0.679,0.684 -0.079,1.443 0.924,0.816 0.453,-0.398 0.905,-0.798 1.358,-1.196 0.368,-0.398 0.86,-0.602 0.543,0.325 -0.47,1.307 -0.941,2.611 -1.413,3.918 l 1.576,0.08 -1.306,5.469 c -0.144,1.262 0.791,1.389 1.228,0.271 l 1.274,-5.74 0.706,0.028 c 0.38,1.831 0.76,3.662 1.141,5.494 0.128,1.851 1.686,1.627 1.195,-0.218 -0.271,-1.74 -0.543,-3.533 -0.815,-5.274 0.489,-0.054 0.978,-0.056 1.467,-0.11 -0.362,-1.796 -0.724,-3.591 -1.086,-5.387 0.779,0.454 1.557,0.907 2.336,1.361 -0.145,0.162 -0.291,0.326 -0.435,0.489 0.362,0.309 0.724,0.615 1.087,0.925 0.598,-0.744 1.195,-1.487 1.793,-2.23 -0.363,-0.309 -0.725,-0.617 -1.087,-0.925 -0.217,0.254 -0.435,0.508 -0.652,0.761 l -4.509,-2.773"
   id="path21"
   inkscape:connector-curvature="0"
   style="fill-rule:evenodd" />
<path
   stroke-miterlimit="2.613"
   d="m 17.839366,21.139603 c -0.417,0 -0.833,0 -1.25,0 -0.38,0.044 -0.688,0.21 -0.923,0.598 -0.508,0.635 -1.014,1.27 -1.522,1.905 -0.543,0.47 -1.086,0.942 -1.63,1.413 -0.679,0.684 -0.079,1.443 0.924,0.816 0.453,-0.398 0.905,-0.798 1.358,-1.196 0.368,-0.398 0.86,-0.602 0.543,0.325 -0.47,1.307 -0.941,2.611 -1.413,3.918 l 1.576,0.08 -1.306,5.469 c -0.144,1.262 0.791,1.389 1.228,0.271 l 1.274,-5.74 0.706,0.028 c 0.38,1.831 0.76,3.662 1.141,5.494 0.128,1.851 1.686,1.627 1.195,-0.218 -0.271,-1.74 -0.543,-3.533 -0.815,-5.274 0.489,-0.054 0.978,-0.056 1.467,-0.11 -0.362,-1.796 -0.724,-3.591 -1.086,-5.387 0.779,0.454 1.557,0.907 2.336,1.361 -0.145,0.162 -0.291,0.326 -0.435,0.489 0.362,0.309 0.724,0.615 1.087,0.925 0.598,-0.744 1.195,-1.487 1.793,-2.23 -0.363,-0.309 -0.725,-0.617 -1.087,-0.925 -0.217,0.254 -0.435,0.508 -0.652,0.761 l -4.509,-2.773 z"
   id="path23"
   inkscape:connector-curvature="0"
   style="fill:none;stroke:#000000;stroke-width:0.155;stroke-miterlimit:2.61299992" />
</svg>