<?xml version="1.0" encoding="UTF-8" standalone="no"?>
<!-- Generator: Adobe Illustrator 15.0.2, SVG Export Plug-In . SVG Version: 6.00 Build 0)  -->

<svg
   xmlns:dc="http://purl.org/dc/elements/1.1/"
   xmlns:cc="http://creativecommons.org/ns#"
   xmlns:rdf="http://www.w3.org/1999/02/22-rdf-syntax-ns#"
   xmlns:svg="http://www.w3.org/2000/svg"
   xmlns="http://www.w3.org/2000/svg"
   xmlns:sodipodi="http://sodipodi.sourceforge.net/DTD/sodipodi-0.dtd"
   xmlns:inkscape="http://www.inkscape.org/namespaces/inkscape"
   version="1.0"
   id="Layer_1"
   x="0px"
   y="0px"
   width="50.908302"
   height="50.909859"
   viewBox="0 0 50.908302 50.90986"
   enable-background="new 0 0 50.812 50.71"
   xml:space="preserve"
   inkscape:version="0.48.4 r9939"
   sodipodi:docname="Ajax.svg"><metadata
   id="metadata25"><rdf:RDF><cc:Work
       rdf:about=""><dc:format>image/svg+xml</dc:format><dc:type
         rdf:resource="http://purl.org/dc/dcmitype/StillImage" /></cc:Work></rdf:RDF></metadata><defs
   id="defs23" /><sodipodi:namedview
   pagecolor="#ffffff"
   bordercolor="#666666"
   borderopacity="1"
   objecttolerance="10"
   gridtolerance="10"
   guidetolerance="10"
   inkscape:pageopacity="0"
   inkscape:pageshadow="2"
   inkscape:window-width="1280"
   inkscape:window-height="1001"
   id="namedview21"
   showgrid="false"
   fit-margin-top="0.1"
   fit-margin-bottom="0.1"
   fit-margin-right="0.1"
   fit-margin-left="0.1"
   inkscape:zoom="13.163258"
   inkscape:cx="36.690129"
   inkscape:cy="28.385764"
   inkscape:window-x="-8"
   inkscape:window-y="-8"
   inkscape:window-maximized="1"
   inkscape:current-layer="Layer_1" />
<path
   clip-rule="evenodd"
   d="M 1.1159028,22.73343 22.872903,1.1024302 c 1.433,-1.42400001 3.868,-1.31800001 5.413,0.236 l 21.3,21.4229998 c 1.546,1.554 1.638,3.991 0.205,5.415 l -21.756,21.631 c -1.433,1.424 -3.869,1.318 -5.414,-0.236 L 1.3209028,28.14943 c -1.54400001,-1.555 -1.63600001,-3.991 -0.205,-5.416"
   id="path3"
   style="fill:#ffd700;fill-opacity:1;fill-rule:evenodd;stroke:none"
   inkscape:connector-curvature="0" />
<path
   clip-rule="evenodd"
   d="M 2.5209028,23.65843 23.788903,2.5114302 c 0.928,-0.922 2.504,-0.853 3.504,0.153 l 20.962,21.0829998 c 0.999,1.005 1.06,2.582 0.133,3.503 l -21.27,21.148 c -0.927,0.922 -2.504,0.852 -3.504,-0.154 L 2.6519028,27.16243 c -1,-1.006 -1.059,-2.583 -0.131,-3.504"
   id="path5"
   style="fill:#ffd700;fill-opacity:1;fill-rule:evenodd;stroke:none"
   inkscape:connector-curvature="0" />
<path
   stroke-miterlimit="2.613"
   d="M 2.5209028,23.65843 23.788903,2.5114302 c 0.928,-0.922 2.504,-0.853 3.504,0.153 l 20.962,21.0829998 c 0.999,1.005 1.06,2.582 0.133,3.503 l -21.27,21.148 c -0.927,0.922 -2.504,0.852 -3.504,-0.154 L 2.6519028,27.16243 c -1,-1.006 -1.059,-2.583 -0.131,-3.504 z"
   id="path7"
   inkscape:connector-curvature="0"
   style="fill:none;stroke:#000000;stroke-width:1.653;stroke-miterlimit:2.61299992" />
<path
   clip-rule="evenodd"
   d="m 25.219903,18.93943 c 0,1.748 0,3.495 0,5.243 -0.749,2.132 -1.498,4.263 -2.247,6.396 -0.088,0.383 -0.126,0.768 -0.059,1.152 0.25,1.939 0.5,3.879 0.75,5.82 0.189,1.77 2.37,1.691 2.247,-0.289 -0.173,-1.92 -0.346,-3.842 -0.519,-5.762 0.94,-1.613 1.882,-3.227 2.824,-4.84 1.017,1.613 2.035,3.227 3.053,4.84 0.397,0.551 0.935,0.838 1.614,0.863 1.421,0 2.842,0 4.263,0 1.954,-0.037 1.612,-2.156 -0.058,-2.131 -1.018,-0.078 -2.035,-0.154 -3.054,-0.23 -0.507,-0.096 -0.891,-0.385 -1.151,-0.863 -0.711,-1.691 -1.422,-3.383 -2.133,-5.072 -0.02,-1.71 -0.039,-3.419 -0.058,-5.128 -0.024,-0.478 0.11,-0.612 0.403,-0.403 0.441,0.499 0.884,0.998 1.324,1.497 0.06,0.999 0.116,1.998 0.174,2.997 0.046,1.696 1.701,1.41 1.556,0 -0.019,-1.287 -0.038,-2.575 -0.057,-3.861 -0.11,-0.533 -0.304,-0.843 -0.52,-1.095 -0.768,-0.826 -1.537,-1.652 -2.305,-2.477 -0.386,-0.399 -1.074,-0.624 -2.114,-0.554 l -3.474,0.093 c -1.152,-0.003 -2.025,0.663 -2.709,1.786 -0.365,0.576 -0.73,1.152 -1.096,1.729 -0.25,0.378 -0.564,0.608 -0.863,0.69 -0.885,0.231 -1.768,0.462 -2.651,0.691 -1.326,0.454 -1.474,1.926 0.346,2.018 1.191,-0.326 2.383,-0.653 3.572,-0.979 0.265,-0.081 0.494,-0.25 0.692,-0.462 0.538,-0.595 1.075,-1.19 1.612,-1.786 0.204,-0.247 0.605,-0.334 0.638,0.117"
   id="path9"
   inkscape:connector-curvature="0"
   style="fill-rule:evenodd" />
<path
   stroke-miterlimit="2.613"
   d="m 25.219903,18.93943 c 0,1.748 0,3.495 0,5.243 -0.749,2.132 -1.498,4.263 -2.247,6.396 -0.088,0.383 -0.126,0.768 -0.059,1.152 0.25,1.939 0.5,3.879 0.75,5.82 0.189,1.77 2.37,1.691 2.247,-0.289 -0.173,-1.92 -0.346,-3.842 -0.519,-5.762 0.94,-1.613 1.882,-3.227 2.824,-4.84 1.017,1.613 2.035,3.227 3.053,4.84 0.397,0.551 0.935,0.838 1.614,0.863 1.421,0 2.842,0 4.263,0 1.954,-0.037 1.612,-2.156 -0.058,-2.131 -1.018,-0.078 -2.035,-0.154 -3.054,-0.23 -0.507,-0.096 -0.891,-0.385 -1.151,-0.863 -0.711,-1.691 -1.422,-3.383 -2.133,-5.072 -0.02,-1.71 -0.039,-3.419 -0.058,-5.128 -0.024,-0.478 0.11,-0.612 0.403,-0.403 0.441,0.499 0.884,0.998 1.324,1.497 0.06,0.999 0.116,1.998 0.174,2.997 0.046,1.696 1.701,1.41 1.556,0 -0.019,-1.287 -0.038,-2.575 -0.057,-3.861 -0.11,-0.533 -0.304,-0.843 -0.52,-1.095 -0.768,-0.826 -1.537,-1.652 -2.305,-2.477 -0.386,-0.399 -1.074,-0.624 -2.114,-0.554 l -3.474,0.093 c -1.152,-0.003 -2.025,0.663 -2.709,1.786 -0.365,0.576 -0.73,1.152 -1.096,1.729 -0.25,0.378 -0.564,0.608 -0.863,0.69 -0.885,0.231 -1.768,0.462 -2.651,0.691 -1.326,0.454 -1.474,1.926 0.346,2.018 1.191,-0.326 2.383,-0.653 3.572,-0.979 0.265,-0.081 0.494,-0.25 0.692,-0.462 0.538,-0.595 1.075,-1.19 1.612,-1.786 0.204,-0.247 0.605,-0.334 0.638,0.117 z"
   id="path11"
   inkscape:connector-curvature="0"
   style="fill:none;stroke:#000000;stroke-width:0.15700001;stroke-miterlimit:2.61299992" />
<path
   clip-rule="evenodd"
   d="m 27.293903,9.6504302 c 1.272,0 2.305,1.0319998 2.305,2.3049998 0,1.273 -1.032,2.305 -2.305,2.305 -1.273,0 -2.305,-1.032 -2.305,-2.305 0,-1.273 1.033,-2.3049998 2.305,-2.3049998"
   id="path13"
   inkscape:connector-curvature="0"
   style="fill-rule:evenodd" />
<circle
   stroke-miterlimit="2.613"
   cx="27.246"
   cy="11.856"
   r="2.3050001"
   id="circle15"
   sodipodi:cx="27.246"
   sodipodi:cy="11.856"
   sodipodi:rx="2.3050001"
   sodipodi:ry="2.3050001"
   style="fill:none;stroke:#000000;stroke-width:0.15700001;stroke-miterlimit:2.61299992"
   transform="translate(0.04790279,0.09943019)" />
<path
   clip-rule="evenodd"
   d="m 16.201903,29.59943 c 1.574,0 2.853,1.275 2.853,2.85 0,1.576 -1.278,2.854 -2.853,2.854 -1.575,0 -2.852,-1.277 -2.852,-2.854 0.001,-1.574 1.277,-2.85 2.852,-2.85"
   id="path17"
   inkscape:connector-curvature="0"
   style="fill-rule:evenodd" />
<circle
   stroke-miterlimit="2.613"
   cx="16.153999"
   cy="32.352001"
   r="2.852"
   id="circle19"
   sodipodi:cx="16.153999"
   sodipodi:cy="32.352001"
   sodipodi:rx="2.852"
   sodipodi:ry="2.852"
   style="fill:none;stroke:#000000;stroke-width:0.15700001;stroke-miterlimit:2.61299992"
   transform="translate(0.04790279,0.09943019)" />
</svg>