<?xml version="1.0" encoding="UTF-8" standalone="no"?>
<!-- Generator: Adobe Illustrator 15.0.2, SVG Export Plug-In . SVG Version: 6.00 Build 0)  -->

<svg
   xmlns:dc="http://purl.org/dc/elements/1.1/"
   xmlns:cc="http://creativecommons.org/ns#"
   xmlns:rdf="http://www.w3.org/1999/02/22-rdf-syntax-ns#"
   xmlns:svg="http://www.w3.org/2000/svg"
   xmlns="http://www.w3.org/2000/svg"
   xmlns:sodipodi="http://sodipodi.sourceforge.net/DTD/sodipodi-0.dtd"
   xmlns:inkscape="http://www.inkscape.org/namespaces/inkscape"
   version="1.0"
   id="Layer_1"
   x="0px"
   y="0px"
   width="50.193584"
   height="50.195747"
   viewBox="0 0 50.193585 50.195749"
   enable-background="new 0 0 49.994 49.996"
   xml:space="preserve"
   inkscape:version="0.48.4 r9939"
   sodipodi:docname="Ajax.svg"><metadata
   id="metadata17"><rdf:RDF><cc:Work
       rdf:about=""><dc:format>image/svg+xml</dc:format><dc:type
         rdf:resource="http://purl.org/dc/dcmitype/StillImage" /></cc:Work></rdf:RDF></metadata><defs
   id="defs15" /><sodipodi:namedview
   pagecolor="#ffffff"
   bordercolor="#666666"
   borderopacity="1"
   objecttolerance="10"
   gridtolerance="10"
   guidetolerance="10"
   inkscape:pageopacity="0"
   inkscape:pageshadow="2"
   inkscape:window-width="1280"
   inkscape:window-height="1001"
   id="namedview13"
   showgrid="false"
   fit-margin-top="0.1"
   fit-margin-bottom="0.1"
   fit-margin-right="0.1"
   fit-margin-left="0.1"
   inkscape:zoom="9.4407556"
   inkscape:cx="32.737118"
   inkscape:cy="16.941878"
   inkscape:window-x="-8"
   inkscape:window-y="-8"
   inkscape:window-maximized="1"
   inkscape:current-layer="Layer_1" />
<path
   clip-rule="evenodd"
   d="M 1.1019728,22.414498 22.551973,1.0884983 c 1.412,-1.404 3.814,-1.3 5.336,0.233 l 21,21.1199997 c 1.525,1.533 1.615,3.936 0.203,5.339 l -21.451,21.327 c -1.412,1.404 -3.813,1.299 -5.336,-0.232 l -21.0000002,-21.121 c -1.52299992,-1.532 -1.61299992,-3.936 -0.202,-5.34"
   id="path3"
   style="fill:#ffd700;fill-opacity:1;fill-rule:evenodd;stroke:none"
   inkscape:connector-curvature="0" />
<path
   clip-rule="evenodd"
   d="M 2.4869728,23.326498 23.456973,2.4774983 c 0.915,-0.909 2.467,-0.841 3.453,0.151 l 20.666,20.7849997 c 0.986,0.992 1.045,2.548 0.131,3.455 l -20.969,20.85 c -0.914,0.909 -2.468,0.841 -3.454,-0.15 l -20.6660002,-20.787 c -0.987,-0.99 -1.045,-2.546 -0.131,-3.455"
   id="path5"
   style="fill:#ffd700;fill-opacity:1;fill-rule:evenodd;stroke:none"
   inkscape:connector-curvature="0" />
<path
   stroke-miterlimit="2.613"
   d="M 2.4869728,23.326498 23.456973,2.4774983 c 0.915,-0.909 2.467,-0.841 3.453,0.151 l 20.666,20.7849997 c 0.986,0.992 1.045,2.548 0.131,3.455 l -20.969,20.85 c -0.914,0.909 -2.468,0.841 -3.454,-0.15 l -20.6660002,-20.787 c -0.987,-0.99 -1.045,-2.546 -0.131,-3.455 z"
   id="path7"
   inkscape:connector-curvature="0"
   style="fill:none;stroke:#000000;stroke-width:1.63;stroke-miterlimit:2.61299992" />
<path
   clip-rule="evenodd"
   d="m 13.929973,23.014498 c 1.359,-0.275 2.232,0.132 2.46,1.442 0.183,0.453 0.334,0.906 0.637,1.359 0.155,1.896 0.877,3.057 2.162,3.481 0.019,0.694 0.022,1.387 0.256,2.082 0.01,0.382 0.129,0.729 0.296,1.061 0.113,0.747 0.071,1.47 -0.127,2.165 -0.185,0.269 -0.368,0.538 -0.552,0.807 -0.061,0.271 0.165,0.384 0.679,0.341 0.6,-0.064 0.579,-0.468 0.594,-0.85 0.144,-0.184 0.257,-0.369 0.297,-0.552 -0.043,-1.09 -0.085,-2.18 -0.127,-3.271 0.127,-0.367 0.254,-0.735 0.381,-1.104 0.142,0.111 0.283,0.196 0.424,0.255 -0.057,0.594 -0.033,1.188 0.17,1.783 0.176,0.793 0.171,1.551 0.085,2.294 -0.027,0.235 -0.057,0.419 -0.085,0.551 -0.127,0.255 -0.255,0.51 -0.382,0.764 0.41,0.18 0.82,0.128 1.231,0.043 0.17,-0.425 0.183,-0.85 0.041,-1.273 0.071,-0.014 0.142,-0.028 0.212,-0.042 -0.042,-0.496 -0.084,-0.991 -0.126,-1.486 -0.058,-0.722 -0.114,-1.444 -0.17,-2.166 0.056,-0.608 0.112,-1.218 0.17,-1.826 0.475,-0.647 1.561,-0.43 2.585,-0.297 2.053,0.609 3.865,0.515 5.471,-0.17 0.127,-0.097 0.254,-0.083 0.383,0.043 0.24,0.68 0.48,1.358 0.721,2.038 0.135,0.344 0.088,0.596 -0.043,0.808 -0.566,0.92 -1.131,1.84 -1.697,2.759 -0.281,0.368 -0.564,0.735 -0.848,1.104 -0.109,0.253 -0.041,0.406 0.426,0.34 0.271,0.08 0.436,0.027 0.551,-0.085 0.301,-0.161 0.34,-0.546 0.424,-0.891 0.848,-1.034 1.695,-2.067 2.545,-3.1 0.457,-0.699 0.309,-1.601 0.211,-2.378 0.031,-0.185 0.443,-0.211 0.68,0.085 0.207,0.721 0.447,1.442 0.764,2.166 -0.016,0.564 -0.029,1.132 -0.043,1.697 -0.326,0.495 -0.533,0.951 -0.857,1.447 0.014,0.198 -0.09,0.298 -0.076,0.496 -0.197,0.155 -0.396,0.449 -0.594,0.604 -0.115,0.437 0.193,0.561 1.441,0 0.1,-0.24 0.199,-0.481 0.297,-0.722 0.549,0.023 0.607,-0.653 0.764,-1.188 0.258,-0.919 0.479,-1.853 0.789,-2.562 -0.1,-0.813 -0.094,-1.518 0.018,-2.279 0.516,-1.161 0.912,-2.321 1.271,-3.482 0.029,1.501 0.057,3.001 0.084,4.501 -0.146,0.083 -0.188,0.184 -0.283,0.425 -0.02,0.141 -0.033,0.283 0.156,0.424 -0.111,0.085 -0.225,0.17 -0.338,0.256 -0.029,0.452 0.082,0.767 0.211,1.062 0.031,-0.175 0.076,-0.345 0.213,-0.467 0.309,-0.21 0.451,-0.46 0.551,-0.723 -0.07,-0.014 -0.141,-0.027 -0.213,-0.043 0.207,-0.355 0.273,-0.543 0.043,-0.891 -0.057,-1.643 -0.113,-3.284 -0.17,-4.926 -0.027,-0.426 -0.057,-0.85 -0.084,-1.274 0.121,-1.848 0.535,-4.582 -2.672,-3.906 -0.82,0.144 -1.641,0.095 -2.461,-0.043 -2.783,-1.088 -5.469,-1.049 -8.14,-0.849 -1.188,0 -2.375,-0.037 -3.563,-0.037 -0.839,-0.237 -1.699,-0.38 -2.586,-0.472 -0.934,-0.128 -1.774,-0.218 -2.708,-0.345 -0.816,-0.212 -1.707,-0.018 -2.509,0.133 -0.377,-0.432 -0.487,-0.441 -1.032,-0.465 0.227,0.479 0.347,0.523 0.82,0.804 0.083,0.125 0.069,0.299 -0.127,0.552 -0.309,0.257 -0.585,0.542 -0.679,0.977 -0.043,0.155 -0.084,0.312 -0.128,0.467 -0.282,0.354 -0.564,0.708 -0.849,1.063 -0.23,0.438 -0.313,0.877 -0.296,1.315 0.064,0.293 0.179,0.553 0.636,0.595 0.85,-0.03 1.638,-0.216 2.415,-0.424"
   id="path9"
   inkscape:connector-curvature="0"
   style="fill-rule:evenodd" />
<path
   stroke-miterlimit="2.613"
   d="m 13.929973,23.014498 c 1.359,-0.275 2.232,0.132 2.46,1.442 0.183,0.453 0.334,0.906 0.637,1.359 0.155,1.896 0.877,3.057 2.162,3.481 0.019,0.694 0.022,1.387 0.256,2.082 0.01,0.382 0.129,0.729 0.296,1.061 0.113,0.747 0.071,1.47 -0.127,2.165 -0.185,0.269 -0.368,0.538 -0.552,0.807 -0.061,0.271 0.165,0.384 0.679,0.341 0.6,-0.064 0.579,-0.468 0.594,-0.85 0.144,-0.184 0.257,-0.369 0.297,-0.552 -0.043,-1.09 -0.085,-2.18 -0.127,-3.271 0.127,-0.367 0.254,-0.735 0.381,-1.104 0.142,0.111 0.283,0.196 0.424,0.255 -0.057,0.594 -0.033,1.188 0.17,1.783 0.176,0.793 0.171,1.551 0.085,2.294 -0.027,0.235 -0.057,0.419 -0.085,0.551 -0.127,0.255 -0.255,0.51 -0.382,0.764 0.41,0.18 0.82,0.128 1.231,0.043 0.17,-0.425 0.183,-0.85 0.041,-1.273 0.071,-0.014 0.142,-0.028 0.212,-0.042 -0.042,-0.496 -0.084,-0.991 -0.126,-1.486 -0.058,-0.722 -0.114,-1.444 -0.17,-2.166 0.056,-0.608 0.112,-1.218 0.17,-1.826 0.475,-0.647 1.561,-0.43 2.585,-0.297 2.053,0.609 3.865,0.515 5.471,-0.17 0.127,-0.097 0.254,-0.083 0.383,0.043 0.24,0.68 0.48,1.358 0.721,2.038 0.135,0.344 0.088,0.596 -0.043,0.808 -0.566,0.92 -1.131,1.84 -1.697,2.759 -0.281,0.368 -0.564,0.735 -0.848,1.104 -0.109,0.253 -0.041,0.406 0.426,0.34 0.271,0.08 0.436,0.027 0.551,-0.085 0.301,-0.161 0.34,-0.546 0.424,-0.891 0.848,-1.034 1.695,-2.067 2.545,-3.1 0.457,-0.699 0.309,-1.601 0.211,-2.378 0.031,-0.185 0.443,-0.211 0.68,0.085 0.207,0.721 0.447,1.442 0.764,2.166 -0.016,0.564 -0.029,1.132 -0.043,1.697 -0.326,0.495 -0.533,0.951 -0.857,1.447 0.014,0.198 -0.09,0.298 -0.076,0.496 -0.197,0.155 -0.396,0.449 -0.594,0.604 -0.115,0.437 0.193,0.561 1.441,0 0.1,-0.24 0.199,-0.481 0.297,-0.722 0.549,0.023 0.607,-0.653 0.764,-1.188 0.258,-0.919 0.479,-1.853 0.789,-2.562 -0.1,-0.813 -0.094,-1.518 0.018,-2.279 0.516,-1.161 0.912,-2.321 1.271,-3.482 0.029,1.501 0.057,3.001 0.084,4.501 -0.146,0.083 -0.188,0.184 -0.283,0.425 -0.02,0.141 -0.033,0.283 0.156,0.424 -0.111,0.085 -0.225,0.17 -0.338,0.256 -0.029,0.452 0.082,0.767 0.211,1.062 0.031,-0.175 0.076,-0.345 0.213,-0.467 0.309,-0.21 0.451,-0.46 0.551,-0.723 -0.07,-0.014 -0.141,-0.027 -0.213,-0.043 0.207,-0.355 0.273,-0.543 0.043,-0.891 -0.057,-1.643 -0.113,-3.284 -0.17,-4.926 -0.027,-0.426 -0.057,-0.85 -0.084,-1.274 0.121,-1.848 0.535,-4.582 -2.672,-3.906 -0.82,0.144 -1.641,0.095 -2.461,-0.043 -2.783,-1.088 -5.469,-1.049 -8.14,-0.849 -1.188,0 -2.375,-0.037 -3.563,-0.037 -0.839,-0.237 -1.699,-0.38 -2.586,-0.472 -0.934,-0.128 -1.774,-0.218 -2.708,-0.345 -0.816,-0.212 -1.707,-0.018 -2.509,0.133 -0.377,-0.432 -0.487,-0.441 -1.032,-0.465 0.227,0.479 0.347,0.523 0.82,0.804 0.083,0.125 0.069,0.299 -0.127,0.552 -0.309,0.257 -0.585,0.542 -0.679,0.977 -0.043,0.155 -0.084,0.312 -0.128,0.467 -0.282,0.354 -0.564,0.708 -0.849,1.063 -0.23,0.438 -0.313,0.877 -0.296,1.315 0.064,0.293 0.179,0.553 0.636,0.595 0.85,-0.03 1.638,-0.216 2.415,-0.424 z"
   id="path11"
   inkscape:connector-curvature="0"
   style="fill:none;stroke:#000000;stroke-width:0.155;stroke-linejoin:round;stroke-miterlimit:2.61299992" />
</svg>