<?xml version="1.0" encoding="UTF-8" standalone="no"?>
<!-- Generator: Adobe Illustrator 15.0.2, SVG Export Plug-In . SVG Version: 6.00 Build 0)  -->

<svg
   xmlns:dc="http://purl.org/dc/elements/1.1/"
   xmlns:cc="http://creativecommons.org/ns#"
   xmlns:rdf="http://www.w3.org/1999/02/22-rdf-syntax-ns#"
   xmlns:svg="http://www.w3.org/2000/svg"
   xmlns="http://www.w3.org/2000/svg"
   xmlns:sodipodi="http://sodipodi.sourceforge.net/DTD/sodipodi-0.dtd"
   xmlns:inkscape="http://www.inkscape.org/namespaces/inkscape"
   version="1.0"
   id="Layer_1"
   x="0px"
   y="0px"
   width="50.908195"
   height="50.194393"
   viewBox="0 0 50.908196 50.194395"
   enable-background="new 0 0 50.709 49.996"
   xml:space="preserve"
   inkscape:version="0.48.4 r9939"
   sodipodi:docname="Ajax.svg"><metadata
   id="metadata17"><rdf:RDF><cc:Work
       rdf:about=""><dc:format>image/svg+xml</dc:format><dc:type
         rdf:resource="http://purl.org/dc/dcmitype/StillImage" /></cc:Work></rdf:RDF></metadata><defs
   id="defs15" /><sodipodi:namedview
   pagecolor="#ffffff"
   bordercolor="#666666"
   borderopacity="1"
   objecttolerance="10"
   gridtolerance="10"
   guidetolerance="10"
   inkscape:pageopacity="0"
   inkscape:pageshadow="2"
   inkscape:window-width="1280"
   inkscape:window-height="1001"
   id="namedview13"
   showgrid="false"
   fit-margin-top="0.1"
   fit-margin-bottom="0.1"
   fit-margin-right="0.1"
   fit-margin-left="0.1"
   inkscape:zoom="9.4407556"
   inkscape:cx="20.515699"
   inkscape:cy="22.33751"
   inkscape:window-x="-8"
   inkscape:window-y="-8"
   inkscape:window-maximized="1"
   inkscape:current-layer="Layer_1" />
<path
   clip-rule="evenodd"
   d="m 1.1166511,22.415146 21.7559999,-21.327 c 1.433,-1.404 3.868,-1.299 5.413,0.233 l 21.301,21.121 c 1.544,1.532 1.638,3.934 0.204,5.338 l -21.755,21.326 c -1.432,1.404 -3.868,1.299 -5.414,-0.232 l -21.2999999,-21.121 c -1.54500001,-1.531 -1.63700001,-3.934 -0.205,-5.338"
   id="path3"
   style="fill:#ffd700;fill-opacity:1;fill-rule:evenodd;stroke:none"
   inkscape:connector-curvature="0" />
<path
   clip-rule="evenodd"
   d="m 2.5206511,23.327146 21.2699999,-20.85 c 0.927,-0.908 2.504,-0.84 3.504,0.151 l 20.961,20.787 c 1,0.99 1.061,2.545 0.134,3.454 l -21.271,20.85 c -0.927,0.908 -2.504,0.842 -3.504,-0.15 l -20.9609999,-20.787 c -1,-0.992 -1.06,-2.546 -0.133,-3.455"
   id="path5"
   style="fill:#ffd700;fill-opacity:1;fill-rule:evenodd;stroke:none"
   inkscape:connector-curvature="0" />
<path
   stroke-miterlimit="2.613"
   d="m 2.5206511,23.327146 21.2699999,-20.85 c 0.927,-0.908 2.504,-0.84 3.504,0.151 l 20.962,20.786 c 1,0.991 1.06,2.546 0.132,3.457 l -21.27,20.848 c -0.928,0.908 -2.504,0.842 -3.504,-0.15 l -20.9609999,-20.787 c -1,-0.992 -1.06,-2.546 -0.133,-3.455 z"
   id="path7"
   inkscape:connector-curvature="0"
   style="fill:none;stroke:#000000;stroke-width:1.64100003;stroke-miterlimit:2.61299992" />
<path
   clip-rule="evenodd"
   d="m 28.730651,22.855146 c -3.687,-1.272 -5.114,-4.366 -4.746,-7.55 0.092,-0.591 0.184,-1.183 0.276,-1.774 0.292,-0.555 0.728,-0.797 1.244,-0.864 0.249,0.006 0.396,-0.289 0,-0.273 -0.216,0.061 -0.431,0.121 -0.646,0.182 -0.131,0.036 -0.161,-0.071 -0.092,-0.319 0.03,-0.135 0.061,-0.272 0.092,-0.409 0.093,-0.273 0.185,-0.546 0.277,-0.819 0.123,-0.302 0.245,-0.606 0.368,-0.909 0.119,-0.336 -0.09,-0.183 -0.159,-0.078 -0.182,0.157 -0.299,0.417 -0.394,0.715 -0.016,0.136 -0.031,0.273 -0.046,0.409 -0.076,0.171 -0.161,0.285 -0.323,0 -0.077,-0.151 -0.153,-0.005 -0.229,-0.158 0.019,-0.181 0.003,-0.66 -0.093,-0.843 -0.144,-0.34 -0.105,-0.718 -0.093,-1.091 0.068,-0.628 -0.022,-0.526 -0.138,-0.319 -0.108,0.273 -0.215,0.546 -0.323,0.819 -0.588,0.022 -0.806,-1.085 -0.792,-2.224 -0.065,-0.309 -0.309,-0.219 -0.311,0.034 -0.076,0.487 0.014,1.252 0.09,1.917 -0.42,0.356 -0.67,-0.64 -0.783,-0.91 -0.077,-0.17 -0.153,-0.257 -0.23,0.228 -0.01,0.162 -0.032,0.386 0.139,0.637 0.092,0.227 0.322,0.454 0.414,0.682 0.553,0.516 1.105,1.031 1.659,1.546 0.231,0.425 0.439,1 -0.193,1.424 -0.406,0.115 -0.621,0.148 -0.983,0.396 -0.782,0.121 -1.818,0.151 -2.602,0.273 -0.813,-0.046 -0.952,0.243 -0.415,0.682 0.046,0.075 0.092,0.151 0.138,0.227 -0.168,0.379 -0.03,0.516 0.415,0.409 0.445,0.167 0.891,0.334 1.336,0.501 -0.015,1.229 -0.028,2.457 -0.046,3.685 -0.671,0.51 -1.28,1.05 -1.459,1.802 -0.188,0.583 -0.439,0.86 -0.753,0.836 -0.46,-0.151 -0.921,-0.303 -1.382,-0.455 -0.783,-0.258 -1.197,-0.03 -1.244,0.682 0.231,0.713 0.416,1.425 0.276,2.139 0.139,0.363 0.276,0.728 0.415,1.092 0.338,0.425 0.676,0.726 1.014,0.91 0.154,-0.061 0.308,-0.121 0.461,-0.184 -0.077,-0.182 -0.154,-0.361 -0.23,-0.544 -0.621,-0.789 -0.976,-1.577 -0.737,-2.365 0.092,-0.122 0.185,-0.242 0.277,-0.363 0.537,0.271 1.074,0.545 1.611,0.818 1.068,0.878 2.39,1.09 3.825,1 1.883,0.748 5.335,1.722 6.265,3.775 0.017,0.365 0.062,0.727 0.323,1.092 0.783,0.865 1.567,1.729 2.351,2.592 0.23,0.531 0.461,1.063 0.69,1.594 -0.138,0.605 -0.154,1.213 -0.046,1.818 0.307,0.576 0.86,1.031 1.659,1.365 0.137,-0.41 0.153,-0.82 0.045,-1.229 -0.184,-0.076 -0.368,-0.152 -0.552,-0.229 -0.047,-0.477 -0.263,-0.871 -0.554,-1.227 0,-0.273 0,-0.547 0,-0.818 0.123,-0.289 0.245,-0.578 0.369,-0.865 0.052,-0.244 -0.06,-0.484 -0.139,-0.727 -0.676,-0.73 -1.137,-1.457 -1.566,-2.184 -0.186,-0.729 -0.323,-1.457 -0.139,-2.184 0.43,-0.834 0.553,-1.607 0.369,-2.32 0.447,-0.077 1.714,-0.737 1.383,-1.41 -0.215,-0.303 -0.2,0.229 -0.323,0.318 -0.356,0.474 -0.731,0.732 -1.235,0.773 -0.968,-1.476 -2.444,-1.6 -3.785,-1.728"
   id="path9"
   inkscape:connector-curvature="0"
   style="fill-rule:evenodd" />
<path
   stroke-miterlimit="2.613"
   d="m 28.729651,22.855146 c -3.686,-1.272 -5.114,-4.365 -4.745,-7.549 0.092,-0.592 0.184,-1.184 0.275,-1.774 0.292,-0.555 0.729,-0.797 1.245,-0.864 0.25,0.006 0.396,-0.289 0,-0.273 -0.216,0.061 -0.431,0.121 -0.646,0.182 -0.131,0.036 -0.161,-0.07 -0.092,-0.319 0.03,-0.136 0.062,-0.272 0.092,-0.409 0.093,-0.273 0.185,-0.546 0.276,-0.819 0.123,-0.303 0.246,-0.607 0.369,-0.909 0.12,-0.335 -0.09,-0.184 -0.16,-0.079 -0.181,0.157 -0.297,0.417 -0.393,0.715 -0.016,0.136 -0.03,0.273 -0.047,0.409 -0.075,0.171 -0.16,0.285 -0.322,0 -0.076,-0.151 -0.154,-0.005 -0.23,-0.158 0.021,-0.182 0.004,-0.66 -0.093,-0.843 -0.143,-0.341 -0.104,-0.719 -0.092,-1.091 0.067,-0.628 -0.022,-0.525 -0.138,-0.319 -0.107,0.273 -0.215,0.546 -0.322,0.819 -0.588,0.021 -0.808,-1.085 -0.793,-2.224 -0.066,-0.309 -0.309,-0.219 -0.311,0.034 -0.076,0.486 0.014,1.252 0.091,1.917 -0.422,0.355 -0.671,-0.64 -0.784,-0.91 -0.076,-0.17 -0.153,-0.257 -0.23,0.228 -0.01,0.162 -0.033,0.385 0.138,0.637 0.093,0.227 0.322,0.455 0.414,0.682 0.554,0.515 1.107,1.031 1.66,1.546 0.231,0.425 0.439,1 -0.192,1.424 -0.406,0.116 -0.623,0.148 -0.984,0.396 -0.782,0.121 -1.817,0.152 -2.602,0.273 -0.814,-0.046 -0.952,0.243 -0.415,0.682 0.046,0.075 0.092,0.151 0.138,0.226 -0.168,0.38 -0.03,0.517 0.415,0.41 0.446,0.167 0.891,0.333 1.336,0.5 -0.015,1.229 -0.029,2.457 -0.046,3.684 -0.671,0.511 -1.28,1.051 -1.459,1.804 -0.188,0.582 -0.439,0.86 -0.753,0.835 -0.46,-0.151 -0.921,-0.303 -1.382,-0.455 -0.783,-0.258 -1.197,-0.029 -1.244,0.683 0.231,0.713 0.416,1.425 0.276,2.138 0.139,0.363 0.276,0.728 0.415,1.092 0.338,0.423 0.677,0.726 1.014,0.91 0.153,-0.063 0.308,-0.121 0.461,-0.184 -0.077,-0.182 -0.154,-0.363 -0.23,-0.544 -0.622,-0.788 -0.976,-1.576 -0.736,-2.365 0.092,-0.121 0.184,-0.243 0.275,-0.363 0.538,0.272 1.075,0.545 1.612,0.818 1.068,0.879 2.39,1.091 3.824,1 1.885,0.748 5.336,1.722 6.267,3.775 0.015,0.365 0.062,0.729 0.322,1.092 0.783,0.865 1.567,1.729 2.351,2.594 0.23,0.529 0.46,1.061 0.69,1.592 -0.139,0.605 -0.153,1.213 -0.046,1.818 0.307,0.576 0.86,1.031 1.658,1.363 0.139,-0.408 0.153,-0.816 0.047,-1.227 -0.186,-0.076 -0.37,-0.152 -0.553,-0.227 -0.047,-0.479 -0.262,-0.873 -0.553,-1.229 0,-0.273 0,-0.547 0,-0.818 0.122,-0.289 0.244,-0.576 0.368,-0.865 0.052,-0.242 -0.061,-0.486 -0.139,-0.729 -0.676,-0.727 -1.138,-1.455 -1.566,-2.182 -0.186,-0.729 -0.323,-1.457 -0.139,-2.184 0.43,-0.834 0.553,-1.607 0.369,-2.319 0.446,-0.078 1.714,-0.739 1.383,-1.41 -0.216,-0.304 -0.2,0.229 -0.323,0.317 -0.357,0.474 -0.732,0.731 -1.235,0.773 -0.968,-1.475 -2.444,-1.599 -3.786,-1.727 z"
   id="path11"
   inkscape:connector-curvature="0"
   style="fill:none;stroke:#000000;stroke-width:0.156;stroke-miterlimit:2.61299992" />
</svg>