<?xml version="1.0" encoding="UTF-8" standalone="no"?>
<!-- Generator: Adobe Illustrator 15.0.2, SVG Export Plug-In . SVG Version: 6.00 Build 0)  -->

<svg
   xmlns:dc="http://purl.org/dc/elements/1.1/"
   xmlns:cc="http://creativecommons.org/ns#"
   xmlns:rdf="http://www.w3.org/1999/02/22-rdf-syntax-ns#"
   xmlns:svg="http://www.w3.org/2000/svg"
   xmlns="http://www.w3.org/2000/svg"
   xmlns:sodipodi="http://sodipodi.sourceforge.net/DTD/sodipodi-0.dtd"
   xmlns:inkscape="http://www.inkscape.org/namespaces/inkscape"
   version="1.0"
   id="Layer_1"
   x="0px"
   y="0px"
   width="50.909801"
   height="50.910713"
   viewBox="0 0 50.909802 50.910711"
   enable-background="new 0 0 50.709 50.705"
   xml:space="preserve"
   inkscape:version="0.48.4 r9939"
   sodipodi:docname="Ajax.svg"><metadata
   id="metadata25"><rdf:RDF><cc:Work
       rdf:about=""><dc:format>image/svg+xml</dc:format><dc:type
         rdf:resource="http://purl.org/dc/dcmitype/StillImage" /></cc:Work></rdf:RDF></metadata><defs
   id="defs23" /><sodipodi:namedview
   pagecolor="#ffffff"
   bordercolor="#666666"
   borderopacity="1"
   objecttolerance="10"
   gridtolerance="10"
   guidetolerance="10"
   inkscape:pageopacity="0"
   inkscape:pageshadow="2"
   inkscape:window-width="1280"
   inkscape:window-height="1001"
   id="namedview21"
   showgrid="false"
   fit-margin-top="0.1"
   fit-margin-bottom="0.1"
   fit-margin-right="0.1"
   fit-margin-left="0.1"
   inkscape:zoom="9.3087463"
   inkscape:cx="39.431251"
   inkscape:cy="28.799682"
   inkscape:window-x="-8"
   inkscape:window-y="-8"
   inkscape:window-maximized="1"
   inkscape:current-layer="Layer_1" />
<path
   clip-rule="evenodd"
   d="M 1.1171517,22.734281 22.873152,1.1032811 c 1.433,-1.425 3.869,-1.319 5.414,0.235 l 21.301,21.4229999 c 1.545,1.554 1.637,3.991 0.205,5.415 l -21.758,21.632 c -1.432,1.424 -3.867,1.318 -5.413,-0.236 l -21.3010003,-21.424 c -1.54400004,-1.553 -1.63700004,-3.991 -0.204,-5.414"
   id="path3"
   style="fill:#ffd700;fill-opacity:1;fill-rule:evenodd;stroke:none"
   inkscape:connector-curvature="0" />
<path
   clip-rule="evenodd"
   d="M 2.5201517,23.658281 23.791152,2.5132811 c 0.927,-0.922 2.503,-0.854 3.503,0.152 l 20.961,21.0829999 c 1,1.006 1.061,2.583 0.133,3.505 l -21.27,21.146 c -0.926,0.922 -2.504,0.854 -3.504,-0.151 l -20.9610003,-21.084 c -1,-1.006 -1.059,-2.583 -0.133,-3.506"
   id="path5"
   style="fill:#ffd700;fill-opacity:1;fill-rule:evenodd;stroke:none"
   inkscape:connector-curvature="0" />
<path
   stroke-miterlimit="2.613"
   d="M 2.5201517,23.658281 23.791152,2.5132811 c 0.927,-0.922 2.503,-0.854 3.503,0.152 l 20.961,21.0829999 c 1,1.006 1.061,2.583 0.133,3.505 l -21.27,21.146 c -0.926,0.922 -2.504,0.854 -3.504,-0.151 l -20.9610003,-21.084 c -1,-1.006 -1.059,-2.583 -0.133,-3.506 z"
   id="path7"
   inkscape:connector-curvature="0"
   style="fill:none;stroke:#000000;stroke-width:1.653;stroke-miterlimit:2.61299992" />
<path
   clip-rule="evenodd"
   d="m 12.977152,26.868281 c 0.653,-0.985 1.31,-1.979 1.963,-2.965 h 0.19 v 3.178 h -2.153 v -0.213 m -2.007,0.104 c 1.468,-2.06 2.936,-4.12 4.405,-6.18 0.021,-0.031 0.048,-0.043 0.076,-0.044 0.528,0 1.064,0 1.592,0 0.048,0.001 0.092,0.03 0.094,0.091 0,2.066 0,4.134 0,6.2 0.343,0 0.686,0 1.027,0 0.049,-0.002 0.101,0.03 0.102,0.09 v 1.568 c 0.003,0.062 -0.05,0.097 -0.086,0.098 -0.397,0 -0.793,0 -1.19,0 0.001,0.642 0.001,1.283 0.001,1.925 0.005,0.056 -0.039,0.101 -0.085,0.102 -0.544,0 -1.089,0 -1.633,0 -0.059,0.002 -0.099,-0.038 -0.1,-0.092 0,-0.624 -10e-4,-1.248 -10e-4,-1.872 -1.379,-0.001 -2.753,0 -4.134,-0.001 -0.053,-0.004 -0.089,-0.046 -0.089,-0.089 10e-4,-0.58 0.002,-1.161 0.002,-1.741 0.006,-0.018 0.013,-0.038 0.019,-0.055 z"
   id="path9"
   inkscape:connector-curvature="0"
   style="fill-rule:evenodd" />
<path
   clip-rule="evenodd"
   d="m 19.317152,40.675281 c 2.089,-2.105 4.179,-4.209 6.27,-6.313 0.041,-0.044 0.1,-0.044 0.143,0 1.918,2.101 3.838,4.201 5.758,6.301 0.07,0.066 0.021,0.159 -0.053,0.166 -4.02,0 -8.037,0 -12.055,0 -0.086,-0.011 -0.109,-0.11 -0.063,-0.154"
   id="path11"
   inkscape:connector-curvature="0"
   style="fill-rule:evenodd" />
<path
   clip-rule="evenodd"
   d="m 19.317152,10.418281 c 2.089,2.105 4.179,4.208 6.27,6.313 0.041,0.044 0.1,0.044 0.143,0 1.918,-2.1 3.838,-4.201 5.758,-6.302 0.07,-0.065 0.021,-0.158 -0.053,-0.165 -4.02,0 -8.037,0 -12.055,0 -0.086,0.01 -0.109,0.11 -0.063,0.154"
   id="path13"
   inkscape:connector-curvature="0"
   style="fill-rule:evenodd" />
<path
   clip-rule="evenodd"
   d="m 33.871152,24.488281 c -0.449,0 -0.898,0 -1.35,0 -0.039,0.003 -0.08,0.023 -0.086,0.084 0,2.053 0,4.105 0,6.157 0.002,0.049 0.033,0.09 0.09,0.092 0.455,0 0.908,0 1.363,0 0.057,0 0.092,-0.04 0.094,-0.09 0,-1.338 0,-2.677 0,-4.015 0.607,-0.586 1.539,-0.518 1.982,0.004 0,1.335 0.002,2.67 0.004,4.006 -0.002,0.05 0.037,0.092 0.084,0.094 0.508,0 1.016,0 1.521,0 0.041,-0.002 0.082,-0.035 0.086,-0.083 l -0.002,-4.018 c 0.615,-0.617 1.424,-0.548 1.881,0.001 0.002,1.333 0.002,2.667 0.002,4 -0.002,0.045 0.018,0.095 0.092,0.101 0.504,0 1.006,0 1.51,0 0.043,-10e-4 0.09,-0.032 0.092,-0.089 -0.002,-1.559 -0.002,-3.117 -0.002,-4.676 -0.211,-1.565 -2.863,-2.264 -4.314,-1.054 -0.043,0.038 -0.082,0.051 -0.115,0.028 -0.727,-0.675 -1.639,-0.927 -2.646,-0.066 -0.088,0.04 -0.168,0.059 -0.195,-0.068 0,-0.106 0,-0.213 0,-0.319 0.002,-0.044 -0.041,-0.087 -0.091,-0.089"
   id="path15"
   inkscape:connector-curvature="0"
   style="fill-rule:evenodd" />
<path
   clip-rule="evenodd"
   d="m 19.883152,32.781281 c -0.116,0.284 -0.432,0.219 -0.396,-0.097 l 0.011,-2.585 c 0.405,-1.053 1.866,-0.529 1.673,0.45 l -1.288,2.232"
   id="path17"
   inkscape:connector-curvature="0"
   style="fill-rule:evenodd" />
<path
   d="m 22.530152,28.095281 1.898,-0.194 c 0.053,0.428 0.215,0.77 0.481,1.019 0.266,0.253 0.574,0.378 0.92,0.378 0.398,0 0.736,-0.162 1.014,-0.484 0.273,-0.324 0.414,-0.812 0.414,-1.463 0,-0.608 -0.137,-1.067 -0.412,-1.372 -0.273,-0.306 -0.631,-0.459 -1.068,-0.459 -0.545,0 -1.037,0.243 -1.471,0.728 l -1.546,-0.227 0.976,-5.173 h 5.04 v 1.782 h -3.594 l -0.299,1.688 c 0.426,-0.213 0.857,-0.318 1.303,-0.318 0.844,0 1.561,0.308 2.148,0.921 0.588,0.615 0.881,1.414 0.881,2.396 0,0.817 -0.236,1.549 -0.709,2.189 -0.648,0.878 -1.545,1.314 -2.693,1.314 -0.918,0 -1.667,-0.245 -2.245,-0.737 -0.58,-0.493 -0.927,-1.155 -1.038,-1.988"
   id="path19"
   inkscape:connector-curvature="0" />
</svg>