<?xml version="1.0" encoding="UTF-8" standalone="no"?>
<!-- Generator: Adobe Illustrator 15.0.2, SVG Export Plug-In . SVG Version: 6.00 Build 0)  -->

<svg
   xmlns:dc="http://purl.org/dc/elements/1.1/"
   xmlns:cc="http://creativecommons.org/ns#"
   xmlns:rdf="http://www.w3.org/1999/02/22-rdf-syntax-ns#"
   xmlns:svg="http://www.w3.org/2000/svg"
   xmlns="http://www.w3.org/2000/svg"
   xmlns:sodipodi="http://sodipodi.sourceforge.net/DTD/sodipodi-0.dtd"
   xmlns:inkscape="http://www.inkscape.org/namespaces/inkscape"
   version="1.0"
   id="Layer_1"
   x="0px"
   y="0px"
   width="50.19434"
   height="50.909153"
   viewBox="0 0 50.194341 50.909151"
   enable-background="new 0 0 49.732 50.705"
   xml:space="preserve"
   inkscape:version="0.48.4 r9939"
   sodipodi:docname="Ajax.svg"><metadata
   id="metadata25"><rdf:RDF><cc:Work
       rdf:about=""><dc:format>image/svg+xml</dc:format><dc:type
         rdf:resource="http://purl.org/dc/dcmitype/StillImage" /></cc:Work></rdf:RDF></metadata><defs
   id="defs23" /><sodipodi:namedview
   pagecolor="#ffffff"
   bordercolor="#666666"
   borderopacity="1"
   objecttolerance="10"
   gridtolerance="10"
   guidetolerance="10"
   inkscape:pageopacity="0"
   inkscape:pageshadow="2"
   inkscape:window-width="1280"
   inkscape:window-height="1001"
   id="namedview21"
   showgrid="false"
   fit-margin-top="0.1"
   fit-margin-bottom="0.1"
   fit-margin-right="0.1"
   fit-margin-left="0.1"
   inkscape:zoom="9.3087463"
   inkscape:cx="19.878278"
   inkscape:cy="26.920927"
   inkscape:window-x="-8"
   inkscape:window-y="-8"
   inkscape:window-maximized="1"
   inkscape:current-layer="Layer_1" />
<path
   clip-rule="evenodd"
   d="M 1.1023661,22.733619 22.552366,1.1016195 c 1.412,-1.42399996 3.814,-1.31599996 5.338,0.237 l 21,21.4219995 c 1.523,1.554 1.613,3.99 0.202,5.415 l -21.45,21.631 c -1.412,1.424 -3.814,1.318 -5.338,-0.235 l -20.9999999,-21.423 c -1.523,-1.553 -1.614,-3.99 -0.202,-5.415"
   id="path3"
   style="fill:#ffd700;fill-opacity:1;fill-rule:evenodd;stroke:none"
   inkscape:connector-curvature="0" />
<path
   clip-rule="evenodd"
   d="M 2.4873661,23.659619 23.456366,2.5116195 c 0.915,-0.922 2.469,-0.852 3.454,0.153 l 20.668,21.0829995 c 0.985,1.005 1.045,2.582 0.131,3.504 l -20.971,21.146 c -0.914,0.922 -2.469,0.854 -3.455,-0.152 l -20.6659999,-21.082 c -0.985,-1.006 -1.045,-2.583 -0.13,-3.504"
   id="path5"
   style="fill:#ffd700;fill-opacity:1;fill-rule:evenodd;stroke:none"
   inkscape:connector-curvature="0" />
<path
   stroke-miterlimit="2.613"
   d="M 2.4873661,23.658619 23.457366,2.5126195 c 0.915,-0.923 2.469,-0.853 3.453,0.152 l 20.667,21.0829995 c 0.985,1.005 1.046,2.582 0.132,3.504 l -20.971,21.146 c -0.914,0.922 -2.468,0.854 -3.454,-0.152 l -20.6659999,-21.082 c -0.986,-1.006 -1.046,-2.583 -0.131,-3.505 z"
   id="path7"
   inkscape:connector-curvature="0"
   style="fill:none;stroke:#000000;stroke-width:1.64100003;stroke-miterlimit:2.61299992" />
<path
   clip-rule="evenodd"
   d="m 21.984366,33.951619 c -0.464,10e-4 -0.929,10e-4 -1.393,10e-4 -0.04,0.002 -0.082,0.023 -0.088,0.087 0,2.145 0,4.29 -0.001,6.435 0.002,0.052 0.033,0.095 0.094,0.098 0.468,0 0.937,0 1.406,0 0.059,0 0.095,-0.044 0.097,-0.096 0,-1.398 0,-2.798 0,-4.195 0.627,-0.613 1.589,-0.54 2.046,0.005 0.001,1.395 0.003,2.79 0.004,4.186 -0.001,0.053 0.04,0.097 0.088,0.099 0.524,0 1.047,0 1.572,0 0.041,-0.002 0.083,-0.036 0.087,-0.087 l -0.001,-4.199 c 0.634,-0.646 1.47,-0.572 1.942,0.002 0,1.393 0.002,2.786 0.002,4.18 -0.002,0.047 0.018,0.099 0.094,0.106 0.52,0 1.039,0 1.559,0 0.043,-0.002 0.094,-0.035 0.094,-0.095 0,-1.629 -0.002,-3.257 -0.002,-4.886 -0.217,-1.637 -2.955,-2.367 -4.453,-1.102 -0.044,0.039 -0.085,0.052 -0.12,0.029 -0.749,-0.706 -1.689,-0.969 -2.731,-0.069 -0.091,0.042 -0.174,0.062 -0.202,-0.072 0,-0.111 0,-0.222 0,-0.333 0.002,-0.047 -0.04,-0.091 -0.094,-0.094"
   id="path9"
   inkscape:connector-curvature="0"
   style="fill-rule:evenodd" />
<path
   clip-rule="evenodd"
   d="m 9.1433661,28.471619 c 1.5049999,-1.54 3.0099999,-3.081 4.5149999,-4.621 0.031,-0.031 0.031,-0.073 -10e-4,-0.104 -1.525,-1.392 -3.051,-2.783 -4.5759999,-4.174 -0.047,-0.052 -0.114,-0.015 -0.118,0.038 0.023,2.938 0.046,5.877 0.069,8.815 0.007,0.062 0.08,0.08 0.111,0.046"
   id="path11"
   inkscape:connector-curvature="0"
   style="fill-rule:evenodd" />
<path
   clip-rule="evenodd"
   d="m 40.545366,28.433619 c -1.504,-1.54 -3.01,-3.08 -4.514,-4.62 -0.031,-0.03 -0.031,-0.072 0,-0.104 1.525,-1.393 3.051,-2.783 4.575,-4.174 0.048,-0.053 0.115,-0.016 0.119,0.038 -0.022,2.938 -0.046,5.878 -0.069,8.815 -0.008,0.065 -0.078,0.081 -0.111,0.045"
   id="path13"
   inkscape:connector-curvature="0"
   style="fill-rule:evenodd" />
<path
   clip-rule="evenodd"
   d="m 15.728366,20.474619 c 0.439,0.412 0.878,0.824 1.317,1.236 0.035,0.026 0.081,0.017 0.107,-0.008 0.409,-0.547 0.977,-0.863 1.782,-0.841 0.842,0.044 1.427,0.803 0.885,1.486 -0.357,0 -0.714,0.009 -1.07,0.009 -0.05,0.005 -0.083,0.026 -0.085,0.085 -0.001,0.59 -0.001,1.179 -0.001,1.768 0,0.054 0.024,0.087 0.079,0.089 l 1.14,0.004 c 1.358,0.988 0.384,2.816 -1.813,2.299 -0.431,-0.178 -0.814,-0.502 -1.149,-0.972 -0.043,-0.059 -0.089,-0.068 -0.138,-0.027 -0.472,0.355 -0.945,0.709 -1.417,1.064 -0.041,0.036 -0.054,0.078 -0.008,0.133 0.724,0.876 1.601,1.561 2.901,1.721 3.277,0.477 5.586,-2.686 3.278,-5.154 -0.044,-0.05 -0.044,-0.103 0,-0.162 0.738,-1.119 0.567,-2.544 -0.34,-3.286 -1.917,-1.492 -4.474,-0.795 -5.479,0.441 -0.026,0.034 -0.02,0.084 0.011,0.115"
   id="path15"
   inkscape:connector-curvature="0"
   style="fill-rule:evenodd" />
<path
   clip-rule="evenodd"
   d="m 28.188366,22.848619 c -0.055,-2.384 3.388,-2.697 3.476,-10e-4 v 2.196 c -0.201,2.175 -3.287,2.039 -3.453,0.009 l -0.023,-2.204 m -1.858,-0.652 c 0.242,-3.912 6.715,-4.465 7.172,-0.007 l -0.002,3.094 c -0.36,4.305 -6.979,4.07 -7.17,0.005 v -3.092 z"
   id="path17"
   inkscape:connector-curvature="0"
   style="fill-rule:evenodd" />
<path
   clip-rule="evenodd"
   d="m 24.021366,30.307619 c -0.113,0.282 -0.422,0.216 -0.388,-0.097 l 0.012,-2.566 c 0.396,-1.046 1.826,-0.525 1.636,0.447 l -1.26,2.216"
   id="path19"
   inkscape:connector-curvature="0"
   style="fill-rule:evenodd" />
</svg>