<?xml version="1.0" encoding="UTF-8" standalone="no"?>
<!-- Generator: Adobe Illustrator 15.0.2, SVG Export Plug-In . SVG Version: 6.00 Build 0)  -->

<svg
   xmlns:dc="http://purl.org/dc/elements/1.1/"
   xmlns:cc="http://creativecommons.org/ns#"
   xmlns:rdf="http://www.w3.org/1999/02/22-rdf-syntax-ns#"
   xmlns:svg="http://www.w3.org/2000/svg"
   xmlns="http://www.w3.org/2000/svg"
   xmlns:sodipodi="http://sodipodi.sourceforge.net/DTD/sodipodi-0.dtd"
   xmlns:inkscape="http://www.inkscape.org/namespaces/inkscape"
   version="1.0"
   id="Layer_1"
   x="0px"
   y="0px"
   width="50.19334"
   height="50.910114"
   viewBox="0 0 50.19334 50.910112"
   enable-background="new 0 0 50.082 50.705"
   xml:space="preserve"
   inkscape:version="0.48.4 r9939"
   sodipodi:docname="Ajax.svg"><metadata
   id="metadata57"><rdf:RDF><cc:Work
       rdf:about=""><dc:format>image/svg+xml</dc:format><dc:type
         rdf:resource="http://purl.org/dc/dcmitype/StillImage" /></cc:Work></rdf:RDF></metadata><defs
   id="defs55" /><sodipodi:namedview
   pagecolor="#ffffff"
   bordercolor="#666666"
   borderopacity="1"
   objecttolerance="10"
   gridtolerance="10"
   guidetolerance="10"
   inkscape:pageopacity="0"
   inkscape:pageshadow="2"
   inkscape:window-width="1280"
   inkscape:window-height="1001"
   id="namedview53"
   showgrid="false"
   fit-margin-top="0.1"
   fit-margin-bottom="0.1"
   fit-margin-right="0.1"
   fit-margin-left="0.1"
   inkscape:zoom="9.3087463"
   inkscape:cx="19.932293"
   inkscape:cy="24.259264"
   inkscape:window-x="-8"
   inkscape:window-y="-8"
   inkscape:window-maximized="1"
   inkscape:current-layer="Layer_1" />
<path
   clip-rule="evenodd"
   d="M 1.1032215,22.734387 22.552221,1.1033863 c 1.413,-1.42500007 3.814,-1.31900007 5.338,0.234 l 21,21.4240007 c 1.521,1.554 1.613,3.99 0.201,5.416 l -21.449,21.631 c -1.412,1.424 -3.814,1.316 -5.338,-0.236 l -20.9999995,-21.422 c -1.52300003,-1.555 -1.61400003,-3.992 -0.201,-5.416"
   id="path3"
   style="fill:#ffd700;fill-opacity:1;fill-rule:evenodd;stroke:none"
   inkscape:connector-curvature="0" />
<path
   clip-rule="evenodd"
   d="M 2.4862215,23.659387 23.456221,2.5123863 c 0.914,-0.923 2.469,-0.854 3.454,0.152 l 20.666,21.0820007 c 0.986,1.006 1.045,2.583 0.131,3.505 l -20.97,21.146 c -0.914,0.922 -2.469,0.854 -3.455,-0.152 l -20.6649995,-21.084 c -0.986,-1.004 -1.046,-2.581 -0.131,-3.502"
   id="path5"
   style="fill:#ffd700;fill-opacity:1;fill-rule:evenodd;stroke:none"
   inkscape:connector-curvature="0" />
<path
   stroke-miterlimit="2.613"
   d="M 2.4872215,23.659387 23.456221,2.5123863 c 0.915,-0.923 2.469,-0.854 3.454,0.151 l 20.666,21.0820007 c 0.986,1.007 1.045,2.583 0.131,3.505 l -20.97,21.147 c -0.914,0.922 -2.468,0.854 -3.454,-0.152 l -20.6659995,-21.084 c -0.985,-1.004 -1.045,-2.581 -0.13,-3.502 z"
   id="path7"
   inkscape:connector-curvature="0"
   style="fill:none;stroke:#000000;stroke-width:1.64100003;stroke-miterlimit:2.61299992" />
<line
   stroke-miterlimit="2.613"
   x1="12.031221"
   y1="25.156387"
   x2="38.040222"
   y2="25.156387"
   id="line9"
   style="fill:none;stroke:#000000;stroke-width:0.80299997;stroke-miterlimit:2.61299992" />
<rect
   x="12.031221"
   y="24.750387"
   stroke-miterlimit="2.613"
   width="26.009001"
   height="0.80900002"
   id="rect11"
   style="fill:none;stroke:#000000;stroke-width:0.156;stroke-miterlimit:2.61299992" />
<line
   stroke-miterlimit="2.613"
   x1="14.074222"
   y1="26.694386"
   x2="14.074222"
   y2="23.647387"
   id="line13"
   style="fill:none;stroke:#000000;stroke-width:0.88599998;stroke-miterlimit:2.61299992" />
<rect
   x="13.634222"
   y="23.647387"
   stroke-miterlimit="2.613"
   width="0.88"
   height="3.0469999"
   id="rect15"
   style="fill:none;stroke:#000000;stroke-width:0.156;stroke-miterlimit:2.61299992" />
<line
   stroke-miterlimit="2.613"
   x1="26.525221"
   y1="26.694386"
   x2="26.525221"
   y2="23.647387"
   id="line17"
   style="fill:none;stroke:#000000;stroke-width:0.88599998;stroke-miterlimit:2.61299992" />
<rect
   x="26.08522"
   y="23.647387"
   stroke-miterlimit="2.613"
   width="0.87900001"
   height="3.0469999"
   id="rect19"
   style="fill:none;stroke:#000000;stroke-width:0.156;stroke-miterlimit:2.61299992" />
<line
   stroke-miterlimit="2.613"
   x1="17.15222"
   y1="26.655386"
   x2="17.15222"
   y2="23.608387"
   id="line21"
   style="fill:none;stroke:#000000;stroke-width:0.88599998;stroke-miterlimit:2.61299992" />
<rect
   x="16.712221"
   y="23.608387"
   stroke-miterlimit="2.613"
   width="0.87900001"
   height="3.0469999"
   id="rect23"
   style="fill:none;stroke:#000000;stroke-width:0.156;stroke-miterlimit:2.61299992" />
<line
   stroke-miterlimit="2.613"
   x1="29.67922"
   y1="26.694386"
   x2="29.67922"
   y2="23.647387"
   id="line25"
   style="fill:none;stroke:#000000;stroke-width:0.88599998;stroke-miterlimit:2.61299992" />
<rect
   x="29.237221"
   y="23.647387"
   stroke-miterlimit="2.613"
   width="0.88099998"
   height="3.0469999"
   id="rect27"
   style="fill:none;stroke:#000000;stroke-width:0.156;stroke-miterlimit:2.61299992" />
<line
   stroke-miterlimit="2.613"
   x1="20.260221"
   y1="26.636387"
   x2="20.260221"
   y2="23.588387"
   id="line29"
   style="fill:none;stroke:#000000;stroke-width:0.88599998;stroke-miterlimit:2.61299992" />
<rect
   x="19.820221"
   y="23.588387"
   stroke-miterlimit="2.613"
   width="0.88"
   height="3.0469999"
   id="rect31"
   style="fill:none;stroke:#000000;stroke-width:0.156;stroke-miterlimit:2.61299992" />
<line
   stroke-miterlimit="2.613"
   x1="32.976219"
   y1="26.694386"
   x2="32.976219"
   y2="23.647387"
   id="line33"
   style="fill:none;stroke:#000000;stroke-width:0.88599998;stroke-miterlimit:2.61299992" />
<rect
   x="32.536221"
   y="23.647387"
   stroke-miterlimit="2.613"
   width="0.87900001"
   height="3.0469999"
   id="rect35"
   style="fill:none;stroke:#000000;stroke-width:0.156;stroke-miterlimit:2.61299992" />
<line
   stroke-miterlimit="2.613"
   x1="23.34922"
   y1="26.645386"
   x2="23.34922"
   y2="23.598387"
   id="line37"
   style="fill:none;stroke:#000000;stroke-width:0.88599998;stroke-miterlimit:2.61299992" />
<rect
   x="22.90922"
   y="23.598387"
   stroke-miterlimit="2.613"
   width="0.87900001"
   height="3.0469999"
   id="rect39"
   style="fill:none;stroke:#000000;stroke-width:0.156;stroke-miterlimit:2.61299992" />
<line
   stroke-miterlimit="2.613"
   x1="36.062222"
   y1="26.694386"
   x2="36.062222"
   y2="23.647387"
   id="line41"
   style="fill:none;stroke:#000000;stroke-width:0.88599998;stroke-miterlimit:2.61299992" />
<rect
   x="35.622219"
   y="23.647387"
   stroke-miterlimit="2.613"
   width="0.88099998"
   height="3.0469999"
   id="rect43"
   style="fill:none;stroke:#000000;stroke-width:0.156;stroke-miterlimit:2.61299992" />
<path
   clip-rule="evenodd"
   d="m 24.870221,21.317387 -7.386,-7.553 -3.466,3.515 4.92,5.221 11.955,-0.032 4.949,-5.146 -3.508,-3.515 -7.266,7.511 c -0.061,0.054 -0.127,0.055 -0.198,-0.001"
   id="path45"
   inkscape:connector-curvature="0"
   style="fill-rule:evenodd" />
<path
   stroke-miterlimit="2.613"
   d="m 24.870221,21.317387 -7.386,-7.553 -3.465,3.515 4.919,5.221 11.954,-0.031 4.951,-5.147 -3.508,-3.516 -7.266,7.512 c -0.062,0.055 -0.128,0.055 -0.199,-0.001 z"
   id="path47"
   inkscape:connector-curvature="0"
   style="fill:none;stroke:#000000;stroke-width:0.156;stroke-miterlimit:2.61299992" />
<path
   clip-rule="evenodd"
   d="m 24.870221,29.099387 -7.386,7.551 -3.466,-3.514 4.869,-5.064 12.006,-0.125 4.949,5.146 -3.508,3.516 -7.266,-7.51 c -0.065,-0.069 -0.131,-0.069 -0.198,0"
   id="path49"
   inkscape:connector-curvature="0"
   style="fill-rule:evenodd" />
<path
   stroke-miterlimit="2.613"
   d="m 24.870221,29.099387 -7.386,7.551 -3.465,-3.514 4.868,-5.064 12.004,-0.125 4.951,5.146 -3.508,3.516 -7.266,-7.51 c -0.065,-0.069 -0.131,-0.069 -0.198,0 z"
   id="path51"
   inkscape:connector-curvature="0"
   style="fill:none;stroke:#000000;stroke-width:0.156;stroke-miterlimit:2.61299992" />
</svg>