<?xml version="1.0" encoding="UTF-8" standalone="no"?>
<!-- Generator: Adobe Illustrator 16.0.2, SVG Export Plug-In . SVG Version: 6.00 Build 0)  -->

<svg
   xmlns:dc="http://purl.org/dc/elements/1.1/"
   xmlns:cc="http://creativecommons.org/ns#"
   xmlns:rdf="http://www.w3.org/1999/02/22-rdf-syntax-ns#"
   xmlns:svg="http://www.w3.org/2000/svg"
   xmlns="http://www.w3.org/2000/svg"
   xmlns:sodipodi="http://sodipodi.sourceforge.net/DTD/sodipodi-0.dtd"
   xmlns:inkscape="http://www.inkscape.org/namespaces/inkscape"
   version="1.1"
   id="svg2"
   sodipodi:docname="Ajax.svg"
   inkscape:version="0.48.4 r9939"
   x="0px"
   y="0px"
   width="141.38774"
   height="141.39062"
   viewBox="0 0 141.38774 141.39062"
   enable-background="new 0 0 576.443 665.656"
   xml:space="preserve"><metadata
   id="metadata42"><rdf:RDF><cc:Work
       rdf:about=""><dc:format>image/svg+xml</dc:format><dc:type
         rdf:resource="http://purl.org/dc/dcmitype/StillImage" /></cc:Work></rdf:RDF></metadata><defs
   id="defs40" />
<sodipodi:namedview
   id="namedview42"
   inkscape:current-layer="svg2"
   inkscape:window-y="-8"
   inkscape:window-x="-8"
   fit-margin-bottom="0.1"
   fit-margin-right="0.1"
   inkscape:window-height="1001"
   inkscape:window-width="1280"
   inkscape:pageshadow="2"
   inkscape:pageopacity="0"
   inkscape:window-maximized="1"
   objecttolerance="10"
   fit-margin-top="0.1"
   inkscape:cy="57.010261"
   borderopacity="1"
   showgrid="false"
   inkscape:cx="48.397356"
   bordercolor="#666666"
   inkscape:zoom="2.860606"
   pagecolor="#ffffff"
   guidetolerance="10"
   fit-margin-left="0.1"
   gridtolerance="10">
	</sodipodi:namedview>





<path
   inkscape:connector-curvature="0"
   d="M 138.45567,63.118813 77.880681,2.891313 c -3.98875,-3.965 -10.77125,-3.66999999 -15.07375,0.65625 l -59.3049961,59.6475 c -4.30249997,4.3275 -4.55875,11.11125 -0.57,15.0775 L 63.506931,138.49881 c 3.98875,3.96625 10.77125,3.67 15.07375,-0.65625 L 137.88692,78.195063 c 4.30125,-4.32625 4.5575,-11.11125 0.56875,-15.07625"
   style="fill:#ffd700;fill-opacity:1;fill-rule:evenodd;stroke:none"
   id="path3079" /><path
   inkscape:connector-curvature="0"
   d="M 134.54817,65.693813 75.328181,6.815063 c -2.5825,-2.5675 -6.97125,-2.37625 -9.75625,0.425 L 7.2094349,65.938813 c -2.785,2.8 -2.95125,7.19125 -0.36875,9.7575 L 66.060681,134.57631 c 2.58125,2.56625 6.97125,2.375 9.755,-0.425 L 134.17942,75.451313 c 2.78375,-2.8 2.95,-7.19125 0.36875,-9.7575"
   style="fill:#ffd700;fill-opacity:1;fill-rule:evenodd;stroke:none"
   id="path3081" /><path
   inkscape:connector-curvature="0"
   d="M 134.54817,65.693813 75.328181,6.815063 c -2.5825,-2.5675 -6.97125,-2.37625 -9.75625,0.425 L 7.2094349,65.938813 c -2.785,2.8 -2.95125,7.19125 -0.36875,9.7575 L 66.060681,134.57631 c 2.58125,2.56625 6.97125,2.375 9.755,-0.425 L 134.17942,75.451313 c 2.78375,-2.8 2.95,-7.19125 0.36875,-9.7575 z"
   style="fill:none;stroke:#000000;stroke-width:4.57500029;stroke-linecap:butt;stroke-linejoin:miter;stroke-miterlimit:22.9260006;stroke-opacity:1;stroke-dasharray:none"
   id="path3083" /><path
   inkscape:connector-curvature="0"
   d="m 74.94693,40.46756 c 0.0025,2.59625 0.0037,7.25875 0.005,9.855 0.12375,1.5025 0.6425,2.96 2.03,4.32125 l 7.03875,5.935 c 7.78,5.81375 5.1625,14.869999 -0.54375,17.952499 -6.76875,3.2525 -13.445,6.44 -20.398749,9.26625 -1.80125,1.0275 -1.70875,2.64875 -0.01375,4.65125 7.073749,7.076251 11.616249,12.575001 11.662499,17.161251 0.01,4.7125 0.01875,9.425 0.02875,14.1375 -3.19,0 -6.38,-10e-4 -9.57,-10e-4 l -0.0025,-11.51125 c -0.222499,-2.53 -1.107499,-3.91875 -2.319999,-4.7525 l -5.41,-5.47125 c -9.431246,-9.605001 -8.252496,-19.856251 0.06125,-23.718751 6.54125,-2.58 13.082499,-5.15875 19.623749,-7.737499 3.895,-1.625 1.6925,-2.7875 -0.5125,-4.17875 -9.3025,-6.45875 -11.515,-11.8575 -11.3775,-16.2325 0.0037,-3.21875 0.0075,-6.43625 0.01125,-9.65375 -2.033749,0.90625 -4.068749,1.8125 -6.103749,2.71875 -2.87625,1.2175 -4.04625,-0.9325 -2.7625,-3.05375 4.2525,-6.72875 8.505,-13.45875 12.757499,-20.1875 0.75375,-1.34125 1.7925,-1.325 2.54,0.095 4.13875,6.71875 8.2775,13.43625 12.4175,20.15375 1.27625,1.87625 -0.83,4.30875 -3.035,3.04875 -2.0425,-0.9325 -4.08375,-1.865 -6.12625,-2.7975"
   style="fill:#000000;fill-opacity:1;fill-rule:evenodd;stroke:none"
   id="path5564" /></svg>