<?xml version="1.0" encoding="UTF-8" standalone="no"?>
<!-- Generator: Adobe Illustrator 15.0.2, SVG Export Plug-In . SVG Version: 6.00 Build 0)  -->

<svg
   xmlns:dc="http://purl.org/dc/elements/1.1/"
   xmlns:cc="http://creativecommons.org/ns#"
   xmlns:rdf="http://www.w3.org/1999/02/22-rdf-syntax-ns#"
   xmlns:svg="http://www.w3.org/2000/svg"
   xmlns="http://www.w3.org/2000/svg"
   xmlns:sodipodi="http://sodipodi.sourceforge.net/DTD/sodipodi-0.dtd"
   xmlns:inkscape="http://www.inkscape.org/namespaces/inkscape"
   version="1.0"
   id="Layer_1"
   x="0px"
   y="0px"
   width="50.203999"
   height="36.264"
   viewBox="0 0 50.204 36.264"
   enable-background="new 0 0 50.35 35.827"
   xml:space="preserve"
   inkscape:version="0.48.4 r9939"
   sodipodi:docname="Ajax.svg"><metadata
   id="metadata29"><rdf:RDF><cc:Work
       rdf:about=""><dc:format>image/svg+xml</dc:format><dc:type
         rdf:resource="http://purl.org/dc/dcmitype/StillImage" /></cc:Work></rdf:RDF></metadata><defs
   id="defs27" /><sodipodi:namedview
   pagecolor="#ffffff"
   bordercolor="#666666"
   borderopacity="1"
   objecttolerance="10"
   gridtolerance="10"
   guidetolerance="10"
   inkscape:pageopacity="0"
   inkscape:pageshadow="2"
   inkscape:window-width="1280"
   inkscape:window-height="1001"
   id="namedview25"
   showgrid="false"
   fit-margin-top="0.1"
   fit-margin-right="0.1"
   fit-margin-left="0.1"
   fit-margin-bottom="7"
   inkscape:zoom="8.8757001"
   inkscape:cx="9.9010171"
   inkscape:cy="16.643879"
   inkscape:window-x="-8"
   inkscape:window-y="-8"
   inkscape:window-maximized="1"
   inkscape:current-layer="Layer_1" />
<polyline
   clip-rule="evenodd"
   points="13.409,14.816 0.598,9.415 4.457,0.153 25.447,9.261   46.438,0 50.385,9.303 38.245,14.813 50.602,19.842 46.432,29.164 25.719,19.796 4.458,29.133 0.604,20.267 13.409,14.816 "
   id="polyline3"
   style="fill:#ffd700;fill-opacity:1;fill-rule:evenodd;stroke:none"
   transform="translate(-0.498,0.09999954)" />
<polyline
   clip-rule="evenodd"
   points="5.169,1.867 25.592,10.988 45.708,2.041 46.27,3.35 25.559,12.548   4.654,3.213 5.169,1.867 "
   id="polyline5"
   style="fill-rule:evenodd"
   transform="translate(-0.498,0.09999954)" />
<polygon
   stroke-miterlimit="2.613"
   points="46.27,3.35 25.559,12.548 4.654,3.213 5.169,1.867 25.592,10.988 45.708,2.041 "
   id="polygon7"
   style="fill:none;stroke:#000000;stroke-width:0.149;stroke-miterlimit:2.61299992"
   transform="translate(-0.498,0.09999954)" />
<polyline
   clip-rule="evenodd"
   points="3.18,7.07 20.476,14.808 3.161,22.456 2.631,21.229 17.065,14.81   2.648,8.393 3.18,7.07 "
   id="polyline9"
   style="fill-rule:evenodd"
   transform="translate(-0.498,0.09999954)" />
<polygon
   stroke-miterlimit="2.613"
   points="2.631,21.229 17.065,14.81 2.648,8.393 3.18,7.07 20.476,14.808 3.161,22.456 "
   id="polygon11"
   style="fill:none;stroke:#000000;stroke-width:0.149;stroke-miterlimit:2.61299992"
   transform="translate(-0.498,0.09999954)" />
<polyline
   clip-rule="evenodd"
   points="47.887,7.087 30.68,14.788 48.023,22.449 48.525,21.211 34.091,14.791   48.43,8.399 47.887,7.087 "
   id="polyline13"
   style="fill-rule:evenodd"
   transform="translate(-0.498,0.09999954)" />
<polygon
   stroke-miterlimit="2.613"
   points="48.525,21.211 34.091,14.791 48.43,8.399 47.887,7.087 30.68,14.788 48.023,22.449 "
   id="polygon15"
   style="fill:none;stroke:#000000;stroke-width:0.149;stroke-miterlimit:2.61299992"
   transform="translate(-0.498,0.09999954)" />
<polyline
   clip-rule="evenodd"
   points="5.194,27.307 25.592,18.282 45.88,27.308 46.405,25.986 25.559,16.724   4.696,26.005 5.194,27.307 "
   id="polyline17"
   style="fill-rule:evenodd"
   transform="translate(-0.498,0.09999954)" />
<polygon
   stroke-miterlimit="2.613"
   points="46.405,25.986 25.559,16.724 4.696,26.005 5.194,27.307 25.592,18.282 45.88,27.308 "
   id="polygon19"
   style="fill:none;stroke:#000000;stroke-width:0.149;stroke-miterlimit:2.61299992"
   transform="translate(-0.498,0.09999954)" />
<path
   clip-rule="evenodd"
   d="m 17.707,31.615 c 0.5,0 4.502,0 5.001,0 0.005,-2.136 0.011,-4.271 0.017,-6.408 0.037,-0.223 0.17,-0.299 0.348,-0.307 1.441,-10e-4 2.884,-0.002 4.326,-0.003 0.203,0.008 0.309,0.113 0.315,0.316 -0.008,2.135 -0.016,4.269 -0.022,6.401 0.423,0 4.934,0 5.356,0 0.32,-0.003 0.298,0.548 0.298,4.079 0.006,0.142 -0.076,0.23 -0.295,0.233 -2.584,0 -12.758,0 -15.342,0 -0.22,-0.005 -0.28,-0.104 -0.281,-0.237 0,-1.166 0,-2.624 0,-3.79 0.002,-0.219 0.12,-0.28 0.279,-0.284"
   id="path21"
   inkscape:connector-curvature="0"
   style="fill:#ffd700;fill-rule:evenodd;fill-opacity:1" />
<path
   stroke-miterlimit="2.613"
   d="m 17.707,31.615 c 0.5,0 4.502,0 5.001,0 0.005,-2.136 0.011,-4.271 0.017,-6.408 0.037,-0.223 0.17,-0.299 0.348,-0.307 1.441,-10e-4 2.884,-0.002 4.326,-0.003 0.203,0.008 0.309,0.113 0.315,0.316 -0.008,2.135 -0.016,4.269 -0.022,6.401 0.423,0 4.934,0 5.356,0 0.32,-0.003 0.298,0.548 0.298,4.079 0.006,0.142 -0.076,0.23 -0.295,0.233 -2.584,0 -12.758,0 -15.342,0 -0.22,-0.005 -0.28,-0.104 -0.281,-0.237 0,-1.166 0,-2.624 0,-3.79 0.002,-0.219 0.12,-0.28 0.279,-0.284 z"
   id="path23"
   inkscape:connector-curvature="0"
   style="fill:none;stroke:#000000;stroke-width:0.345;stroke-miterlimit:2.61299992" />
</svg>