<?xml version="1.0" encoding="UTF-8" standalone="no"?>
<!-- Generator: Adobe Illustrator 15.0.2, SVG Export Plug-In . SVG Version: 6.00 Build 0)  -->

<svg
   xmlns:dc="http://purl.org/dc/elements/1.1/"
   xmlns:cc="http://creativecommons.org/ns#"
   xmlns:rdf="http://www.w3.org/1999/02/22-rdf-syntax-ns#"
   xmlns:svg="http://www.w3.org/2000/svg"
   xmlns="http://www.w3.org/2000/svg"
   xmlns:sodipodi="http://sodipodi.sourceforge.net/DTD/sodipodi-0.dtd"
   xmlns:inkscape="http://www.inkscape.org/namespaces/inkscape"
   version="1.0"
   id="Layer_1"
   x="0px"
   y="0px"
   width="50.492588"
   height="50.492893"
   viewBox="0 0 50.49259 50.492895"
   enable-background="new 0 0 50.281 50.204"
   xml:space="preserve"
   inkscape:version="0.48.4 r9939"
   sodipodi:docname="Ajax.svg"><metadata
   id="metadata21"><rdf:RDF><cc:Work
       rdf:about=""><dc:format>image/svg+xml</dc:format><dc:type
         rdf:resource="http://purl.org/dc/dcmitype/StillImage" /></cc:Work></rdf:RDF></metadata><defs
   id="defs19" /><sodipodi:namedview
   pagecolor="#ffffff"
   bordercolor="#666666"
   borderopacity="1"
   objecttolerance="10"
   gridtolerance="10"
   guidetolerance="10"
   inkscape:pageopacity="0"
   inkscape:pageshadow="2"
   inkscape:window-width="1280"
   inkscape:window-height="1001"
   id="namedview17"
   showgrid="false"
   fit-margin-top="0.1"
   fit-margin-bottom="0.1"
   fit-margin-right="0.1"
   fit-margin-left="0.1"
   inkscape:zoom="9.4016416"
   inkscape:cx="10.980108"
   inkscape:cy="24.986145"
   inkscape:window-x="-8"
   inkscape:window-y="-8"
   inkscape:window-maximized="1"
   inkscape:current-layer="Layer_1" />
<path
   clip-rule="evenodd"
   d="m 49.383244,27.945874 -21.577,21.453 c -1.422,1.412 -3.837,1.307 -5.37,-0.234 l -21.125,-21.246 c -1.53200004,-1.541 -1.62300004,-3.958 -0.203,-5.372 l 21.578,-21.4520003 c 1.42,-1.41299997 3.836,-1.30799997 5.369,0.233 l 21.125,21.2470003 c 1.534,1.542 1.624,3.957 0.203,5.371"
   id="path3"
   style="fill:#ffd700;fill-opacity:1;fill-rule:evenodd;stroke:none"
   inkscape:connector-curvature="0" />
<path
   clip-rule="evenodd"
   d="m 47.991244,27.027874 -21.095,20.973 c -0.919,0.916 -2.483,0.848 -3.476,-0.15 l -20.788,-20.911 c -0.992,-0.996 -1.051,-2.561 -0.132,-3.475 l 21.095,-20.9720003 c 0.92,-0.914 2.482,-0.847 3.475,0.15 l 20.79,20.9100003 c 0.991,0.997 1.05,2.561 0.131,3.475"
   id="path5"
   style="fill:#ffd700;fill-opacity:1;fill-rule:evenodd;stroke:none"
   inkscape:connector-curvature="0" />
<path
   stroke-miterlimit="2.613"
   d="m 47.991244,27.027874 -21.095,20.973 c -0.919,0.916 -2.483,0.848 -3.476,-0.15 l -20.788,-20.911 c -0.992,-0.996 -1.051,-2.561 -0.132,-3.475 l 21.095,-20.9720003 c 0.92,-0.914 2.482,-0.847 3.475,0.15 l 20.79,20.9100003 c 0.991,0.997 1.05,2.561 0.131,3.475 z"
   id="path7"
   inkscape:connector-curvature="0"
   style="fill:none;stroke:#000000;stroke-width:1.63;stroke-miterlimit:2.61299992" />
<path
   clip-rule="evenodd"
   d="m 36.261244,24.020874 c -0.015,0.836 -0.027,1.673 -0.04,2.509 -0.482,3.01 -1.415,5.373 -3.117,6.797 -1.188,0.723 -1.514,3.564 -1.473,5.885 l -3.314,-0.008 c 0.315,-2.77 -0.182,-5.533 2.358,-8.674 1.39,-1.256 1.834,-2.68 2.117,-4.061 0.006,-0.826 0.012,-1.653 0.018,-2.478 -0.729,0.314 -1.457,0.63 -2.186,0.943 -1.029,0.423 -1.437,-0.347 -0.972,-1.098 1.541,-2.38 3.082,-4.76 4.623,-7.142 0.274,-0.474 0.645,-0.464 0.905,0.046 1.448,2.408 2.896,4.817 4.343,7.226 0.448,0.674 -0.313,1.532 -1.092,1.075 -0.723,-0.339 -1.447,-0.68 -2.17,-1.02"
   id="path9"
   inkscape:connector-curvature="0"
   style="fill-rule:evenodd" />
<path
   clip-rule="evenodd"
   d="m 22.257244,30.635874 c -0.041,-0.836 -0.082,-1.67 -0.123,-2.506 -0.583,-2.992 -1.595,-5.325 -3.343,-6.69 -1.211,-0.682 -1.633,-3.511 -1.669,-5.832 l -3.312,0.118 c 0.407,2.758 0.003,5.537 2.646,8.591 1.433,1.209 1.924,2.618 2.252,3.989 0.034,0.824 0.067,1.65 0.102,2.475 -0.739,-0.289 -1.478,-0.58 -2.216,-0.869 -1.043,-0.389 -1.425,0.395 -0.935,1.129 1.62,2.328 3.239,4.654 4.858,6.982 0.291,0.465 0.659,0.443 0.903,-0.074 1.366,-2.455 2.733,-4.912 4.1,-7.367 0.425,-0.689 -0.363,-1.521 -1.128,-1.037 -0.712,0.362 -1.424,0.726 -2.135,1.091"
   id="path11"
   inkscape:connector-curvature="0"
   style="fill-rule:evenodd" />
<path
   clip-rule="evenodd"
   d="m 29.235244,16.485874 c -0.826,3.788 -7.023,3.788 -7.746,0 V 8.2238737 h 7.746 v 8.2620003"
   id="path13"
   inkscape:connector-curvature="0"
   style="fill-rule:evenodd" />
<path
   stroke-miterlimit="2.613"
   d="m 29.235244,16.485874 c -0.826,3.788 -7.023,3.788 -7.746,0 V 8.2238737 h 7.746 v 8.2620003 z"
   id="path15"
   inkscape:connector-curvature="0"
   style="fill:none;stroke:#000000;stroke-width:0.155;stroke-miterlimit:2.61299992" />
</svg>