<?xml version="1.0" encoding="UTF-8" standalone="no"?>
<!-- Generator: Adobe Illustrator 15.0.2, SVG Export Plug-In . SVG Version: 6.00 Build 0)  -->

<svg
   xmlns:dc="http://purl.org/dc/elements/1.1/"
   xmlns:cc="http://creativecommons.org/ns#"
   xmlns:rdf="http://www.w3.org/1999/02/22-rdf-syntax-ns#"
   xmlns:svg="http://www.w3.org/2000/svg"
   xmlns="http://www.w3.org/2000/svg"
   xmlns:sodipodi="http://sodipodi.sourceforge.net/DTD/sodipodi-0.dtd"
   xmlns:inkscape="http://www.inkscape.org/namespaces/inkscape"
   version="1.0"
   id="Layer_1"
   x="0px"
   y="0px"
   width="50.491196"
   height="50.492352"
   viewBox="0 0 50.491197 50.492353"
   enable-background="new 0 0 50.281 50.204"
   xml:space="preserve"
   inkscape:version="0.48.4 r9939"
   sodipodi:docname="Ajax.svg"><metadata
   id="metadata21"><rdf:RDF><cc:Work
       rdf:about=""><dc:format>image/svg+xml</dc:format><dc:type
         rdf:resource="http://purl.org/dc/dcmitype/StillImage" /></cc:Work></rdf:RDF></metadata><defs
   id="defs19" /><sodipodi:namedview
   pagecolor="#ffffff"
   bordercolor="#666666"
   borderopacity="1"
   objecttolerance="10"
   gridtolerance="10"
   guidetolerance="10"
   inkscape:pageopacity="0"
   inkscape:pageshadow="2"
   inkscape:window-width="1280"
   inkscape:window-height="1001"
   id="namedview17"
   showgrid="false"
   fit-margin-top="0.1"
   fit-margin-bottom="0.1"
   fit-margin-right="0.1"
   fit-margin-left="0.1"
   inkscape:zoom="9.4016416"
   inkscape:cx="17.802888"
   inkscape:cy="25.119109"
   inkscape:window-x="-8"
   inkscape:window-y="-8"
   inkscape:window-maximized="1"
   inkscape:current-layer="Layer_1" />
<path
   clip-rule="evenodd"
   d="M 1.1090993,22.547479 22.686099,1.0944787 c 1.42,-1.41200001 3.837,-1.30800001 5.369,0.233 l 21.125,21.2470003 c 1.532,1.541 1.623,3.958 0.202,5.37 l -21.577,21.453 c -1.42,1.413 -3.836,1.308 -5.369,-0.233 l -21.1249997,-21.247 c -1.53199997,-1.541 -1.62299997,-3.958 -0.202,-5.37"
   id="path3"
   style="fill:#ffd700;fill-opacity:1;fill-rule:evenodd;stroke:none"
   inkscape:connector-curvature="0" />
<path
   clip-rule="evenodd"
   d="M 2.5010993,23.464479 23.595099,2.4914787 c 0.92,-0.914 2.482,-0.847 3.475,0.151 l 20.789,20.9090003 c 0.992,0.998 1.051,2.562 0.131,3.476 l -21.094,20.973 c -0.92,0.914 -2.483,0.847 -3.474,-0.15 l -20.7899997,-20.91 c -0.992,-0.998 -1.051,-2.562 -0.131,-3.476"
   id="path5"
   style="fill:#ffd700;fill-opacity:1;fill-rule:evenodd;stroke:none"
   inkscape:connector-curvature="0" />
<path
   stroke-miterlimit="2.613"
   d="M 2.5010993,23.464479 23.595099,2.4914787 c 0.92,-0.914 2.482,-0.847 3.475,0.151 l 20.789,20.9090003 c 0.992,0.998 1.051,2.562 0.131,3.476 l -21.094,20.973 c -0.92,0.914 -2.483,0.847 -3.474,-0.15 l -20.7899997,-20.91 c -0.992,-0.998 -1.051,-2.562 -0.131,-3.476 z"
   id="path7"
   inkscape:connector-curvature="0"
   style="fill:none;stroke:#000000;stroke-width:1.63;stroke-miterlimit:2.61299992" />
<path
   clip-rule="evenodd"
   d="m 13.759099,23.677479 c 0.041,0.836 0.082,1.671 0.123,2.507 0.583,2.991 1.594,5.323 3.343,6.688 1.21,0.683 1.632,3.512 1.668,5.832 l 3.313,-0.118 c -0.407,-2.758 -0.003,-5.536 -2.646,-8.591 -1.433,-1.209 -1.923,-2.616 -2.252,-3.986 -0.034,-0.825 -0.067,-1.651 -0.101,-2.478 0.738,0.291 1.477,0.581 2.216,0.871 1.042,0.388 1.425,-0.396 0.935,-1.13 -1.62,-2.327 -3.24,-4.655 -4.86,-6.982 -0.289,-0.465 -0.658,-0.442 -0.901,0.074 -1.367,2.456 -2.733,4.912 -4.101,7.369 -0.424,0.687 0.363,1.519 1.128,1.037 0.71,-0.365 1.423,-0.729 2.135,-1.093"
   id="path9"
   inkscape:connector-curvature="0"
   style="fill-rule:evenodd" />
<path
   clip-rule="evenodd"
   d="m 36.283099,23.677479 c -0.041,0.836 -0.083,1.671 -0.123,2.507 -0.583,2.991 -1.594,5.323 -3.343,6.688 -1.211,0.683 -1.633,3.512 -1.668,5.832 l -3.313,-0.118 c 0.408,-2.758 0.004,-5.536 2.647,-8.591 1.431,-1.209 1.923,-2.616 2.252,-3.986 0.033,-0.825 0.067,-1.651 0.1,-2.478 -0.737,0.291 -1.477,0.581 -2.215,0.871 -1.043,0.388 -1.425,-0.396 -0.935,-1.13 1.62,-2.327 3.24,-4.655 4.859,-6.982 0.289,-0.465 0.659,-0.442 0.902,0.074 1.366,2.456 2.733,4.912 4.101,7.369 0.424,0.687 -0.363,1.519 -1.128,1.037 -0.712,-0.365 -1.424,-0.729 -2.136,-1.093"
   id="path11"
   inkscape:connector-curvature="0"
   style="fill-rule:evenodd" />
<path
   clip-rule="evenodd"
   d="m 21.256099,15.948479 c 0.825,3.787 7.022,3.787 7.745,0 V 7.6864787 h -7.745 v 8.2620003"
   id="path13"
   inkscape:connector-curvature="0"
   style="fill-rule:evenodd" />
<path
   stroke-miterlimit="2.613"
   d="m 21.256099,15.948479 c 0.825,3.787 7.022,3.787 7.745,0 V 7.6864787 h -7.745 v 8.2620003 z"
   id="path15"
   inkscape:connector-curvature="0"
   style="fill:none;stroke:#000000;stroke-width:0.155;stroke-miterlimit:2.61299992" />
</svg>