<?xml version="1.0" encoding="UTF-8" standalone="no"?>
<!-- Generator: Adobe Illustrator 15.0.2, SVG Export Plug-In . SVG Version: 6.00 Build 0)  -->

<svg
   xmlns:dc="http://purl.org/dc/elements/1.1/"
   xmlns:cc="http://creativecommons.org/ns#"
   xmlns:rdf="http://www.w3.org/1999/02/22-rdf-syntax-ns#"
   xmlns:svg="http://www.w3.org/2000/svg"
   xmlns="http://www.w3.org/2000/svg"
   xmlns:sodipodi="http://sodipodi.sourceforge.net/DTD/sodipodi-0.dtd"
   xmlns:inkscape="http://www.inkscape.org/namespaces/inkscape"
   version="1.0"
   id="Layer_1"
   x="0px"
   y="0px"
   width="50.491341"
   height="50.492245"
   viewBox="0 0 50.491342 50.492246"
   enable-background="new 0 0 50.281 50.204"
   xml:space="preserve"
   inkscape:version="0.48.4 r9939"
   sodipodi:docname="Ajax.svg"><metadata
   id="metadata17"><rdf:RDF><cc:Work
       rdf:about=""><dc:format>image/svg+xml</dc:format><dc:type
         rdf:resource="http://purl.org/dc/dcmitype/StillImage" /></cc:Work></rdf:RDF></metadata><defs
   id="defs15" /><sodipodi:namedview
   pagecolor="#ffffff"
   bordercolor="#666666"
   borderopacity="1"
   objecttolerance="10"
   gridtolerance="10"
   guidetolerance="10"
   inkscape:pageopacity="0"
   inkscape:pageshadow="2"
   inkscape:window-width="1280"
   inkscape:window-height="1001"
   id="namedview13"
   showgrid="false"
   fit-margin-top="0.1"
   fit-margin-bottom="0.1"
   fit-margin-right="0.1"
   fit-margin-left="0.1"
   inkscape:zoom="9.4016416"
   inkscape:cx="20.13794"
   inkscape:cy="27.145807"
   inkscape:window-x="-8"
   inkscape:window-y="-8"
   inkscape:window-maximized="1"
   inkscape:current-layer="Layer_1" />
<path
   clip-rule="evenodd"
   d="m 1.1090994,22.546331 21.5769996,-21.451 c 1.421,-1.41299992 3.837,-1.30899992 5.369,0.232 l 21.125,21.247 c 1.532,1.541 1.623,3.957 0.203,5.37 l -21.577,21.454 c -1.421,1.412 -3.837,1.307 -5.369,-0.235 l -21.1259996,-21.246 c -1.532,-1.542 -1.623,-3.958 -0.202,-5.371"
   id="path3"
   style="fill:#ffd700;fill-opacity:1;fill-rule:evenodd;stroke:none"
   inkscape:connector-curvature="0" />
<path
   clip-rule="evenodd"
   d="m 2.5010994,23.464331 21.0939996,-20.973 c 0.92,-0.915 2.484,-0.846 3.475,0.151 l 20.789,20.908 c 0.993,0.997 1.052,2.562 0.132,3.477 l -21.095,20.973 c -0.919,0.914 -2.482,0.847 -3.475,-0.151 l -20.7889996,-20.91 c -0.991,-0.997 -1.05,-2.561 -0.131,-3.475"
   id="path5"
   style="fill:#ffd700;fill-opacity:1;fill-rule:evenodd;stroke:none"
   inkscape:connector-curvature="0" />
<path
   stroke-miterlimit="2.613"
   d="m 2.5010994,23.464331 21.0939996,-20.973 c 0.92,-0.915 2.484,-0.846 3.475,0.151 l 20.789,20.908 c 0.993,0.997 1.052,2.562 0.132,3.477 l -21.095,20.973 c -0.919,0.914 -2.482,0.847 -3.475,-0.151 l -20.7889996,-20.91 c -0.991,-0.997 -1.05,-2.561 -0.131,-3.475 z"
   id="path7"
   inkscape:connector-curvature="0"
   style="fill:none;stroke:#000000;stroke-width:1.63;stroke-miterlimit:2.61299992" />
<path
   clip-rule="evenodd"
   d="m 21.977099,18.930331 -12.2179996,5.201 c -0.583,0.388 -0.836,0.916 -0.866,1.541 l 0.007,1.735 13.7509996,-2.216 v 7.091 l 0.673,0.327 0.002,3.369 -4.331,2.12 v 1.252 h 4.617 l 0.005,0.675 h 2.996 v -0.675 h 4.514 v -1.259 l -4.242,-2.112 v -3.377 l 0.646,-0.325 0.109,-7.082 13.461,2.208 -0.002,-1.729 c 0.019,-0.729 -0.341,-1.234 -0.989,-1.571 l -12.054,-5.171 -1.172,-9.636 c -0.583,-1.912 -2.938,-1.866 -3.464,0 l -1.443,9.634"
   id="path9"
   inkscape:connector-curvature="0"
   style="fill-rule:evenodd" />
<path
   stroke-miterlimit="2.613"
   d="m 21.977099,18.930331 -12.2179996,5.201 c -0.583,0.388 -0.836,0.916 -0.866,1.541 l 0.007,1.735 13.7509996,-2.216 v 7.091 l 0.673,0.327 0.002,3.369 -4.331,2.12 v 1.252 h 4.617 l 0.005,0.675 h 2.996 v -0.675 h 4.514 v -1.259 l -4.242,-2.112 v -3.377 l 0.646,-0.325 0.109,-7.082 13.461,2.208 -0.002,-1.729 c 0.019,-0.729 -0.341,-1.234 -0.989,-1.571 l -12.054,-5.171 -1.172,-9.636 c -0.583,-1.912 -2.938,-1.866 -3.464,0 l -1.443,9.634 z"
   id="path11"
   inkscape:connector-curvature="0"
   style="fill:none;stroke:#000000;stroke-width:0.155;stroke-miterlimit:2.61299992" />
</svg>