<?xml version="1.0" encoding="UTF-8" standalone="no"?>
<!-- Generator: Adobe Illustrator 15.0.2, SVG Export Plug-In . SVG Version: 6.00 Build 0)  -->

<svg
   xmlns:dc="http://purl.org/dc/elements/1.1/"
   xmlns:cc="http://creativecommons.org/ns#"
   xmlns:rdf="http://www.w3.org/1999/02/22-rdf-syntax-ns#"
   xmlns:svg="http://www.w3.org/2000/svg"
   xmlns="http://www.w3.org/2000/svg"
   xmlns:sodipodi="http://sodipodi.sourceforge.net/DTD/sodipodi-0.dtd"
   xmlns:inkscape="http://www.inkscape.org/namespaces/inkscape"
   version="1.0"
   id="Layer_1"
   x="0px"
   y="0px"
   width="50.490986"
   height="50.492542"
   viewBox="0 0 50.490988 50.492544"
   enable-background="new 0 0 50.281 50.204"
   xml:space="preserve"
   inkscape:version="0.48.4 r9939"
   sodipodi:docname="Ajax.svg"><metadata
   id="metadata37"><rdf:RDF><cc:Work
       rdf:about=""><dc:format>image/svg+xml</dc:format><dc:type
         rdf:resource="http://purl.org/dc/dcmitype/StillImage" /></cc:Work></rdf:RDF></metadata><defs
   id="defs35" /><sodipodi:namedview
   pagecolor="#ffffff"
   bordercolor="#666666"
   borderopacity="1"
   objecttolerance="10"
   gridtolerance="10"
   guidetolerance="10"
   inkscape:pageopacity="0"
   inkscape:pageshadow="2"
   inkscape:window-width="1280"
   inkscape:window-height="1001"
   id="namedview33"
   showgrid="false"
   fit-margin-top="0.1"
   fit-margin-bottom="0.1"
   fit-margin-right="0.1"
   fit-margin-left="0.1"
   inkscape:zoom="9.4016416"
   inkscape:cx="23.398201"
   inkscape:cy="26.660873"
   inkscape:window-x="-8"
   inkscape:window-y="-8"
   inkscape:window-maximized="1"
   inkscape:current-layer="Layer_1" />
<path
   clip-rule="evenodd"
   d="M 1.1090994,22.547917 22.686099,1.0939167 c 1.421,-1.41200006 3.836,-1.30700006 5.37,0.235 l 21.124,21.2460003 c 1.531,1.541 1.623,3.958 0.203,5.371 l -21.578,21.453 c -1.422,1.411 -3.836,1.307 -5.37,-0.234 l -21.1239996,-21.247 c -1.532,-1.541 -1.623,-3.958 -0.202,-5.37"
   id="path3"
   style="fill:#ffd700;fill-opacity:1;fill-rule:evenodd;stroke:none"
   inkscape:connector-curvature="0" />
<path
   clip-rule="evenodd"
   d="M 2.5010994,23.464917 23.595099,2.4919167 c 0.919,-0.914 2.483,-0.846 3.475,0.15 l 20.789,20.9090003 c 0.991,0.998 1.051,2.563 0.132,3.477 l -21.096,20.973 c -0.918,0.915 -2.482,0.846 -3.474,-0.151 l -20.7889996,-20.909 c -0.992,-0.997 -1.051,-2.562 -0.131,-3.476"
   id="path5"
   style="fill:#ffd700;fill-opacity:1;fill-rule:evenodd;stroke:none"
   inkscape:connector-curvature="0" />
<path
   stroke-miterlimit="2.613"
   d="M 2.5010994,23.464917 23.595099,2.4919167 c 0.919,-0.914 2.483,-0.846 3.475,0.15 l 20.789,20.9090003 c 0.991,0.998 1.051,2.563 0.132,3.477 l -21.096,20.973 c -0.918,0.915 -2.482,0.846 -3.474,-0.151 l -20.7889996,-20.909 c -0.992,-0.997 -1.051,-2.562 -0.131,-3.476 z"
   id="path7"
   inkscape:connector-curvature="0"
   style="fill:none;stroke:#000000;stroke-width:1.63;stroke-miterlimit:2.61299992" />
<path
   clip-rule="evenodd"
   d="m 17.948099,19.698917 c -0.126,6.025 0.052,12.051 2.148,18.078 0.157,0.659 0.018,0.966 -0.416,0.916 -1.127,0.233 -0.85,1 0.499,0.834 3.661,0 7.322,0 10.983,0 0.412,-0.023 0.44,-0.135 0.083,-0.334 -2.133,-1.176 -5.477,-1.759 -9.501,-1.75 -2.504,-5.881 -3.028,-11.893 -2.647,-17.994 0.832,0.186 1.664,0.301 2.496,-0.083 0.555,-0.203 1.11,-0.203 1.665,0 2.543,1.012 4.842,0.815 6.739,-1.333 -8.34,0.136 -9.077,-1.077 -9.568,-2.333 0.823,-0.446 1.849,-0.446 3.078,0 2.763,1.026 5.47,0.843 8.154,0.167 -1.384,-0.109 -2.688,-0.137 -3.827,-0.75 -2.327,-0.911 -4.75,-1.052 -7.239,-0.667 1.135,-1.453 2.483,-2.714 5.326,-1.401 1.592,0.74 3.234,1.053 4.908,0.819 -0.576,-0.313 -1.387,-0.663 -1.876,-1.062 -0.306,-0.194 -0.489,-0.479 -0.794,-0.674 -4.138,-2.1490003 -6.829,-1.256 -8.646,1.901 0.044,-2.007 0.492,-3.532 1.831,-3.999 2.551,-0.055 5.286,-0.02 7.836,-0.075 -1.404,-0.748 -3.115,-1.41 -4.924,-1.591 -4.958,-0.337 -6.049,2.365 -5.741,6.165 -2.78,-0.624 -4.052,3.916 -0.567,5.166"
   id="path9"
   inkscape:connector-curvature="0"
   style="fill-rule:evenodd" />
<path
   stroke-miterlimit="2.613"
   d="m 17.948099,19.698917 c -0.126,6.025 0.052,12.051 2.148,18.078 0.157,0.659 0.018,0.966 -0.416,0.916 -1.127,0.233 -0.85,1 0.499,0.834 3.661,0 7.322,0 10.983,0 0.412,-0.023 0.44,-0.135 0.083,-0.334 -2.133,-1.176 -5.477,-1.759 -9.501,-1.75 -2.504,-5.881 -3.028,-11.893 -2.647,-17.994 0.832,0.186 1.664,0.301 2.496,-0.083 0.555,-0.203 1.11,-0.203 1.665,0 2.543,1.012 4.842,0.815 6.739,-1.333 -8.34,0.136 -9.077,-1.077 -9.568,-2.333 0.823,-0.446 1.849,-0.446 3.078,0 2.763,1.026 5.47,0.843 8.154,0.167 -1.384,-0.109 -2.688,-0.137 -3.827,-0.75 -2.327,-0.911 -4.75,-1.052 -7.239,-0.667 1.135,-1.453 2.483,-2.714 5.326,-1.401 1.592,0.74 3.234,1.053 4.908,0.819 -0.576,-0.313 -1.387,-0.663 -1.876,-1.062 -0.306,-0.194 -0.489,-0.479 -0.794,-0.674 -4.138,-2.1490003 -6.829,-1.256 -8.646,1.901 0.044,-2.007 0.492,-3.532 1.831,-3.999 2.551,-0.055 5.286,-0.02 7.836,-0.075 -1.404,-0.748 -3.115,-1.41 -4.924,-1.591 -4.958,-0.337 -6.049,2.365 -5.741,6.165 -2.78,-0.624 -4.052,3.916 -0.567,5.166 z"
   id="path11"
   inkscape:connector-curvature="0"
   style="fill:none;stroke:#000000;stroke-width:0.155;stroke-miterlimit:2.61299992" />
<path
   clip-rule="evenodd"
   d="m 18.723099,15.232917 c -0.04,0.254 -0.04,0.588 0,1.003 -0.471,-0.01 -0.417,1.123 -0.394,2.188 -3.011,-0.577 -1.686,-3.941 0.394,-3.191"
   id="path13"
   inkscape:connector-curvature="0"
   style="fill-rule:evenodd" />
<path
   stroke-miterlimit="2.613"
   d="m 18.723099,15.232917 c -0.04,0.254 -0.04,0.588 0,1.003 -0.471,-0.01 -0.417,1.123 -0.394,2.188 -3.011,-0.577 -1.686,-3.941 0.394,-3.191 z"
   id="path15"
   inkscape:connector-curvature="0"
   style="fill:none;stroke:#000000;stroke-width:0.155;stroke-miterlimit:2.61299992" />
<line
   stroke-miterlimit="2.613"
   x1="31.268099"
   y1="10.069917"
   x2="31.268099"
   y2="9.8119164"
   id="line17"
   style="fill:none;stroke:#000000;stroke-width:1.69500005;stroke-miterlimit:2.61299992" />
<rect
   x="30.422098"
   y="9.8119164"
   stroke-miterlimit="2.613"
   width="1.693"
   height="0.259"
   id="rect19"
   style="fill:none;stroke:#000000;stroke-width:0.155;stroke-miterlimit:2.61299992" />
<line
   stroke-miterlimit="2.613"
   x1="32.404099"
   y1="13.358916"
   x2="34.8741"
   y2="13.358916"
   id="line21"
   style="fill:none;stroke:#000000;stroke-width:0.259;stroke-miterlimit:2.61299992" />
<rect
   x="32.404099"
   y="13.227917"
   stroke-miterlimit="2.613"
   width="2.47"
   height="0.259"
   id="rect23"
   style="fill:none;stroke:#000000;stroke-width:0.155;stroke-miterlimit:2.61299992" />
<line
   stroke-miterlimit="2.613"
   x1="33.150097"
   y1="15.757916"
   x2="38.2061"
   y2="15.757916"
   id="line25"
   style="fill:none;stroke:#000000;stroke-width:0.287;stroke-miterlimit:2.61299992" />
<rect
   x="33.150097"
   y="15.613916"
   stroke-miterlimit="2.613"
   width="5.0560002"
   height="0.28600001"
   id="rect27"
   style="fill:none;stroke:#000000;stroke-width:0.155;stroke-miterlimit:2.61299992" />
<line
   stroke-miterlimit="2.613"
   x1="32.1451"
   y1="18.169916"
   x2="39.9011"
   y2="18.169916"
   id="line29"
   style="fill:none;stroke:#000000;stroke-width:0.287;stroke-miterlimit:2.61299992" />
<rect
   x="32.1451"
   y="18.025917"
   stroke-miterlimit="2.613"
   width="7.756"
   height="0.287"
   id="rect31"
   style="fill:none;stroke:#000000;stroke-width:0.155;stroke-miterlimit:2.61299992" />
</svg>