<?xml version="1.0" encoding="UTF-8" standalone="no"?>
<!-- Generator: Adobe Illustrator 15.0.2, SVG Export Plug-In . SVG Version: 6.00 Build 0)  -->

<svg
   xmlns:dc="http://purl.org/dc/elements/1.1/"
   xmlns:cc="http://creativecommons.org/ns#"
   xmlns:rdf="http://www.w3.org/1999/02/22-rdf-syntax-ns#"
   xmlns:svg="http://www.w3.org/2000/svg"
   xmlns="http://www.w3.org/2000/svg"
   xmlns:sodipodi="http://sodipodi.sourceforge.net/DTD/sodipodi-0.dtd"
   xmlns:inkscape="http://www.inkscape.org/namespaces/inkscape"
   version="1.0"
   id="Layer_1"
   x="0px"
   y="0px"
   width="50.491627"
   height="50.492851"
   viewBox="0 0 50.491629 50.492853"
   enable-background="new 0 0 50.281 50.204"
   xml:space="preserve"
   inkscape:version="0.48.4 r9939"
   sodipodi:docname="Ajax.svg"><metadata
   id="metadata35"><rdf:RDF><cc:Work
       rdf:about=""><dc:format>image/svg+xml</dc:format><dc:type
         rdf:resource="http://purl.org/dc/dcmitype/StillImage" /></cc:Work></rdf:RDF></metadata><defs
   id="defs33" /><sodipodi:namedview
   pagecolor="#ffffff"
   bordercolor="#666666"
   borderopacity="1"
   objecttolerance="10"
   gridtolerance="10"
   guidetolerance="10"
   inkscape:pageopacity="0"
   inkscape:pageshadow="2"
   inkscape:window-width="1280"
   inkscape:window-height="1001"
   id="namedview31"
   showgrid="false"
   fit-margin-top="0.1"
   fit-margin-left="0.1"
   fit-margin-bottom="0.1"
   fit-margin-right="0.1"
   inkscape:zoom="4.7008208"
   inkscape:cx="-7.9399509"
   inkscape:cy="25.245864"
   inkscape:window-x="-8"
   inkscape:window-y="-8"
   inkscape:window-maximized="1"
   inkscape:current-layer="Layer_1" />
<path
   clip-rule="evenodd"
   d="m 49.382244,27.944978 -21.576,21.453 c -1.423,1.413 -3.837,1.308 -5.371,-0.233 l -21.124,-21.247 c -1.53200004,-1.541 -1.62300004,-3.958 -0.203,-5.37 l 21.578,-21.4529997 c 1.42,-1.41299995 3.835,-1.30799995 5.369,0.232 l 21.124,21.2479997 c 1.533,1.54 1.625,3.957 0.203,5.37"
   id="path3"
   style="fill:#ffd700;fill-opacity:1;fill-rule:evenodd;stroke:none"
   inkscape:connector-curvature="0" />
<path
   clip-rule="evenodd"
   d="m 47.991244,27.026978 -21.095,20.974 c -0.919,0.915 -2.483,0.847 -3.476,-0.151 l -20.788,-20.91 c -0.992,-0.997 -1.051,-2.562 -0.132,-3.476 l 21.095,-20.9719997 c 0.919,-0.915 2.483,-0.847 3.475,0.15 l 20.79,20.9099997 c 0.991,0.998 1.05,2.561 0.131,3.475"
   id="path5"
   style="fill:#ffd700;fill-opacity:1;fill-rule:evenodd;stroke:none"
   inkscape:connector-curvature="0" />
<path
   stroke-miterlimit="2.613"
   d="m 47.991244,27.026978 -21.095,20.974 c -0.919,0.915 -2.483,0.847 -3.476,-0.151 l -20.788,-20.91 c -0.992,-0.997 -1.051,-2.562 -0.132,-3.476 l 21.095,-20.9719997 c 0.919,-0.915 2.483,-0.847 3.475,0.15 l 20.79,20.9099997 c 0.991,0.998 1.05,2.561 0.131,3.475 z"
   id="path7"
   inkscape:connector-curvature="0"
   style="fill:none;stroke:#000000;stroke-width:1.63;stroke-miterlimit:2.61299992" />
<path
   d="m 18.252244,14.506978 h 1.564 c 0.331,0 0.593,-0.034 0.779,-0.104 0.188,-0.068 0.33,-0.179 0.427,-0.33 0.097,-0.149 0.146,-0.313 0.146,-0.492 0,-0.26 -0.093,-0.473 -0.282,-0.642 -0.189,-0.167 -0.487,-0.25 -0.895,-0.25 h -1.739 v 1.818 m -0.726,3.069 v -5.495 h 2.437 c 0.49,0 0.862,0.05 1.117,0.147 0.255,0.1 0.458,0.273 0.612,0.523 0.151,0.251 0.227,0.526 0.227,0.828 0,0.391 -0.125,0.718 -0.378,0.985 -0.252,0.269 -0.643,0.438 -1.17,0.511 0.193,0.093 0.339,0.184 0.439,0.273 0.212,0.195 0.413,0.439 0.604,0.731 l 0.955,1.495 h -0.914 l -0.727,-1.144 c -0.213,-0.329 -0.388,-0.582 -0.526,-0.756 -0.137,-0.176 -0.259,-0.299 -0.369,-0.368 -0.108,-0.07 -0.218,-0.118 -0.331,-0.146 -0.083,-0.017 -0.218,-0.025 -0.405,-0.025 h -0.844 v 2.439 h -0.727 z"
   id="path9"
   inkscape:connector-curvature="0" />
<path
   d="m 26.665244,12.080978 h 0.728 v 3.176 c 0,0.552 -0.062,0.99 -0.188,1.315 -0.125,0.325 -0.352,0.588 -0.677,0.792 -0.326,0.205 -0.754,0.307 -1.283,0.307 -0.515,0 -0.937,-0.088 -1.263,-0.268 -0.328,-0.176 -0.562,-0.434 -0.701,-0.77 -0.141,-0.336 -0.21,-0.795 -0.21,-1.377 v -3.176 h 0.726 v 3.172 c 0,0.478 0.046,0.83 0.134,1.055 0.088,0.226 0.241,0.4 0.456,0.523 0.217,0.122 0.482,0.185 0.793,0.185 0.535,0 0.916,-0.122 1.145,-0.366 0.226,-0.241 0.34,-0.707 0.34,-1.396 v -3.172"
   id="path11"
   inkscape:connector-curvature="0" />
<path
   d="m 29.584244,15.318978 h 1.864 l -0.574,-1.521 c -0.174,-0.461 -0.305,-0.841 -0.389,-1.141 -0.071,0.354 -0.168,0.702 -0.297,1.052 l -0.604,1.61 m -1.584,2.257 2.111,-5.495 h 0.783 l 2.25,5.495 h -0.83 l -0.641,-1.664 h -2.298 l -0.604,1.664 h -0.771 z"
   id="path13"
   inkscape:connector-curvature="0" />
<path
   d="m 16.842244,24.387978 0.686,-0.061 c 0.032,0.276 0.108,0.501 0.227,0.678 0.119,0.177 0.303,0.318 0.553,0.428 0.249,0.108 0.531,0.162 0.843,0.162 0.278,0 0.522,-0.041 0.734,-0.123 0.213,-0.083 0.372,-0.196 0.475,-0.339 0.104,-0.145 0.156,-0.301 0.156,-0.47 0,-0.175 -0.05,-0.323 -0.151,-0.452 -0.1,-0.13 -0.265,-0.237 -0.494,-0.324 -0.148,-0.059 -0.473,-0.147 -0.979,-0.27 -0.504,-0.121 -0.858,-0.234 -1.061,-0.343 -0.262,-0.137 -0.458,-0.308 -0.587,-0.512 -0.128,-0.203 -0.192,-0.431 -0.192,-0.685 0,-0.276 0.078,-0.535 0.236,-0.776 0.157,-0.242 0.387,-0.425 0.689,-0.55 0.303,-0.125 0.639,-0.188 1.009,-0.188 0.408,0 0.766,0.065 1.078,0.197 0.311,0.131 0.55,0.324 0.718,0.578 0.167,0.255 0.257,0.544 0.27,0.867 l -0.697,0.052 c -0.039,-0.348 -0.165,-0.61 -0.382,-0.787 -0.216,-0.178 -0.534,-0.266 -0.957,-0.266 -0.44,0 -0.76,0.08 -0.962,0.241 -0.201,0.161 -0.302,0.356 -0.302,0.582 0,0.199 0.072,0.361 0.214,0.487 0.14,0.128 0.505,0.259 1.096,0.392 0.592,0.135 0.997,0.251 1.218,0.352 0.319,0.148 0.556,0.335 0.708,0.56 0.152,0.228 0.228,0.488 0.228,0.782 0,0.293 -0.083,0.568 -0.251,0.827 -0.167,0.258 -0.408,0.459 -0.721,0.604 -0.314,0.144 -0.667,0.216 -1.059,0.216 -0.497,0 -0.915,-0.072 -1.25,-0.219 -0.337,-0.144 -0.6,-0.361 -0.792,-0.653 -0.191,-0.289 -0.292,-0.619 -0.301,-0.987"
   id="path15"
   inkscape:connector-curvature="0" />
<polyline
   points="22.121,26.008 22.121,20.512 26.094,20.512 26.094,21.162 22.847,21.162 22.847,22.844 25.888,22.844   25.888,23.49 22.847,23.49 22.847,25.361 26.222,25.361 26.222,26.008 22.121,26.008 "
   id="polyline17"
   transform="translate(0.10524396,0.14497835)" />
<path
   d="m 27.308244,26.152978 v -5.496 h 1.095 l 1.301,3.893 c 0.12,0.361 0.208,0.633 0.263,0.813 0.063,-0.198 0.159,-0.493 0.293,-0.881 l 1.314,-3.824 h 0.979 v 5.496 h -0.701 v -4.6 l -1.597,4.6 h -0.655 l -1.59,-4.678 v 4.678 h -0.702"
   id="path19"
   inkscape:connector-curvature="0" />
<path
   d="m 13.641244,32.965978 0.685,-0.062 c 0.033,0.276 0.108,0.501 0.227,0.678 0.119,0.177 0.304,0.318 0.553,0.428 0.249,0.107 0.53,0.162 0.843,0.162 0.277,0 0.522,-0.041 0.734,-0.123 0.213,-0.083 0.372,-0.195 0.475,-0.339 0.104,-0.145 0.156,-0.301 0.156,-0.471 0,-0.173 -0.049,-0.322 -0.15,-0.453 -0.1,-0.128 -0.266,-0.235 -0.494,-0.322 -0.149,-0.058 -0.474,-0.147 -0.98,-0.27 -0.503,-0.121 -0.858,-0.234 -1.06,-0.342 -0.263,-0.138 -0.458,-0.309 -0.588,-0.512 -0.127,-0.204 -0.191,-0.432 -0.191,-0.686 0,-0.276 0.077,-0.536 0.235,-0.776 0.158,-0.241 0.388,-0.426 0.689,-0.551 0.304,-0.123 0.639,-0.186 1.009,-0.186 0.408,0 0.767,0.064 1.078,0.196 0.312,0.131 0.551,0.324 0.718,0.578 0.167,0.255 0.258,0.544 0.271,0.866 l -0.698,0.053 c -0.038,-0.348 -0.165,-0.61 -0.381,-0.787 -0.216,-0.178 -0.535,-0.266 -0.957,-0.266 -0.44,0 -0.761,0.08 -0.963,0.241 -0.2,0.162 -0.301,0.356 -0.301,0.582 0,0.199 0.071,0.362 0.213,0.488 0.141,0.128 0.506,0.258 1.097,0.392 0.591,0.133 0.996,0.251 1.217,0.351 0.32,0.147 0.556,0.335 0.709,0.56 0.152,0.228 0.227,0.488 0.227,0.782 0,0.293 -0.083,0.569 -0.25,0.827 -0.168,0.258 -0.409,0.46 -0.722,0.604 -0.313,0.144 -0.667,0.215 -1.058,0.215 -0.499,0 -0.915,-0.071 -1.25,-0.217 -0.337,-0.145 -0.601,-0.361 -0.793,-0.654 -0.19,-0.289 -0.293,-0.619 -0.3,-0.986"
   id="path21"
   inkscape:connector-curvature="0" />
<path
   d="m 19.990244,32.473978 h 1.865 l -0.575,-1.521 c -0.174,-0.462 -0.305,-0.842 -0.389,-1.141 -0.07,0.354 -0.169,0.703 -0.297,1.052 l -0.604,1.61 m -1.585,2.256 2.111,-5.496 h 0.783 l 2.25,5.496 h -0.83 l -0.641,-1.664 h -2.298 l -0.602,1.664 h -0.773 z"
   id="path23"
   inkscape:connector-curvature="0" />
<path
   d="m 24.064244,28.896978 0.5,-1.05 h 0.884 l -0.825,1.05 h -0.559 m 0.915,5.833 h -0.726 v -5.496 h 0.726 v 5.496 z"
   id="path25"
   inkscape:connector-curvature="0" />
<path
   d="m 26.989244,34.081978 h 1.174 c 0.362,0 0.647,-0.033 0.854,-0.101 0.205,-0.067 0.369,-0.163 0.492,-0.285 0.172,-0.172 0.307,-0.404 0.402,-0.694 0.096,-0.292 0.145,-0.645 0.145,-1.061 0,-0.575 -0.095,-1.016 -0.283,-1.325 -0.189,-0.309 -0.418,-0.515 -0.688,-0.619 -0.195,-0.075 -0.51,-0.113 -0.941,-0.113 h -1.155 v 4.198 m -0.727,0.648 v -5.496 h 1.893 c 0.428,0 0.754,0.028 0.979,0.08 0.314,0.071 0.582,0.203 0.805,0.393 0.291,0.245 0.508,0.559 0.652,0.939 0.144,0.381 0.215,0.817 0.215,1.307 0,0.418 -0.049,0.787 -0.146,1.109 -0.097,0.322 -0.223,0.59 -0.376,0.801 -0.151,0.211 -0.317,0.377 -0.5,0.498 -0.181,0.121 -0.399,0.213 -0.655,0.276 -0.257,0.063 -0.551,0.093 -0.883,0.093 h -1.984 z"
   id="path27"
   inkscape:connector-curvature="0" />
<path
   d="m 32.789244,32.473978 h 1.864 l -0.575,-1.521 c -0.174,-0.462 -0.305,-0.842 -0.389,-1.141 -0.07,0.354 -0.17,0.703 -0.297,1.052 l -0.603,1.61 m -1.586,2.256 2.111,-5.496 h 0.783 l 2.25,5.496 h -0.83 l -0.641,-1.664 h -2.298 l -0.603,1.664 h -0.772 z"
   id="path29"
   inkscape:connector-curvature="0" />
</svg>