<?xml version="1.0" encoding="UTF-8" standalone="no"?>
<!-- Generator: Adobe Illustrator 15.0.2, SVG Export Plug-In . SVG Version: 6.00 Build 0)  -->

<svg
   xmlns:dc="http://purl.org/dc/elements/1.1/"
   xmlns:cc="http://creativecommons.org/ns#"
   xmlns:rdf="http://www.w3.org/1999/02/22-rdf-syntax-ns#"
   xmlns:svg="http://www.w3.org/2000/svg"
   xmlns="http://www.w3.org/2000/svg"
   xmlns:sodipodi="http://sodipodi.sourceforge.net/DTD/sodipodi-0.dtd"
   xmlns:inkscape="http://www.inkscape.org/namespaces/inkscape"
   version="1.0"
   id="Layer_1"
   x="0px"
   y="0px"
   width="50.490879"
   height="50.492851"
   viewBox="0 0 50.490881 50.492853"
   enable-background="new 0 0 50.281 50.204"
   xml:space="preserve"
   inkscape:version="0.48.4 r9939"
   sodipodi:docname="Ajax.svg"><metadata
   id="metadata21"><rdf:RDF><cc:Work
       rdf:about=""><dc:format>image/svg+xml</dc:format><dc:type
         rdf:resource="http://purl.org/dc/dcmitype/StillImage" /></cc:Work></rdf:RDF></metadata><defs
   id="defs19" /><sodipodi:namedview
   pagecolor="#ffffff"
   bordercolor="#666666"
   borderopacity="1"
   objecttolerance="10"
   gridtolerance="10"
   guidetolerance="10"
   inkscape:pageopacity="0"
   inkscape:pageshadow="2"
   inkscape:window-width="1280"
   inkscape:window-height="1001"
   id="namedview17"
   showgrid="false"
   fit-margin-top="0.1"
   fit-margin-bottom="0.1"
   fit-margin-right="0.1"
   fit-margin-left="0.1"
   inkscape:zoom="4.7008208"
   inkscape:cx="25.245491"
   inkscape:cy="25.245866"
   inkscape:window-x="-8"
   inkscape:window-y="-8"
   inkscape:window-maximized="1"
   inkscape:current-layer="Layer_1" />
<path
   clip-rule="evenodd"
   d="m 49.382992,27.944978 -21.578,21.453 c -1.42,1.413 -3.836,1.308 -5.369,-0.233 l -21.1239999,-21.247 c -1.53299998,-1.541 -1.62399998,-3.958 -0.203,-5.37 L 22.685992,1.0949785 c 1.421,-1.413 3.836,-1.308 5.37,0.232 l 21.124,21.2479995 c 1.531,1.54 1.623,3.957 0.203,5.37"
   id="path3"
   style="fill:#ffd700;fill-opacity:1;fill-rule:evenodd;stroke:none"
   inkscape:connector-curvature="0" />
<path
   clip-rule="evenodd"
   d="m 47.990992,27.026978 -21.094,20.974 c -0.92,0.915 -2.484,0.847 -3.476,-0.151 l -20.7889999,-20.91 c -0.991,-0.997 -1.051,-2.562 -0.131,-3.476 L 23.594992,2.4919785 c 0.92,-0.915 2.484,-0.847 3.476,0.15 l 20.787,20.9099995 c 0.994,0.998 1.053,2.561 0.133,3.475"
   id="path5"
   style="fill:#ffd700;fill-opacity:1;fill-rule:evenodd;stroke:none"
   inkscape:connector-curvature="0" />
<path
   stroke-miterlimit="2.613"
   d="m 47.990992,27.026978 -21.094,20.974 c -0.92,0.915 -2.484,0.847 -3.476,-0.151 l -20.7889999,-20.91 c -0.991,-0.997 -1.051,-2.562 -0.131,-3.476 L 23.594992,2.4919785 c 0.92,-0.915 2.484,-0.847 3.476,0.15 l 20.787,20.9099995 c 0.994,0.998 1.053,2.561 0.133,3.475 z"
   id="path7"
   inkscape:connector-curvature="0"
   style="fill:none;stroke:#000000;stroke-width:1.63;stroke-miterlimit:2.61299992" />
<path
   clip-rule="evenodd"
   d="m 14.446992,18.479978 c 0.6,-0.33 0.996,-0.723 1.244,-1.286 0.018,-0.021 0.039,-0.036 0.067,-0.034 h 1.965 c 0.045,0 0.082,0.041 0.075,0.09 v 10.816 c 0.002,0.046 -0.026,0.085 -0.081,0.085 l -2.18,0.002 c -0.039,0 -0.077,-0.035 -0.077,-0.08 l 10e-4,-7.172 -0.984,0.001 c -0.05,-0.005 -0.077,-0.03 -0.079,-0.079 v -2.273 c 0.005,-0.037 0.021,-0.059 0.049,-0.07"
   id="path9"
   inkscape:connector-curvature="0"
   style="fill-rule:evenodd" />
<path
   clip-rule="evenodd"
   d="m 21.799992,21.717978 c -0.067,-2.883 4.185,-3.262 4.294,-0.002 l -0.002,2.658 c -0.246,2.63 -4.059,2.466 -4.266,0.01 l -0.026,-2.666 m -2.295,-0.787 c 0.297,-4.734 8.296,-5.401 8.859,-0.009 l -0.002,3.741 c -0.447,5.208 -8.622,4.925 -8.857,0.007 v -3.739 z"
   id="path11"
   inkscape:connector-curvature="0"
   style="fill-rule:evenodd" />
<path
   clip-rule="evenodd"
   d="m 32.173992,20.686978 c 0,-0.867 0,-1.734 0,-2.601 0,-0.033 0.018,-0.06 0.041,-0.069 l 1.922,-0.898 c 0.057,-0.027 0.127,0.011 0.123,0.081 0,1.157 0,2.315 0,3.474 0.338,0 0.713,0 1.049,0 0.08,-0.002 0.082,0.025 0.08,0.092 l 0.006,1.875 c -0.004,0.051 -0.047,0.043 -0.086,0.043 l -1.104,0.001 -0.004,2.989 c 0.156,0.543 1.145,0.452 1.613,-0.08 0.146,-0.14 0.279,0.005 0.24,0.19 -0.143,0.672 -0.285,1.347 -0.43,2.019 -0.006,0.022 -0.018,0.043 -0.045,0.056 -1.209,0.801 -3.01,0.337 -3.301,-1.548 0,-1.197 0,-2.393 0.002,-3.591 h -0.928 c -0.061,0 -0.08,-0.031 -0.08,-0.08 0,-0.625 0,-1.25 0,-1.875 0.002,-0.062 0.035,-0.078 0.078,-0.077 0.276,-0.001 0.551,-0.001 0.824,-0.001"
   id="path13"
   inkscape:connector-curvature="0"
   style="fill-rule:evenodd" />
<path
   clip-rule="evenodd"
   d="m 25.571992,36.492978 10.396,-6.405 c 0.225,-0.141 0.125,-0.486 -0.139,-0.481 -3.488,-0.001 -6.975,-0.002 -10.463,-0.003 -3.488,0.003 -6.976,0.006 -10.464,0.008 -0.3,-0.011 -0.382,0.321 -0.102,0.475 l 10.534,6.408 c 0.108,0.056 0.135,0.054 0.238,-0.002"
   id="path15"
   inkscape:connector-curvature="0"
   style="fill-rule:evenodd" />
</svg>