<?xml version="1.0" encoding="UTF-8" standalone="no"?>
<!-- Generator: Adobe Illustrator 15.0.2, SVG Export Plug-In . SVG Version: 6.00 Build 0)  -->

<svg
   xmlns:dc="http://purl.org/dc/elements/1.1/"
   xmlns:cc="http://creativecommons.org/ns#"
   xmlns:rdf="http://www.w3.org/1999/02/22-rdf-syntax-ns#"
   xmlns:svg="http://www.w3.org/2000/svg"
   xmlns="http://www.w3.org/2000/svg"
   xmlns:sodipodi="http://sodipodi.sourceforge.net/DTD/sodipodi-0.dtd"
   xmlns:inkscape="http://www.inkscape.org/namespaces/inkscape"
   version="1.0"
   id="Layer_1"
   x="0px"
   y="0px"
   width="50.49131"
   height="50.492851"
   viewBox="0 0 50.491312 50.492853"
   enable-background="new 0 0 50.281 50.204"
   xml:space="preserve"
   inkscape:version="0.48.4 r9939"
   sodipodi:docname="Ajax.svg"><metadata
   id="metadata21"><rdf:RDF><cc:Work
       rdf:about=""><dc:format>image/svg+xml</dc:format><dc:type
         rdf:resource="http://purl.org/dc/dcmitype/StillImage" /></cc:Work></rdf:RDF></metadata><defs
   id="defs19" /><sodipodi:namedview
   pagecolor="#ffffff"
   bordercolor="#666666"
   borderopacity="1"
   objecttolerance="10"
   gridtolerance="10"
   guidetolerance="10"
   inkscape:pageopacity="0"
   inkscape:pageshadow="2"
   inkscape:window-width="1280"
   inkscape:window-height="1001"
   id="namedview17"
   showgrid="false"
   fit-margin-top="0.1"
   fit-margin-bottom="0.1"
   fit-margin-right="0.1"
   fit-margin-left="0.1"
   inkscape:zoom="4.7008208"
   inkscape:cx="-7.9175582"
   inkscape:cy="25.245864"
   inkscape:window-x="-8"
   inkscape:window-y="-8"
   inkscape:window-maximized="1"
   inkscape:current-layer="Layer_1" />
<path
   clip-rule="evenodd"
   d="m 49.383637,27.944978 -21.578,21.453 c -1.422,1.413 -3.836,1.308 -5.369,-0.233 l -21.1250003,-21.247 c -1.53200002,-1.541 -1.62400002,-3.958 -0.203,-5.37 L 22.685637,1.0949785 c 1.421,-1.41299997 3.837,-1.30799997 5.37,0.232 l 21.123,21.2479995 c 1.533,1.54 1.625,3.957 0.205,5.37"
   id="path3"
   style="fill:#ffd700;fill-opacity:1;fill-rule:evenodd;stroke:none"
   inkscape:connector-curvature="0" />
<path
   clip-rule="evenodd"
   d="m 47.990637,27.026978 -21.095,20.974 c -0.918,0.915 -2.482,0.847 -3.474,-0.151 l -20.7890003,-20.91 c -0.992,-0.997 -1.051,-2.562 -0.132,-3.476 L 23.595637,2.4919785 c 0.919,-0.915 2.483,-0.847 3.476,0.15 l 20.789,20.9099995 c 0.99,0.998 1.05,2.561 0.13,3.475"
   id="path5"
   style="fill:#ffd700;fill-opacity:1;fill-rule:evenodd;stroke:none"
   inkscape:connector-curvature="0" />
<path
   stroke-miterlimit="2.613"
   d="m 47.990637,27.026978 -21.095,20.974 c -0.918,0.915 -2.482,0.847 -3.474,-0.151 l -20.7890003,-20.91 c -0.992,-0.997 -1.051,-2.562 -0.132,-3.476 L 23.595637,2.4919785 c 0.919,-0.915 2.483,-0.847 3.476,0.15 l 20.789,20.9099995 c 0.99,0.998 1.05,2.561 0.13,3.475 z"
   id="path7"
   inkscape:connector-curvature="0"
   style="fill:none;stroke:#000000;stroke-width:1.63;stroke-miterlimit:2.61299992" />
<path
   clip-rule="evenodd"
   d="m 19.435637,12.043978 c -0.03,0.033 -0.03,0.065 -0.003,0.094 0.351,0.33 0.701,0.66 1.051,0.99 0.028,0.024 0.074,0.023 0.104,-0.014 0.857,-0.923 2.067,-0.99 2.934,-0.399 0.384,0.263 0.273,0.941 -0.192,0.966 -1.963,0.019 -4.185,1.861 -3.758,4.693 0.005,0.038 0.022,0.063 0.065,0.065 1.898,0 3.795,0 5.692,0 0.037,0.003 0.069,-0.022 0.068,-0.063 0,-0.56 0,-1.118 0,-1.678 0.001,-0.036 -0.029,-0.064 -0.068,-0.065 -1.313,0 -2.476,10e-4 -3.789,10e-4 0.015,-0.492 0.67,-1.062 1.377,-1.188 1.657,0 3.225,-1.787 2.149,-3.399 -1.308,-1.776 -4.245,-1.674 -5.63,-0.003"
   id="path9"
   inkscape:connector-curvature="0"
   style="fill-rule:evenodd" />
<path
   clip-rule="evenodd"
   d="m 27.447637,13.034978 c 0,-0.6 0,-1.197 0,-1.798 0,-0.022 0.014,-0.04 0.027,-0.048 l 1.328,-0.62 c 0.041,-0.019 0.088,0.007 0.086,0.057 0,0.8 0,1.6 0,2.399 0.232,0 0.492,0 0.725,0 0.055,-0.002 0.057,0.019 0.057,0.063 l 0.002,1.296 c -0.002,0.035 -0.031,0.03 -0.059,0.03 h -0.762 l -0.004,2.065 c 0.109,0.375 0.791,0.313 1.115,-0.055 0.104,-0.096 0.193,0.003 0.166,0.131 -0.098,0.464 -0.197,0.931 -0.297,1.395 -0.004,0.017 -0.012,0.029 -0.029,0.038 -0.836,0.555 -2.082,0.234 -2.281,-1.068 0,-0.827 0,-1.654 0,-2.481 h -0.641 c -0.041,0 -0.055,-0.021 -0.055,-0.056 0,-0.432 0,-0.863 0,-1.295 0,-0.043 0.023,-0.055 0.055,-0.055 0.19,0.002 0.378,0.002 0.567,0.002"
   id="path11"
   inkscape:connector-curvature="0"
   style="fill-rule:evenodd" />
<path
   clip-rule="evenodd"
   d="m 21.460637,22.408978 3.527,3.573 c 0.024,0.024 0.082,0.024 0.106,0 l 3.419,-3.579 c 0.098,-0.104 0.051,-0.244 -0.098,-0.236 h -6.849 c -0.142,-0.008 -0.191,0.161 -0.105,0.242"
   id="path13"
   inkscape:connector-curvature="0"
   style="fill-rule:evenodd" />
<path
   clip-rule="evenodd"
   d="m 17.778637,29.843978 h 4.813 c 0.4,-0.865 1.277,-1.467 2.293,-1.467 1.017,0 1.892,0.602 2.292,1.467 h 5.332 v -2.16 c 0,-0.282 0.209,-0.513 0.463,-0.513 h 2.9 c 0.256,0 0.465,0.23 0.465,0.513 v 6.521 c 0,0.281 -0.209,0.513 -0.465,0.513 h -2.9 c -0.254,0 -0.463,-0.231 -0.463,-0.513 v -2.216 h -5.344 c -0.408,0.851 -1.275,1.438 -2.28,1.438 -1.005,0 -1.873,-0.588 -2.28,-1.438 h -4.826 v 2.216 c 0,0.281 -0.209,0.513 -0.465,0.513 h -2.899 c -0.256,0 -0.465,-0.231 -0.465,-0.513 v -6.521 c 0,-0.282 0.209,-0.513 0.465,-0.513 h 2.899 c 0.256,0 0.465,0.23 0.465,0.513 v 2.16"
   id="path15"
   inkscape:connector-curvature="0"
   style="fill-rule:evenodd" />
</svg>