<?xml version="1.0" encoding="UTF-8" standalone="no"?>
<!-- Generator: Adobe Illustrator 15.0.2, SVG Export Plug-In . SVG Version: 6.00 Build 0)  -->

<svg
   xmlns:dc="http://purl.org/dc/elements/1.1/"
   xmlns:cc="http://creativecommons.org/ns#"
   xmlns:rdf="http://www.w3.org/1999/02/22-rdf-syntax-ns#"
   xmlns:svg="http://www.w3.org/2000/svg"
   xmlns="http://www.w3.org/2000/svg"
   xmlns:sodipodi="http://sodipodi.sourceforge.net/DTD/sodipodi-0.dtd"
   xmlns:inkscape="http://www.inkscape.org/namespaces/inkscape"
   version="1.0"
   id="Layer_1"
   x="0px"
   y="0px"
   width="51.211411"
   height="51.211903"
   viewBox="0 0 51.211409 51.211902"
   enable-background="new 0 0 51.011 51.012"
   xml:space="preserve"
   inkscape:version="0.48.4 r9939"
   sodipodi:docname="Ajax.svg"><metadata
   id="metadata15"><rdf:RDF><cc:Work
       rdf:about=""><dc:format>image/svg+xml</dc:format><dc:type
         rdf:resource="http://purl.org/dc/dcmitype/StillImage" /></cc:Work></rdf:RDF></metadata><defs
   id="defs13" /><sodipodi:namedview
   pagecolor="#ffffff"
   bordercolor="#666666"
   borderopacity="1"
   objecttolerance="10"
   gridtolerance="10"
   guidetolerance="10"
   inkscape:pageopacity="0"
   inkscape:pageshadow="2"
   inkscape:window-width="1280"
   inkscape:window-height="1001"
   id="namedview11"
   showgrid="false"
   fit-margin-top="0.1"
   fit-margin-bottom="0.1"
   fit-margin-right="0.1"
   fit-margin-left="0.1"
   inkscape:zoom="13.085329"
   inkscape:cx="19.543986"
   inkscape:cy="24.976993"
   inkscape:window-x="-8"
   inkscape:window-y="-8"
   inkscape:window-maximized="1"
   inkscape:current-layer="Layer_1" />
<path
   clip-rule="evenodd"
   d="m 1.1228846,22.867701 21.8860004,-21.759 c 1.44,-1.43300006 3.891,-1.32600006 5.446,0.237 l 21.426,21.55 c 1.557,1.563 1.648,4.014 0.207,5.448 l -21.885,21.76 c -1.441,1.432 -3.892,1.326 -5.448,-0.238 l -21.4260004,-21.549 c -1.55499992,-1.563 -1.64599992,-4.015 -0.206,-5.449"
   id="path3"
   style="fill:#ffd700;fill-opacity:1;fill-rule:evenodd;stroke:none"
   inkscape:connector-curvature="0" />
<path
   clip-rule="evenodd"
   d="m 2.5348846,23.799701 21.3970004,-21.273 c 0.932,-0.928 2.517,-0.859 3.523,0.153 l 21.088,21.207 c 1.006,1.012 1.064,2.599 0.133,3.525 l -21.397,21.274 c -0.932,0.928 -2.518,0.859 -3.525,-0.152 l -21.0860004,-21.209 c -1.006,-1.012 -1.066,-2.599 -0.133,-3.525"
   id="path5"
   style="fill:#ffd700;fill-opacity:1;fill-rule:evenodd;stroke:none"
   inkscape:connector-curvature="0" />
<path
   stroke-miterlimit="2.613"
   d="m 2.5348846,23.799701 21.3970004,-21.273 c 0.932,-0.928 2.517,-0.859 3.523,0.153 l 21.088,21.207 c 1.006,1.012 1.064,2.599 0.133,3.525 l -21.397,21.274 c -0.932,0.928 -2.518,0.859 -3.525,-0.152 l -21.0860004,-21.209 c -1.006,-1.012 -1.066,-2.599 -0.133,-3.525 z"
   id="path7"
   inkscape:connector-curvature="0"
   style="fill:none;stroke:#000000;stroke-width:1.653;stroke-miterlimit:2.61299992" />
<path
   clip-rule="evenodd"
   d="m 18.605885,19.953701 c 0.004,0.849 0.007,1.696 0.012,2.545 0.484,2.448 1.829,4.222 5.073,4.511 1.093,0.15 2.187,0.217 3.281,0.205 2.885,-0.092 4.678,1.252 4.891,3.676 l -0.018,6.771 h 3.355 l 0.008,-7.08 c -0.391,-4.531 -3.982,-7.159 -10.945,-6.562 -1.003,-0.002 -2.001,-0.668 -2.167,-1.544 l 0.01,-2.514 c 0.735,0.327 1.47,0.654 2.205,0.981 1.04,0.44 1.463,-0.337 0.998,-1.103 -1.536,-2.432 -3.072,-4.862 -4.609,-7.293 -0.271,-0.486 -0.647,-0.479 -0.917,0.033 -1.496,2.428 -2.991,4.854 -4.487,7.281 -0.461,0.678 0.301,1.557 1.098,1.102 0.736,-0.334 1.474,-0.672 2.212,-1.009"
   id="path9"
   inkscape:connector-curvature="0"
   style="fill-rule:evenodd;stroke:none;fill:#000000" />
</svg>