<?xml version="1.0" encoding="UTF-8" standalone="no"?>
<!-- Generator: Adobe Illustrator 15.0.2, SVG Export Plug-In . SVG Version: 6.00 Build 0)  -->

<svg
   xmlns:dc="http://purl.org/dc/elements/1.1/"
   xmlns:cc="http://creativecommons.org/ns#"
   xmlns:rdf="http://www.w3.org/1999/02/22-rdf-syntax-ns#"
   xmlns:svg="http://www.w3.org/2000/svg"
   xmlns="http://www.w3.org/2000/svg"
   xmlns:sodipodi="http://sodipodi.sourceforge.net/DTD/sodipodi-0.dtd"
   xmlns:inkscape="http://www.inkscape.org/namespaces/inkscape"
   version="1.0"
   id="Layer_1"
   x="0px"
   y="0px"
   width="50.490986"
   height="50.493393"
   viewBox="0 0 50.490986 50.493394"
   enable-background="new 0 0 50.292 50.293"
   xml:space="preserve"
   inkscape:version="0.48.4 r9939"
   sodipodi:docname="Ajax.svg"><metadata
   id="metadata17"><rdf:RDF><cc:Work
       rdf:about=""><dc:format>image/svg+xml</dc:format><dc:type
         rdf:resource="http://purl.org/dc/dcmitype/StillImage" /></cc:Work></rdf:RDF></metadata><defs
   id="defs15" /><sodipodi:namedview
   pagecolor="#ffffff"
   bordercolor="#666666"
   borderopacity="1"
   objecttolerance="10"
   gridtolerance="10"
   guidetolerance="10"
   inkscape:pageopacity="0"
   inkscape:pageshadow="2"
   inkscape:window-width="1280"
   inkscape:window-height="1001"
   id="namedview13"
   showgrid="false"
   fit-margin-top="0.1"
   fit-margin-left="0.1"
   fit-margin-right="0.1"
   fit-margin-bottom="0.1"
   inkscape:zoom="9.385004"
   inkscape:cx="26.32706"
   inkscape:cy="23.133893"
   inkscape:window-x="-8"
   inkscape:window-y="-8"
   inkscape:window-maximized="1"
   inkscape:current-layer="Layer_1" />
<path
   clip-rule="evenodd"
   d="M 1.1082435,22.547917 22.686244,1.0939168 c 1.42,-1.41199995 3.836,-1.30699995 5.367,0.2350001 l 21.127,21.2460001 c 1.531,1.541 1.623,3.958 0.202,5.371 l -21.577,21.453 c -1.422,1.412 -3.837,1.308 -5.369,-0.233 l -21.1250005,-21.248 c -1.53199999,-1.541 -1.62299999,-3.958 -0.203,-5.37"
   id="path3"
   style="fill:#ffd700;fill-opacity:1;fill-rule:evenodd;stroke:none"
   inkscape:connector-curvature="0" />
<path
   clip-rule="evenodd"
   d="M 2.5002435,23.464917 23.595244,2.4929169 c 0.919,-0.914 2.483,-0.847 3.475,0.15 l 20.789,20.9090001 c 0.991,0.998 1.051,2.563 0.131,3.476 l -21.094,20.974 c -0.92,0.914 -2.484,0.845 -3.475,-0.152 l -20.7890005,-20.909 c -0.992,-0.997 -1.052,-2.562 -0.132,-3.476"
   id="path5"
   style="fill:#ffd700;fill-opacity:1;fill-rule:evenodd;stroke:none"
   inkscape:connector-curvature="0" />
<path
   stroke-miterlimit="2.613"
   d="M 2.5002435,23.464917 23.595244,2.4929169 c 0.919,-0.914 2.483,-0.847 3.475,0.15 l 20.789,20.9090001 c 0.991,0.998 1.051,2.563 0.131,3.476 l -21.094,20.974 c -0.92,0.914 -2.484,0.845 -3.475,-0.152 l -20.7890005,-20.909 c -0.992,-0.997 -1.052,-2.562 -0.132,-3.476 z"
   id="path7"
   inkscape:connector-curvature="0"
   style="fill:none;stroke:#000000;stroke-width:1.63;stroke-miterlimit:2.61299992" />
<polyline
   clip-rule="evenodd"
   points="9.371,26.447 9.371,21.825 24.811,21.825 24.811,8.481 29.432,8.481   29.432,39.856 24.811,39.856 24.811,26.447 9.371,26.447 "
   id="polyline9"
   style="fill-rule:evenodd"
   transform="translate(0.09924351,0.09991685)" />
<polyline
   clip-rule="evenodd"
   points="9.371,26.447 9.371,21.825 24.811,21.825 24.811,8.481 29.432,8.481   29.432,39.856 24.811,39.856 24.811,26.447 9.371,26.447 "
   id="polyline11"
   style="fill-rule:evenodd"
   transform="translate(0.09924351,0.09991685)" />
</svg>