<?xml version="1.0" encoding="UTF-8" standalone="no"?>
<!-- Created with Inkscape (http://www.inkscape.org/) -->

<svg
   xmlns:dc="http://purl.org/dc/elements/1.1/"
   xmlns:cc="http://creativecommons.org/ns#"
   xmlns:rdf="http://www.w3.org/1999/02/22-rdf-syntax-ns#"
   xmlns:svg="http://www.w3.org/2000/svg"
   xmlns="http://www.w3.org/2000/svg"
   xmlns:sodipodi="http://sodipodi.sourceforge.net/DTD/sodipodi-0.dtd"
   xmlns:inkscape="http://www.inkscape.org/namespaces/inkscape"
   width="525.47699"
   height="525.47699"
   viewBox="0 0 525.47699 525.47699"
   version="1.1"
   id="svg8"
   inkscape:version="0.92.4 5da689c313, 2019-01-14"
   sodipodi:docname="Brasil_R-11.svg">
  <defs
     id="defs2" />
  <sodipodi:namedview
     id="base"
     pagecolor="#ffffff"
     bordercolor="#666666"
     borderopacity="1.0"
     inkscape:pageopacity="0.0"
     inkscape:pageshadow="2"
     inkscape:zoom="1"
     inkscape:cx="-87.351844"
     inkscape:cy="326.63555"
     inkscape:document-units="px"
     inkscape:current-layer="layer1"
     showgrid="false"
     inkscape:window-width="1920"
     inkscape:window-height="1030"
     inkscape:window-x="1920"
     inkscape:window-y="25"
     inkscape:window-maximized="1"
     inkscape:snap-global="false"
     units="px">
    <inkscape:grid
       type="xygrid"
       id="grid46"
       originx="-1.9059693"
       originy="-49.212317" />
  </sodipodi:namedview>
  <metadata
     id="metadata5">
    <rdf:RDF>
      <cc:Work
         rdf:about="">
        <dc:format>image/svg+xml</dc:format>
        <dc:type
           rdf:resource="http://purl.org/dc/dcmitype/StillImage" />
        <dc:title></dc:title>
      </cc:Work>
    </rdf:RDF>
  </metadata>
  <g
     transform="matrix(0.99928536,0,0,0.99928536,0.18775831,0.18771607)"
     id="g580"
     style="display:inline"
     inkscape:label="circulo">
    <path
       id="rect3651"
       inkscape:connector-curvature="0"
       d="M 274.647,0.508 C 129.372,-6.089 7.106,105.556 0.509,250.832 -6.089,396.105 105.555,518.372 250.83,524.969 396.104,531.567 518.371,419.923 524.968,274.648 531.566,129.372 419.922,7.107 274.647,0.508 Z"
       style="display:inline;fill:#c50000" />
    <path
       id="rect4540"
       d="m 272.378,50.458 v 0 C 155.138,45.134 55.78,135.859 50.457,253.099 v 0 c -5.324,117.24 85.401,216.597 202.642,221.921 v 0 c 117.239,5.324 216.596,-85.401 221.921,-202.642 v 0 C 480.344,155.139 389.619,55.782 272.378,50.458 Z"
       inkscape:connector-curvature="0"
       style="display:inline;fill:#ffffff" />
  </g>
  <g
     inkscape:label="simbolo"
     inkscape:groupmode="layer"
     id="layer1"
     style="display:inline"
     transform="translate(-1.9059693,-279.27991)">
    <g
       id="g53"
       inkscape:label="g53"
       transform="matrix(0.73031692,0,0,0.73031692,-463.48812,91.656338)">
      <path
         style="display:inline;fill:#010101"
         d="m 840.7602,746.23769 c -0.33926,-0.88408 0.0903,-4.39142 0.95451,-7.7941 0.86423,-3.40268 1.85581,-9.11169 2.20351,-12.68669 0.3477,-3.575 1.27468,-9.56692 2.05995,-13.31538 2.11627,-10.10189 1.81397,-13.70427 -2.48898,-29.6605 -2.15422,-7.98827 -4.29172,-16.23899 -4.75,-18.33495 -0.45829,-2.09596 -1.27281,-3.80313 -1.81004,-3.79371 -1.1235,0.0197 -4.31919,15.41519 -4.58831,22.10454 -0.0996,2.475 0.14297,8.775 0.53898,14 0.63251,8.34546 0.39585,10.89561 -1.94736,20.9836 -1.46706,6.31597 -3.06754,14.99207 -3.55661,19.28021 -0.48907,4.28814 -1.15893,8.23302 -1.48858,8.7664 -0.76774,1.24223 -10.58247,1.26203 -13.82848,0.0279 l -2.47734,-0.94188 2.41224,-7.59621 c 1.32674,-4.17792 2.41225,-8.51659 2.41225,-9.6415 0,-1.12491 0.91762,-5.63925 2.03915,-10.03186 3.7621,-14.73469 3.98255,-17.11048 2.46189,-26.53207 -1.85852,-11.51485 -2.1151,-19.1919 -1.13014,-33.81459 l 0.80829,-12 -4.98917,-10.10776 c -5.42049,-10.98159 -6.51682,-15.23489 -8.20234,-31.82148 -1.30614,-12.85331 -1.87959,-14.39481 -10.41067,-27.98513 -3.57522,-5.69544 -7.60102,-12.84406 -8.94622,-15.88582 -1.34521,-3.04175 -3.35787,-6.01856 -4.47257,-6.61513 -4.34168,-2.3236 -6.50225,-1.30436 -13.41545,6.32866 l -6.71424,7.41335 -7.63296,0.71526 c -6.07391,0.56918 -8.32727,0.38418 -11.03224,-0.90573 -4.43181,-2.11338 -6.04029,-5.49685 -4.21404,-8.86429 2.60009,-4.7943 18.39421,-26.20801 23.07732,-31.28826 6.52845,-7.0821 8.02167,-11.04594 7.27992,-19.32495 -0.76464,-8.53447 0.20894,-10.20957 4.25811,-7.32631 1.63429,1.16372 3.70615,3.23716 4.60413,4.60766 0.89799,1.37049 5.34487,4.94885 9.88197,7.9519 10.27747,6.80254 21.55555,15.82737 46.07922,36.87301 22.03536,18.91025 30.24851,24.56086 41.28707,28.40535 7.00252,2.43883 9.40886,2.7588 21.54476,2.86487 l 13.66178,0.1194 34.41926,35.42956 34.41926,35.42956 -1.43521,4.30565 c -2.15685,6.47055 -0.94602,11.2411 6.92121,27.2688 l 7.07407,14.41183 -1.16196,14 c -0.63907,7.7 -1.25156,18.725 -1.36108,24.5 l -0.19912,10.5 -7.26446,0.2941 c -8.71829,0.35296 -9.24375,-0.30108 -6.92446,-8.61888 1.73564,-6.22459 3.99349,-32.08308 3.04797,-34.90753 -1.09557,-3.27272 -15.64424,-34.7546 -16.66438,-36.06007 -2.71537,-3.47486 -2.27422,1.74129 1.33465,15.78106 2.18387,8.49602 3.97068,17.39071 3.97068,19.76597 0,2.37526 -1.1852,9.58966 -2.63378,16.032 -1.44858,6.44234 -2.91108,15.08835 -3.25,19.21335 l -0.61622,7.5 -4.99733,0.31489 c -7.14045,0.44994 -11.50278,-0.54001 -11.50217,-2.6102 2.8e-4,-0.93758 0.90028,-4.07202 2,-6.96542 1.09973,-2.8934 1.99486,-6.2684 1.98919,-7.5 -0.006,-1.2316 1.43526,-8.29193 3.20205,-15.68962 l 3.21235,-13.45035 -3.32522,-9.04965 c -1.82888,-4.97731 -4.36705,-12.94359 -5.64038,-17.70285 -5.06744,-18.94027 -7.51588,-25.8468 -9.16297,-25.8468 -0.88189,0 -8.84216,1.66261 -17.68948,3.6947 -19.50353,4.47963 -32.65849,4.86866 -49.06271,1.45092 -8.7648,-1.82611 -10.24134,-1.90518 -12.15554,-0.65095 -3.96119,2.59547 -3.8285,7.48343 0.6788,25.00533 3.99259,15.521 4.09795,16.34495 3.51935,27.52226 -0.32806,6.33724 -1.30719,16.01224 -2.17585,21.5 -0.86866,5.48776 -1.87429,12.67774 -2.23473,15.97774 l -0.65536,6 -7.26446,0.2941 c -5.93087,0.24011 -7.3777,-9.8e-4 -7.88128,-1.31331 z"
         id="path79"
         inkscape:connector-curvature="0" />
      <path
         style="display:inline;fill:#010101"
         d="m 1156.4538,732.3057 -4.3685,-4.45119 6.0634,-6.48178 c 8.2695,-8.84015 10.6662,-15.01527 10.7181,-27.61583 0.036,-8.64735 -0.2467,-10.10344 -3.1458,-16.22333 -6.1012,-12.87915 -17.2177,-21.46247 -30.9095,-23.8658 -11.5566,-2.02854 -24.3602,2.14999 -33.7243,11.00611 l -5.3134,5.02521 -4.8881,-4.96278 -4.8882,-4.96279 3.4004,-3.50831 3.4004,-3.50831 h -6.4775 -6.4775 l -5.9374,-6 -5.9373,-6 h 20.2186 20.2187 v -9.5 -9.5 h -29.3568 -29.3569 l -16.1431,-16.47639 -16.1432,-16.47638 v -21.57588 -21.57587 l 5.25,0.30226 5.25,0.30226 0.3081,4.26142 0.3081,4.26143 39.6823,-0.26143 39.6823,-0.26142 0.5144,-3 c 0.4129,-2.40832 1.0796,-3.06471 3.3804,-3.32808 5.3146,-0.60836 7.6244,0.55715 7.6244,3.84713 v 2.98095 h 43.9425 43.9425 l 0.3075,-4.25 0.3075,-4.25 5.1901,-0.30018 5.19,-0.30018 0.31,4.30018 0.3099,4.30018 6,0.5 6,0.5 0.3111,4.90325 c 0.3731,5.88129 -0.4073,6.56057 -7.5611,6.58144 l -5.25,0.0153 v 37 37 l 5.25,0.0153 c 7.1538,0.0209 7.9342,0.70015 7.5611,6.58144 l -0.3111,4.90326 -32.7503,0.26366 -32.7504,0.26367 4.6405,5.69735 c 15.3479,18.84303 17.2524,44.64489 4.7565,64.43971 -3.2957,5.2207 -11.2813,13.83561 -12.8249,13.83561 -0.6352,0 -3.1208,-2.00304 -5.5235,-4.4512 z"
         id="path77"
         inkscape:connector-curvature="0" />
      <path
         style="display:inline;fill:#010101"
         d="m 1207.4059,631.2569 v -9.5 h -44 -44 v 8.96247 8.96248 l 9.25,0.32998 c 5.0875,0.18149 24.8875,0.42338 44,0.53753 l 34.75,0.20754 z"
         id="path75"
         inkscape:connector-curvature="0" />
      <path
         style="display:inline;fill:#010101"
         d="m 1108.4059,576.2569 v -9.5 h -40 -40 v 9.5 9.5 h 40 40 z"
         id="path73"
         inkscape:connector-curvature="0" />
      <path
         style="display:inline;fill:#010101"
         d="m 1207.4059,576.2569 v -9.5 h -44 -44 v 9.5 9.5 h 44 44 z"
         id="path71"
         inkscape:connector-curvature="0" />
      <path
         style="display:inline;fill:#010101"
         d="m 1123.9435,698.79458 -9.8245,-9.86153 1.8935,-3.22498 c 3.6128,-6.15343 12.9231,-8.7971 19.324,-5.48709 1.5572,0.80525 4.0098,2.86477 5.4503,4.57673 2.1377,2.54044 2.6191,4.13387 2.6191,8.66788 0,6.37075 -2.2322,10.83228 -6.7499,13.49091 l -2.888,1.6996 z"
         id="path55"
         inkscape:connector-curvature="0" />
    </g>
  </g>
  <line
     stroke-miterlimit="10"
     x1="100.39856"
     y1="95.352905"
     x2="425.07843"
     y2="430.12408"
     id="line612"
     style="display:inline;fill:none;stroke:#c50000;stroke-width:54.96069336;stroke-miterlimit:10"
     inkscape:label="tarja" />
</svg>
