<?xml version="1.0" encoding="utf-8"?>
<!-- Generator: Adobe Illustrator 15.0.2, SVG Export Plug-In . SVG Version: 6.00 Build 0)  -->
<!DOCTYPE svg PUBLIC "-//W3C//DTD SVG 1.1//EN" "http://www.w3.org/Graphics/SVG/1.1/DTD/svg11.dtd">
<svg version="1.1"
	 id="svg2" inkscape:version="0.48.2 r9819" sodipodi:docname="AJAX1.svg" xmlns:rdf="http://www.w3.org/1999/02/22-rdf-syntax-ns#" xmlns:cc="http://creativecommons.org/ns#" xmlns:dc="http://purl.org/dc/elements/1.1/" xmlns:sodipodi="http://sodipodi.sourceforge.net/DTD/sodipodi-0.dtd" xmlns:svg="http://www.w3.org/2000/svg" xmlns:inkscape="http://www.inkscape.org/namespaces/inkscape" sodipodi:version="0.32"
	 xmlns="http://www.w3.org/2000/svg" xmlns:xlink="http://www.w3.org/1999/xlink" x="0px" y="0px" width="525.477px"
	 height="525.477px" viewBox="0 0 525.477 525.477" enable-background="new 0 0 525.477 525.477" xml:space="preserve">
<sodipodi:namedview  width="601px" height="601px" inkscape:pageopacity="0.0" inkscape:window-y="-8" fit-margin-right="0" inkscape:current-layer="layer1" fit-margin-bottom="0" inkscape:window-x="-8" inkscape:window-height="1004" inkscape:pageshadow="2" inkscape:window-width="1280" id="base" objecttolerance="10" inkscape:cy="235.04871" showgrid="false" borderopacity="1.0" pagecolor="#ffffff" bordercolor="#666666" inkscape:cx="369.80155" guidetolerance="10" fit-margin-left="0" gridtolerance="10000" inkscape:zoom="0.64333334" fit-margin-top="0" inkscape:window-maximized="1" inkscape:document-units="px">
	</sodipodi:namedview>
<g>
	<path id="rect3651" inkscape:connector-curvature="0" fill="#C50000" d="M274.646,0.508C129.372-6.089,7.106,105.556,0.509,250.832
		c-6.598,145.273,105.046,267.54,250.321,274.137c145.273,6.599,267.541-105.046,274.138-250.32
		C531.566,129.372,419.922,7.107,274.646,0.508z"/>
	<path id="rect4540" fill="#FFFFFF" d="M272.378,50.458L272.378,50.458C155.138,45.134,55.78,135.859,50.457,253.099l0,0
		c-5.324,117.24,85.401,216.597,202.642,221.92l0,0c117.239,5.324,216.596-85.4,221.92-202.642l0,0
		C480.344,155.139,389.619,55.782,272.378,50.458z"/>
</g>
<g>
	<path d="M248.324,118.364c13.115,0,23.758,10.645,23.758,23.771c0,13.115-10.655,23.771-23.758,23.771
		c-13.127,0-23.771-10.656-23.771-23.771C224.542,129.009,235.197,118.364,248.324,118.364"/>
	<path d="M288.254,167.334c-6.02-7.612-12.038-7.612-18.057,0c-18.08,21.698-36.16,43.419-54.216,65.117
		c-12.2,12.846-4.741,26.944,13.795,13.783c9.027-10.772,18.056-21.546,27.084-32.318c2.704-1.91,4.766-1.91,6.194,0
		c5.703,11.874,11.405,23.771,17.119,35.667c-14.578,7.436-29.168,14.882-43.735,22.33c-9.988,5.703-11.241,11.405-8.56,17.108
		c7.611,15.69,15.211,31.395,22.822,47.07c4.813,4.92,10.059,8.244,16.159,8.081c-1.428,3.958-2.857,7.917-4.274,11.874
		c-5.854,18.713,13.479,29.157,22.331,8.571c13.643-35.188,27.26-70.375,40.892-105.527c1.919-5.996,1.286-12.811-1.896-20.445
		C312.025,214.864,300.139,191.093,288.254,167.334z"/>
	<path d="M154.131,274.245c29.497,0,53.408,23.935,53.408,53.418s-23.911,53.42-53.408,53.42c-29.508,0-53.408-23.937-53.408-53.42
		S124.623,274.245,154.131,274.245z"/>
	<path d="M371.333,274.245c29.497,0,53.42,23.935,53.42,53.418s-23.923,53.42-53.42,53.42c-29.495,0-53.406-23.937-53.406-53.42
		S341.849,274.245,371.333,274.245z"/>
	<path fill="#FFFFFF" d="M273.5,323.248c5.081-14.25,10.163-28.536,15.223-42.773c-0.234-1.521-1.254-2.391-3.326-1.43
		c-9.66,3.477-19.319,6.967-28.993,10.445C262.095,300.753,267.809,311.996,273.5,323.248"/>
	<path fill="#FFFFFF" d="M154.131,281.738c25.363,0,45.914,20.563,45.914,45.925c0,25.364-20.551,45.925-45.914,45.925
		c-25.351,0-45.925-20.561-45.925-45.925C108.207,302.3,128.78,281.738,154.131,281.738"/>
	<path fill="#FFFFFF" d="M371.333,281.738c25.364,0,45.926,20.563,45.926,45.925c0,25.364-20.562,45.925-45.926,45.925
		c-25.352,0-45.937-20.561-45.937-45.925C325.397,302.3,345.982,281.738,371.333,281.738"/>
	<path d="M158.324,319.782c14.766-20.865,29.556-41.72,44.333-62.611c5.083-7.763,9.438-4.965,4.836,2.951
		c-1.722,2.847-3.466,5.666-5.188,8.501c9.228-0.352,18.479-0.689,27.705-1.029c-4.028,1.744-7.694,3.584-8.817,6.065
		c-7.049,0.34-14.099,0.69-21.147,1.03c10.246,10.127,20.433,20.231,30.668,30.351l3.185,7.495c1.007,1.99-1.44,2.295-4.04,0.656
		c-11.5-10.869-22.986-21.733-34.474-32.601c-10.339,14.519-20.667,29.017-30.996,43.536c-1.265,0-2.541,0-3.817,0
		c-0.843-0.763-1.733-1.523-2.6-2.261C158.078,321.174,158.195,320.473,158.324,319.782z"/>
	<path d="M335.222,281.34l35.059,45.878l-4.121,7.144l-56.229,0.375c-4.355-0.868-4.263-7.563,0-7.519h45.737l2.237-4.122
		l-28.115-38.666C327.54,281.55,329.789,277.37,335.222,281.34"/>
</g>
<path fill="none" stroke="#C50000" stroke-width="55" stroke-miterlimit="10" d="M422.239,427.739"/>
<path fill="none" stroke="#C50000" stroke-width="55" stroke-miterlimit="10" d="M92.239,97.738"/>
<path d="M157.978,315.965c4.52,0,8.163,3.655,8.163,8.15c0,4.508-3.643,8.174-8.163,8.174c-4.496,0-8.174-3.666-8.174-8.174
	C149.804,319.608,153.482,315.965,157.978,315.965"/>
<path d="M368.232,321.37c4.508,0,8.162,3.655,8.162,8.14c0,4.508-3.654,8.174-8.162,8.174c-4.497,0-8.175-3.666-8.175-8.174
	C360.058,325.025,363.735,321.37,368.232,321.37"/>
<line fill="none" stroke="#C50000" stroke-width="55" stroke-miterlimit="10" x1="103.452" y1="103.76" x2="433.453" y2="433.76"/>
</svg>
