<?xml version="1.0" encoding="utf-8"?>
<!-- Generator: Adobe Illustrator 15.0.2, SVG Export Plug-In . SVG Version: 6.00 Build 0)  -->
<!DOCTYPE svg PUBLIC "-//W3C//DTD SVG 1.1//EN" "http://www.w3.org/Graphics/SVG/1.1/DTD/svg11.dtd">
<svg version="1.1"
	 id="svg2" inkscape:version="0.48.2 r9819" sodipodi:docname="AJAX1.svg" xmlns:rdf="http://www.w3.org/1999/02/22-rdf-syntax-ns#" xmlns:cc="http://creativecommons.org/ns#" xmlns:dc="http://purl.org/dc/elements/1.1/" xmlns:sodipodi="http://sodipodi.sourceforge.net/DTD/sodipodi-0.dtd" xmlns:svg="http://www.w3.org/2000/svg" xmlns:inkscape="http://www.inkscape.org/namespaces/inkscape" sodipodi:version="0.32"
	 xmlns="http://www.w3.org/2000/svg" xmlns:xlink="http://www.w3.org/1999/xlink" x="0px" y="0px" width="525.477px"
	 height="525.477px" viewBox="0 0 525.477 525.477" enable-background="new 0 0 525.477 525.477" xml:space="preserve">
<sodipodi:namedview  width="601px" height="601px" inkscape:pageopacity="0.0" inkscape:window-y="-8" fit-margin-right="0" inkscape:current-layer="layer1" fit-margin-bottom="0" inkscape:window-x="-8" inkscape:window-height="1004" inkscape:pageshadow="2" inkscape:window-width="1280" id="base" objecttolerance="10" inkscape:cy="235.04871" showgrid="false" borderopacity="1.0" pagecolor="#ffffff" bordercolor="#666666" inkscape:cx="369.80155" guidetolerance="10" fit-margin-left="0" gridtolerance="10000" inkscape:zoom="0.64333334" fit-margin-top="0" inkscape:window-maximized="1" inkscape:document-units="px">
	</sodipodi:namedview>
<g>
	<path id="rect3651" inkscape:connector-curvature="0" fill="#C50000" d="M274.647,0.508C129.372-6.089,7.106,105.556,0.509,250.832
		c-6.598,145.273,105.046,267.54,250.321,274.137c145.274,6.598,267.541-105.046,274.138-250.321
		C531.566,129.372,419.922,7.107,274.647,0.508z"/>
	<path id="rect4540" fill="#FFFFFF" d="M272.378,50.458L272.378,50.458c-117.24-5.324-216.598,85.401-221.921,202.641l0,0
		c-5.324,117.24,85.401,216.597,202.642,221.921l0,0c117.239,5.324,216.596-85.401,221.921-202.642l0,0
		C480.344,155.139,389.619,55.782,272.378,50.458z"/>
</g>
<path fill="none" stroke="#C50000" stroke-width="55" stroke-miterlimit="10" d="M422.239,427.739"/>
<path fill="none" stroke="#C50000" stroke-width="55" stroke-miterlimit="10" d="M92.239,97.738"/>
<g>
	<path d="M321.191,121.531c10.042,0,18.179,8.148,18.179,18.201c0,10.041-8.137,18.167-18.179,18.167
		c-10.041,0-18.178-8.126-18.178-18.167C303.001,129.679,311.15,121.531,321.191,121.531"/>
	<path d="M281.028,207.366l40.163-44.991c6.323-6.936,21.102-2.641,21.964,6.754l6.471,59.068
		c-13.056-1.021-26.587,0.725-39.643,6.504l-1.745-28.921l-15.459,16.592C282.07,229.579,272.969,214.903,281.028,207.366"/>
	<path d="M157.917,303.379c22.02,0,39.869,18.02,39.869,40.176c0,22.188-17.838,40.186-39.869,40.186
		c-21.997,0-39.858-17.997-39.858-40.186C118.06,321.399,135.909,303.379,157.917,303.379z"/>
	<path d="M341.193,237.965c40.867,0,74.004,33.138,74.004,73.992c0,40.855-33.126,74.005-74.004,74.005
		c-40.843,0-73.98-33.149-73.98-74.005C267.212,271.103,300.361,237.965,341.193,237.965z"/>
	<path d="M132.566,297.429c-11.219-20.614-21.272-39.768-32.48-60.382c-3.706-14.914,5.938-27.018,17.6-27.618
		c50.466-0.022,100.909-0.045,151.362-0.068c1.746,0.045,3.095,0.929,3.876,2.652c5.418,11.163,10.801,22.326,16.206,33.478
		c0.228,0.352,0.262,0.759-0.125,1.416c-22.631,18.281-31.833,49.129-30.259,73.358c0.126,0.748-0.021,1.293-0.736,1.293
		c-18.064,0-36.141,0-54.216,0c-0.793,0.021-1.417-0.817-1.983-1.791c-9.078-21.034-41.297-34.374-66.457-21.137
		C134.175,299.379,133.246,298.97,132.566,297.429"/>
	<path fill="#FFFFFF" d="M157.838,329.173c7.944,0,14.37,6.482,14.37,14.483c0,7.978-6.437,14.448-14.37,14.448
		c-7.922,0-14.348-6.482-14.348-14.448C143.491,335.656,149.905,329.173,157.838,329.173"/>
	<path fill="#FFFFFF" d="M341.193,267.272c24.684,0,44.71,20.015,44.71,44.686c0,24.685-20.026,44.687-44.71,44.687
		c-24.66,0-44.673-20.002-44.673-44.687C296.531,287.287,316.533,267.272,341.193,267.272"/>
	<path d="M341.193,274.333c20.785,0,37.649,16.84,37.649,37.624c0,20.785-16.864,37.637-37.649,37.637
		c-20.761,0-37.612-16.852-37.612-37.637C303.581,291.173,320.432,274.333,341.193,274.333"/>
</g>
<line fill="none" stroke="#C50000" stroke-width="55" stroke-miterlimit="10" x1="92.239" y1="97.739" x2="422.239" y2="427.739"/>
</svg>
