<?xml version="1.0" encoding="utf-8"?>
<!-- Generator: Adobe Illustrator 15.0.2, SVG Export Plug-In . SVG Version: 6.00 Build 0)  -->
<!DOCTYPE svg PUBLIC "-//W3C//DTD SVG 1.1//EN" "http://www.w3.org/Graphics/SVG/1.1/DTD/svg11.dtd">
<svg version="1.1"
	 id="svg2" inkscape:version="0.48.2 r9819" sodipodi:docname="AJAX1.svg" xmlns:rdf="http://www.w3.org/1999/02/22-rdf-syntax-ns#" xmlns:cc="http://creativecommons.org/ns#" xmlns:dc="http://purl.org/dc/elements/1.1/" xmlns:sodipodi="http://sodipodi.sourceforge.net/DTD/sodipodi-0.dtd" xmlns:svg="http://www.w3.org/2000/svg" xmlns:inkscape="http://www.inkscape.org/namespaces/inkscape" sodipodi:version="0.32"
	 xmlns="http://www.w3.org/2000/svg" xmlns:xlink="http://www.w3.org/1999/xlink" x="0px" y="0px" width="525.477px"
	 height="525.477px" viewBox="0 0 525.477 525.477" enable-background="new 0 0 525.477 525.477" xml:space="preserve">
<sodipodi:namedview  width="601px" height="601px" inkscape:pageopacity="0.0" inkscape:window-y="-8" fit-margin-right="0" inkscape:current-layer="layer1" fit-margin-bottom="0" inkscape:window-x="-8" inkscape:window-height="1004" inkscape:pageshadow="2" inkscape:window-width="1280" id="base" objecttolerance="10" inkscape:cy="235.04871" showgrid="false" borderopacity="1.0" pagecolor="#ffffff" bordercolor="#666666" inkscape:cx="369.80155" guidetolerance="10" fit-margin-left="0" gridtolerance="10000" inkscape:zoom="0.64333334" fit-margin-top="0" inkscape:window-maximized="1" inkscape:document-units="px">
	</sodipodi:namedview>
<g>
	<path id="rect3651" inkscape:connector-curvature="0" fill="#C50000" d="M274.647,0.508C129.372-6.089,7.106,105.556,0.509,250.832
		c-6.598,145.273,105.046,267.54,250.321,274.137c145.274,6.598,267.541-105.046,274.138-250.321
		C531.566,129.372,419.922,7.107,274.647,0.508z"/>
	<path id="rect4540" fill="#FFFFFF" d="M272.378,50.458L272.378,50.458c-117.24-5.324-216.598,85.401-221.921,202.641l0,0
		c-5.324,117.24,85.401,216.597,202.642,221.921l0,0c117.239,5.324,216.596-85.401,221.921-202.642l0,0
		C480.344,155.139,389.619,55.782,272.378,50.458z"/>
</g>
<path fill="none" stroke="#C50000" stroke-width="55" stroke-miterlimit="10" d="M422.239,427.739"/>
<path fill="none" stroke="#C50000" stroke-width="55" stroke-miterlimit="10" d="M92.239,97.738"/>
<path d="M120.844,183.715c7.879-4.337,13.088-9.496,16.348-16.887c0.231-0.282,0.513-0.475,0.873-0.449h25.832
	c0.59,0,1.078,0.539,0.988,1.181v142.116c0.025,0.616-0.347,1.129-1.078,1.129l-28.641,0.027c-0.514,0-1.001-0.462-1.001-1.053
	v-94.24h-12.921c-0.655-0.051-1.014-0.385-1.04-1.027v-29.874C120.267,184.151,120.485,183.869,120.844,183.715"/>
<path d="M187.314,215.923c3.901-62.209,108.998-70.961,116.401-0.115l-0.025,49.161c-5.864,68.434-113.295,64.712-116.375,0.09
	V215.923z"/>
<path d="M353.775,212.716c0-11.396,0-22.778,0-34.172c0-0.424,0.244-0.784,0.538-0.911l25.267-11.793
	c0.743-0.36,1.667,0.141,1.604,1.064c0,15.194,0,30.413,0,45.645c4.452,0,9.381,0,13.794,0c1.052-0.025,1.079,0.333,1.052,1.219
	l0.078,24.638c-0.051,0.667-0.617,0.564-1.13,0.564h-14.514l-0.051,39.28c2.054,7.135,15.052,5.94,21.199-1.04
	c1.924-1.849,3.67,0.051,3.156,2.489c-1.873,8.828-3.746,17.696-5.646,26.537c-0.076,0.282-0.243,0.564-0.592,0.719
	c-15.886,10.535-39.562,4.439-43.385-20.326c0-15.732,0-31.452,0.025-47.197h-12.189c-0.809,0-1.053-0.411-1.053-1.052
	c0-8.213,0-16.425,0-24.638c0.026-0.808,0.462-1.026,1.026-1.001C346.587,212.716,350.194,212.716,353.775,212.716"/>
<path d="M267.028,420.417l136.613-84.167c2.951-1.86,1.642-6.377-1.822-6.325c-45.839,0-91.661-0.026-137.484-0.026
	c-45.837,0.026-91.675,0.077-137.511,0.103c-3.938-0.153-5.017,4.209-1.334,6.236l138.408,84.205
	C265.322,421.188,265.668,421.149,267.028,420.417"/>
<path fill="#FFFFFF" d="M217.47,226.267c-0.886-37.88,54.986-42.859,56.411-0.026l-0.027,34.93
	c-3.221,34.557-53.329,32.401-56.05,0.127L217.47,226.267"/>
</svg>
