<?xml version="1.0" encoding="utf-8"?>
<!-- Generator: Adobe Illustrator 15.0.2, SVG Export Plug-In . SVG Version: 6.00 Build 0)  -->
<!DOCTYPE svg PUBLIC "-//W3C//DTD SVG 1.1//EN" "http://www.w3.org/Graphics/SVG/1.1/DTD/svg11.dtd">
<svg version="1.1"
	 id="svg2" inkscape:version="0.48.2 r9819" sodipodi:docname="AJAX1.svg" xmlns:rdf="http://www.w3.org/1999/02/22-rdf-syntax-ns#" xmlns:cc="http://creativecommons.org/ns#" xmlns:dc="http://purl.org/dc/elements/1.1/" xmlns:sodipodi="http://sodipodi.sourceforge.net/DTD/sodipodi-0.dtd" xmlns:svg="http://www.w3.org/2000/svg" xmlns:inkscape="http://www.inkscape.org/namespaces/inkscape" sodipodi:version="0.32"
	 xmlns="http://www.w3.org/2000/svg" xmlns:xlink="http://www.w3.org/1999/xlink" x="0px" y="0px" width="525.477px"
	 height="525.477px" viewBox="0 0 525.477 525.477" enable-background="new 0 0 525.477 525.477" xml:space="preserve">
<sodipodi:namedview  width="601px" height="601px" inkscape:pageopacity="0.0" inkscape:window-y="-8" fit-margin-right="0" inkscape:current-layer="layer1" fit-margin-bottom="0" inkscape:window-x="-8" inkscape:window-height="1004" inkscape:pageshadow="2" inkscape:window-width="1280" id="base" objecttolerance="10" inkscape:cy="235.04871" showgrid="false" borderopacity="1.0" pagecolor="#ffffff" bordercolor="#666666" inkscape:cx="369.80155" guidetolerance="10" fit-margin-left="0" gridtolerance="10000" inkscape:zoom="0.64333334" fit-margin-top="0" inkscape:window-maximized="1" inkscape:document-units="px">
	</sodipodi:namedview>
<g>
	<path id="rect3651" inkscape:connector-curvature="0" fill="#C50000" d="M274.647,0.508C129.372-6.089,7.106,105.556,0.509,250.832
		c-6.598,145.273,105.046,267.54,250.321,274.137c145.274,6.598,267.541-105.046,274.138-250.321
		C531.566,129.372,419.922,7.107,274.647,0.508z"/>
	<path id="rect4540" fill="#FFFFFF" d="M272.378,50.458L272.378,50.458c-117.24-5.324-216.598,85.401-221.921,202.641l0,0
		c-5.324,117.24,85.401,216.597,202.642,221.921l0,0c117.239,5.324,216.596-85.401,221.921-202.642l0,0
		C480.344,155.139,389.619,55.782,272.378,50.458z"/>
</g>
<path fill="none" stroke="#C50000" stroke-width="55" stroke-miterlimit="10" d="M422.239,427.739"/>
<path fill="none" stroke="#C50000" stroke-width="55" stroke-miterlimit="10" d="M92.239,97.738"/>
<path d="M228.293,354.221c-5.7,0-11.411,0-17.11,0c-0.492,0.024-1.008,0.288-1.08,1.08c0,26.35,0,52.698-0.012,79.059
	c0.024,0.637,0.396,1.164,1.152,1.213c5.748,0,11.507,0,17.278,0c0.72,0,1.164-0.553,1.188-1.188c0-17.171,0-34.377,0-51.535
	c7.703-7.535,19.522-6.646,25.137,0.049c0.012,17.146,0.036,34.291,0.048,51.438c-0.012,0.648,0.492,1.188,1.08,1.211
	c6.443,0,12.862,0,19.318,0c0.504-0.023,1.021-0.432,1.067-1.055l-0.012-51.594c7.787-7.943,18.059-7.031,23.865,0.023
	c0,17.109,0.024,34.221,0.024,51.354c-0.024,0.576,0.216,1.213,1.151,1.297c6.384,0,12.768,0,19.15,0
	c0.527-0.025,1.164-0.432,1.164-1.164c0-20.014-0.025-40.016-0.025-60.029c-2.674-20.109-36.307-29.085-54.713-13.535
	c-0.54,0.48-1.044,0.625-1.476,0.349c-9.203-8.675-20.758-11.903-33.561-0.853c-1.116,0.528-2.136,0.769-2.483-0.887
	c0-1.356,0-2.713,0-4.08C229.469,354.797,228.953,354.246,228.293,354.221"/>
<path d="M69.824,316.186c18.49-18.922,36.98-37.855,55.47-56.778c0.384-0.384,0.384-0.888-0.012-1.271
	c-18.73-17.11-37.484-34.196-56.226-51.282c-0.576-0.648-1.392-0.192-1.44,0.456c0.276,36.104,0.564,72.208,0.84,108.311
	C68.541,316.377,69.44,316.606,69.824,316.186"/>
<path d="M455.653,315.717c-18.479-18.922-36.992-37.843-55.471-56.765c-0.371-0.36-0.371-0.888,0-1.272
	c18.742-17.122,37.496-34.196,56.215-51.282c0.588-0.66,1.416-0.204,1.463,0.456c-0.275,36.104-0.563,72.232-0.852,108.312
	C456.913,315.969,456.049,316.163,455.653,315.717"/>
<path d="M156.004,194.366c5.399,5.063,10.787,10.127,16.186,15.178c0.42,0.336,0.996,0.216,1.308-0.096
	c5.028-6.719,12.011-10.595,21.897-10.319c10.343,0.528,17.53,9.863,10.871,18.25c-4.379,0-8.771,0.108-13.139,0.108
	c-0.624,0.072-1.02,0.324-1.056,1.044c-0.012,7.259-0.012,14.482-0.012,21.729c0,0.66,0.3,1.067,0.972,1.093l14.014,0.047
	c16.678,12.131,4.715,34.592-22.281,28.245c-5.292-2.184-9.995-6.167-14.11-11.938c-0.528-0.721-1.104-0.84-1.704-0.336
	c-5.795,4.367-11.603,8.711-17.41,13.078c-0.504,0.432-0.66,0.96-0.096,1.632c8.891,10.763,19.678,19.174,35.648,21.142
	c40.255,5.855,68.632-32.996,40.267-63.329c-0.54-0.612-0.54-1.26,0-1.992c9.071-13.75,6.972-31.245-4.175-40.363
	c-23.553-18.334-54.966-9.767-67.313,5.423C155.548,193.37,155.62,193.994,156.004,194.366"/>
<path d="M286.261,215.519c2.976-48.066,82.514-54.857,88.129-0.084l-0.023,38.023c-4.428,52.891-85.754,49.998-88.105,0.049V215.519
	z"/>
<path d="M257.896,315.179c-1.392,3.469-5.183,2.652-4.763-1.199l0.144-31.521c4.871-12.851,22.438-6.443,20.098,5.495
	L257.896,315.179"/>
<path fill="#FFFFFF" d="M309.094,223.534c-0.672-29.289,41.624-33.14,42.704-0.012v26.985c-2.461,26.721-40.377,25.053-42.416,0.107
	L309.094,223.534"/>
</svg>
