<?xml version="1.0" encoding="utf-8"?>
<!-- Generator: Adobe Illustrator 15.0.2, SVG Export Plug-In . SVG Version: 6.00 Build 0)  -->
<!DOCTYPE svg PUBLIC "-//W3C//DTD SVG 1.1//EN" "http://www.w3.org/Graphics/SVG/1.1/DTD/svg11.dtd">
<svg version="1.1"
	 id="svg2" inkscape:version="0.48.2 r9819" sodipodi:docname="AJAX1.svg" xmlns:rdf="http://www.w3.org/1999/02/22-rdf-syntax-ns#" xmlns:cc="http://creativecommons.org/ns#" xmlns:dc="http://purl.org/dc/elements/1.1/" xmlns:sodipodi="http://sodipodi.sourceforge.net/DTD/sodipodi-0.dtd" xmlns:svg="http://www.w3.org/2000/svg" xmlns:inkscape="http://www.inkscape.org/namespaces/inkscape" sodipodi:version="0.32"
	 xmlns="http://www.w3.org/2000/svg" xmlns:xlink="http://www.w3.org/1999/xlink" x="0px" y="0px" width="525.477px"
	 height="525.477px" viewBox="0 0 525.477 525.477" enable-background="new 0 0 525.477 525.477" xml:space="preserve">
<sodipodi:namedview  width="601px" height="601px" inkscape:pageopacity="0.0" inkscape:window-y="-8" fit-margin-right="0" inkscape:current-layer="layer1" fit-margin-bottom="0" inkscape:window-x="-8" inkscape:window-height="1004" inkscape:pageshadow="2" inkscape:window-width="1280" id="base" objecttolerance="10" inkscape:cy="235.04871" showgrid="false" borderopacity="1.0" pagecolor="#ffffff" bordercolor="#666666" inkscape:cx="369.80155" guidetolerance="10" fit-margin-left="0" gridtolerance="10000" inkscape:zoom="0.64333334" fit-margin-top="0" inkscape:window-maximized="1" inkscape:document-units="px">
	</sodipodi:namedview>
<g>
	<path id="rect3651" inkscape:connector-curvature="0" fill="#C50000" d="M274.647,0.508C129.372-6.089,7.106,105.556,0.509,250.832
		c-6.598,145.273,105.046,267.54,250.321,274.137c145.274,6.598,267.541-105.046,274.138-250.321
		C531.566,129.372,419.922,7.107,274.647,0.508z"/>
	<path id="rect4540" fill="#FFFFFF" d="M272.378,50.458L272.378,50.458c-117.24-5.324-216.598,85.401-221.921,202.641l0,0
		c-5.324,117.24,85.401,216.597,202.642,221.921l0,0c117.239,5.324,216.596-85.401,221.921-202.642l0,0
		C480.344,155.139,389.619,55.782,272.378,50.458z"/>
</g>
<path fill="none" stroke="#C50000" stroke-width="55" stroke-miterlimit="10" d="M422.239,427.739"/>
<path fill="none" stroke="#C50000" stroke-width="55" stroke-miterlimit="10" d="M92.239,97.738"/>
<path d="M147.818,189.412c9.496-9.084,19.004-18.168,28.5-27.276c0.495-0.388,1.048-0.624,1.73-0.553
	c13.402-0.023,26.817-0.047,40.231-0.07c2,0.176,3.413,1.165,3.437,3.459l-0.012,70.498c0.012,1.482-0.812,2.553-2.554,2.577
	c-12.967,0-25.935,0-38.914,0c-0.211,0-0.412-0.059-0.611-0.259c-13.167-15.992-38.667-18.356-53.835,0.012
	c-0.153,0.153-0.318,0.235-0.506,0.248c-5.683,0-11.343,0-16.992,0c-1.989-0.036-2.577-1.036-2.53-2.483c0-14.521,0-29.018,0-43.539
	c-0.047-2.271,1.2-2.588,2.577-2.624C121.495,189.4,134.663,189.412,147.818,189.412z"/>
<path d="M228.283,123.375h170.495c0.271,0,0.506,0.223,0.506,0.506v113.271c0,0.271-0.235,0.494-0.506,0.494H228.283
	c-0.271,0-0.506-0.224-0.506-0.494V123.881C227.777,123.586,228.012,123.375,228.283,123.375"/>
<path d="M300.051,238.87c12.932,0,23.393,10.484,23.393,23.405c0,12.908-10.461,23.381-23.393,23.381
	c-12.909,0-23.394-10.473-23.394-23.381C276.658,249.354,287.142,238.87,300.051,238.87"/>
<path d="M354.286,238.87c12.896,0,23.382,10.484,23.382,23.405c0,12.908-10.485,23.381-23.382,23.381
	c-12.921,0-23.404-10.473-23.404-23.381C330.881,249.354,341.365,238.87,354.286,238.87"/>
<path d="M152.914,238.87c12.909,0,23.393,10.484,23.393,23.405c0,12.908-10.484,23.381-23.393,23.381
	c-12.908,0-23.393-10.473-23.393-23.381C129.521,249.354,140.005,238.87,152.914,238.87"/>
<path d="M171.212,329.607c3.742-2.048,6.189-4.472,7.731-7.979c0.118-0.118,0.235-0.223,0.412-0.223h12.179
	c0.271,0.022,0.518,0.258,0.471,0.575v67.026c0.012,0.282-0.177,0.541-0.518,0.541H177.99c-0.259,0-0.482-0.211-0.482-0.494
	l0.011-44.433h-6.106c-0.294-0.023-0.459-0.2-0.483-0.494v-14.097C170.953,329.806,171.059,329.666,171.212,329.607"/>
<path d="M285.93,337.808c-3.824,0-7.673,0-11.496,0c-0.33,0-0.684,0.188-0.742,0.683c0,17.333,0,34.643,0,51.976
	c0.012,0.424,0.271,0.753,0.754,0.765c3.883,0,7.742,0,11.626,0c0.482,0,0.776-0.341,0.776-0.765
	c0.023-11.284,0.023-22.57,0.023-33.878c5.165-4.931,13.108-4.342,16.874,0.06c0.012,11.248,0.012,22.511,0.035,33.795
	c-0.023,0.424,0.33,0.765,0.742,0.788c4.318,0,8.636,0,12.967,0c0.329-0.023,0.694-0.294,0.729-0.706l-0.023-33.9
	c5.248-5.213,12.132-4.625,16.039,0.023c0.012,11.226,0.012,22.487,0.023,33.748c-0.023,0.377,0.141,0.788,0.765,0.835
	c4.271,0,8.59,0,12.861,0c0.354,0,0.776-0.271,0.776-0.753c0-13.156-0.012-26.288-0.012-39.443
	c-1.8-13.203-24.405-19.109-36.771-8.885c-0.366,0.318-0.719,0.424-1.001,0.236c-6.189-5.696-13.932-7.802-22.546-0.565
	c-0.753,0.329-1.424,0.518-1.671-0.588c0-0.871,0-1.789,0-2.683C286.718,338.173,286.366,337.808,285.93,337.808"/>
<path d="M205.701,344.774c1.965-31.559,54.953-36.007,58.682-0.047l-0.022,24.947c-2.954,34.736-57.106,32.854-58.66,0.047V344.774z
	"/>
<path d="M144.629,393.419c-12.108-12.226-23.899-21.934-36.019-34.148c-0.835-0.823-0.777-1.705,0-2.588
	c12.026-11.813,24.04-23.629,36.066-35.419c1.071-1.154,3.424-0.589,3.307,1.235c0,23.252,0,46.516,0,69.779
	C147.842,394.173,146.218,394.867,144.629,393.419"/>
<path d="M372.76,393.419c12.108-12.226,23.899-21.934,36.02-34.148c0.835-0.823,0.776-1.705,0-2.588
	c-12.015-11.813-24.041-23.629-36.066-35.419c-1.071-1.154-3.425-0.589-3.307,1.235c0,23.252,0,46.516,0,69.779
	C369.548,394.173,371.171,394.867,372.76,393.419"/>
<path fill="#FFFFFF" d="M180.578,172.091c0.259-0.354,0.542-0.471,0.824-0.495c10.014,0,20.016,0,30.03,0
	c0.835,0,1.482,0.271,1.447,1.412v18.004h-42.303c-1.023-0.059-0.988-0.777-0.717-1.412
	C173.448,183.775,177.013,177.927,180.578,172.091"/>
<path fill="#FFFFFF" d="M220.893,350.046c-0.447-19.228,27.735-21.77,28.453-0.023l-0.012,17.732
	c-1.647,17.557-26.889,16.439-28.265,0.071L220.893,350.046"/>
</svg>
