<?xml version="1.0" encoding="utf-8"?>
<!-- Generator: Adobe Illustrator 15.0.2, SVG Export Plug-In . SVG Version: 6.00 Build 0)  -->
<!DOCTYPE svg PUBLIC "-//W3C//DTD SVG 1.1//EN" "http://www.w3.org/Graphics/SVG/1.1/DTD/svg11.dtd">
<svg version="1.1"
	 id="svg2" inkscape:version="0.48.2 r9819" sodipodi:docname="AJAX1.svg" xmlns:rdf="http://www.w3.org/1999/02/22-rdf-syntax-ns#" xmlns:cc="http://creativecommons.org/ns#" xmlns:dc="http://purl.org/dc/elements/1.1/" xmlns:sodipodi="http://sodipodi.sourceforge.net/DTD/sodipodi-0.dtd" xmlns:svg="http://www.w3.org/2000/svg" xmlns:inkscape="http://www.inkscape.org/namespaces/inkscape" sodipodi:version="0.32"
	 xmlns="http://www.w3.org/2000/svg" xmlns:xlink="http://www.w3.org/1999/xlink" x="0px" y="0px" width="525.477px"
	 height="525.477px" viewBox="0 0 525.477 525.477" enable-background="new 0 0 525.477 525.477" xml:space="preserve">
<sodipodi:namedview  width="601px" height="601px" inkscape:pageopacity="0.0" inkscape:window-y="-8" fit-margin-right="0" inkscape:current-layer="layer1" fit-margin-bottom="0" inkscape:window-x="-8" inkscape:window-height="1004" inkscape:pageshadow="2" inkscape:window-width="1280" id="base" objecttolerance="10" inkscape:cy="235.04871" showgrid="false" borderopacity="1.0" pagecolor="#ffffff" bordercolor="#666666" inkscape:cx="369.80155" guidetolerance="10" fit-margin-left="0" gridtolerance="10000" inkscape:zoom="0.64333334" fit-margin-top="0" inkscape:window-maximized="1" inkscape:document-units="px">
	</sodipodi:namedview>
<g>
	<path id="rect3651" inkscape:connector-curvature="0" fill="#C50000" d="M274.647,0.508C129.372-6.089,7.106,105.556,0.509,250.832
		c-6.598,145.273,105.046,267.54,250.321,274.137c145.274,6.598,267.541-105.046,274.138-250.321
		C531.566,129.372,419.922,7.107,274.647,0.508z"/>
	<path id="rect4540" fill="#FFFFFF" d="M272.378,50.458L272.378,50.458c-117.24-5.324-216.598,85.401-221.921,202.641l0,0
		c-5.324,117.24,85.401,216.597,202.642,221.921l0,0c117.239,5.324,216.596-85.401,221.921-202.642l0,0
		C480.344,155.139,389.619,55.782,272.378,50.458z"/>
</g>
<path fill="none" stroke="#C50000" stroke-width="55" stroke-miterlimit="10" d="M422.239,427.739"/>
<path fill="none" stroke="#C50000" stroke-width="55" stroke-miterlimit="10" d="M92.239,97.738"/>
<g>
	<path d="M223.688,312.4c-11.55,9.625-31.075,16.225-52.249,16.225c-25.85,0-49.224-8.524-61.324-23.374
		c-9.075-11-14.3-24.475-14.3-38.225c0-17.325,6.325-31.624,19.25-43.174c-8.25-8.525-13.475-21.45-13.475-33.549
		c0-32.449,29.149-52.524,69.849-52.524c41.249,0,67.923,20.075,67.923,52.524c0,13.475-3.85,23.1-12.925,33.549
		c12.925,11.55,18.7,25.849,18.7,43.174C245.137,284.076,237.437,301.401,223.688,312.4z M171.438,242.552
		c-23.924,0-38.774,8.524-38.774,24.474c0,15.675,14.85,24.75,38.774,24.75c24.475,0,37.399-9.075,37.399-24.75
		C208.837,251.076,195.363,242.552,171.438,242.552z M171.438,174.628c-19.524,0-33,5.775-33,14.85c0,9.9,13.475,15.675,33,15.675
		c19.25,0,31.625-5.775,31.625-15.675C203.063,180.403,190.688,174.628,171.438,174.628z"/>
	<path d="M352.11,328.625c-55.549,0-77.549-47.299-77.549-95.698c0-58.299,29.7-95.148,77.549-95.148
		c44.549,0,76.998,38.224,76.998,95.148C429.108,291.776,398.583,328.625,352.11,328.625z M352.11,174.628
		c-26.399,0-40.699,19.525-40.699,58.299c0,37.399,14.85,58.849,40.699,58.849c25.3,0,40.699-23.375,40.699-59.674
		C392.809,192.228,377.959,174.628,352.11,174.628z"/>
</g>
<g>
	<path d="M192.539,379.398l10.2,25.424h-10.2l-6.675-16.949l-5.85,5.85v11.1h-10.049v-47.248l10.049-3.899v24.898l10.575-10.274
		h12.524L192.539,379.398z"/>
	<path d="M262.062,404.822v-22.049c0-3.375-3-6-6.525-6c-3.3,0-6.299,2.85-6.299,5.625v22.424h-9.525v-22.049
		c0-3.375-2.85-6-6.375-6s-6.525,2.625-6.525,5.85v22.199h-10.049v-36.674h10.049v1.95c3.525-2.1,6-2.85,9.525-2.85
		c3.899,0,7.049,1.425,9.674,4.274c4.8-3.375,7.05-4.274,11.324-4.274c7.725,0,14.625,5.324,14.625,12.374v25.199H262.062z"/>
	<path d="M315.238,348.125l-23.474,63.147h-12.675l23.474-63.147H315.238z"/>
	<path d="M345.613,404.822v-22.049c0-3.375-2.475-6-5.775-6c-3.524,0-7.424,2.625-7.424,5.625v22.424h-10.05v-47.248l10.05-3.899
		v16.424c4.199-2.325,6.674-3,10.049-3c7.2,0,13.05,5.475,13.05,12.3v25.424H345.613z"/>
</g>
</svg>
