<?xml version="1.0" encoding="utf-8"?>
<!-- Generator: Adobe Illustrator 15.0.2, SVG Export Plug-In . SVG Version: 6.00 Build 0)  -->
<!DOCTYPE svg PUBLIC "-//W3C//DTD SVG 1.1//EN" "http://www.w3.org/Graphics/SVG/1.1/DTD/svg11.dtd">
<svg version="1.1"
	 id="svg2" inkscape:version="0.48.2 r9819" sodipodi:docname="AJAX1.svg" xmlns:rdf="http://www.w3.org/1999/02/22-rdf-syntax-ns#" xmlns:cc="http://creativecommons.org/ns#" xmlns:dc="http://purl.org/dc/elements/1.1/" xmlns:sodipodi="http://sodipodi.sourceforge.net/DTD/sodipodi-0.dtd" xmlns:svg="http://www.w3.org/2000/svg" xmlns:inkscape="http://www.inkscape.org/namespaces/inkscape"
	 xmlns="http://www.w3.org/2000/svg" xmlns:xlink="http://www.w3.org/1999/xlink" x="0px" y="0px" width="89.652px"
	 height="79.088px" viewBox="0 0 89.652 79.088" enable-background="new 0 0 89.652 79.088" xml:space="preserve">
<sodipodi:namedview  inkscape:pageopacity="0" inkscape:window-y="-8" fit-margin-right="0.05" inkscape:current-layer="svg2" fit-margin-bottom="0.05" inkscape:window-x="-8" inkscape:window-height="1004" inkscape:pageshadow="2" inkscape:window-width="1280" id="namedview19" objecttolerance="10" inkscape:cy="53.237813" showgrid="false" borderopacity="1" pagecolor="#ffffff" bordercolor="#666666" inkscape:cx="68.785453" guidetolerance="10" fit-margin-left="0.05" gridtolerance="10" inkscape:zoom="5.8702816" fit-margin-top="0.05" inkscape:window-maximized="1">
	</sodipodi:namedview>
<path id="path3067" inkscape:connector-curvature="0" sodipodi:nodetypes="cccccccccccccccccccccccccccccccccccccccc" fill="#EF2C30" d="
	M88.941,7.856l0.353-0.838l0.265-0.882l0.044-0.883l-0.044-0.881L89.294,3.49l-0.353-0.838l-0.53-0.75L87.75,1.285l-0.706-0.528
	l-0.838-0.354l-0.882-0.264L84.441,0.05H5.255L4.329,0.138L3.491,0.402L2.652,0.757l-0.75,0.528L1.285,1.902l-0.529,0.75L0.359,3.49
	L0.138,4.373L0.05,5.254l0.088,0.883l0.221,0.882l0.397,0.838l39.615,68.579l0.485,0.75l0.661,0.617l0.75,0.528l0.793,0.353
	l0.883,0.266l0.882,0.089l0.926-0.089l0.883-0.266l0.794-0.353l0.75-0.528l0.618-0.617l0.529-0.75L88.941,7.856z"/>
<path id="path3361" inkscape:connector-curvature="0" sodipodi:nodetypes="cccc" fill="#FFFFFF" d="M13.107,9.797l31.719,54.951
	L76.589,9.797H13.107"/>
</svg>
