<?xml version="1.0" encoding="utf-8"?>
<!-- Generator: Adobe Illustrator 15.0.2, SVG Export Plug-In . SVG Version: 6.00 Build 0)  -->
<!DOCTYPE svg PUBLIC "-//W3C//DTD SVG 1.1//EN" "http://www.w3.org/Graphics/SVG/1.1/DTD/svg11.dtd">
<svg version="1.1"
	 id="svg2" inkscape:version="0.48.2 r9819" sodipodi:docname="AJAX1.svg" xmlns:rdf="http://www.w3.org/1999/02/22-rdf-syntax-ns#" xmlns:cc="http://creativecommons.org/ns#" xmlns:dc="http://purl.org/dc/elements/1.1/" xmlns:sodipodi="http://sodipodi.sourceforge.net/DTD/sodipodi-0.dtd" xmlns:svg="http://www.w3.org/2000/svg" xmlns:inkscape="http://www.inkscape.org/namespaces/inkscape" sodipodi:version="0.32"
	 xmlns="http://www.w3.org/2000/svg" xmlns:xlink="http://www.w3.org/1999/xlink" x="0px" y="0px" width="525.477px"
	 height="525.477px" viewBox="0 0 525.477 525.477" enable-background="new 0 0 525.477 525.477" xml:space="preserve">
<sodipodi:namedview  width="601px" height="601px" inkscape:pageopacity="0.0" inkscape:window-y="-8" fit-margin-right="0" inkscape:current-layer="layer1" fit-margin-bottom="0" inkscape:window-x="-8" inkscape:window-height="1004" inkscape:pageshadow="2" inkscape:window-width="1280" id="base" objecttolerance="10" inkscape:cy="235.04871" showgrid="false" borderopacity="1.0" pagecolor="#ffffff" bordercolor="#666666" inkscape:cx="369.80155" guidetolerance="10" fit-margin-left="0" gridtolerance="10000" inkscape:zoom="0.64333334" fit-margin-top="0" inkscape:window-maximized="1" inkscape:document-units="px">
	</sodipodi:namedview>
<g>
	<path id="rect3651" inkscape:connector-curvature="0" fill="#C50000" d="M274.647,0.508C129.372-6.089,7.106,105.556,0.509,250.832
		c-6.598,145.273,105.046,267.54,250.321,274.137c145.274,6.598,267.541-105.046,274.138-250.321
		C531.566,129.372,419.922,7.107,274.647,0.508z"/>
	<path id="rect4540" fill="#FFFFFF" d="M272.378,50.458L272.378,50.458c-117.24-5.324-216.598,85.401-221.921,202.641l0,0
		c-5.324,117.24,85.402,216.597,202.642,221.921l0,0c117.24,5.324,216.596-85.401,221.921-202.642l0,0
		C480.344,155.139,389.619,55.782,272.378,50.458z"/>
</g>
<path id="path38" inkscape:connector-curvature="0" sodipodi:nodetypes="cssccccccccscccccsscc" d="M139.635,112.047
	c7.564,7.475,209.809,207.207,209.818,207.198c0.086-0.086,0.99-1.771,6.833-13.021c3.18-6.124,5.96-11.402,6.155-11.708
	c0.267-0.418,0.559-0.778,1.278-1.462c1.124-1.067,1.784-1.497,3.101-1.972c2.562-0.923,5.274-0.541,7.691,1.032
	c0.605,0.394,0.86,0.678,1.712,1.566c1.135,1.186,1.623,1.812,2.012,2.896c0.15,0.422,17.875,90.689,19.947,101.577
	c0.06,0.306,0.109,0.558,0.109,0.562c-0.004,0.044-11.074-1.948-70.244-12.746c-17.354-3.166-31.823-5.89-32.16-6.005
	c-1.089-0.373-1.761-0.813-2.961-1.933c-0.898-0.84-1.188-1.093-1.589-1.694c-1.915-2.861-2.044-6.313-0.41-9.237
	c0.485-0.87,1.887-2.361,2.681-2.882c0.304-0.199,5.546-3.046,11.63-6.303c11.211-6,12.866-6.928,12.953-7.016
	c0.006-0.005-202.232-199.742-209.795-207.22L139.635,112.047z"/>
</svg>
