<?xml version="1.0" encoding="UTF-8" standalone="no"?>
<!-- Generator: Adobe Illustrator 15.0.2, SVG Export Plug-In . SVG Version: 6.00 Build 0)  -->

<svg
   xmlns:dc="http://purl.org/dc/elements/1.1/"
   xmlns:cc="http://creativecommons.org/ns#"
   xmlns:rdf="http://www.w3.org/1999/02/22-rdf-syntax-ns#"
   xmlns:svg="http://www.w3.org/2000/svg"
   xmlns="http://www.w3.org/2000/svg"
   xmlns:sodipodi="http://sodipodi.sourceforge.net/DTD/sodipodi-0.dtd"
   xmlns:inkscape="http://www.inkscape.org/namespaces/inkscape"
   version="1.1"
   id="svg2"
   inkscape:version="0.92.4 5da689c313, 2019-01-14"
   sodipodi:docname="Brasil_R-27.svg"
   sodipodi:version="0.32"
   x="0px"
   y="0px"
   width="525.477px"
   height="525.477px"
   viewBox="0 0 525.477 525.477"
   enable-background="new 0 0 525.477 525.477"
   xml:space="preserve"><metadata
   id="metadata539"><rdf:RDF><cc:Work
       rdf:about=""><dc:format>image/svg+xml</dc:format><dc:type
         rdf:resource="http://purl.org/dc/dcmitype/StillImage" /><dc:title></dc:title></cc:Work></rdf:RDF></metadata><defs
   id="defs537" />
<sodipodi:namedview
   width="601px"
   height="601px"
   inkscape:pageopacity="0.0"
   inkscape:window-y="25"
   fit-margin-right="0"
   inkscape:current-layer="svg2"
   fit-margin-bottom="0"
   inkscape:window-x="1920"
   inkscape:window-height="1030"
   inkscape:pageshadow="2"
   inkscape:window-width="1920"
   id="base"
   objecttolerance="10"
   inkscape:cy="488.00969"
   showgrid="false"
   borderopacity="1.0"
   pagecolor="#ffffff"
   bordercolor="#666666"
   inkscape:cx="681.58124"
   guidetolerance="10"
   fit-margin-left="0"
   gridtolerance="10000"
   inkscape:zoom="0.64333334"
   fit-margin-top="0"
   inkscape:window-maximized="1"
   inkscape:document-units="px">
	</sodipodi:namedview>
<g
   id="g514">
	<path
   id="rect3651"
   inkscape:connector-curvature="0"
   d="M 274.647,0.508 C 129.372,-6.089 7.106,105.556 0.509,250.832 -6.089,396.105 105.555,518.372 250.83,524.969 396.104,531.567 518.371,419.923 524.968,274.648 531.566,129.372 419.922,7.107 274.647,0.508 Z"
   style="fill:#c50000" />
	<path
   id="rect4540"
   d="m 272.378,50.458 v 0 C 155.138,45.134 55.78,135.859 50.457,253.099 v 0 c -5.324,117.24 85.401,216.597 202.642,221.921 v 0 c 117.239,5.324 216.596,-85.401 221.921,-202.642 v 0 C 480.344,155.139 389.619,55.782 272.378,50.458 Z"
   inkscape:connector-curvature="0"
   style="fill:#ffffff" />
</g>
<path
   fill="none"
   stroke="#C50000"
   stroke-width="55"
   stroke-miterlimit="10"
   d="M422.239,427.739"
   id="path516" />
<path
   fill="none"
   stroke="#C50000"
   stroke-width="55"
   stroke-miterlimit="10"
   d="M92.239,97.738"
   id="path518" />

<g
   id="g534"
   transform="translate(-10.709174,-15.649327)">
	<path
   d="m 225.835,273.9288 -77.375,52 c -0.5,0.375 -0.75,0.375 -1.125,0.5 -1.25,0.375 -2.25,0.625 -2.875,0.625 -1.875,0 -2.875,-0.25 -4.875,-1.75 -2.125,-1.5 -2.875,-3.875 -2.875,-6.25 v -1.125 c 0,-0.25 0,-0.375 0.125,-0.5 l 7.5,-24.75 h -37.5 v -37.5 h 37.5 l -7.5,-24.875 c -0.125,-0.875 -0.125,-1.375 -0.125,-1.75 0,-5.625 4.625,-7.625 7.75,-7.625 1.125,0 2.125,0.25 3.25,0.625 0,0 0.25,0.125 0.75,0.5 z"
   id="path532"
   inkscape:connector-curvature="0" />
</g>
<path
   style="fill:#000000;stroke-width:0.71812785"
   d="m 248.70937,382.68159 -1.76268,-1.76267 v -23.37475 -23.37473 l 84.91861,0.18248 84.91862,0.18247 0.18931,23.4816 c 0.22982,28.5095 1.04084,26.42828 -10.29897,26.42828 -6.14042,0 -7.59959,-0.22191 -9.02071,-1.37189 l -1.69534,-1.37188 -0.21154,-20.17196 -0.21152,-20.17194 h -2.12239 -2.12238 v 19.78115 19.78117 l -1.76268,1.76267 c -1.64487,1.64487 -2.26044,1.76268 -9.21048,1.76268 -11.21982,0 -10.57067,1.42508 -10.57067,-23.2059 V 341.3566 l -12.02865,0.0409 -12.02864,0.0408 -2.67306,3.51049 c -2.87434,3.77481 -5.59122,5.01725 -10.97137,5.01725 -5.38014,0 -8.09703,-1.24244 -10.97137,-5.01725 l -2.67305,-3.51049 -12.02865,-0.0408 -12.02863,-0.0409 v 20.10759 c 0,24.62133 0.738,22.98008 -10.33331,22.98008 -6.27372,0 -7.73052,-0.21828 -9.15613,-1.37189 l -1.69533,-1.37188 -0.21154,-20.17196 -0.21154,-20.17194 h -2.12239 -2.12237 v 19.9824 c 0,24.55675 0.67038,23.10527 -10.67131,23.10527 -6.8432,0 -7.46808,-0.1209 -9.10984,-1.76268 z m -9.22516,-53.94825 c -0.62693,-1.63379 -0.51855,-7.68018 0.15674,-8.74376 0.45438,-0.71569 19.49298,-0.86302 92.80702,-0.71814 l 92.23536,0.18227 v 5.0269 5.02688 l -92.38109,0.18224 c -83.77588,0.16525 -92.42179,0.0763 -92.81803,-0.95639 z m -2.59132,-18.97437 c -1.41952,-1.41952 -1.43625,-2.39375 -1.43625,-83.66189 0,-81.26813 0.0167,-82.24236 1.43625,-83.66189 1.42163,-1.42162 2.39376,-1.43625 95.45889,-1.43625 h 94.02262 l 1.48838,1.89216 c 1.48587,1.88899 1.48838,2.02885 1.48838,83.33547 v 81.44331 l -1.76269,1.76268 -1.76268,1.76268 h -93.74832 c -92.79082,0 -93.76299,-0.0146 -95.18458,-1.43627 z m 30.73182,-19.52667 c 0.18921,-4.30135 0.049,-4.89194 -1.33739,-5.63392 -2.30798,-1.23519 -14.16761,-0.64861 -15.04752,0.74426 -0.98658,1.56172 -0.856,8.17674 0.18189,9.21463 0.61616,0.61618 3.17505,0.82308 8.438,0.68222 l 7.55364,-0.20213 z m 145.78654,0.1557 c 0.28304,-6.03673 -0.30469,-6.48162 -8.56239,-6.48162 -7.66395,0 -8.53158,0.61137 -8.53158,6.01175 0,2.06513 0.39796,4.15275 0.88435,4.63914 0.61619,0.61618 3.17506,0.82308 8.43801,0.68222 l 7.55364,-0.20213 z"
   id="path552"
   inkscape:connector-curvature="0" /></svg>