<?xml version="1.0" encoding="utf-8"?>
<!-- Generator: Adobe Illustrator 15.0.2, SVG Export Plug-In . SVG Version: 6.00 Build 0)  -->
<!DOCTYPE svg PUBLIC "-//W3C//DTD SVG 1.1//EN" "http://www.w3.org/Graphics/SVG/1.1/DTD/svg11.dtd">
<svg version="1.1"
	 id="svg2" inkscape:version="0.48.2 r9819" sodipodi:docname="AJAX1.svg" xmlns:rdf="http://www.w3.org/1999/02/22-rdf-syntax-ns#" xmlns:cc="http://creativecommons.org/ns#" xmlns:dc="http://purl.org/dc/elements/1.1/" xmlns:sodipodi="http://sodipodi.sourceforge.net/DTD/sodipodi-0.dtd" xmlns:svg="http://www.w3.org/2000/svg" xmlns:inkscape="http://www.inkscape.org/namespaces/inkscape" sodipodi:version="0.32"
	 xmlns="http://www.w3.org/2000/svg" xmlns:xlink="http://www.w3.org/1999/xlink" x="0px" y="0px" width="525.477px"
	 height="525.477px" viewBox="0 0 525.477 525.477" enable-background="new 0 0 525.477 525.477" xml:space="preserve">
<sodipodi:namedview  width="601px" height="601px" inkscape:pageopacity="0.0" inkscape:window-y="-8" fit-margin-right="0" inkscape:current-layer="layer1" fit-margin-bottom="0" inkscape:window-x="-8" inkscape:window-height="1004" inkscape:pageshadow="2" inkscape:window-width="1280" id="base" objecttolerance="10" inkscape:cy="235.04871" showgrid="false" borderopacity="1.0" pagecolor="#ffffff" bordercolor="#666666" inkscape:cx="369.80155" guidetolerance="10" fit-margin-left="0" gridtolerance="10000" inkscape:zoom="0.64333334" fit-margin-top="0" inkscape:window-maximized="1" inkscape:document-units="px">
	</sodipodi:namedview>
<g>
	<path id="rect3651" inkscape:connector-curvature="0" fill="#C50000" d="M274.646,0.508C129.372-6.089,7.106,105.556,0.509,250.832
		c-6.598,145.273,105.046,267.54,250.321,274.137c145.273,6.599,267.541-105.046,274.138-250.32
		C531.566,129.372,419.922,7.107,274.646,0.508z"/>
	<path id="rect4540" fill="#FFFFFF" d="M272.378,50.458L272.378,50.458C155.138,45.134,55.78,135.859,50.457,253.099l0,0
		c-5.324,117.24,85.402,216.597,202.642,221.92l0,0c117.24,5.324,216.596-85.4,221.92-202.642l0,0
		C480.344,155.139,389.619,55.782,272.378,50.458z"/>
</g>
<path id="path38" inkscape:connector-curvature="0" sodipodi:nodetypes="cssccccccccscccccsscc" d="M309.656,443.348
	c-0.06-9.962-1.723-276.227-1.736-276.227c-0.114,0-1.828,0.517-13.15,4.099c-6.163,1.95-11.501,3.604-11.832,3.678
	c-0.452,0.099-0.886,0.146-1.815,0.121c-1.45-0.037-2.174-0.189-3.36-0.748c-2.308-1.086-3.852-3.134-4.41-5.777
	c-0.14-0.662-0.121-1.019-0.097-2.172c0.034-1.538,0.124-2.276,0.585-3.25c0.18-0.379,48.232-71.912,54.07-80.497
	c0.163-0.242,0.298-0.441,0.301-0.444c0.031-0.026,6.045,8.625,38.085,54.972c9.397,13.592,17.179,24.98,17.325,25.28
	c0.474,0.969,0.629,1.705,0.682,3.241c0.038,1.151,0.063,1.51-0.07,2.174c-0.627,3.164-2.827,5.536-5.847,6.391
	c-0.898,0.254-2.813,0.314-3.685,0.134c-0.333-0.07-5.691-1.657-11.88-3.53c-11.4-3.451-13.11-3.934-13.227-3.933
	c-0.007,0,1.65,266.263,1.706,276.226L309.656,443.348z"/>
<path id="path38_1_" inkscape:connector-curvature="0" sodipodi:nodetypes="cssccccccccscccccsscc" d="M215.819,82.129
	c0.06,9.962,1.724,276.226,1.736,276.226c0.114,0,1.829-0.517,13.151-4.098c6.163-1.95,11.5-3.604,11.832-3.679
	c0.452-0.099,0.885-0.146,1.815-0.121c1.451,0.038,2.173,0.19,3.36,0.749c2.308,1.086,3.853,3.134,4.411,5.776
	c0.139,0.663,0.121,1.02,0.096,2.173c-0.034,1.537-0.125,2.275-0.585,3.25c-0.18,0.379-48.232,71.911-54.07,80.497
	c-0.163,0.242-0.297,0.441-0.3,0.444c-0.031,0.025-6.045-8.626-38.085-54.973c-9.397-13.592-17.179-24.98-17.325-25.279
	c-0.474-0.969-0.629-1.705-0.682-3.241c-0.039-1.151-0.063-1.511,0.07-2.175c0.626-3.163,2.827-5.536,5.847-6.391
	c0.898-0.253,2.814-0.313,3.685-0.134c0.333,0.069,5.691,1.657,11.88,3.529c11.4,3.452,13.11,3.934,13.226,3.933
	c0.007,0.001-1.65-266.262-1.705-276.225L215.819,82.129z"/>
</svg>
