<?xml version="1.0" encoding="utf-8"?>
<!-- Generator: Adobe Illustrator 15.0.2, SVG Export Plug-In . SVG Version: 6.00 Build 0)  -->
<!DOCTYPE svg PUBLIC "-//W3C//DTD SVG 1.1//EN" "http://www.w3.org/Graphics/SVG/1.1/DTD/svg11.dtd">
<svg version="1.1"
	 id="svg2" inkscape:version="0.48.2 r9819" sodipodi:docname="AJAX1.svg" xmlns:rdf="http://www.w3.org/1999/02/22-rdf-syntax-ns#" xmlns:cc="http://creativecommons.org/ns#" xmlns:dc="http://purl.org/dc/elements/1.1/" xmlns:sodipodi="http://sodipodi.sourceforge.net/DTD/sodipodi-0.dtd" xmlns:svg="http://www.w3.org/2000/svg" xmlns:inkscape="http://www.inkscape.org/namespaces/inkscape" sodipodi:version="0.32"
	 xmlns="http://www.w3.org/2000/svg" xmlns:xlink="http://www.w3.org/1999/xlink" x="0px" y="0px" width="525.477px"
	 height="525.477px" viewBox="0 0 525.477 525.477" enable-background="new 0 0 525.477 525.477" xml:space="preserve">
<sodipodi:namedview  width="601px" height="601px" inkscape:pageopacity="0.0" inkscape:window-y="-8" fit-margin-right="0" inkscape:current-layer="layer1" fit-margin-bottom="0" inkscape:window-x="-8" inkscape:window-height="1004" inkscape:pageshadow="2" inkscape:window-width="1280" id="base" objecttolerance="10" inkscape:cy="235.04871" showgrid="false" borderopacity="1.0" pagecolor="#ffffff" bordercolor="#666666" inkscape:cx="369.80155" guidetolerance="10" fit-margin-left="0" gridtolerance="10000" inkscape:zoom="0.64333334" fit-margin-top="0" inkscape:window-maximized="1" inkscape:document-units="px">
	</sodipodi:namedview>
<g>
	<path id="rect3651" inkscape:connector-curvature="0" fill="#C50000" d="M274.647,0.508C129.372-6.089,7.106,105.556,0.509,250.832
		c-6.598,145.273,105.046,267.54,250.321,274.137c145.274,6.598,267.541-105.046,274.138-250.321
		C531.566,129.372,419.922,7.107,274.647,0.508z"/>
	<path id="rect4540" fill="#FFFFFF" d="M272.378,50.458L272.378,50.458c-117.24-5.324-216.598,85.401-221.921,202.641l0,0
		c-5.324,117.24,85.401,216.597,202.642,221.921l0,0c117.239,5.324,216.596-85.401,221.921-202.642l0,0
		C480.344,155.139,389.619,55.782,272.378,50.458z"/>
</g>
<path fill="none" stroke="#C50000" stroke-width="55" stroke-miterlimit="10" d="M422.239,427.739"/>
<path fill="none" stroke="#C50000" stroke-width="55" stroke-miterlimit="10" d="M92.239,97.738"/>
<path d="M220.866,199.652c5.146,19.497,10.302,38.992,15.458,58.512c-18.161,49.591-36.357,99.193-54.53,148.795
	c-8.169,28.134,19.782,37.133,32.866,14.01c15.687-38.093,31.84-77.37,47.538-115.439c2.26-6.649,5.021-5.714,6.252-0.228
	c8.738,37.328,17.455,74.632,26.171,111.96c3.581,23.545,39.084,27.423,36.62-6.617c-13.964-71.711-27.904-146.048-41.846-217.748
	c22.154,12.288,45.131,26.183,67.331,38.458c23.467,8.396,24.367-8.818,11.544-18.618c-14.716-9.583-29.82-17.945-44.515-27.518
	c-14.704-10.563-29.397-21.116-44.079-31.668c-4.29-3.377-10.382-6.104-18.276-5.442c-12.458,1.723-24.574,4.46-37.007,6.172
	c-8.031,1.927-13.245,5.407-17.193,9.56c-9.457,10.815-18.926,21.619-28.394,32.433c-14.443,4.654-28.886,9.321-43.329,13.998
	c-17.82,5.829-11.659,25.235,5.213,22.086c18.676-4.415,37.374-8.841,56.048-13.256c2.738-1.963,5.476-3.925,8.214-5.887
	c3.604-5.019,7.198-10.016,10.792-15.024C217.457,198.681,219.167,199.161,220.866,199.652"/>
<path d="M238.515,89.917c14.306,0,25.919,11.442,25.919,25.542c0,14.112-11.613,25.543-25.919,25.543
	c-14.305,0-25.907-11.431-25.907-25.543C212.608,101.359,224.21,89.917,238.515,89.917z"/>
<line fill="none" stroke="#C50000" stroke-width="55" stroke-miterlimit="10" x1="92.239" y1="97.739" x2="422.239" y2="427.739"/>
</svg>
