<?xml version="1.0" encoding="UTF-8" standalone="no"?>
<!-- Generator: Adobe Illustrator 15.0.2, SVG Export Plug-In . SVG Version: 6.00 Build 0)  -->

<svg
   xmlns:dc="http://purl.org/dc/elements/1.1/"
   xmlns:cc="http://creativecommons.org/ns#"
   xmlns:rdf="http://www.w3.org/1999/02/22-rdf-syntax-ns#"
   xmlns:svg="http://www.w3.org/2000/svg"
   xmlns="http://www.w3.org/2000/svg"
   xmlns:sodipodi="http://sodipodi.sourceforge.net/DTD/sodipodi-0.dtd"
   xmlns:inkscape="http://www.inkscape.org/namespaces/inkscape"
   version="1.1"
   id="svg2"
   inkscape:version="0.92.4 5da689c313, 2019-01-14"
   sodipodi:docname="Brasil_R-31.svg"
   sodipodi:version="0.32"
   x="0px"
   y="0px"
   width="525.477px"
   height="525.477px"
   viewBox="0 0 525.477 525.477"
   enable-background="new 0 0 525.477 525.477"
   xml:space="preserve"><metadata
   id="metadata353"><rdf:RDF><cc:Work
       rdf:about=""><dc:format>image/svg+xml</dc:format><dc:type
         rdf:resource="http://purl.org/dc/dcmitype/StillImage" /><dc:title></dc:title></cc:Work></rdf:RDF></metadata><defs
   id="defs351" />
<sodipodi:namedview
   height="601px"
   width="601px"
   id="base"
   inkscape:document-units="px"
   inkscape:window-width="1920"
   inkscape:pageshadow="2"
   inkscape:window-height="1030"
   inkscape:window-x="1920"
   fit-margin-bottom="0"
   inkscape:current-layer="svg2"
   fit-margin-right="0"
   inkscape:window-y="25"
   inkscape:pageopacity="0.0"
   inkscape:window-maximized="1"
   inkscape:cx="62.051742"
   fit-margin-top="0"
   bordercolor="#666666"
   pagecolor="#ffffff"
   borderopacity="1.0"
   inkscape:zoom="0.90981073"
   showgrid="false"
   inkscape:cy="241.33291"
   gridtolerance="10000"
   objecttolerance="10"
   fit-margin-left="0"
   guidetolerance="10"
   inkscape:snap-global="false">
	</sodipodi:namedview>
<g
   id="g302">
	<path
   id="rect3651"
   d="M 0.509,274.648 C 7.106,419.922 129.373,531.567 274.647,524.968 419.921,518.371 531.566,396.105 524.968,250.831 518.37,105.556 396.104,-6.089 250.83,0.508 105.555,7.107 -6.09,129.372 0.509,274.648 Z"
   inkscape:connector-curvature="0"
   style="fill:#c50000" />
	<path
   id="rect4540"
   d="m 50.457,272.378 v 0 c 5.324,117.241 104.682,207.966 221.92,202.642 v 0 C 389.618,469.697 480.344,370.339 475.02,253.1 v 0 C 469.697,135.86 370.338,45.135 253.099,50.459 v 0 C 135.857,55.782 45.133,155.139 50.457,272.378 Z"
   inkscape:connector-curvature="0"
   style="fill:#ffffff" />
</g>
<path
   stroke-miterlimit="10"
   d="M103.237,427.739"
   id="path304"
   stroke-width="55"
   stroke="#C50000"
   fill="none" />
<path
   fill="none"
   stroke="#C50000"
   stroke-width="55"
   stroke-miterlimit="10"
   d="M433.237,97.738"
   id="path306" />
<g
   id="g348"
   transform="matrix(1.3685487,0,0,1.4076072,127.73235,-92.664019)">
	
	
	<circle
   cx="137.49001"
   cy="150.69299"
   r="19.756001"
   id="circle312" />
	
	
	
	
	
	
	<path
   d="m 141.573,354.232 c 0.329,5.164 4.784,9.088 9.95,8.762 l 6.237,-0.396 c 5.167,-0.328 9.089,-4.785 8.759,-9.951 l -7.152,-112.532 c -0.329,-5.166 -4.783,-9.087 -9.949,-8.759 l -6.237,0.396 c -5.167,0.329 -9.088,4.782 -8.762,9.95 z"
   id="path326"
   inkscape:connector-curvature="0" />
	<path
   d="m 112.329,364.871 c 0,5.063 4.103,9.166 9.164,9.166 h 6.111 c 5.061,0 9.163,-4.104 9.163,-9.166 V 254.627 c 0,-5.06 -4.103,-9.163 -9.163,-9.163 h -6.111 c -5.062,0 -9.164,4.104 -9.164,9.163 z"
   id="path328"
   inkscape:connector-curvature="0" />
	
	
	
	
	
	<rect
   x="112.329"
   y="196.896"
   width="48.776001"
   height="81.444"
   id="rect340" />
	<path
   d="m 168.937,265.324 c 0,3.023 2.451,5.475 5.475,5.475 h 3.65 c 3.023,0 5.475,-2.451 5.475,-5.475 v -44.226 c 0,-3.025 -2.451,-5.475 -5.475,-5.475 h -3.65 c -3.023,0 -5.475,2.45 -5.475,5.475 z"
   id="path342"
   inkscape:connector-curvature="0" />
	<path
   d="m 90.755,261.369 c -0.14,3.02 2.195,5.581 5.216,5.721 l 3.646,0.168 c 3.02,0.139 5.581,-2.197 5.721,-5.218 l 2.208,-38.287 c 0.139,-3.021 -2.196,-5.582 -5.217,-5.722 l -3.646,-0.167 c -3.02,-0.14 -5.581,2.196 -5.721,5.216 z"
   id="path344"
   inkscape:connector-curvature="0" />
	<path
   d="m 168.937,226.71 c 0,-7.001 -7.678,-15.307 -7.678,-15.307 h -48.625 c 0,0 -5.088,5.479 -5.088,12.349 0,6.87 -14.713,12.789 -14.713,1.55 0,-18.117 9.465,-49.7 28.81,-49.7 5.865,0 28.396,-0.031 34.237,-0.031 10.575,0 27.656,36.503 27.656,46.74 0,7.862 -14.599,11.401 -14.599,4.399 z"
   id="path346"
   inkscape:connector-curvature="0" />
</g>
<g
   transform="translate(-34.64478,0.41639487)"
   id="g187"><path
     d="m 238.65884,262.2596 -77.375,52 c -0.5,0.375 -0.75,0.375 -1.125,0.5 -1.25,0.375 -2.25,0.625 -2.875,0.625 -1.875,0 -2.875,-0.25 -4.875,-1.75 -2.125,-1.5 -2.875,-3.875 -2.875,-6.25 v -1.125 c 0,-0.25 0,-0.375 0.125,-0.5 l 7.5,-24.75 h -37.5 v -37.5 h 37.5 l -7.5,-24.875 c -0.125,-0.875 -0.125,-1.375 -0.125,-1.75 0,-5.625 4.625,-7.625 7.75,-7.625 1.125,0 2.125,0.25 3.25,0.625 0,0 0.25,0.125 0.75,0.5 z"
     id="path185"
     inkscape:connector-curvature="0" /></g></svg>