<?xml version="1.0" encoding="UTF-8" standalone="no"?>
<!-- Generator: Adobe Illustrator 15.0.2, SVG Export Plug-In . SVG Version: 6.00 Build 0)  -->

<svg
   xmlns:dc="http://purl.org/dc/elements/1.1/"
   xmlns:cc="http://creativecommons.org/ns#"
   xmlns:rdf="http://www.w3.org/1999/02/22-rdf-syntax-ns#"
   xmlns:svg="http://www.w3.org/2000/svg"
   xmlns="http://www.w3.org/2000/svg"
   xmlns:sodipodi="http://sodipodi.sourceforge.net/DTD/sodipodi-0.dtd"
   xmlns:inkscape="http://www.inkscape.org/namespaces/inkscape"
   version="1.1"
   id="svg2"
   inkscape:version="0.92.4 5da689c313, 2019-01-14"
   sodipodi:docname="Brasil_R-35a.svg"
   sodipodi:version="0.32"
   x="0px"
   y="0px"
   width="525.477px"
   height="525.477px"
   viewBox="0 0 525.477 525.477"
   enable-background="new 0 0 525.477 525.477"
   xml:space="preserve"><metadata
   id="metadata353"><rdf:RDF><cc:Work
       rdf:about=""><dc:format>image/svg+xml</dc:format><dc:type
         rdf:resource="http://purl.org/dc/dcmitype/StillImage" /><dc:title></dc:title></cc:Work></rdf:RDF></metadata><defs
   id="defs351" />
<sodipodi:namedview
   height="601px"
   width="601px"
   id="base"
   inkscape:document-units="px"
   inkscape:window-width="1920"
   inkscape:pageshadow="2"
   inkscape:window-height="1030"
   inkscape:window-x="1920"
   fit-margin-bottom="0"
   inkscape:current-layer="svg2"
   fit-margin-right="0"
   inkscape:window-y="25"
   inkscape:pageopacity="0.0"
   inkscape:window-maximized="1"
   inkscape:cx="454.47957"
   fit-margin-top="0"
   bordercolor="#666666"
   pagecolor="#ffffff"
   borderopacity="1.0"
   inkscape:zoom="0.90981073"
   showgrid="false"
   inkscape:cy="350.39286"
   gridtolerance="10000"
   objecttolerance="10"
   fit-margin-left="0"
   guidetolerance="10"
   inkscape:snap-global="false">
	</sodipodi:namedview>
<g
   id="g302">
	<path
   id="rect3651"
   d="M 0.509,274.648 C 7.106,419.922 129.373,531.567 274.647,524.968 419.921,518.371 531.566,396.105 524.968,250.831 518.37,105.556 396.104,-6.089 250.83,0.508 105.555,7.107 -6.09,129.372 0.509,274.648 Z"
   inkscape:connector-curvature="0"
   style="fill:#c50000" />
	<path
   id="rect4540"
   d="m 50.457,272.378 v 0 c 5.324,117.241 104.682,207.966 221.92,202.642 v 0 C 389.618,469.697 480.344,370.339 475.02,253.1 v 0 C 469.697,135.86 370.338,45.135 253.099,50.459 v 0 C 135.857,55.782 45.133,155.139 50.457,272.378 Z"
   inkscape:connector-curvature="0"
   style="fill:#ffffff" />
</g>
<path
   stroke-miterlimit="10"
   d="M103.237,427.739"
   id="path304"
   stroke-width="55"
   stroke="#C50000"
   fill="none" />
<path
   fill="none"
   stroke="#C50000"
   stroke-width="55"
   stroke-miterlimit="10"
   d="M433.237,97.738"
   id="path306" />

<g
   transform="matrix(-1,0,0,1,560.37042,0.41639487)"
   id="g187"
   style="display:inline"><path
     d="m 238.65884,262.2596 -77.375,52 c -0.5,0.375 -0.75,0.375 -1.125,0.5 -1.25,0.375 -2.25,0.625 -2.875,0.625 -1.875,0 -2.875,-0.25 -4.875,-1.75 -2.125,-1.5 -2.875,-3.875 -2.875,-6.25 v -1.125 c 0,-0.25 0,-0.375 0.125,-0.5 l 7.5,-24.75 h -37.5 v -37.5 h 37.5 l -7.5,-24.875 c -0.125,-0.875 -0.125,-1.375 -0.125,-1.75 0,-5.625 4.625,-7.625 7.75,-7.625 1.125,0 2.125,0.25 3.25,0.625 0,0 0.25,0.125 0.75,0.5 z"
     id="path185"
     inkscape:connector-curvature="0" /></g><g
   transform="matrix(-1.3774963,0,0,1.3774963,726.83778,-94.466954)"
   id="g1443"
   style="display:inline"><circle
     cx="373.181"
     cy="140.96899"
     r="15.589"
     id="circle1405" /><rect
     x="327.33899"
     y="222.312"
     width="89.523003"
     height="6.4829998"
     id="rect1409" /><path
     d="m 365.219,387.773 c 0,3.025 2.451,5.477 5.475,5.477 h 3.65 c 3.023,0 5.475,-2.451 5.475,-5.477 V 285.596 c 0,-3.025 -2.451,-5.477 -5.475,-5.477 h -3.65 c -3.023,0 -5.475,2.451 -5.475,5.477 z"
     id="path1411"
     inkscape:connector-curvature="0" /><path
     d="m 402.263,217.167 c 0,3.023 2.451,5.475 5.475,5.475 h 3.65 c 3.023,0 5.475,-2.452 5.475,-5.475 v -25.704 c 0,-3.024 -2.451,-5.475 -5.475,-5.475 h -3.65 c -3.023,0 -5.475,2.451 -5.475,5.475 z"
     id="path1413"
     inkscape:connector-curvature="0" /><path
     d="m 327.339,216.836 c 0,3.024 2.451,5.476 5.475,5.476 h 3.65 c 3.023,0 5.475,-2.451 5.475,-5.476 v -25.704 c 0,-3.024 -2.451,-5.475 -5.475,-5.475 h -3.65 c -3.023,0 -5.475,2.451 -5.475,5.475 z"
     id="path1415"
     inkscape:connector-curvature="0" /><path
     d="m 337.827,348.287 c 0,3.646 2.955,6.602 6.602,6.602 h 4.401 c 3.646,0 6.601,-2.955 6.601,-6.602 v -64.664 c 0,-3.645 -2.955,-6.6 -6.601,-6.6 h -4.401 c -3.646,0 -6.602,2.955 -6.602,6.6 z"
     id="path1417"
     inkscape:connector-curvature="0" /><path
     d="m 393.859,298.793 c 0,3.646 2.956,6.602 6.602,6.602 h 4.401 c 3.646,0 6.601,-2.955 6.601,-6.602 v -53.141 c 0,-3.644 -2.955,-6.6 -6.601,-6.6 h -4.401 c -3.646,0 -6.602,2.956 -6.602,6.6 z"
     id="path1419"
     inkscape:connector-curvature="0" /><rect
     x="393.85901"
     y="305.39499"
     width="17.604"
     height="8.2930002"
     id="rect1425" /><rect
     x="337.827"
     y="354.88901"
     width="17.604"
     height="8.2930002"
     id="rect1427" /><path
     d="m 355.019,296.244 11.012,-13.016 12.382,-0.029 7.271,8.672 1.029,44.557 c 0,0 1.132,2.469 3.292,2.469 2.161,0 2.882,-2.469 2.882,-2.469 l -0.104,-46.922 -13.686,-14.922 -11.833,2.439 -12.246,7.49 v 11.731 z"
     id="path1429"
     inkscape:connector-curvature="0" /><polygon
     points="337.827,272.223 337.827,283.623 355.019,286.367 396.643,266.766 396.643,184.342 348.022,184.342 347.853,262.277 "
     id="polygon1431" /><path
     d="m 402.263,195.455 c 0,-5.453 -5.62,-8.644 -5.62,-8.644 h -48.626 c 0,0 -6.078,2.47 -6.078,7.821 0,5.351 -14.483,4.131 -14.483,-4.623 0,-8.754 17.686,-31.083 24.477,-31.083 5.865,0 33.49,-0.024 39.332,-0.024 10.575,0 25.566,24 25.566,31.973 -0.001,6.123 -14.568,10.033 -14.568,4.58 z"
     id="path1433"
     inkscape:connector-curvature="0" /></g></svg>