<?xml version="1.0" encoding="utf-8"?>
<!-- Generator: Adobe Illustrator 15.0.2, SVG Export Plug-In . SVG Version: 6.00 Build 0)  -->
<!DOCTYPE svg PUBLIC "-//W3C//DTD SVG 1.1//EN" "http://www.w3.org/Graphics/SVG/1.1/DTD/svg11.dtd">
<svg version="1.1"
	 id="svg2" inkscape:version="0.48.2 r9819" sodipodi:docname="AJAX1.svg" sodipodi:version="0.32" xmlns:rdf="http://www.w3.org/1999/02/22-rdf-syntax-ns#" xmlns:cc="http://creativecommons.org/ns#" xmlns:dc="http://purl.org/dc/elements/1.1/" xmlns:sodipodi="http://sodipodi.sourceforge.net/DTD/sodipodi-0.dtd" xmlns:svg="http://www.w3.org/2000/svg" xmlns:inkscape="http://www.inkscape.org/namespaces/inkscape"
	 xmlns="http://www.w3.org/2000/svg" xmlns:xlink="http://www.w3.org/1999/xlink" x="0px" y="0px" width="525.477px"
	 height="525.477px" viewBox="0 0 525.477 525.477" enable-background="new 0 0 525.477 525.477" xml:space="preserve">
<sodipodi:namedview  height="601px" width="601px" id="base" inkscape:document-units="px" inkscape:window-width="1280" inkscape:pageshadow="2" inkscape:window-height="1004" inkscape:window-x="-8" fit-margin-bottom="0" inkscape:current-layer="layer1" fit-margin-right="0" inkscape:window-y="-8" inkscape:pageopacity="0.0" inkscape:window-maximized="1" inkscape:cx="369.80155" fit-margin-top="0" bordercolor="#666666" pagecolor="#ffffff" borderopacity="1.0" inkscape:zoom="0.64333334" showgrid="false" inkscape:cy="235.04871" gridtolerance="10000" objecttolerance="10" fit-margin-left="0" guidetolerance="10">
	</sodipodi:namedview>
<g>
	<path id="rect3651" fill="#C50000" d="M0.509,274.648c6.597,145.274,128.864,256.919,274.138,250.32
		c145.274-6.597,256.919-128.863,250.321-274.137C518.37,105.556,396.104-6.089,250.83,0.508
		C105.555,7.107-6.09,129.372,0.509,274.648z"/>
	<path id="rect4540" fill="#FFFFFF" d="M50.457,272.378L50.457,272.378c5.324,117.241,104.682,207.966,221.92,202.642l0,0
		c117.241-5.323,207.967-104.681,202.643-221.92l0,0c-5.323-117.24-104.682-207.965-221.921-202.641l0,0
		C135.857,55.782,45.133,155.139,50.457,272.378z"/>
</g>
<path fill="none" stroke="#C50000" stroke-width="55" stroke-miterlimit="10" d="M103.237,427.739"/>
<path fill="none" stroke="#C50000" stroke-width="55" stroke-miterlimit="10" d="M433.237,97.738"/>
<g>
	<rect x="248.621" y="132.478" width="20.374" height="243.256"/>
	<circle cx="373.181" cy="140.969" r="15.589"/>
	<circle cx="137.49" cy="150.693" r="19.756"/>
	<rect x="327.339" y="222.312" width="89.523" height="6.483"/>
	<path d="M365.219,387.773c0,3.025,2.451,5.477,5.475,5.477h3.65c3.023,0,5.475-2.451,5.475-5.477V285.596
		c0-3.025-2.451-5.477-5.475-5.477h-3.65c-3.023,0-5.475,2.451-5.475,5.477V387.773z"/>
	<path d="M402.263,217.167c0,3.023,2.451,5.475,5.475,5.475h3.65c3.023,0,5.475-2.452,5.475-5.475v-25.704
		c0-3.024-2.451-5.475-5.475-5.475h-3.65c-3.023,0-5.475,2.451-5.475,5.475V217.167z"/>
	<path d="M327.339,216.836c0,3.024,2.451,5.476,5.475,5.476h3.65c3.023,0,5.475-2.451,5.475-5.476v-25.704
		c0-3.024-2.451-5.475-5.475-5.475h-3.65c-3.023,0-5.475,2.451-5.475,5.475V216.836z"/>
	<path d="M337.827,348.287c0,3.646,2.955,6.602,6.602,6.602h4.401c3.646,0,6.601-2.955,6.601-6.602v-64.664
		c0-3.645-2.955-6.6-6.601-6.6h-4.401c-3.646,0-6.602,2.955-6.602,6.6V348.287z"/>
	<path d="M393.859,298.793c0,3.646,2.956,6.602,6.602,6.602h4.401c3.646,0,6.601-2.955,6.601-6.602v-53.141
		c0-3.644-2.955-6.6-6.601-6.6h-4.401c-3.646,0-6.602,2.956-6.602,6.6V298.793z"/>
	<path d="M141.573,354.232c0.329,5.164,4.784,9.088,9.95,8.762l6.237-0.396c5.167-0.328,9.089-4.785,8.759-9.951l-7.152-112.532
		c-0.329-5.166-4.783-9.087-9.949-8.759l-6.237,0.396c-5.167,0.329-9.088,4.782-8.762,9.95L141.573,354.232z"/>
	<path d="M112.329,364.871c0,5.063,4.103,9.166,9.164,9.166h6.111c5.061,0,9.163-4.104,9.163-9.166V254.627
		c0-5.06-4.103-9.163-9.163-9.163h-6.111c-5.062,0-9.164,4.104-9.164,9.163V364.871z"/>
	<rect x="393.859" y="305.395" width="17.604" height="8.293"/>
	<rect x="337.827" y="354.889" width="17.604" height="8.293"/>
	<path d="M355.019,296.244l11.012-13.016l12.382-0.029l7.271,8.672l1.029,44.557c0,0,1.132,2.469,3.292,2.469
		c2.161,0,2.882-2.469,2.882-2.469l-0.104-46.922l-13.686-14.922l-11.833,2.439l-12.246,7.49V296.244z"/>
	<polygon points="396.643,184.342 348.022,184.342 347.853,262.277 337.827,272.223 337.827,283.623 355.019,286.367 
		396.643,266.766 	"/>
	<path d="M402.263,195.455c0-5.453-5.62-8.644-5.62-8.644h-48.626c0,0-6.078,2.47-6.078,7.821s-14.483,4.131-14.483-4.623
		s17.686-31.083,24.477-31.083c5.865,0,33.49-0.024,39.332-0.024c10.575,0,25.566,24,25.566,31.973
		C416.83,196.998,402.263,200.908,402.263,195.455z"/>
	<rect x="112.329" y="196.896" width="48.776" height="81.444"/>
	<path d="M168.937,265.324c0,3.023,2.451,5.475,5.475,5.475h3.65c3.023,0,5.475-2.451,5.475-5.475v-44.226
		c0-3.025-2.451-5.475-5.475-5.475h-3.65c-3.023,0-5.475,2.45-5.475,5.475V265.324z"/>
	<path d="M90.755,261.369c-0.14,3.02,2.195,5.581,5.216,5.721l3.646,0.168c3.02,0.139,5.581-2.197,5.721-5.218l2.208-38.287
		c0.139-3.021-2.196-5.582-5.217-5.722l-3.646-0.167c-3.02-0.14-5.581,2.196-5.721,5.216L90.755,261.369z"/>
	<path d="M168.937,226.71c0-7.001-7.678-15.307-7.678-15.307h-48.625c0,0-5.088,5.479-5.088,12.349s-14.713,12.789-14.713,1.55
		c0-18.117,9.465-49.7,28.81-49.7c5.865,0,28.396-0.031,34.237-0.031c10.575,0,27.656,36.503,27.656,46.74
		C183.536,230.173,168.937,233.712,168.937,226.71z"/>
</g>
</svg>
