<?xml version="1.0" encoding="UTF-8" standalone="no"?>
<!-- Created with Inkscape (http://www.inkscape.org/) -->

<svg
   xmlns:dc="http://purl.org/dc/elements/1.1/"
   xmlns:cc="http://creativecommons.org/ns#"
   xmlns:rdf="http://www.w3.org/1999/02/22-rdf-syntax-ns#"
   xmlns:svg="http://www.w3.org/2000/svg"
   xmlns="http://www.w3.org/2000/svg"
   xmlns:sodipodi="http://sodipodi.sourceforge.net/DTD/sodipodi-0.dtd"
   xmlns:inkscape="http://www.inkscape.org/namespaces/inkscape"
   width="525.47699"
   height="525.47699"
   viewBox="0 0 525.47699 525.47699"
   version="1.1"
   id="svg8"
   inkscape:version="0.92.4 5da689c313, 2019-01-14"
   sodipodi:docname="Brazil_R-40.svg">
  <defs
     id="defs2" />
  <sodipodi:namedview
     id="base"
     pagecolor="#ffffff"
     bordercolor="#666666"
     borderopacity="1.0"
     inkscape:pageopacity="0.0"
     inkscape:pageshadow="2"
     inkscape:zoom="0.98994949"
     inkscape:cx="468.89071"
     inkscape:cy="329.92284"
     inkscape:document-units="px"
     inkscape:current-layer="svg8"
     showgrid="false"
     inkscape:window-width="1920"
     inkscape:window-height="1030"
     inkscape:window-x="1920"
     inkscape:window-y="25"
     inkscape:window-maximized="1"
     inkscape:snap-global="false"
     units="px">
    <inkscape:grid
       type="xygrid"
       id="grid46"
       originx="-1.9059693"
       originy="-49.212317" />
  </sodipodi:namedview>
  <metadata
     id="metadata5">
    <rdf:RDF>
      <cc:Work
         rdf:about="">
        <dc:format>image/svg+xml</dc:format>
        <dc:type
           rdf:resource="http://purl.org/dc/dcmitype/StillImage" />
        <dc:title></dc:title>
      </cc:Work>
    </rdf:RDF>
  </metadata>
  <g
     transform="matrix(0.99928536,0,0,0.99928536,0.18775831,0.18771607)"
     id="g580"
     style="display:inline"
     inkscape:label="circulo">
    <path
       id="rect3651"
       inkscape:connector-curvature="0"
       d="M 274.647,0.508 C 129.372,-6.089 7.106,105.556 0.509,250.832 -6.089,396.105 105.555,518.372 250.83,524.969 396.104,531.567 518.371,419.923 524.968,274.648 531.566,129.372 419.922,7.107 274.647,0.508 Z"
       style="display:inline;fill:#c50000" />
    <path
       id="rect4540"
       d="m 272.378,50.458 v 0 C 155.138,45.134 55.78,135.859 50.457,253.099 v 0 c -5.324,117.24 85.401,216.597 202.642,221.921 v 0 c 117.239,5.324 216.596,-85.401 221.921,-202.642 v 0 C 480.344,155.139 389.619,55.782 272.378,50.458 Z"
       inkscape:connector-curvature="0"
       style="display:inline;fill:#ffffff" />
  </g>
  <g
     inkscape:label="simbolo"
     inkscape:groupmode="layer"
     id="layer1"
     style="display:inline"
     transform="translate(-1.9059693,-279.27991)">
    <g
       id="g36"
       inkscape:label="carrinho"
       transform="matrix(2.6181985,0,0,2.6181985,-2.6656312,155.58189)">
      <path
         inkscape:label="carrinho"
         inkscape:connector-curvature="0"
         id="path52"
         d="m 40.758602,157.21803 1.5368,11.22532 14.232101,-1.5368 3.808593,-5.27857 6.147199,-0.46772 11.358954,-1.26953 5.813113,-0.73499 5.011303,-0.46772 9.488067,-1.00226 24.521978,-3.34087 0.40091,-0.73499 v -0.86863 l -3.34087,-4.07586 -34.076868,3.60814 z"
         style="fill:#000000;stroke:#000000;stroke-width:0.26458332px;stroke-linecap:butt;stroke-linejoin:miter;stroke-opacity:1" />
      <circle
         inkscape:label="aro"
         r="6.214016"
         cy="162.29616"
         cx="72.363228"
         id="path57"
         style="fill:#000000;stroke-width:0.32376644" />
      <path
         inkscape:label="roda"
         inkscape:connector-curvature="0"
         transform="scale(0.26458333)"
         id="path4570"
         d="m 273.49805,549.50977 a 63.892152,63.892152 0 0 0 -63.89063,63.89257 63.892152,63.892152 0 0 0 63.89063,63.89258 63.892152,63.892152 0 0 0 63.89257,-63.89258 63.892152,63.892152 0 0 0 -63.89257,-63.89257 z m 0.12695,19.19335 a 44.825516,44.825516 0 0 1 4.47461,0.22461 44.825516,44.825516 0 0 1 4.43164,0.66993 44.825516,44.825516 0 0 1 4.33984,1.10742 44.825516,44.825516 0 0 1 4.20899,1.53711 44.825516,44.825516 0 0 1 4.03515,1.94922 44.825516,44.825516 0 0 1 3.82032,2.34179 44.825516,44.825516 0 0 1 3.5664,2.71094 44.825516,44.825516 0 0 1 3.2793,3.05469 44.825516,44.825516 0 0 1 2.95703,3.36719 44.825516,44.825516 0 0 1 2.60547,3.64453 44.825516,44.825516 0 0 1 2.23047,3.88672 44.825516,44.825516 0 0 1 1.83008,4.08984 44.825516,44.825516 0 0 1 1.41211,4.25195 44.825516,44.825516 0 0 1 0.98242,4.3711 44.825516,44.825516 0 0 1 0.53906,4.44726 44.825516,44.825516 0 0 1 0.11328,3.17188 44.825516,44.825516 0 0 1 -0.22461,4.47461 44.825516,44.825516 0 0 1 -0.66992,4.42968 44.825516,44.825516 0 0 1 -1.10742,4.3418 44.825516,44.825516 0 0 1 -1.53711,4.20899 44.825516,44.825516 0 0 1 -1.94922,4.03515 44.825516,44.825516 0 0 1 -2.3418,3.82031 44.825516,44.825516 0 0 1 -2.71093,3.56641 44.825516,44.825516 0 0 1 -3.05469,3.2793 44.825516,44.825516 0 0 1 -3.36719,2.95703 44.825516,44.825516 0 0 1 -3.64453,2.60547 44.825516,44.825516 0 0 1 -3.88672,2.23047 44.825516,44.825516 0 0 1 -4.08984,1.83007 44.825516,44.825516 0 0 1 -4.25196,1.41211 44.825516,44.825516 0 0 1 -4.37109,0.98242 44.825516,44.825516 0 0 1 -4.44726,0.53907 44.825516,44.825516 0 0 1 -3.17188,0.11328 44.825516,44.825516 0 0 1 -4.47461,-0.22461 44.825516,44.825516 0 0 1 -4.43164,-0.66992 44.825516,44.825516 0 0 1 -4.33984,-1.10938 44.825516,44.825516 0 0 1 -4.20899,-1.53515 44.825516,44.825516 0 0 1 -4.03515,-1.94922 44.825516,44.825516 0 0 1 -3.82032,-2.3418 44.825516,44.825516 0 0 1 -3.5664,-2.71094 44.825516,44.825516 0 0 1 -3.2793,-3.05468 44.825516,44.825516 0 0 1 -2.95703,-3.36719 44.825516,44.825516 0 0 1 -2.60547,-3.64453 44.825516,44.825516 0 0 1 -2.23047,-3.88672 44.825516,44.825516 0 0 1 -1.83008,-4.08985 44.825516,44.825516 0 0 1 -1.41211,-4.25195 44.825516,44.825516 0 0 1 -0.98242,-4.37109 44.825516,44.825516 0 0 1 -0.53906,-4.44922 44.825516,44.825516 0 0 1 -0.11328,-3.16992 44.825516,44.825516 0 0 1 0.22461,-4.47461 44.825516,44.825516 0 0 1 0.66992,-4.43164 44.825516,44.825516 0 0 1 1.10742,-4.3418 44.825516,44.825516 0 0 1 1.53711,-4.20898 44.825516,44.825516 0 0 1 1.94922,-4.03321 44.825516,44.825516 0 0 1 2.3418,-3.82031 44.825516,44.825516 0 0 1 2.71093,-3.56641 44.825516,44.825516 0 0 1 3.05469,-3.27929 44.825516,44.825516 0 0 1 3.36719,-2.95703 44.825516,44.825516 0 0 1 3.64453,-2.60547 44.825516,44.825516 0 0 1 3.88672,-2.23047 44.825516,44.825516 0 0 1 4.08984,-1.83008 44.825516,44.825516 0 0 1 4.25196,-1.41211 44.825516,44.825516 0 0 1 4.37109,-0.98242 44.825516,44.825516 0 0 1 4.44922,-0.53906 44.825516,44.825516 0 0 1 3.16992,-0.11329 z"
         style="display:inline;fill:#000000;fill-opacity:1;stroke:none;stroke-width:1.23414636" />
      <rect
         inkscape:label="pe"
         y="155.16443"
         x="104.6049"
         height="22.017113"
         width="8.3154764"
         id="rect22"
         style="fill:#000000;stroke-width:0.26275712" />
    </g>
    <g
       id="g30"
       inkscape:label="boneco"
       style="display:inline"
       transform="matrix(2.6181985,0,0,2.6181985,-2.6656312,155.58189)">
      <path
         inkscape:label="corpo"
         sodipodi:nodetypes="ccccccccccccccccccccccccssscssssssscccccccccccccccsssssscc"
         inkscape:connector-curvature="0"
         id="path32"
         d="m 138.43378,126.72173 c -3.87426,1.03943 -4.72471,2.64583 -4.72471,2.64583 l -3.96875,6.61458 -3.1183,5.19718 -3.30729,3.59077 -4.25223,5.00818 3.40178,3.3073 0.75596,-0.0945 1.79538,-1.5119 3.96875,-3.11831 2.07887,-2.55134 1.98438,-2.45684 c 0,0 1.22842,-3.02381 1.60639,1.13393 l 0.94495,3.49628 0.85044,2.45684 c 0,0 0.75596,0.85045 -0.18899,2.17337 0,0 -6.99255,3.77976 -6.42559,5.00818 l -0.0945,4.63021 v 13.70164 h 9.26041 l -0.17012,-6.46072 -0.43485,-2.6293 -0.37837,-2.95848 0.13291,-2.69257 c 0,0 1.5383,-0.34277 3.01402,-0.47322 0.56995,-0.0504 1.14062,-0.009 1.59479,0.007 0.47121,0.0162 0.97338,-0.0734 1.122,0.0272 0.15334,0.10381 0.20425,0.22022 0.28136,0.34463 0.0299,0.0699 0.0714,0.10736 0.10099,0.16271 0.12624,0.23587 0.23946,0.39198 0.37061,0.6681 0.0758,0.15961 0.10228,0.23204 0.16426,0.43515 0.0702,0.23018 0.0982,0.42846 0.16815,0.61996 0.31523,0.86309 0.27382,0.75366 0.45231,1.28877 0.27091,0.81222 0.68012,1.52798 1.03473,2.22934 1.39677,2.76259 2.7189,4.98372 3.93669,6.80335 3.82603,5.71688 6.28092,7.25838 6.28092,7.25838 l 0.14984,0.0383 0.23329,0.0285 0.96885,0.0835 1.42748,-0.10023 c 0,0 2.32322,-0.87693 1.85075,-3.71175 l -0.4653,-0.94453 -7.0706,-11.26882 -0.37247,-1.14699 -0.93667,-2.57081 -2.62017,-6.64988 -1.29149,-4.08991 -0.34057,-1.53854 -0.24453,-2.86959 -0.99767,-15.27026 c 0,0 -0.0141,-0.213 -0.1438,-0.49688 -0.20104,-0.44003 -0.85393,-1.05476 -1.48742,-1.65364 -1.0005,-0.94584 -2.18571,-1.8567 -4.71566,-1.86743 -0.1797,-7.6e-4 -0.34869,0.01 -0.62158,0.01 -0.17385,0 -0.52799,-0.01 -0.70918,0.01 -2.06281,0.22215 -2.87978,0.91136 -2.99863,0.91643 -0.23505,0.01 2.14818,-0.76882 2.14818,-0.76882 z"
         style="display:inline;fill:#000000;stroke:#000000;stroke-width:0.26458332px;stroke-linecap:butt;stroke-linejoin:miter;stroke-opacity:1" />
      <circle
         inkscape:label="cabeca"
         r="6.6149206"
         cy="119.33257"
         cx="139.44788"
         id="path26"
         style="display:inline;fill:#000000;stroke-width:0.30816174" />
    </g>
  </g>
  <line
     stroke-miterlimit="10"
     x1="107.68687"
     y1="101.51497"
     x2="432.36673"
     y2="436.28616"
     id="line612"
     style="display:inline;fill:none;stroke:#c50000;stroke-width:54.96069336;stroke-miterlimit:10"
     inkscape:label="tarja" />
</svg>
