<?xml version="1.0" encoding="utf-8"?>
<!-- Generator: Adobe Illustrator 15.0.2, SVG Export Plug-In . SVG Version: 6.00 Build 0)  -->
<!DOCTYPE svg PUBLIC "-//W3C//DTD SVG 1.1//EN" "http://www.w3.org/Graphics/SVG/1.1/DTD/svg11.dtd">
<svg version="1.1"
	 id="svg2" inkscape:version="0.48.2 r9819" sodipodi:docname="AJAX1.svg" xmlns:rdf="http://www.w3.org/1999/02/22-rdf-syntax-ns#" xmlns:cc="http://creativecommons.org/ns#" xmlns:dc="http://purl.org/dc/elements/1.1/" xmlns:sodipodi="http://sodipodi.sourceforge.net/DTD/sodipodi-0.dtd" xmlns:svg="http://www.w3.org/2000/svg" xmlns:inkscape="http://www.inkscape.org/namespaces/inkscape" sodipodi:version="0.32"
	 xmlns="http://www.w3.org/2000/svg" xmlns:xlink="http://www.w3.org/1999/xlink" x="0px" y="0px" width="525.477px"
	 height="525.477px" viewBox="0 0 525.477 525.477" enable-background="new 0 0 525.477 525.477" xml:space="preserve">
<sodipodi:namedview  width="601px" height="601px" inkscape:pageopacity="0.0" inkscape:window-y="-8" fit-margin-right="0" inkscape:current-layer="layer1" fit-margin-bottom="0" inkscape:window-x="-8" inkscape:window-height="1004" inkscape:pageshadow="2" inkscape:window-width="1280" id="base" objecttolerance="10" inkscape:cy="235.04871" showgrid="false" borderopacity="1.0" pagecolor="#ffffff" bordercolor="#666666" inkscape:cx="369.80155" guidetolerance="10" fit-margin-left="0" gridtolerance="10000" inkscape:zoom="0.64333334" fit-margin-top="0" inkscape:window-maximized="1" inkscape:document-units="px">
	</sodipodi:namedview>
<g>
	<path id="rect3651" inkscape:connector-curvature="0" fill="#C50000" d="M274.647,0.508C129.372-6.089,7.106,105.556,0.509,250.832
		c-6.598,145.273,105.046,267.54,250.321,274.137c145.274,6.598,267.541-105.046,274.138-250.321
		C531.566,129.372,419.922,7.107,274.647,0.508z"/>
	<path id="rect4540" fill="#FFFFFF" d="M272.378,50.458L272.378,50.458c-117.24-5.324-216.598,85.401-221.921,202.641l0,0
		c-5.324,117.24,85.401,216.597,202.642,221.921l0,0c117.239,5.324,216.596-85.401,221.921-202.642l0,0
		C480.344,155.139,389.619,55.782,272.378,50.458z"/>
</g>
<path fill="none" stroke="#C50000" stroke-width="55" stroke-miterlimit="10" d="M422.239,427.739"/>
<path fill="none" stroke="#C50000" stroke-width="55" stroke-miterlimit="10" d="M92.239,97.738"/>
<g>
	<g>
		<path d="M239.363,323.886l-58.8,92.399c-0.94,0.941-2.1,1.4-3.5,1.4c-1.87,0-3.041-0.459-3.5-1.4l-57.4-89.6
			c-0.941-1.859-1.521-3.15-1.75-3.85c-0.241-0.7-0.35-2.21-0.35-4.551v-2.8c0-0.459,0.229-0.93,0.7-1.399l2.8-2.801h3.5
			c5.6,0,10.959,0.471,16.1,1.4c5.129,0.94,10.5,1.4,16.1,1.4v-121.8c0-1.859,0.58-5.709,1.75-11.55
			c1.159-5.83,2.209-9.45,3.15-10.85c7.022-24.73,20.825-44.209,41.431-58.45c20.595-14.229,43.531-21.35,68.819-21.35
			c14.044,0,27.847,2.691,41.421,8.05c13.572,5.37,25.626,12.72,36.158,22.05c10.533,9.341,19.076,20.42,25.639,33.25
			c6.551,12.841,9.832,26.72,9.832,41.65v207.2h-46.9v-208.6c-0.47-0.93-0.939-2.33-1.399-4.2c-0.47-0.93-0.94-2.1-1.399-3.5
			c-0.471-1.4-0.701-2.559-0.701-3.5c-5.162-13.529-13.617-24.609-25.342-33.25c-11.725-8.629-24.631-12.95-38.707-12.95
			c-7.044,0-14.318,1.52-21.821,4.55c-7.503,3.041-14.547,7.241-21.109,12.6c-6.574,5.37-11.966,11.44-16.188,18.2
			c-4.222,6.77-6.333,13.65-6.333,20.65v121.8c5.13,0,10.03-0.46,14.7-1.4c4.659-0.93,9.559-1.4,14.7-1.4
			c0.459,0,1.98,0.121,4.55,0.351c2.559,0.24,3.85,1.05,3.85,2.45V323.886z"/>
	</g>
</g>
<line fill="none" stroke="#C50000" stroke-width="55" stroke-miterlimit="10" x1="97.739" y1="97.739" x2="427.739" y2="427.739"/>
</svg>
