<?xml version="1.0" encoding="utf-8"?>
<!-- Generator: Adobe Illustrator 15.0.2, SVG Export Plug-In . SVG Version: 6.00 Build 0)  -->
<!DOCTYPE svg PUBLIC "-//W3C//DTD SVG 1.1//EN" "http://www.w3.org/Graphics/SVG/1.1/DTD/svg11.dtd">
<svg version="1.1"
	 id="svg2" inkscape:version="0.48.2 r9819" sodipodi:docname="AJAX1.svg" xmlns:rdf="http://www.w3.org/1999/02/22-rdf-syntax-ns#" xmlns:cc="http://creativecommons.org/ns#" xmlns:dc="http://purl.org/dc/elements/1.1/" xmlns:sodipodi="http://sodipodi.sourceforge.net/DTD/sodipodi-0.dtd" xmlns:svg="http://www.w3.org/2000/svg" xmlns:inkscape="http://www.inkscape.org/namespaces/inkscape" sodipodi:version="0.32"
	 xmlns="http://www.w3.org/2000/svg" xmlns:xlink="http://www.w3.org/1999/xlink" x="0px" y="0px" width="525.477px"
	 height="525.477px" viewBox="0 0 525.477 525.477" enable-background="new 0 0 525.477 525.477" xml:space="preserve">
<sodipodi:namedview  width="601px" height="601px" inkscape:pageopacity="0.0" inkscape:window-y="-8" fit-margin-right="0" inkscape:current-layer="layer1" fit-margin-bottom="0" inkscape:window-x="-8" inkscape:window-height="1004" inkscape:pageshadow="2" inkscape:window-width="1280" id="base" objecttolerance="10" inkscape:cy="235.04871" showgrid="false" borderopacity="1.0" pagecolor="#ffffff" bordercolor="#666666" inkscape:cx="369.80155" guidetolerance="10" fit-margin-left="0" gridtolerance="10000" inkscape:zoom="0.64333334" fit-margin-top="0" inkscape:window-maximized="1" inkscape:document-units="px">
	</sodipodi:namedview>
<g>
	<path id="rect3651" inkscape:connector-curvature="0" fill="#C50000" d="M274.647,0.508C129.372-6.089,7.106,105.556,0.509,250.832
		c-6.598,145.273,105.046,267.54,250.321,274.137c145.274,6.598,267.541-105.046,274.138-250.321
		C531.566,129.372,419.922,7.107,274.647,0.508z"/>
	<path id="rect4540" fill="#FFFFFF" d="M272.378,50.458L272.378,50.458c-117.24-5.324-216.598,85.401-221.921,202.641l0,0
		c-5.324,117.24,85.401,216.597,202.642,221.921l0,0c117.239,5.324,216.596-85.401,221.921-202.642l0,0
		C480.344,155.139,389.619,55.782,272.378,50.458z"/>
</g>
<path fill="none" stroke="#C50000" stroke-width="55" stroke-miterlimit="10" d="M422.239,427.739"/>
<path fill="none" stroke="#C50000" stroke-width="55" stroke-miterlimit="10" d="M92.239,97.738"/>
<g>
	<g>
		<path d="M270.791,314.086c0-1.4,1.159-2.21,3.5-2.45c2.329-0.229,3.96-0.351,4.899-0.351c5.131,0,10.03,0.471,14.701,1.4
			c4.658,0.94,9.559,1.4,14.699,1.4v-121.8c0-7-2.1-13.88-6.3-20.65c-4.2-6.76-9.57-12.83-16.101-18.2
			c-6.54-5.359-13.54-9.56-21-12.6c-7.47-3.03-14.699-4.55-21.699-4.55c-14.47,0-27.541,4.32-39.2,12.95
			c-11.67,8.641-19.84,19.721-24.5,33.25c-0.47,0.941-0.82,2.1-1.05,3.5c-0.241,1.4-0.591,2.57-1.05,3.5
			c-0.47,1.871-0.94,3.271-1.4,4.2v208.6h-46.9v-207.2c0-14.93,3.259-28.809,9.8-41.65c6.53-12.83,15.05-23.909,25.55-33.25
			c10.5-9.33,22.509-16.68,36.05-22.05c13.53-5.359,27.3-8.05,41.3-8.05c12.6,0,24.73,1.871,36.4,5.6
			c11.659,3.741,22.4,9.1,32.199,16.1c9.801,7,18.201,15.4,25.201,25.2c7,9.8,12.359,20.771,16.1,32.9c0.459,1.4,1.4,5.02,2.8,10.85
			c1.399,5.841,2.101,9.691,2.101,11.55v121.8c5.129,0,10.379-0.46,15.75-1.4c5.359-0.93,10.609-1.4,15.75-1.4h4.199l2.801,2.801
			v4.199c0,2.341,0,3.851,0,4.551c0,0.699-0.471,1.99-1.4,3.85l-57.4,89.6c-0.94,0.941-2.1,1.4-3.5,1.4s-2.57-0.459-3.5-1.4
			l-58.8-92.399V314.086z"/>
	</g>
</g>
<line fill="none" stroke="#C50000" stroke-width="55" stroke-miterlimit="10" x1="97.739" y1="97.739" x2="427.739" y2="427.739"/>
</svg>
