<?xml version="1.0" encoding="utf-8"?>
<!-- Generator: Adobe Illustrator 15.0.2, SVG Export Plug-In . SVG Version: 6.00 Build 0)  -->
<!DOCTYPE svg PUBLIC "-//W3C//DTD SVG 1.1//EN" "http://www.w3.org/Graphics/SVG/1.1/DTD/svg11.dtd">
<svg version="1.1"
	 id="svg2" inkscape:version="0.48.2 r9819" sodipodi:docname="AJAX1.svg" xmlns:rdf="http://www.w3.org/1999/02/22-rdf-syntax-ns#" xmlns:cc="http://creativecommons.org/ns#" xmlns:dc="http://purl.org/dc/elements/1.1/" xmlns:sodipodi="http://sodipodi.sourceforge.net/DTD/sodipodi-0.dtd" xmlns:svg="http://www.w3.org/2000/svg" xmlns:inkscape="http://www.inkscape.org/namespaces/inkscape" sodipodi:version="0.32"
	 xmlns="http://www.w3.org/2000/svg" xmlns:xlink="http://www.w3.org/1999/xlink" x="0px" y="0px" width="525.477px"
	 height="525.477px" viewBox="0 0 525.477 525.477" enable-background="new 0 0 525.477 525.477" xml:space="preserve">
<sodipodi:namedview  width="601px" height="601px" inkscape:pageopacity="0.0" inkscape:window-y="-8" fit-margin-right="0" inkscape:current-layer="layer1" fit-margin-bottom="0" inkscape:window-x="-8" inkscape:window-height="1004" inkscape:pageshadow="2" inkscape:window-width="1280" id="base" objecttolerance="10" inkscape:cy="235.04871" showgrid="false" borderopacity="1.0" pagecolor="#ffffff" bordercolor="#666666" inkscape:cx="369.80155" guidetolerance="10" fit-margin-left="0" gridtolerance="10000" inkscape:zoom="0.64333334" fit-margin-top="0" inkscape:window-maximized="1" inkscape:document-units="px">
	</sodipodi:namedview>
<g>
	<path id="rect3651" inkscape:connector-curvature="0" fill="#C50000" d="M274.647,0.508C129.372-6.089,7.106,105.556,0.509,250.832
		c-6.598,145.273,105.046,267.54,250.321,274.137c145.274,6.598,267.541-105.046,274.138-250.321
		C531.566,129.372,419.922,7.107,274.647,0.508z"/>
	<path id="rect4540" fill="#FFFFFF" d="M272.378,50.458L272.378,50.458c-117.24-5.324-216.598,85.401-221.921,202.641l0,0
		c-5.324,117.24,85.401,216.597,202.642,221.921l0,0c117.239,5.324,216.596-85.401,221.921-202.642l0,0
		C480.344,155.139,389.619,55.782,272.378,50.458z"/>
</g>
<path fill="none" stroke="#C50000" stroke-width="55" stroke-miterlimit="10" d="M422.239,427.739"/>
<path fill="none" stroke="#C50000" stroke-width="55" stroke-miterlimit="10" d="M92.239,97.738"/>
<g>
	<path d="M93.025,238.787c45.802-4.722,91.465-4.375,136.996,0.181c11.398,0.726,13.151,8.529,14.943,16.85
		c1.691,9.102,1.43,21.125-1.974,30.755c-1.46,4.651-4.662,7.633-9.062,7.732l-143.773-0.021c-6,0.091-9.172-3.101-10.753-7.69
		c-3.152-8.062-2.709-20.507-1.883-30.756C79.17,242.644,86.198,239.044,93.025,238.787"/>
	<path d="M222.017,229.297c-41.292-3.388-83.621-3.207-122.85-0.02c-0.161-0.01-0.141-0.121-0.121-0.247l8.317-23.208
		c0.302-0.867,0.815-1.476,1.631-1.732c34.093-3.454,69.384-4.002,102.178-0.372c1.288,0.136,2.245,0.765,2.708,2.104l8.367,23.314
		C222.268,229.237,222.229,229.297,222.017,229.297 M88.635,234.065c-0.242,1.203,0.261,2.946,2.135,3.278
		c47.584-4.446,93.992-3.953,139.332,0.186c2.759,0.357,3.887-1.787,3.383-3.589c-3.544-12.516-7.089-24.931-10.653-37.456
		c-0.544-1.682-1.541-3.076-4.218-3.413c-37.929-3.836-76.212-4.722-115.087-0.01c-1.944,0.237-3.695,1.329-4.239,3.443
		C95.733,209.019,92.18,221.544,88.635,234.065z"/>
	<path d="M86.118,295.595h150.669c6.988,0,7.613,10.773,0,10.773H86.118C78.486,306.369,79.12,295.595,86.118,295.595"/>
	<path d="M208.232,310.236c-0.544,0.061-0.906,0.363-0.946,0.866c0,6.625,0.02,13.25,0.02,19.875
		c0.021,2.769,2.135,4.552,4.964,4.651c4.198,0,8.387,0,12.596,0c2.235-0.141,4.984-1.369,4.944-4.651
		c0-6.625,0.01-13.25,0.01-19.875c-0.01-0.464-0.363-0.847-0.937-0.866C221.997,310.236,215.119,310.236,208.232,310.236"/>
	<path d="M114.371,310.236c0.564,0.061,0.907,0.363,0.946,0.866c0,6.625,0,13.25,0,19.875c-0.02,2.769-2.134,4.552-4.974,4.651
		c-4.198,0-8.397,0-12.585,0c-2.235-0.141-4.995-1.369-4.964-4.651c0-6.625,0-13.25,0-19.875c0.01-0.464,0.362-0.847,0.937-0.866
		C100.617,310.236,107.484,310.236,114.371,310.236"/>
</g>
<g>
	<path d="M284.604,238.787c45.803-4.722,91.466-4.375,136.996,0.181c11.398,0.726,13.151,8.529,14.942,16.85
		c1.691,9.102,1.431,21.125-1.974,30.755c-1.46,4.651-4.662,7.633-9.061,7.732l-143.773-0.021c-6.001,0.091-9.172-3.101-10.753-7.69
		c-3.151-8.062-2.71-20.507-1.884-30.756C270.75,242.644,277.778,239.044,284.604,238.787"/>
	<path d="M413.595,229.297c-41.292-3.388-83.62-3.207-122.849-0.02c-0.161-0.01-0.141-0.121-0.121-0.247l8.316-23.208
		c0.303-0.867,0.816-1.476,1.632-1.732c34.094-3.454,69.384-4.002,102.178-0.372c1.288,0.136,2.245,0.765,2.709,2.104l8.367,23.314
		C413.847,229.237,413.808,229.297,413.595,229.297 M280.214,234.065c-0.242,1.203,0.263,2.946,2.135,3.278
		c47.585-4.446,93.992-3.953,139.332,0.186c2.76,0.357,3.887-1.787,3.383-3.589c-3.544-12.516-7.088-24.931-10.653-37.456
		c-0.543-1.682-1.54-3.076-4.218-3.413c-37.929-3.836-76.211-4.722-115.086-0.01c-1.944,0.237-3.696,1.329-4.239,3.443
		C287.313,209.019,283.758,221.544,280.214,234.065z"/>
	<path d="M277.697,295.595h150.67c6.988,0,7.612,10.773,0,10.773h-150.67C270.066,306.369,270.7,295.595,277.697,295.595"/>
	<path d="M399.812,310.236c-0.544,0.061-0.905,0.363-0.946,0.866c0,6.625,0.02,13.25,0.02,19.875
		c0.021,2.769,2.136,4.552,4.964,4.651c4.199,0,8.388,0,12.597,0c2.234-0.141,4.984-1.369,4.943-4.651
		c0-6.625,0.011-13.25,0.011-19.875c-0.011-0.464-0.363-0.847-0.938-0.866C413.576,310.236,406.699,310.236,399.812,310.236"/>
	<path d="M305.951,310.236c0.563,0.061,0.906,0.363,0.946,0.866c0,6.625,0,13.25,0,19.875c-0.021,2.769-2.134,4.552-4.976,4.651
		c-4.197,0-8.396,0-12.584,0c-2.235-0.141-4.995-1.369-4.965-4.651c0-6.625,0-13.25,0-19.875c0.011-0.464,0.362-0.847,0.937-0.866
		C292.196,310.236,299.064,310.236,305.951,310.236"/>
</g>
<line fill="none" stroke="#C50000" stroke-width="55" stroke-miterlimit="10" x1="92.239" y1="97.739" x2="422.239" y2="427.739"/>
</svg>
