<?xml version="1.0" encoding="utf-8"?>
<!-- Generator: Adobe Illustrator 15.0.2, SVG Export Plug-In . SVG Version: 6.00 Build 0)  -->
<!DOCTYPE svg PUBLIC "-//W3C//DTD SVG 1.1//EN" "http://www.w3.org/Graphics/SVG/1.1/DTD/svg11.dtd">
<svg version="1.1"
	 id="svg2" inkscape:version="0.48.2 r9819" sodipodi:docname="AJAX1.svg" xmlns:rdf="http://www.w3.org/1999/02/22-rdf-syntax-ns#" xmlns:cc="http://creativecommons.org/ns#" xmlns:dc="http://purl.org/dc/elements/1.1/" xmlns:sodipodi="http://sodipodi.sourceforge.net/DTD/sodipodi-0.dtd" xmlns:svg="http://www.w3.org/2000/svg" xmlns:inkscape="http://www.inkscape.org/namespaces/inkscape" sodipodi:version="0.32"
	 xmlns="http://www.w3.org/2000/svg" xmlns:xlink="http://www.w3.org/1999/xlink" x="0px" y="0px" width="525.477px"
	 height="525.477px" viewBox="0 0 525.477 525.477" enable-background="new 0 0 525.477 525.477" xml:space="preserve">
<sodipodi:namedview  width="601px" height="601px" inkscape:pageopacity="0.0" inkscape:window-y="-8" fit-margin-right="0" inkscape:current-layer="layer1" fit-margin-bottom="0" inkscape:window-x="-8" inkscape:window-height="1004" inkscape:pageshadow="2" inkscape:window-width="1280" id="base" objecttolerance="10" inkscape:cy="235.04871" showgrid="false" borderopacity="1.0" pagecolor="#ffffff" bordercolor="#666666" inkscape:cx="369.80155" guidetolerance="10" fit-margin-left="0" gridtolerance="10000" inkscape:zoom="0.64333334" fit-margin-top="0" inkscape:window-maximized="1" inkscape:document-units="px">
	</sodipodi:namedview>
<g>
	<path id="rect3651" inkscape:connector-curvature="0" fill="#C50000" d="M274.647,0.508C129.372-6.089,7.106,105.556,0.509,250.832
		c-6.598,145.273,105.046,267.54,250.321,274.137c145.274,6.598,267.541-105.046,274.138-250.321
		C531.566,129.372,419.922,7.107,274.647,0.508z"/>
	<path id="rect4540" fill="#FFFFFF" d="M272.378,50.458L272.378,50.458c-117.24-5.324-216.598,85.401-221.921,202.641l0,0
		c-5.324,117.24,85.401,216.597,202.642,221.921l0,0c117.239,5.324,216.596-85.401,221.921-202.642l0,0
		C480.344,155.139,389.619,55.782,272.378,50.458z"/>
</g>
<path fill="none" stroke="#C50000" stroke-width="55" stroke-miterlimit="10" d="M422.239,427.739"/>
<path fill="none" stroke="#C50000" stroke-width="55" stroke-miterlimit="10" d="M92.239,97.738"/>
<path id="path5448" inkscape:connector-curvature="0" sodipodi:nodetypes="ccccc" d="M246.634,87.436h32.209v350.604h-32.209V87.436
	z"/>
<path id="path3779" inkscape:connector-curvature="0" d="M186.327,81.598l-51.504,86.243h27.7v22.897
	c-0.598,78.181,17.277,86.856,25.616,89.897c65.915,23.221,109.103,26.533,129.56,49.752c11.363,9.951,9.07,46.447,6.797,92.889
	h54.555c0-43.125,4.553-92.902-11.357-119.441c-4.549-19.902-56.822-46.44-93.191-53.074c-44.291-14.692-65.379-8.594-64.885-60.022
	V167.84h28.214L186.327,81.598L186.327,81.598z"/>
<line fill="none" stroke="#C50000" stroke-width="55" stroke-miterlimit="10" x1="92.239" y1="97.739" x2="422.239" y2="427.739"/>
</svg>
