<?xml version="1.0" encoding="UTF-8" standalone="no"?>
<!-- Generator: Adobe Illustrator 15.0.2, SVG Export Plug-In . SVG Version: 6.00 Build 0)  -->

<svg
   xmlns:dc="http://purl.org/dc/elements/1.1/"
   xmlns:cc="http://creativecommons.org/ns#"
   xmlns:rdf="http://www.w3.org/1999/02/22-rdf-syntax-ns#"
   xmlns:svg="http://www.w3.org/2000/svg"
   xmlns="http://www.w3.org/2000/svg"
   xmlns:sodipodi="http://sodipodi.sourceforge.net/DTD/sodipodi-0.dtd"
   xmlns:inkscape="http://www.inkscape.org/namespaces/inkscape"
   version="1.0"
   id="Layer_1"
   x="0px"
   y="0px"
   width="50.492023"
   height="50.493141"
   viewBox="0 0 50.492024 50.493142"
   enable-background="new 0 0 50.292 50.293"
   xml:space="preserve"
   inkscape:version="0.48.4 r9939"
   sodipodi:docname="Ajax.svg"><metadata
   id="metadata19"><rdf:RDF><cc:Work
       rdf:about=""><dc:format>image/svg+xml</dc:format><dc:type
         rdf:resource="http://purl.org/dc/dcmitype/StillImage" /></cc:Work></rdf:RDF></metadata><defs
   id="defs17" /><sodipodi:namedview
   pagecolor="#ffffff"
   bordercolor="#666666"
   borderopacity="1"
   objecttolerance="10"
   gridtolerance="10"
   guidetolerance="10"
   inkscape:pageopacity="0"
   inkscape:pageshadow="2"
   inkscape:window-width="1280"
   inkscape:window-height="1001"
   id="namedview15"
   showgrid="false"
   fit-margin-top="0.1"
   fit-margin-bottom="0.1"
   fit-margin-right="0.1"
   fit-margin-left="0.1"
   inkscape:zoom="13.2724"
   inkscape:cx="24.513228"
   inkscape:cy="22.348306"
   inkscape:window-x="-8"
   inkscape:window-y="-8"
   inkscape:window-maximized="1"
   inkscape:current-layer="Layer_1" />
<path
   clip-rule="evenodd"
   d="m 49.384136,22.547769 -21.578,-21.4529999 c -1.421,-1.41300005 -3.838,-1.30800005 -5.37,0.234 L 1.3121366,22.574769 c -1.53300001,1.542 -1.62400001,3.959 -0.204,5.371 l 21.5779994,21.453 c 1.42,1.412 3.836,1.308 5.37,-0.234 l 21.125,-21.247 c 1.531,-1.541 1.623,-3.957 0.203,-5.37"
   id="path3"
   style="fill:#ffd700;fill-opacity:1;fill-rule:evenodd;stroke:none"
   inkscape:connector-curvature="0" />
<path
   clip-rule="evenodd"
   d="m 47.990136,23.465769 -21.094,-20.9739999 c -0.919,-0.914 -2.483,-0.846 -3.474,0.152 L 2.6321366,23.552769 c -0.992,0.997 -1.051,2.562 -0.131,3.476 l 21.0939994,20.974 c 0.92,0.913 2.482,0.846 3.475,-0.152 l 20.791,-20.909 c 0.99,-0.998 1.049,-2.562 0.129,-3.476"
   id="path5"
   style="fill:#ffd700;fill-opacity:1;fill-rule:evenodd;stroke:none"
   inkscape:connector-curvature="0" />
<path
   stroke-miterlimit="2.613"
   d="m 47.990136,23.465769 -21.094,-20.9739999 c -0.919,-0.914 -2.483,-0.846 -3.474,0.152 L 2.6321366,23.552769 c -0.992,0.997 -1.051,2.562 -0.131,3.476 l 21.0939994,20.974 c 0.92,0.913 2.482,0.846 3.475,-0.152 l 20.791,-20.909 c 0.99,-0.998 1.049,-2.562 0.129,-3.476 z"
   id="path7"
   inkscape:connector-curvature="0"
   style="fill:none;stroke:#000000;stroke-width:1.63;stroke-miterlimit:2.61299992" />
<path
   clip-rule="evenodd"
   d="m 25.667136,14.013769 c 0.004,0.006 0.01,0.012 0.015,0.018 5.47,-0.348 9.546,2.768 11.407,6.436 0.016,0.028 0.016,0.06 -0.008,0.089 l -2.486,1.982 c -0.045,0.046 -0.109,0.023 -0.135,-0.034 -1.443,-3.165 -3.834,-5.446 -8.092,-5.984 0.002,0.007 0.002,0.013 0.004,0.02 0.678,0.758 1.354,1.516 2.029,2.274 0.24,0.307 -0.059,0.944 -0.633,0.841 -3.055,-0.728 -6.11,-1.455 -9.165,-2.182 -0.215,-0.062 -0.212,-0.168 -0.111,-0.293 2.262,-2.19 4.524,-4.381 6.786,-6.572 0.451,-0.407 1.039,-0.148 0.993,0.397 -0.201,1.002 -0.402,2.006 -0.604,3.008"
   id="path9"
   inkscape:connector-curvature="0"
   style="fill-rule:evenodd;stroke:none;fill:#000000" />
<path
   clip-rule="evenodd"
   d="m 15.098136,31.151769 c 0.002,-0.007 0.005,-0.015 0.007,-0.021 -3.04,-4.562 -2.383,-9.65 -0.14,-13.099 0.018,-0.027 0.044,-0.043 0.081,-0.038 l 2.961,1.161 c 0.062,0.017 0.075,0.083 0.037,0.133 -2.015,2.835 -2.794,6.046 -1.128,10 0.005,-0.004 0.01,-0.008 0.016,-0.012 0.317,-0.965 0.634,-1.931 0.952,-2.896 0.146,-0.361 0.847,-0.42 1.045,0.127 0.899,3.008 1.799,6.018 2.699,9.026 0.054,0.216 -0.038,0.267 -0.198,0.242 -3.028,-0.861 -6.056,-1.724 -9.086,-2.584 -0.579,-0.187 -0.648,-0.825 -0.154,-1.058 0.969,-0.326 1.938,-0.653 2.908,-0.981"
   id="path11"
   inkscape:connector-curvature="0"
   style="fill-rule:evenodd;stroke:none;fill:#000000" />
<path
   clip-rule="evenodd"
   d="m 35.204136,31.671769 c -0.008,0 -0.016,0.002 -0.023,0.004 -2.438,4.908 -7.178,6.877 -11.283,6.65 -0.032,-10e-4 -0.06,-0.016 -0.073,-0.05 l -0.47,-3.146 c -0.017,-0.063 0.034,-0.107 0.096,-0.1 3.462,0.334 6.634,-0.592 9.232,-4.008 -0.006,-0.002 -0.014,-0.006 -0.02,-0.008 -0.994,0.207 -1.988,0.414 -2.984,0.619 -0.385,0.054 -0.785,-0.524 -0.41,-0.969 2.16,-2.281 4.318,-4.561 6.479,-6.841 0.16,-0.155 0.25,-0.1 0.309,0.05 0.764,3.057 1.525,6.11 2.291,9.165 0.127,0.595 -0.393,0.974 -0.842,0.662 -0.768,-0.674 -1.534,-1.352 -2.302,-2.028"
   id="path13"
   inkscape:connector-curvature="0"
   style="fill-rule:evenodd;stroke:none;fill:#000000" />
</svg>