<?xml version="1.0" encoding="UTF-8" standalone="no"?>
<!-- Generator: Adobe Illustrator 15.0.2, SVG Export Plug-In . SVG Version: 6.00 Build 0)  -->

<svg
   xmlns:dc="http://purl.org/dc/elements/1.1/"
   xmlns:cc="http://creativecommons.org/ns#"
   xmlns:rdf="http://www.w3.org/1999/02/22-rdf-syntax-ns#"
   xmlns:svg="http://www.w3.org/2000/svg"
   xmlns="http://www.w3.org/2000/svg"
   xmlns:sodipodi="http://sodipodi.sourceforge.net/DTD/sodipodi-0.dtd"
   xmlns:inkscape="http://www.inkscape.org/namespaces/inkscape"
   version="1.0"
   id="Layer_1"
   x="0px"
   y="0px"
   width="50.491627"
   height="50.493141"
   viewBox="0 0 50.491627 50.493142"
   enable-background="new 0 0 50.292 50.293"
   xml:space="preserve"
   inkscape:version="0.48.4 r9939"
   sodipodi:docname="Ajax.svg"><metadata
   id="metadata21"><rdf:RDF><cc:Work
       rdf:about=""><dc:format>image/svg+xml</dc:format><dc:type
         rdf:resource="http://purl.org/dc/dcmitype/StillImage" /></cc:Work></rdf:RDF></metadata><defs
   id="defs19" /><sodipodi:namedview
   pagecolor="#ffffff"
   bordercolor="#666666"
   borderopacity="1"
   objecttolerance="10"
   gridtolerance="10"
   guidetolerance="10"
   inkscape:pageopacity="0"
   inkscape:pageshadow="2"
   inkscape:window-width="1280"
   inkscape:window-height="1001"
   id="namedview17"
   showgrid="false"
   fit-margin-top="0.1"
   fit-margin-bottom="0.1"
   fit-margin-right="0.1"
   fit-margin-left="0.1"
   inkscape:zoom="9.385004"
   inkscape:cx="20.633949"
   inkscape:cy="20.529527"
   inkscape:window-x="-8"
   inkscape:window-y="-8"
   inkscape:window-maximized="1"
   inkscape:current-layer="Layer_1" />
<path
   clip-rule="evenodd"
   d="m 49.382636,22.547022 -21.577,-21.4530005 c -1.42,-1.41199996 -3.836,-1.30699996 -5.369,0.234 L 1.3116364,22.575022 c -1.532,1.541 -1.624,3.957 -0.203,5.37 l 21.5769996,21.453 c 1.421,1.413 3.837,1.309 5.37,-0.234 l 21.124,-21.246 c 1.533,-1.541 1.624,-3.958 0.203,-5.371"
   id="path3"
   style="fill:#ffd700;fill-opacity:1;fill-rule:evenodd;stroke:none"
   inkscape:connector-curvature="0" />
<path
   clip-rule="evenodd"
   d="m 47.991636,23.465022 -21.095,-20.9740005 c -0.92,-0.914 -2.482,-0.845 -3.475,0.152 L 2.6316364,23.552022 c -0.991,0.997 -1.05,2.561 -0.131,3.475 l 21.0949996,20.975 c 0.919,0.914 2.483,0.846 3.474,-0.151 l 20.79,-20.91 c 0.992,-0.998 1.052,-2.562 0.132,-3.476"
   id="path5"
   style="fill:#ffd700;fill-opacity:1;fill-rule:evenodd;stroke:none"
   inkscape:connector-curvature="0" />
<path
   stroke-miterlimit="2.613"
   d="m 47.991636,23.465022 -21.095,-20.9740005 c -0.92,-0.914 -2.482,-0.845 -3.475,0.152 L 2.6316364,23.552022 c -0.991,0.997 -1.05,2.561 -0.131,3.475 l 21.0949996,20.975 c 0.919,0.914 2.483,0.846 3.474,-0.151 l 20.79,-20.91 c 0.992,-0.998 1.052,-2.562 0.132,-3.476 z"
   id="path7"
   style="fill:none;stroke:#000000;stroke-width:1.55599999;stroke-miterlimit:2.61299992;stroke-dasharray:none"
   inkscape:connector-curvature="0" />
<rect
   x="20.295635"
   y="11.694021"
   width="10.027"
   height="27.058001"
   id="rect9"
   style="fill:#000000;stroke:none" />
<path
   clip-rule="evenodd"
   d="m 25.268636,12.847022 c 2.058,0 3.727,1.669 3.727,3.726 0,2.057 -1.669,3.726 -3.727,3.726 -2.058,0 -3.726,-1.669 -3.726,-3.726 0,-2.057 1.668,-3.726 3.726,-3.726"
   id="path11"
   inkscape:connector-curvature="0"
   style="fill:#be0027;fill-rule:evenodd;stroke:none" />
<path
   clip-rule="evenodd"
   d="m 25.268636,21.458022 c 2.058,0 3.727,1.668 3.727,3.726 0,2.057 -1.669,3.725 -3.727,3.725 -2.058,0 -3.726,-1.668 -3.726,-3.725 0,-2.058 1.668,-3.726 3.726,-3.726"
   id="path13"
   inkscape:connector-curvature="0"
   style="fill:#ffd700;fill-rule:evenodd;stroke:none;fill-opacity:1" />
<path
   clip-rule="evenodd"
   d="m 25.268636,30.069022 c 2.058,0 3.727,1.668 3.727,3.726 0,2.057 -1.669,3.726 -3.727,3.726 -2.058,0 -3.726,-1.669 -3.726,-3.726 0,-2.058 1.668,-3.726 3.726,-3.726"
   id="path15"
   inkscape:connector-curvature="0"
   style="fill:#239d46;fill-rule:evenodd;stroke:none" />
</svg>