<?xml version="1.0" encoding="UTF-8" standalone="no"?>
<!-- Generator: Adobe Illustrator 15.0.2, SVG Export Plug-In . SVG Version: 6.00 Build 0)  -->

<svg
   xmlns:dc="http://purl.org/dc/elements/1.1/"
   xmlns:cc="http://creativecommons.org/ns#"
   xmlns:rdf="http://www.w3.org/1999/02/22-rdf-syntax-ns#"
   xmlns:svg="http://www.w3.org/2000/svg"
   xmlns="http://www.w3.org/2000/svg"
   xmlns:sodipodi="http://sodipodi.sourceforge.net/DTD/sodipodi-0.dtd"
   xmlns:inkscape="http://www.inkscape.org/namespaces/inkscape"
   version="1.0"
   id="Layer_1"
   x="0px"
   y="0px"
   width="50.194374"
   height="50.194061"
   viewBox="0 0 50.194374 50.194062"
   enable-background="new 0 0 50.292 50.293"
   xml:space="preserve"
   inkscape:version="0.48.4 r9939"
   sodipodi:docname="Ajax.svg"><metadata
   id="metadata17"><rdf:RDF><cc:Work
       rdf:about=""><dc:format>image/svg+xml</dc:format><dc:type
         rdf:resource="http://purl.org/dc/dcmitype/StillImage" /></cc:Work></rdf:RDF></metadata><defs
   id="defs15" /><sodipodi:namedview
   pagecolor="#ffffff"
   bordercolor="#666666"
   borderopacity="1"
   objecttolerance="10"
   gridtolerance="10"
   guidetolerance="10"
   inkscape:pageopacity="0"
   inkscape:pageshadow="2"
   inkscape:window-width="1280"
   inkscape:window-height="1001"
   id="namedview13"
   showgrid="false"
   fit-margin-top="0.1"
   fit-margin-bottom="0.1"
   fit-margin-right="0.1"
   fit-margin-left="0.1"
   inkscape:zoom="13.2724"
   inkscape:cx="21.180675"
   inkscape:cy="22.832889"
   inkscape:window-x="-8"
   inkscape:window-y="-8"
   inkscape:window-maximized="1"
   inkscape:current-layer="Layer_1" />
<path
   clip-rule="evenodd"
   d="m 49.090866,22.414603 -21.45,-21.326 c -1.412,-1.40399996 -3.813,-1.29999996 -5.337,0.232 l -21.0000003,21.121 c -1.52200009,1.532 -1.61400009,3.934 -0.201,5.338 l 21.4490003,21.326 c 1.412,1.404 3.816,1.299 5.337,-0.23 l 21,-21.123 c 1.524,-1.531 1.616,-3.934 0.202,-5.338"
   id="path3"
   style="fill:#ffd700;fill-opacity:1;fill-rule:evenodd;stroke:none"
   inkscape:connector-curvature="0" />
<path
   clip-rule="evenodd"
   d="m 47.707866,23.326603 -20.969,-20.849 c -0.916,-0.909 -2.47,-0.842 -3.455,0.15 l -20.6660003,20.786 c -0.986,0.992 -1.045,2.546 -0.131,3.456 l 20.9700003,20.849 c 0.914,0.91 2.468,0.842 3.455,-0.15 l 20.666,-20.785 c 0.983,-0.993 1.044,-2.549 0.13,-3.457"
   id="path5"
   style="fill:#ffd700;fill-opacity:1;fill-rule:evenodd;stroke:none"
   inkscape:connector-curvature="0" />
<path
   stroke-miterlimit="2.613"
   d="m 47.707866,23.326603 -20.969,-20.849 c -0.916,-0.909 -2.47,-0.842 -3.455,0.15 l -20.6660003,20.786 c -0.986,0.992 -1.045,2.546 -0.131,3.456 l 20.9700003,20.849 c 0.914,0.91 2.468,0.842 3.455,-0.15 l 20.666,-20.785 c 0.983,-0.993 1.044,-2.549 0.13,-3.457 z"
   id="path7"
   inkscape:connector-curvature="0"
   style="fill:none;stroke:#000000;stroke-width:1.63;stroke-miterlimit:2.61299992" />
<polyline
   clip-rule="evenodd"
   points="18.847,9.739 22.999,9.739 22.999,20.437 22.997,22.569 19.133,26.451   19.133,35.939 14.981,35.939 14.981,24.055 15.034,24.055 18.847,20.488 18.847,9.739 "
   id="polyline9"
   style="fill-rule:evenodd"
   transform="translate(-0.04913439,0.10060304)" />
<polyline
   clip-rule="evenodd"
   points="31.765,9.739 27.614,9.739 27.614,20.437 27.616,22.569 31.478,26.451   31.478,35.939 35.63,35.939 35.63,24.055 35.579,24.055 31.765,20.488 31.765,9.739 "
   id="polyline11"
   style="fill-rule:evenodd"
   transform="translate(-0.04913439,0.10060304)" />
</svg>