<?xml version="1.0" encoding="UTF-8" standalone="no"?>
<!-- Generator: Adobe Illustrator 15.0.2, SVG Export Plug-In . SVG Version: 6.00 Build 0)  -->

<svg
   xmlns:dc="http://purl.org/dc/elements/1.1/"
   xmlns:cc="http://creativecommons.org/ns#"
   xmlns:rdf="http://www.w3.org/1999/02/22-rdf-syntax-ns#"
   xmlns:svg="http://www.w3.org/2000/svg"
   xmlns="http://www.w3.org/2000/svg"
   xmlns:sodipodi="http://sodipodi.sourceforge.net/DTD/sodipodi-0.dtd"
   xmlns:inkscape="http://www.inkscape.org/namespaces/inkscape"
   version="1.0"
   id="Layer_1"
   x="0px"
   y="0px"
   width="50.195229"
   height="50.909508"
   viewBox="0 0 50.195229 50.909509"
   enable-background="new 0 0 49.966 50.71"
   xml:space="preserve"
   inkscape:version="0.48.4 r9939"
   sodipodi:docname="Ajax.svg"><metadata
   id="metadata21"><rdf:RDF><cc:Work
       rdf:about=""><dc:format>image/svg+xml</dc:format><dc:type
         rdf:resource="http://purl.org/dc/dcmitype/StillImage" /></cc:Work></rdf:RDF></metadata><defs
   id="defs19" /><sodipodi:namedview
   pagecolor="#ffffff"
   bordercolor="#666666"
   borderopacity="1"
   objecttolerance="10"
   gridtolerance="10"
   guidetolerance="10"
   inkscape:pageopacity="0"
   inkscape:pageshadow="2"
   inkscape:window-width="1280"
   inkscape:window-height="1001"
   id="namedview17"
   showgrid="false"
   fit-margin-top="0.1"
   fit-margin-bottom="0.1"
   fit-margin-right="0.1"
   fit-margin-left="0.1"
   inkscape:zoom="13.163258"
   inkscape:cx="36.890601"
   inkscape:cy="22.752739"
   inkscape:window-x="-8"
   inkscape:window-y="-8"
   inkscape:window-maximized="1"
   inkscape:current-layer="Layer_1" />
<path
   clip-rule="evenodd"
   d="m 49.092721,22.73343 -21.452,-21.6309998 c -1.412,-1.42400001 -3.813,-1.31800001 -5.336,0.236 L 1.3047211,22.76043 c -1.52399995,1.554 -1.61399995,3.991 -0.202,5.415 l 21.4499999,21.632 c 1.412,1.424 3.813,1.317 5.336,-0.236 l 21,-21.423 c 1.526,-1.554 1.616,-3.99 0.204,-5.415"
   id="path3"
   style="fill:#ffd700;fill-opacity:1;fill-rule:evenodd;stroke:none"
   inkscape:connector-curvature="0" />
<path
   clip-rule="evenodd"
   d="m 47.707721,23.65843 -20.971,-21.1469998 c -0.913,-0.922 -2.468,-0.853 -3.453,0.153 L 2.6177211,23.74643 c -0.986,1.006 -1.045,2.582 -0.131,3.503 l 20.9699999,21.148 c 0.914,0.922 2.467,0.852 3.454,-0.152 l 20.666,-21.084 c 0.986,-1.004 1.045,-2.581 0.131,-3.503"
   id="path5"
   style="fill:#ffd700;fill-opacity:1;fill-rule:evenodd;stroke:none"
   inkscape:connector-curvature="0" />
<path
   stroke-miterlimit="2.613"
   d="m 47.707721,23.65743 -20.971,-21.1459998 c -0.914,-0.921 -2.467,-0.853 -3.454,0.153 L 2.6177211,23.74643 c -0.986,1.006 -1.045,2.582 -0.131,3.505 l 20.9699999,21.146 c 0.915,0.922 2.468,0.853 3.455,-0.152 l 20.666,-21.084 c 0.985,-1.003 1.044,-2.581 0.13,-3.504 z"
   id="path7"
   inkscape:connector-curvature="0"
   style="fill:none;stroke:#000000;stroke-width:1.64100003;stroke-miterlimit:2.61299992" />
<polyline
   clip-rule="evenodd"
   points="22.823,17.221 22.823,32.131 20.687,37.186 17.357,35.355 19.036,32.141   19.036,17.242 17.357,14.097 20.686,12.295 22.823,17.221 "
   id="polyline9"
   style="fill-rule:evenodd"
   transform="translate(0.11472115,0.09943019)" />
<polygon
   stroke-miterlimit="2.613"
   points="20.688,37.185 17.357,35.355 19.036,32.141 19.036,17.242 17.357,14.098 20.686,12.295 22.823,17.222 22.823,32.131 "
   id="polygon11"
   style="fill:none;stroke:#000000;stroke-width:0.156;stroke-miterlimit:2.61299992"
   transform="translate(0.11472115,0.09943019)" />
<polyline
   clip-rule="evenodd"
   points="27.583,17.221 27.583,32.131 29.718,37.186 33.05,35.355 31.37,32.141   31.37,17.242 33.05,14.097 29.72,12.295 27.583,17.221 "
   id="polyline13"
   style="fill-rule:evenodd"
   transform="translate(0.11472115,0.09943019)" />
<polygon
   stroke-miterlimit="2.613"
   points="29.718,37.185 33.05,35.355 31.37,32.141 31.37,17.242 33.05,14.098 29.72,12.295 27.583,17.222 27.583,32.131 "
   id="polygon15"
   style="fill:none;stroke:#000000;stroke-width:0.156;stroke-miterlimit:2.61299992"
   transform="translate(0.11472115,0.09943019)" />
</svg>