<?xml version="1.0" encoding="UTF-8" standalone="no"?>
<!-- Generator: Adobe Illustrator 15.0.2, SVG Export Plug-In . SVG Version: 6.00 Build 0)  -->

<svg
   xmlns:dc="http://purl.org/dc/elements/1.1/"
   xmlns:cc="http://creativecommons.org/ns#"
   xmlns:rdf="http://www.w3.org/1999/02/22-rdf-syntax-ns#"
   xmlns:svg="http://www.w3.org/2000/svg"
   xmlns="http://www.w3.org/2000/svg"
   xmlns:sodipodi="http://sodipodi.sourceforge.net/DTD/sodipodi-0.dtd"
   xmlns:inkscape="http://www.inkscape.org/namespaces/inkscape"
   version="1.0"
   id="Layer_1"
   x="0px"
   y="0px"
   width="50.193302"
   height="50.910858"
   viewBox="0 0 50.193303 50.910859"
   enable-background="new 0 0 49.994 50.709"
   xml:space="preserve"
   inkscape:version="0.48.4 r9939"
   sodipodi:docname="Ajax.svg"><metadata
   id="metadata31"><rdf:RDF><cc:Work
       rdf:about=""><dc:format>image/svg+xml</dc:format><dc:type
         rdf:resource="http://purl.org/dc/dcmitype/StillImage" /></cc:Work></rdf:RDF></metadata><defs
   id="defs29" /><sodipodi:namedview
   pagecolor="#ffffff"
   bordercolor="#666666"
   borderopacity="1"
   objecttolerance="10"
   gridtolerance="10"
   guidetolerance="10"
   inkscape:pageopacity="0"
   inkscape:pageshadow="2"
   inkscape:window-width="1280"
   inkscape:window-height="1001"
   id="namedview27"
   showgrid="false"
   fit-margin-top="0.1"
   fit-margin-bottom="0.1"
   fit-margin-right="0.1"
   fit-margin-left="0.1"
   inkscape:zoom="13.163517"
   inkscape:cx="34.362302"
   inkscape:cy="24.484331"
   inkscape:window-x="-8"
   inkscape:window-y="-8"
   inkscape:window-maximized="1"
   inkscape:current-layer="Layer_1" />
<path
   clip-rule="evenodd"
   d="m 49.090366,22.73343 -21.449,-21.6309998 c -1.412,-1.42400002 -3.814,-1.31800002 -5.337,0.236 L 1.3043661,22.76143 c -1.52300001,1.554 -1.61400001,3.99 -0.202,5.414 l 21.4499999,21.633 c 1.412,1.424 3.814,1.318 5.338,-0.236 l 21,-21.422 c 1.522,-1.555 1.612,-3.993 0.2,-5.417"
   id="path3"
   style="fill:#ffd700;fill-opacity:1;fill-rule:evenodd;stroke:none"
   inkscape:connector-curvature="0" />
<path
   clip-rule="evenodd"
   d="m 47.707366,23.65843 -20.97,-21.1469998 c -0.912,-0.922 -2.47,-0.853 -3.454,0.152 L 2.6173661,23.74643 c -0.986,1.005 -1.045,2.583 -0.131,3.505 l 20.9699999,21.146 c 0.913,0.922 2.469,0.855 3.455,-0.152 l 20.666,-21.082 c 0.984,-1.006 1.044,-2.583 0.13,-3.505"
   id="path5"
   style="fill:#ffd700;fill-opacity:1;fill-rule:evenodd;stroke:none"
   inkscape:connector-curvature="0" />
<path
   stroke-miterlimit="2.613"
   d="m 47.707366,23.65843 -20.97,-21.1469998 c -0.914,-0.92 -2.47,-0.852 -3.454,0.153 L 2.6163661,23.74743 c -0.986,1.005 -1.044,2.582 -0.131,3.504 l 20.9709999,21.146 c 0.913,0.924 2.469,0.854 3.455,-0.152 l 20.666,-21.082 c 0.984,-1.006 1.043,-2.583 0.13,-3.505 z"
   id="path7"
   inkscape:connector-curvature="0"
   style="fill:none;stroke:#000000;stroke-width:1.64100003;stroke-miterlimit:2.61299992" />
<path
   clip-rule="evenodd"
   d="m 18.319366,15.48543 c 4.38,-0.465 8.746,-0.43 13.101,0.018 1.09,0.071 1.256,0.839 1.428,1.657 0.162,0.896 0.137,2.078 -0.188,3.027 -0.143,0.456 -0.447,0.751 -0.867,0.76 l -13.749,-0.003 c -0.573,0.01 -0.877,-0.304 -1.028,-0.755 -0.302,-0.794 -0.258,-2.018 -0.18,-3.027 0.158,-1.298 0.829,-1.652 1.483,-1.677"
   id="path9"
   inkscape:connector-curvature="0"
   style="fill-rule:evenodd" />
<path
   clip-rule="evenodd"
   d="m 30.653366,14.55143 c -3.947,-0.333 -7.995,-0.315 -11.747,-0.002 -0.015,-10e-4 -0.013,-0.012 -0.011,-0.024 l 0.795,-2.283 c 0.029,-0.085 0.077,-0.145 0.155,-0.17 3.261,-0.34 6.635,-0.394 9.772,-0.037 0.123,0.013 0.215,0.075 0.258,0.207 l 0.799,2.293 c 0.004,0.01 0,0.016 -0.021,0.016 m -12.753,0.469 c -0.024,0.118 0.024,0.29 0.202,0.323 4.551,-0.437 8.99,-0.389 13.326,0.018 0.262,0.035 0.371,-0.177 0.322,-0.353 -0.338,-1.232 -0.68,-2.453 -1.018,-3.685 -0.053,-0.166 -0.148,-0.302 -0.404,-0.336 -3.627,-0.378 -7.289,-0.464 -11.005,0 -0.185,0.023 -0.354,0.13 -0.406,0.338 -0.339,1.232 -0.678,2.463 -1.017,3.695 z"
   id="path11"
   inkscape:connector-curvature="0"
   style="fill-rule:evenodd" />
<path
   clip-rule="evenodd"
   d="m 17.659366,21.07443 h 14.406 c 0.67,0 0.73,1.06 0,1.06 h -14.406 c -0.729,0 -0.67,-1.06 0,-1.06"
   id="path13"
   inkscape:connector-curvature="0"
   style="fill-rule:evenodd" />
<path
   clip-rule="evenodd"
   d="m 29.336366,22.51443 c -0.053,0.005 -0.088,0.036 -0.09,0.086 0,0.651 0,1.303 0,1.954 0.002,0.271 0.205,0.447 0.475,0.458 0.402,0 0.803,0 1.205,0 0.213,-0.014 0.477,-0.134 0.473,-0.458 0,-0.651 0,-1.303 0,-1.954 0,-0.047 -0.033,-0.084 -0.09,-0.086 -0.658,0 -1.314,0 -1.973,0"
   id="path15"
   inkscape:connector-curvature="0"
   style="fill-rule:evenodd" />
<path
   clip-rule="evenodd"
   d="m 20.359366,22.51443 c 0.054,0.005 0.087,0.036 0.091,0.086 -10e-4,0.651 -10e-4,1.303 -10e-4,1.954 -0.001,0.271 -0.205,0.447 -0.475,0.458 -0.401,0 -0.802,0 -1.203,0 -0.215,-0.014 -0.478,-0.134 -0.474,-0.458 -0.001,-0.651 -0.001,-1.303 -0.001,-1.954 0.002,-0.047 0.035,-0.084 0.09,-0.086 0.658,0 1.317,0 1.973,0"
   id="path17"
   inkscape:connector-curvature="0"
   style="fill-rule:evenodd" />
<path
   clip-rule="evenodd"
   d="m 20.016366,26.15743 -1.547,-0.002 -1.396,1.256 c -0.516,0.623 -0.306,1.17 0.968,1.6 0.957,0.355 1.913,0.711 2.87,1.066 0.507,0.256 0.55,0.67 0.131,1.242 -1.824,2.012 -3.648,4.057 -5.473,6.068 l 4.43,-0.02 c 1.287,-1.805 2.672,-3.873 3.959,-5.676 0.513,-0.91 0.183,-1.977 -1.104,-2.516 -1.388,-0.391 -2.773,-0.781 -4.16,-1.172 -0.229,-0.15 -0.248,-0.324 -0.055,-0.521 0.459,-0.44 0.918,-0.883 1.377,-1.325"
   id="path19"
   inkscape:connector-curvature="0"
   style="fill-rule:evenodd" />
<path
   stroke-miterlimit="2.613"
   d="m 20.016366,26.15743 -1.548,-0.002 -1.396,1.256 c -0.515,0.623 -0.305,1.17 0.968,1.6 0.957,0.355 1.914,0.711 2.871,1.066 0.506,0.256 0.549,0.67 0.131,1.242 -1.824,2.012 -3.648,4.057 -5.473,6.068 l 4.429,-0.02 c 1.288,-1.805 2.672,-3.871 3.96,-5.676 0.512,-0.91 0.182,-1.977 -1.107,-2.516 -1.385,-0.391 -2.771,-0.779 -4.158,-1.172 -0.229,-0.15 -0.248,-0.324 -0.056,-0.521 0.461,-0.44 0.919,-0.883 1.379,-1.325 z"
   id="path21"
   inkscape:connector-curvature="0"
   style="fill:none;stroke:#000000;stroke-width:0.156;stroke-miterlimit:2.61299992" />
<path
   clip-rule="evenodd"
   d="m 31.295366,25.92743 h -1.498 c -0.406,0.498 -0.832,1.109 -1.238,1.605 -0.414,0.729 -0.121,1.277 1.193,1.436 0.998,0.207 1.979,0.254 2.977,0.461 0.539,0.176 0.66,0.738 0.33,1.369 l -3.658,6.617 4.346,-0.02 1.852,-6.67 c 0.492,-1.543 -0.314,-2.063 -1.389,-2.369 -1.428,-0.176 -2.531,-0.307 -3.959,-0.482 -0.25,-0.113 -0.293,-0.283 -0.131,-0.506 0.388,-0.508 0.785,-0.934 1.175,-1.441"
   id="path23"
   inkscape:connector-curvature="0"
   style="fill-rule:evenodd" />
<path
   stroke-miterlimit="2.613"
   d="m 31.293366,25.92743 h -1.496 c -0.406,0.498 -0.832,1.109 -1.238,1.605 -0.414,0.73 -0.121,1.277 1.193,1.434 0.998,0.209 1.979,0.254 2.977,0.463 0.539,0.176 0.66,0.738 0.332,1.369 l -3.658,6.617 4.344,-0.02 1.854,-6.668 c 0.49,-1.545 -0.316,-2.064 -1.391,-2.371 -1.428,-0.176 -2.531,-0.307 -3.959,-0.482 -0.25,-0.113 -0.295,-0.283 -0.133,-0.506 0.39,-0.508 0.787,-0.934 1.175,-1.441 z"
   id="path25"
   inkscape:connector-curvature="0"
   style="fill:none;stroke:#000000;stroke-width:0.156;stroke-miterlimit:2.61299992" />
</svg>