<?xml version="1.0" encoding="UTF-8" standalone="no"?>
<!-- Generator: Adobe Illustrator 15.0.2, SVG Export Plug-In . SVG Version: 6.00 Build 0)  -->

<svg
   xmlns:dc="http://purl.org/dc/elements/1.1/"
   xmlns:cc="http://creativecommons.org/ns#"
   xmlns:rdf="http://www.w3.org/1999/02/22-rdf-syntax-ns#"
   xmlns:svg="http://www.w3.org/2000/svg"
   xmlns="http://www.w3.org/2000/svg"
   xmlns:sodipodi="http://sodipodi.sourceforge.net/DTD/sodipodi-0.dtd"
   xmlns:inkscape="http://www.inkscape.org/namespaces/inkscape"
   version="1.0"
   id="Layer_1"
   x="0px"
   y="0px"
   width="50.907871"
   height="50.194557"
   viewBox="0 0 50.907871 50.194556"
   enable-background="new 0 0 50.708 49.949"
   xml:space="preserve"
   inkscape:version="0.48.4 r9939"
   sodipodi:docname="Ajax.svg"><metadata
   id="metadata61"><rdf:RDF><cc:Work
       rdf:about=""><dc:format>image/svg+xml</dc:format><dc:type
         rdf:resource="http://purl.org/dc/dcmitype/StillImage" /></cc:Work></rdf:RDF></metadata><defs
   id="defs59" /><sodipodi:namedview
   pagecolor="#ffffff"
   bordercolor="#666666"
   borderopacity="1"
   objecttolerance="10"
   gridtolerance="10"
   guidetolerance="10"
   inkscape:pageopacity="0"
   inkscape:pageshadow="2"
   inkscape:window-width="1280"
   inkscape:window-height="1001"
   id="namedview57"
   showgrid="false"
   fit-margin-top="0.1"
   fit-margin-bottom="0.1"
   fit-margin-right="0.1"
   fit-margin-left="0.1"
   inkscape:zoom="9.4496384"
   inkscape:cx="39.866796"
   inkscape:cy="16.487423"
   inkscape:window-x="-8"
   inkscape:window-y="-8"
   inkscape:window-maximized="1"
   inkscape:current-layer="Layer_1" />
<path
   clip-rule="evenodd"
   d="M 1.1175071,22.416602 22.872507,1.0886026 c 1.434,-1.40400005 3.869,-1.30000005 5.414,0.232 l 21.299,21.1209994 c 1.547,1.532 1.637,3.936 0.205,5.34 l -21.755,21.324 c -1.432,1.404 -3.868,1.301 -5.414,-0.232 l -21.2999999,-21.119 c -1.54499997,-1.533 -1.63699997,-3.935 -0.204,-5.338"
   id="path3"
   style="fill:#ffd700;fill-opacity:1;fill-rule:evenodd;stroke:none"
   inkscape:connector-curvature="0" />
<path
   clip-rule="evenodd"
   d="M 2.5205071,23.327602 23.789507,2.4786026 c 0.928,-0.909 2.504,-0.841 3.503,0.15 l 20.963,20.7859994 c 1,0.991 1.059,2.547 0.131,3.456 l -21.267,20.847 c -0.928,0.91 -2.504,0.842 -3.504,-0.148 l -20.9619999,-20.788 c -1.001,-0.99 -1.06,-2.545 -0.133,-3.454"
   id="path5"
   style="fill:#ffd700;fill-opacity:1;fill-rule:evenodd;stroke:none"
   inkscape:connector-curvature="0" />
<path
   stroke-miterlimit="2.613"
   d="M 2.5205071,23.327602 23.790507,2.4796026 c 0.927,-0.91 2.503,-0.842 3.502,0.15 l 20.963,20.7849994 c 1,0.992 1.059,2.547 0.133,3.456 l -21.27,20.85 c -0.927,0.908 -2.504,0.84 -3.504,-0.152 l -20.9619999,-20.787 c -1,-0.99 -1.059,-2.546 -0.132,-3.454 z"
   id="path7"
   inkscape:connector-curvature="0"
   style="fill:none;stroke:#000000;stroke-width:1.64100003;stroke-miterlimit:2.61299992" />
<path
   clip-rule="evenodd"
   d="m 12.267507,20.294602 c 0.431,-1.039 0.862,-2.077 1.294,-3.115 0.196,-0.292 0.347,-0.447 0.843,-0.463 2.848,-0.01 5.894,-0.018 8.742,-0.027 0.346,0.017 0.618,0.172 0.815,0.464 0.478,1.073 0.956,2.145 1.435,3.218 0.139,0.214 0.018,0.325 -0.367,0.335 -4.16,-0.009 -8.319,-0.018 -12.48,-0.026 -0.454,-0.075 -0.308,-0.24 -0.282,-0.386 m -0.55,0.29 c 0.47,-1.217 0.938,-2.435 1.408,-3.653 0.214,-0.342 0.377,-0.523 0.917,-0.543 3.099,-0.011 6.413,-0.021 9.513,-0.031 0.377,0.02 0.672,0.202 0.887,0.544 0.52,1.258 1.04,2.516 1.559,3.774 0.152,0.251 0.02,0.382 -0.396,0.393 -4.528,-0.01 -9.055,-0.02 -13.582,-0.03 -0.494,-0.088 -0.334,-0.281 -0.306,-0.454 z"
   id="path9"
   inkscape:connector-curvature="0"
   style="fill-rule:evenodd" />
<path
   stroke-miterlimit="2.613"
   d="m 12.267507,20.294602 c 0.431,-1.039 0.862,-2.077 1.293,-3.116 0.197,-0.291 0.347,-0.446 0.844,-0.462 2.848,-0.009 5.894,-0.017 8.742,-0.026 0.346,0.017 0.618,0.171 0.815,0.462 0.478,1.073 0.956,2.146 1.433,3.218 0.14,0.214 0.019,0.326 -0.365,0.335 -4.161,-0.009 -8.321,-0.018 -12.481,-0.026 -0.453,-0.074 -0.307,-0.238 -0.281,-0.385 z m -0.55,0.29 c 0.469,-1.217 0.939,-2.435 1.408,-3.652 0.213,-0.343 0.376,-0.523 0.917,-0.544 3.1,-0.01 6.413,-0.021 9.513,-0.031 0.376,0.021 0.672,0.203 0.887,0.544 0.52,1.258 1.04,2.516 1.559,3.774 0.152,0.251 0.02,0.382 -0.398,0.392 -4.525,-0.01 -9.052,-0.02 -13.58,-0.03 -0.494,-0.087 -0.334,-0.281 -0.306,-0.453 z"
   id="path11"
   inkscape:connector-curvature="0"
   style="fill:none;stroke:#000000;stroke-width:0.156;stroke-miterlimit:2.61299992" />
<path
   clip-rule="evenodd"
   d="m 10.219507,26.594602 h 16.669 c 0.219,0 0.398,0.132 0.398,0.294 v 0.228 c 0,0.162 -0.18,0.293 -0.398,0.293 h -16.669 c -0.219,0 -0.3979999,-0.131 -0.3979999,-0.293 v -0.228 c 0,-0.162 0.1789999,-0.294 0.3979999,-0.294"
   id="path13"
   inkscape:connector-curvature="0"
   style="fill-rule:evenodd" />
<path
   stroke-miterlimit="2.613"
   d="m 10.219507,26.594602 h 16.669 c 0.221,0 0.398,0.132 0.398,0.294 v 0.228 c 0,0.162 -0.178,0.293 -0.398,0.293 h -16.669 c -0.218,0 -0.3959999,-0.131 -0.3959999,-0.293 v -0.228 c -0.001,-0.162 0.1769999,-0.294 0.3959999,-0.294 z"
   id="path15"
   inkscape:connector-curvature="0"
   style="fill:none;stroke:#000000;stroke-width:0.156;stroke-miterlimit:2.61299992" />
<path
   clip-rule="evenodd"
   d="m 11.294507,27.982602 h 1.551 c 0.17,0 0.31,0.154 0.31,0.346 v 1.604 c 0,0.189 -0.14,0.346 -0.31,0.346 h -1.551 c -0.172,0 -0.311,-0.156 -0.311,-0.346 v -1.604 c 0,-0.191 0.139,-0.346 0.311,-0.346"
   id="path17"
   inkscape:connector-curvature="0"
   style="fill-rule:evenodd" />
<path
   stroke-miterlimit="2.613"
   d="m 11.294507,27.982602 h 1.551 c 0.17,0 0.311,0.154 0.311,0.346 v 1.604 c 0,0.189 -0.14,0.346 -0.311,0.346 h -1.551 c -0.171,0 -0.311,-0.156 -0.311,-0.346 v -1.604 c 0,-0.191 0.14,-0.346 0.311,-0.346 z"
   id="path19"
   inkscape:connector-curvature="0"
   style="fill:none;stroke:#000000;stroke-width:0.156;stroke-miterlimit:2.61299992" />
<path
   clip-rule="evenodd"
   d="m 24.338507,27.982602 h 1.551 c 0.173,0 0.312,0.154 0.312,0.346 v 1.604 c 0,0.189 -0.139,0.346 -0.312,0.346 h -1.551 c -0.17,0 -0.309,-0.156 -0.309,-0.346 v -1.604 c 0,-0.191 0.139,-0.346 0.309,-0.346"
   id="path21"
   inkscape:connector-curvature="0"
   style="fill-rule:evenodd" />
<path
   stroke-miterlimit="2.613"
   d="m 24.339507,27.982602 h 1.551 c 0.171,0 0.31,0.154 0.31,0.346 v 1.604 c 0,0.189 -0.139,0.346 -0.31,0.346 h -1.551 c -0.17,0 -0.311,-0.156 -0.311,-0.346 v -1.604 c 0,-0.191 0.14,-0.346 0.311,-0.346 z"
   id="path23"
   inkscape:connector-curvature="0"
   style="fill:none;stroke:#000000;stroke-width:0.156;stroke-miterlimit:2.61299992" />
<path
   clip-rule="evenodd"
   d="m 12.253507,22.940602 c 0.65,0 1.177,0.52 1.177,1.161 0,0.641 -0.527,1.161 -1.177,1.161 -0.65,0 -1.178,-0.52 -1.178,-1.161 0,-0.641 0.528,-1.161 1.178,-1.161 m 13.016,0 c 0.648,0 1.176,0.52 1.176,1.161 0,0.641 -0.527,1.161 -1.176,1.161 -0.652,0 -1.179,-0.52 -1.179,-1.161 0,-0.641 0.527,-1.161 1.179,-1.161 z m -13.888,-1.117 h 14.926 c 0.408,0.02 0.652,0.242 0.734,0.664 v 3.533 h -16.516 v -3.562 c 0.106,-0.395 0.34,-0.645 0.856,-0.635 z"
   id="path25"
   inkscape:connector-curvature="0"
   style="fill-rule:evenodd" />
<path
   stroke-miterlimit="2.613"
   d="m 12.253507,22.941602 c 0.65,0 1.177,0.52 1.177,1.161 0,0.64 -0.527,1.161 -1.177,1.161 -0.651,0 -1.179,-0.521 -1.179,-1.161 10e-4,-0.641 0.528,-1.161 1.179,-1.161 z m 13.015,0 c 0.649,0 1.178,0.52 1.178,1.161 0,0.64 -0.528,1.161 -1.178,1.161 -0.651,0 -1.178,-0.521 -1.178,-1.161 0,-0.641 0.527,-1.161 1.178,-1.161 z m -13.887,-1.118 h 14.927 c 0.406,0.021 0.65,0.242 0.734,0.664 v 3.533 h -16.517 v -3.563 c 0.107,-0.393 0.34,-0.644 0.856,-0.634 z"
   id="path27"
   inkscape:connector-curvature="0"
   style="fill:none;stroke:#000000;stroke-width:0.156;stroke-miterlimit:2.61299992" />
<path
   clip-rule="evenodd"
   d="m 27.593507,28.559602 c 2.932,-2.422 5.863,-4.844 8.795,-7.267 0.336,-0.324 0.727,-0.138 0.258,0.418 -2.982,2.356 -5.963,4.712 -8.945,7.07 -0.2,0.107 -0.262,-0.102 -0.108,-0.221"
   id="path29"
   inkscape:connector-curvature="0"
   style="fill-rule:evenodd" />
<path
   stroke-miterlimit="2.613"
   d="m 27.593507,28.559602 c 2.932,-2.422 5.863,-4.844 8.795,-7.266 0.336,-0.325 0.729,-0.139 0.258,0.417 -2.982,2.356 -5.963,4.712 -8.945,7.07 -0.2,0.107 -0.262,-0.102 -0.108,-0.221 z"
   id="path31"
   inkscape:connector-curvature="0"
   style="fill:none;stroke:#000000;stroke-width:0.156;stroke-miterlimit:2.61299992" />
<path
   clip-rule="evenodd"
   d="m 27.560507,29.289602 c 3.057,-1.611 6.178,-3.164 9.297,-4.59 0.291,-0.208 0.494,0.086 0.119,0.394 -2.93,1.302 -5.855,2.709 -8.781,4.196 3.748,-1.277 7.496,-2.485 11.246,-3.641 0.297,-0.061 0.406,0.248 0.047,0.372 -3.891,1.177 -7.779,2.37 -11.67,3.731 -0.289,0.032 -0.406,-0.286 -0.258,-0.462"
   id="path33"
   inkscape:connector-curvature="0"
   style="fill-rule:evenodd" />
<path
   stroke-miterlimit="2.613"
   d="m 27.560507,29.289602 c 3.057,-1.611 6.18,-3.164 9.297,-4.59 0.291,-0.208 0.494,0.085 0.117,0.393 -2.928,1.302 -5.854,2.71 -8.781,4.197 3.75,-1.277 7.498,-2.486 11.248,-3.64 0.297,-0.062 0.406,0.247 0.047,0.372 -3.891,1.175 -7.779,2.369 -11.67,3.73 -0.289,0.032 -0.406,-0.284 -0.258,-0.462 z"
   id="path35"
   inkscape:connector-curvature="0"
   style="fill:none;stroke:#000000;stroke-width:0.156;stroke-linejoin:round;stroke-miterlimit:2.61299992" />
<path
   clip-rule="evenodd"
   d="m 27.607507,30.100602 c 3.689,-0.748 7.4,-1.4 11.152,-1.9 0.23,-0.053 0.369,0.236 -0.023,0.324 -3.686,0.521 -7.467,1.115 -11.152,1.762 -0.163,-0.032 -0.073,-0.182 0.023,-0.186"
   id="path37"
   inkscape:connector-curvature="0"
   style="fill-rule:evenodd" />
<path
   stroke-miterlimit="2.613"
   d="m 27.607507,30.100602 c 3.689,-0.746 7.4,-1.4 11.152,-1.9 0.23,-0.053 0.369,0.236 -0.023,0.324 -3.686,0.521 -7.467,1.117 -11.152,1.762 -0.163,-0.032 -0.073,-0.181 0.023,-0.186 z"
   id="path39"
   inkscape:connector-curvature="0"
   style="fill:none;stroke:#000000;stroke-width:0.156;stroke-miterlimit:2.61299992" />
<path
   clip-rule="evenodd"
   d="m 39.160507,19.368602 -0.096,-0.022 h -0.045 c -0.025,0 -0.072,0 -0.096,0 -0.086,0 -0.172,0 -0.258,0 -0.023,0 -0.07,0 -0.094,0 0,0.022 -0.047,0.045 -0.07,0.045 l -0.023,0.024 c 0,0.023 -0.023,0.046 -0.049,0.069 v 0.047 c -0.021,0 -0.021,0.023 -0.021,0.046 0,0.054 0,0.108 0,0.162 0,0.023 0,0.07 0,0.093 -0.023,0 -0.047,0.047 -0.047,0.07 l -0.023,0.023 -0.023,0.023 h -0.049 c 0,0.023 0,0.069 0,0.093 h -0.021 c 0,0.077 0,0.154 0,0.232 0,0.023 0,0.069 0,0.092 0,0.085 0,0.17 0,0.255 0,0.023 0,0.069 0,0.093 0.021,0 0.021,0.046 0.021,0.07 l 0.025,0.023 0.023,0.023 h 0.047 c 0,0.046 0.023,0 0.023,0.046 h 0.07 c 0.023,0 0.07,0 0.094,0 0,0.023 0.023,0.023 0.047,0.023 l 0.023,0.023 h 0.305 c 0.199,-0.012 0.104,0.028 0.236,0.023 0.021,0 0.068,0 0.094,0 0.086,0 0.172,0 0.258,0 0.023,0 0.07,0 0.094,0 v -0.023 h 0.117 l 0.023,-0.023 0.023,-0.023 0.023,-0.023 0.023,-0.023 v -0.046 c 0.023,0 0.023,-0.047 0.023,-0.07 0,-0.077 0,-0.155 0,-0.232 0,-0.023 0,-0.07 0,-0.093 l 0.023,-0.023 0.023,-0.023 c 0.047,0 0,-0.023 0.047,-0.023 0,-0.023 0.023,-0.069 0.047,-0.069 0,-0.085 0,-0.171 0,-0.256 0,-0.023 0,-0.069 0,-0.092 -0.023,0 -0.023,-0.023 -0.023,-0.046 -0.023,0 -0.023,-0.024 -0.023,-0.047 -0.023,0 -0.023,-0.023 -0.023,-0.047 -0.023,0 -0.023,-0.023 -0.023,-0.046 l -0.023,-0.023 -0.023,-0.023 -0.023,-0.024 -0.023,-0.023 -0.023,-0.023 h -0.047 l -0.023,-0.024 c 0,-0.046 -0.023,0 -0.023,-0.046 h -0.047 c 0,-0.024 -0.047,-0.024 -0.072,-0.024 0,-0.023 -0.045,-0.023 -0.068,-0.023 -0.063,0 -0.125,0 -0.189,0 -0.021,0 -0.07,0 -0.094,0 l -0.047,-0.115"
   id="path41"
   inkscape:connector-curvature="0"
   style="fill-rule:evenodd" />
<path
   stroke-miterlimit="2.613"
   d="m 39.158507,19.368602 -0.094,-0.023 h -0.045 c -0.025,0 -0.072,0 -0.096,0 -0.086,0 -0.172,0 -0.258,0 -0.023,0 -0.07,0 -0.094,0 0,0.023 -0.047,0.046 -0.07,0.046 l -0.023,0.023 c 0,0.023 -0.023,0.046 -0.049,0.07 v 0.046 c -0.021,0 -0.021,0.023 -0.021,0.046 0,0.054 0,0.108 0,0.163 0,0.022 0,0.069 0,0.092 -0.023,0 -0.047,0.046 -0.047,0.069 l -0.023,0.023 -0.023,0.023 h -0.047 c 0,0.023 0,0.07 0,0.093 h -0.023 c 0,0.077 0,0.155 0,0.232 0,0.022 0,0.069 0,0.092 0,0.085 0,0.169 0,0.255 0,0.023 0,0.069 0,0.092 0.023,0 0.023,0.047 0.023,0.07 l 0.023,0.024 0.023,0.022 h 0.047 c 0,0.046 0.023,0 0.023,0.046 h 0.07 c 0.023,0 0.07,0 0.094,0 0,0.024 0.023,0.024 0.047,0.024 l 0.023,0.022 h 0.305 c 0.205,-0.013 0.1,0.028 0.234,0.023 0.025,0 0.07,0 0.096,0 0.086,0 0.172,0 0.258,0 0.023,0 0.07,0 0.094,0 v -0.023 h 0.117 l 0.023,-0.022 0.023,-0.024 0.023,-0.023 0.023,-0.023 v -0.046 c 0.023,0 0.023,-0.047 0.023,-0.07 0,-0.077 0,-0.155 0,-0.232 0,-0.023 0,-0.07 0,-0.092 l 0.023,-0.023 0.023,-0.023 c 0.047,0 0,-0.024 0.047,-0.024 0,-0.023 0.023,-0.069 0.047,-0.069 0,-0.084 0,-0.17 0,-0.255 0,-0.023 0,-0.069 0,-0.092 -0.023,0 -0.023,-0.023 -0.023,-0.045 -0.023,0 -0.023,-0.024 -0.023,-0.047 -0.023,0 -0.023,-0.023 -0.023,-0.047 -0.023,0 -0.023,-0.022 -0.023,-0.046 l -0.023,-0.023 -0.023,-0.024 -0.047,-0.045 -0.023,-0.023 h -0.047 l -0.023,-0.024 c 0,-0.046 -0.023,0 -0.023,-0.046 h -0.047 c 0,-0.023 -0.047,-0.023 -0.072,-0.023 0,-0.023 -0.045,-0.023 -0.068,-0.023 -0.063,0 -0.127,0 -0.189,0 -0.021,0 -0.07,0 -0.092,0 l -0.05,-0.116 z"
   id="path43"
   inkscape:connector-curvature="0"
   style="fill:none;stroke:#000000;stroke-width:0.156;stroke-linejoin:round;stroke-miterlimit:2.61299992" />
<path
   clip-rule="evenodd"
   d="m 39.816507,22.637602 c 0,0 -0.117,-0.117 -0.141,-0.117 0,-0.046 -0.023,0 -0.023,-0.046 h -0.047 c 0,-0.023 -0.023,-0.023 -0.049,-0.023 0,-0.046 -0.021,0 -0.021,-0.046 h -0.047 l -0.023,-0.023 h -0.07 l -0.023,-0.023 h -0.072 c -0.061,0 -0.125,0 -0.188,0 -0.07,0 -0.141,0 -0.211,0 h -0.141 c -0.023,0 -0.07,0 -0.094,0 l -0.047,0.023 h -0.07 c -0.023,0 -0.047,0.023 -0.094,0.023 l -0.025,0.023 -0.021,0.023 v 0.069 l -0.023,0.023 v 0.047 c -0.023,0 -0.023,0.023 -0.023,0.047 l -0.023,0.023 v 0.255 c 0,0.069 0,0.139 0,0.208 0,0.023 0,0.07 0,0.093 0,0.085 0,0.17 0,0.255 0,0.023 0,0.07 0,0.093 0.023,0 0.023,0.023 0.023,0.046 l 0.023,0.023 0.023,0.024 0.021,0.023 0.025,0.023 h 0.047 l 0.023,0.023 c 0.119,-0.007 -0.02,0.034 0.188,0.023 0.023,0 0.07,0 0.094,0 0.086,0 0.172,0 0.258,0 0.023,0 0.07,0 0.096,0 0,0.023 0.021,0.023 0.045,0.023 0,0.047 0.023,0 0.023,0.047 h 0.049 l 0.021,0.023 h 0.213 c 0.023,0 0.07,0 0.094,0 l 0.023,-0.023 v -0.047 l 0.023,-0.023 v -0.046 l 0.023,-0.023 h 0.07 c 0.023,0 0.07,0 0.094,0 l 0.023,-0.023 c 0.023,0 0.07,0 0.094,0 v -0.047 l 0.023,-0.023 v -0.162 c 0,-0.023 0,-0.07 0,-0.093 l 0.023,-0.023 c 0.047,0 0,-0.023 0.047,-0.023 v -0.047 c 0.047,0 0,-0.023 0.047,-0.023 0,-0.069 0,-0.139 0,-0.208 0,-0.024 0,-0.07 0,-0.093 -0.023,0 -0.023,-0.023 -0.023,-0.047 l -0.023,-0.023 -0.023,-0.023 h -0.047 l -0.023,-0.023 -0.023,-0.023 -0.023,-0.023 c 0,-0.023 -0.023,-0.07 -0.047,-0.07 v -0.046 l -0.023,-0.024 -0.023,-0.023 v 0.047"
   id="path45"
   inkscape:connector-curvature="0"
   style="fill-rule:evenodd" />
<path
   stroke-miterlimit="2.613"
   d="m 39.816507,22.637602 c 0,0 -0.117,-0.117 -0.141,-0.117 0,-0.045 -0.023,0 -0.023,-0.045 h -0.047 c 0,-0.023 -0.023,-0.023 -0.049,-0.023 0,-0.046 -0.021,0 -0.021,-0.046 h -0.047 l -0.023,-0.023 h -0.072 l -0.021,-0.023 h -0.072 c -0.063,0 -0.123,0 -0.188,0 -0.07,0 -0.141,0 -0.211,0 h -0.141 c -0.023,0 -0.07,0 -0.094,0 l -0.047,0.023 h -0.07 c -0.023,0 -0.047,0.023 -0.094,0.023 l -0.025,0.022 -0.021,0.024 v 0.068 l -0.023,0.024 v 0.047 c -0.023,0 -0.023,0.023 -0.023,0.046 l -0.023,0.023 v 0.255 c 0,0.069 0,0.139 0,0.208 0,0.023 0,0.069 0,0.092 0,0.084 0,0.17 0,0.254 0,0.023 0,0.07 0,0.093 0.023,0 0.023,0.023 0.023,0.046 l 0.023,0.023 0.023,0.024 0.021,0.023 0.025,0.022 h 0.047 l 0.023,0.023 c 0.119,-0.007 -0.021,0.035 0.188,0.024 0.023,0 0.07,0 0.094,0 0.086,0 0.172,0 0.258,0 0.023,0 0.07,0 0.094,0 0,0.023 0.025,0.023 0.049,0.023 0,0.046 0.021,0 0.021,0.046 h 0.049 l 0.021,0.023 h 0.213 c 0.023,0 0.07,0 0.094,0 l 0.023,-0.023 v -0.046 l 0.023,-0.023 v -0.047 l 0.023,-0.022 h 0.07 c 0.023,0 0.07,0 0.094,0 l 0.023,-0.023 c 0.023,0 0.07,0 0.094,0 v -0.047 l 0.023,-0.023 v -0.163 c 0,-0.023 0,-0.069 0,-0.092 l 0.023,-0.024 c 0.047,0 0,-0.023 0.047,-0.023 v -0.046 c 0.047,0 0,-0.023 0.047,-0.023 0,-0.069 0,-0.139 0,-0.208 0,-0.024 0,-0.069 0,-0.092 -0.023,0 -0.023,-0.023 -0.023,-0.047 l -0.023,-0.023 -0.023,-0.023 h -0.047 l -0.023,-0.023 -0.023,-0.024 -0.023,-0.023 c 0,-0.023 -0.023,-0.069 -0.047,-0.069 v -0.046 l -0.023,-0.023 -0.023,-0.023 v 0.047 z"
   id="path47"
   inkscape:connector-curvature="0"
   style="fill:none;stroke:#000000;stroke-width:0.156;stroke-linejoin:round;stroke-miterlimit:2.61299992" />
<path
   clip-rule="evenodd"
   d="m 43.384507,23.425602 c -0.023,0 -0.117,-0.023 -0.117,-0.046 h -0.07 v -0.024 c -0.086,0 -0.172,0 -0.258,0 -0.023,0 -0.07,0 -0.094,0 -0.086,0 -0.172,0 -0.258,0 -0.023,0 -0.072,0 -0.094,0 v 0.047 h -0.072 c 0,0.023 -0.021,0.023 -0.047,0.023 -0.236,0.213 0.002,0.064 -0.234,0.278 -0.023,0 -0.047,0.023 -0.07,0.023 l -0.023,0.023 -0.023,0.023 v 0.186 c 0,0.023 0,0.069 0,0.092 -0.023,0 -0.023,0.024 -0.023,0.047 -0.047,0 0,0.023 -0.047,0.023 v 0.046 c -0.023,0 -0.023,0.024 -0.023,0.047 l -0.023,0.023 v 0.185 c 0,0.054 0,0.109 0,0.163 0,0.023 0,0.069 0,0.092 0,0.085 0,0.17 0,0.256 0,0.022 0,0.069 0,0.092 h 0.023 v 0.046 c 0,0.023 0,0.07 0,0.093 l 0.023,0.023 0.023,0.024 h 0.047 c 0.023,0 0.07,0 0.094,0 l 0.047,0.023 h 0.117 c 0.047,0 0.094,0 0.141,0 0.025,0 0.072,0 0.094,0 0.088,0 0.174,0 0.26,0 0.023,0 0.094,0 0.117,0 0,0.023 0.047,0.023 0.07,0.023 0.078,0 0.156,0 0.234,0 0.023,0 0.07,0 0.094,0 0,-0.046 0.023,0 0.023,-0.046 h 0.07 v -0.117 c 0,-0.023 0,-0.069 0,-0.092 l 0.023,-0.024 0.023,-0.023 0.023,-0.022 h 0.047 c 0,-0.047 0.023,0 0.023,-0.047 h 0.049 l 0.021,-0.023 0.023,-0.023 0.025,-0.024 c 0,-0.023 0,-0.069 0,-0.093 l 0.023,-0.023 v -0.138 c 0,-0.062 0,-0.124 0,-0.186 0,-0.078 0,-0.155 0,-0.232 0,-0.023 0,-0.069 0,-0.093 0,-0.085 0,-0.17 0,-0.255 0,-0.023 0,-0.069 0,-0.092 -0.023,0 -0.023,-0.023 -0.023,-0.046 -0.049,0 0,-0.024 -0.049,-0.024 v -0.047 l -0.021,-0.023 c -0.049,0 0,-0.023 -0.049,-0.023 v -0.047 c -0.045,0 0,-0.023 -0.045,-0.023 0,-0.046 -0.049,-0.046 -0.049,-0.069 l -0.045,0.024"
   id="path49"
   inkscape:connector-curvature="0"
   style="fill-rule:evenodd" />
<path
   stroke-miterlimit="2.613"
   d="m 43.384507,23.424602 c -0.021,0 -0.117,-0.023 -0.117,-0.046 h -0.07 v -0.023 c -0.086,0 -0.172,0 -0.258,0 -0.023,0 -0.07,0 -0.094,0 -0.086,0 -0.172,0 -0.258,0 -0.023,0 -0.072,0 -0.094,0 v 0.046 h -0.072 c 0,0.023 -0.023,0.023 -0.047,0.023 -0.234,0.213 0.002,0.065 -0.234,0.278 -0.023,0 -0.047,0.023 -0.07,0.023 l -0.023,0.024 -0.023,0.023 v 0.186 c 0,0.023 0,0.069 0,0.092 -0.023,0 -0.023,0.024 -0.023,0.047 -0.047,0 0,0.024 -0.047,0.024 v 0.045 c -0.023,0 -0.023,0.024 -0.023,0.047 l -0.023,0.022 v 0.186 c 0,0.053 0,0.108 0,0.162 0,0.023 0,0.069 0,0.093 0,0.084 0,0.17 0,0.255 0,0.023 0,0.069 0,0.092 h 0.023 v 0.046 c 0,0.022 0,0.07 0,0.093 l 0.023,0.022 0.023,0.024 h 0.047 c 0.023,0 0.07,0 0.094,0 l 0.047,0.023 h 0.117 c 0.049,0 0.094,0 0.141,0 0.025,0 0.072,0 0.094,0 0.088,0 0.174,0 0.26,0 0.023,0 0.094,0 0.117,0 0,0.023 0.047,0.023 0.07,0.023 0.078,0 0.156,0 0.234,0 0.023,0 0.07,0 0.094,0 0,-0.046 0.023,0 0.023,-0.046 h 0.07 v -0.117 c 0,-0.022 0,-0.068 0,-0.091 l 0.023,-0.024 0.025,-0.022 0.023,-0.023 h 0.045 c 0,-0.047 0.023,0 0.023,-0.047 h 0.047 l 0.025,-0.024 0.023,-0.022 0.021,-0.024 c 0,-0.023 0,-0.068 0,-0.092 l 0.025,-0.023 v -0.139 c 0,-0.062 0,-0.124 0,-0.186 0,-0.078 0,-0.155 0,-0.231 0,-0.022 0,-0.069 0,-0.093 0,-0.084 0,-0.17 0,-0.255 0,-0.022 0,-0.069 0,-0.092 -0.025,0 -0.025,-0.022 -0.025,-0.045 -0.045,0 0,-0.024 -0.045,-0.024 v -0.046 l -0.025,-0.023 c -0.047,0 0,-0.023 -0.047,-0.023 v -0.047 c -0.047,0 0,-0.023 -0.047,-0.023 0,-0.046 -0.045,-0.046 -0.045,-0.069 l -0.047,0.021 z"
   id="path51"
   inkscape:connector-curvature="0"
   style="fill:none;stroke:#000000;stroke-width:0.156;stroke-linejoin:round;stroke-miterlimit:2.61299992" />
<path
   clip-rule="evenodd"
   d="m 41.718507,27.201602 c -0.023,0 -0.07,-0.045 -0.094,-0.068 -0.023,0 -0.07,-0.023 -0.07,-0.047 -0.07,0 -0.141,0 -0.213,0 -0.021,0 -0.068,0 -0.094,0 0,0.023 -0.021,0.023 -0.045,0.023 l -0.025,0.023 -0.023,0.023 c 0,0.045 -0.023,0 -0.023,0.045 -0.021,0 -0.047,0.024 -0.047,0.047 l -0.023,0.023 h -0.047 v 0.023 h -0.047 c -0.023,0 -0.07,0 -0.094,0 l -0.023,0.023 h -0.094 c -0.023,0 -0.07,0 -0.094,0 0,0.023 -0.025,0.023 -0.047,0.023 l -0.023,0.023 -0.023,0.023 -0.023,0.023 -0.023,0.021 v 0.047 c -0.023,0 -0.023,0.023 -0.023,0.047 l -0.025,0.022 c -0.047,0 0,0.022 -0.047,0.022 v 0.047 c -0.047,0 0,0.023 -0.047,0.023 0,0.063 0,0.124 0,0.186 0,0.023 0,0.068 0,0.092 0,0.024 0.025,0.047 0.025,0.07 0,0.063 0,0.123 0,0.186 0,0.023 0,0.07 0,0.092 0.021,0 0.021,0.023 0.021,0.047 0.025,0 0.072,0.047 0.096,0.047 0.047,0.045 0.094,0.094 0.141,0.139 0,0.047 0.023,0 0.023,0.047 l 0.047,0.023 v 0.068 h 0.023 v 0.023 l 0.023,0.023 c 0,0.023 0.07,0.094 0.07,0.094 0.047,0 0.07,0.021 0.094,0.021 h 0.117 c 0.023,0 0.049,0.023 0.07,0.023 h 0.072 c 0.023,0 0.07,0 0.092,0 0,0.023 0.047,0.023 0.072,0.023 l 0.045,0.047 h 0.094 c 0.047,0 0.096,0 0.143,0 0.023,0 0.07,0 0.094,0 0.086,0 0.172,0 0.258,0 0.023,0 0.07,0 0.094,0 0,-0.023 0.047,-0.023 0.07,-0.023 v -0.141 c 0,0 0.023,-0.045 0.047,-0.045 0,-0.023 0,-0.068 0,-0.094 h 0.025 v -0.092 h 0.021 v -0.047 c 0,-0.023 0,-0.068 0,-0.092 0,-0.084 0,-0.172 0,-0.256 0,-0.023 0,-0.068 0,-0.092 h 0.023 v -0.047 c 0,-0.023 0,-0.07 0,-0.092 h 0.023 c 0,0 0.025,-0.07 0.049,-0.07 0,-0.023 0,-0.068 0,-0.092 0,-0.063 0,-0.125 0,-0.186 0,-0.023 0,-0.07 0,-0.094 -0.023,0 -0.023,-0.045 -0.023,-0.068 -0.025,0 -0.025,-0.023 -0.025,-0.047 l -0.023,-0.023 -0.023,-0.023 -0.021,-0.023 -0.028,-0.015 h -0.047 c 0,-0.047 -0.023,0 -0.023,-0.047 -0.023,0 -0.07,0 -0.094,0 -0.24,-0.013 -0.104,0.03 -0.258,0.022 -0.023,0 -0.07,0 -0.07,0"
   id="path53"
   inkscape:connector-curvature="0"
   style="fill-rule:evenodd" />
<path
   stroke-miterlimit="2.613"
   d="m 41.718507,27.203602 c -0.023,0 -0.07,-0.047 -0.094,-0.07 -0.023,0 -0.07,-0.023 -0.07,-0.047 -0.07,0 -0.141,0 -0.211,0 -0.023,0 -0.07,0 -0.096,0 0,0.023 -0.023,0.023 -0.045,0.023 l -0.025,0.023 -0.023,0.023 c 0,0.047 -0.023,0 -0.023,0.047 -0.021,0 -0.047,0.023 -0.047,0.046 l -0.023,0.022 h -0.047 v 0.023 h -0.047 c -0.023,0 -0.07,0 -0.094,0 l -0.023,0.023 h -0.094 c -0.023,0 -0.07,0 -0.094,0 0,0.023 -0.023,0.023 -0.047,0.023 l -0.023,0.022 -0.023,0.024 -0.023,0.022 -0.025,0.022 v 0.047 c -0.021,0 -0.021,0.023 -0.021,0.047 l -0.023,0.022 c -0.049,0 0,0.022 -0.049,0.022 v 0.047 c -0.045,0 0,0.023 -0.045,0.023 0,0.063 0,0.124 0,0.186 0,0.023 0,0.068 0,0.092 0,0.024 0.023,0.047 0.023,0.07 0,0.063 0,0.123 0,0.186 0,0.023 0,0.07 0,0.094 0.021,0 0.021,0.021 0.021,0.045 0.025,0 0.072,0.047 0.094,0.047 0.049,0.045 0.096,0.094 0.143,0.139 0,0.047 0.023,0 0.023,0.047 l 0.047,0.023 v 0.068 h 0.023 v 0.023 l 0.023,0.023 c 0,0.023 0.07,0.094 0.07,0.094 0.047,0 0.07,0.023 0.094,0.023 h 0.117 c 0.023,0 0.049,0.021 0.07,0.021 h 0.072 c 0.021,0 0.07,0 0.092,0 0,0.023 0.049,0.023 0.072,0.023 l 0.045,0.047 h 0.096 c 0.045,0 0.094,0 0.141,0 0.023,0 0.07,0 0.094,0 0.086,0 0.172,0 0.258,0 0.023,0 0.07,0 0.094,0 0,-0.023 0.047,-0.023 0.07,-0.023 v -0.139 c 0,0 0.023,-0.047 0.047,-0.047 0,-0.023 0,-0.07 0,-0.094 h 0.025 v -0.092 h 0.021 v -0.045 c 0,-0.025 0,-0.072 0,-0.094 0,-0.086 0,-0.17 0,-0.256 0,-0.023 0,-0.068 0,-0.092 h 0.023 v -0.047 c 0,-0.023 0,-0.07 0,-0.092 h 0.023 c 0,0 0.025,-0.07 0.047,-0.07 0,-0.022 0,-0.068 0,-0.092 0,-0.063 0,-0.124 0,-0.186 0,-0.023 0,-0.07 0,-0.094 -0.021,0 -0.021,-0.045 -0.021,-0.069 -0.025,0 -0.025,-0.022 -0.025,-0.046 l -0.023,-0.023 -0.023,-0.023 -0.047,-0.045 h -0.047 c 0,-0.047 -0.023,0 -0.023,-0.047 -0.023,0 -0.07,0 -0.094,0 -0.242,-0.014 -0.102,0.031 -0.258,0.023 -0.025,0.008 -0.072,0.008 -0.072,0.008 z"
   id="path55"
   inkscape:connector-curvature="0"
   style="fill:none;stroke:#000000;stroke-width:0.156;stroke-linejoin:round;stroke-miterlimit:2.61299992" />
</svg>