<?xml version="1.0" encoding="UTF-8" standalone="no"?>
<!-- Generator: Adobe Illustrator 15.0.2, SVG Export Plug-In . SVG Version: 6.00 Build 0)  -->

<svg
   xmlns:dc="http://purl.org/dc/elements/1.1/"
   xmlns:cc="http://creativecommons.org/ns#"
   xmlns:rdf="http://www.w3.org/1999/02/22-rdf-syntax-ns#"
   xmlns:svg="http://www.w3.org/2000/svg"
   xmlns="http://www.w3.org/2000/svg"
   xmlns:sodipodi="http://sodipodi.sourceforge.net/DTD/sodipodi-0.dtd"
   xmlns:inkscape="http://www.inkscape.org/namespaces/inkscape"
   version="1.0"
   id="Layer_1"
   x="0px"
   y="0px"
   width="50.193447"
   height="50.194706"
   viewBox="0 0 50.193448 50.194705"
   enable-background="new 0 0 49.973 49.949"
   xml:space="preserve"
   inkscape:version="0.48.4 r9939"
   sodipodi:docname="Ajax.svg"><metadata
   id="metadata45"><rdf:RDF><cc:Work
       rdf:about=""><dc:format>image/svg+xml</dc:format><dc:type
         rdf:resource="http://purl.org/dc/dcmitype/StillImage" /></cc:Work></rdf:RDF></metadata><defs
   id="defs43" /><sodipodi:namedview
   pagecolor="#ffffff"
   bordercolor="#666666"
   borderopacity="1"
   objecttolerance="10"
   gridtolerance="10"
   guidetolerance="10"
   inkscape:pageopacity="0"
   inkscape:pageshadow="2"
   inkscape:window-width="1280"
   inkscape:window-height="1001"
   id="namedview41"
   showgrid="false"
   fit-margin-top="0.1"
   fit-margin-bottom="0.1"
   fit-margin-right="0.1"
   fit-margin-left="0.1"
   inkscape:zoom="13.363807"
   inkscape:cx="36.7987"
   inkscape:cy="24.547514"
   inkscape:window-x="-8"
   inkscape:window-y="-8"
   inkscape:window-maximized="1"
   inkscape:current-layer="Layer_1" />
<path
   clip-rule="evenodd"
   d="M 1.1019734,22.414602 22.551973,1.0886021 c 1.412,-1.40399999 3.814,-1.29999999 5.338,0.232 l 21,21.1209999 c 1.522,1.532 1.613,3.935 0.201,5.339 l -21.449,21.326 c -1.412,1.403 -3.814,1.3 -5.338,-0.233 l -20.9999996,-21.119 c -1.52300001,-1.535 -1.61300001,-3.936 -0.202,-5.34"
   id="path3"
   style="fill:#ffd700;fill-opacity:1;fill-rule:evenodd;stroke:none"
   inkscape:connector-curvature="0" />
<path
   clip-rule="evenodd"
   d="M 2.4869734,23.326602 23.456973,2.4776021 c 0.914,-0.909 2.468,-0.841 3.454,0.15 l 20.666,20.7859999 c 0.986,0.991 1.045,2.547 0.131,3.455 l -20.97,20.849 c -0.914,0.909 -2.468,0.842 -3.454,-0.149 l -20.6659996,-20.787 c -0.986,-0.992 -1.045,-2.546 -0.131,-3.455"
   id="path5"
   style="fill:#ffd700;fill-opacity:1;fill-rule:evenodd;stroke:none"
   inkscape:connector-curvature="0" />
<path
   stroke-miterlimit="2.613"
   d="M 2.4869734,23.326602 23.456973,2.4776021 c 0.914,-0.909 2.468,-0.841 3.454,0.15 l 20.666,20.7859999 c 0.986,0.991 1.045,2.547 0.131,3.455 l -20.97,20.849 c -0.914,0.909 -2.468,0.842 -3.454,-0.149 l -20.6659996,-20.787 c -0.986,-0.992 -1.045,-2.546 -0.131,-3.455 z"
   id="path7"
   inkscape:connector-curvature="0"
   style="fill:none;stroke:#000000;stroke-width:1.63;stroke-miterlimit:2.61299992" />
<path
   clip-rule="evenodd"
   d="m 23.945973,10.366602 c 1.094,0 1.981,0.887 1.981,1.982 0,1.094 -0.888,1.982 -1.981,1.982 -1.095,0 -1.982,-0.888 -1.982,-1.982 -10e-4,-1.095 0.887,-1.982 1.982,-1.982"
   id="path9"
   inkscape:connector-curvature="0"
   style="fill-rule:evenodd" />
<circle
   stroke-miterlimit="2.613"
   cx="23.846001"
   cy="12.385"
   r="1.982"
   id="circle11"
   sodipodi:cx="23.846001"
   sodipodi:cy="12.385"
   sodipodi:rx="1.982"
   sodipodi:ry="1.982"
   style="fill:none;stroke:#000000;stroke-width:0.155;stroke-miterlimit:2.61299992"
   transform="translate(0.09997339,-0.03639789)" />
<path
   clip-rule="evenodd"
   d="m 26.045973,27.452602 c 0.423,-1.188 0.847,-2.379 1.269,-3.567 -0.019,-0.127 -0.104,-0.2 -0.277,-0.119 -0.806,0.29 -1.612,0.581 -2.418,0.871 0.474,0.939 0.951,1.877 1.426,2.815 m 1.23,-13.003 c -0.502,-0.634 -1.004,-0.634 -1.506,0 -1.508,1.81 -3.015,3.621 -4.521,5.431 -1.018,1.071 -0.396,2.247 1.15,1.15 0.753,-0.899 1.506,-1.797 2.259,-2.696 0.225,-0.159 0.397,-0.159 0.516,0 0.476,0.991 0.952,1.982 1.428,2.974 -1.216,0.621 -2.432,1.242 -3.647,1.863 -0.833,0.475 -0.938,0.951 -0.714,1.427 0.635,1.308 1.268,2.618 1.903,3.925 0.402,0.41 0.839,0.688 1.348,0.674 -0.119,0.33 -0.238,0.66 -0.357,0.991 -0.488,1.56 1.124,2.431 1.863,0.714 1.137,-2.934 2.273,-5.868 3.41,-8.801 0.16,-0.499 0.107,-1.067 -0.158,-1.705 -0.992,-1.983 -1.983,-3.965 -2.974,-5.947 z"
   id="path13"
   inkscape:connector-curvature="0"
   style="fill-rule:evenodd" />
<path
   stroke-miterlimit="2.613"
   d="m 26.045973,27.452602 c 0.423,-1.188 0.847,-2.379 1.269,-3.567 -0.019,-0.127 -0.104,-0.2 -0.277,-0.119 -0.806,0.29 -1.612,0.581 -2.418,0.871 0.474,0.939 0.951,1.877 1.426,2.815 z m 1.23,-13.003 c -0.502,-0.634 -1.004,-0.634 -1.506,0 -1.508,1.81 -3.015,3.621 -4.521,5.431 -1.018,1.071 -0.396,2.247 1.15,1.15 0.753,-0.899 1.506,-1.797 2.259,-2.696 0.225,-0.159 0.397,-0.159 0.516,0 0.476,0.991 0.952,1.982 1.428,2.974 -1.216,0.621 -2.432,1.242 -3.647,1.863 -0.833,0.475 -0.938,0.951 -0.714,1.427 0.635,1.308 1.268,2.618 1.903,3.925 0.402,0.41 0.839,0.688 1.348,0.674 -0.119,0.33 -0.238,0.66 -0.357,0.991 -0.488,1.56 1.124,2.431 1.863,0.714 1.137,-2.934 2.273,-5.868 3.41,-8.801 0.16,-0.499 0.107,-1.067 -0.158,-1.705 -0.992,-1.983 -1.983,-3.965 -2.974,-5.947 z"
   id="path15"
   inkscape:connector-curvature="0"
   style="fill:none;stroke:#000000;stroke-width:0.155;stroke-miterlimit:2.61299992" />
<path
   clip-rule="evenodd"
   d="m 16.089973,23.990602 c 2.116,0 3.83,1.715 3.83,3.83 0,2.115 -1.714,3.831 -3.83,3.831 -2.114,0 -3.83,-1.716 -3.83,-3.831 0,-2.115 1.716,-3.83 3.83,-3.83 m 0,-0.624 c 2.46,0 4.455,1.995 4.455,4.454 0,2.46 -1.995,4.455 -4.455,4.455 -2.46,0 -4.454,-1.995 -4.454,-4.455 0,-2.459 1.994,-4.454 4.454,-4.454 z"
   id="path17"
   inkscape:connector-curvature="0"
   style="fill-rule:evenodd" />
<path
   stroke-miterlimit="2.613"
   d="m 16.089973,23.990602 c 2.116,0 3.83,1.715 3.83,3.83 0,2.115 -1.714,3.831 -3.83,3.831 -2.114,0 -3.83,-1.716 -3.83,-3.831 0,-2.115 1.716,-3.83 3.83,-3.83 z m 0,-0.624 c 2.46,0 4.455,1.995 4.455,4.454 0,2.46 -1.995,4.455 -4.455,4.455 -2.46,0 -4.454,-1.995 -4.454,-4.455 0,-2.459 1.994,-4.454 4.454,-4.454 z"
   id="path19"
   inkscape:connector-curvature="0"
   style="fill:none;stroke:#000000;stroke-width:0.155;stroke-miterlimit:2.61299992" />
<path
   clip-rule="evenodd"
   d="m 34.204973,23.990602 c 2.115,0 3.83,1.715 3.83,3.83 0,2.115 -1.715,3.831 -3.83,3.831 -2.115,0 -3.831,-1.716 -3.831,-3.831 0,-2.115 1.716,-3.83 3.831,-3.83 m 0,-0.624 c 2.46,0 4.455,1.995 4.455,4.454 0,2.46 -1.995,4.455 -4.455,4.455 -2.46,0 -4.454,-1.995 -4.454,-4.455 0,-2.459 1.995,-4.454 4.454,-4.454 z"
   id="path21"
   inkscape:connector-curvature="0"
   style="fill-rule:evenodd" />
<path
   stroke-miterlimit="2.613"
   d="m 34.204973,23.990602 c 2.115,0 3.83,1.715 3.83,3.83 0,2.115 -1.715,3.831 -3.83,3.831 -2.115,0 -3.831,-1.716 -3.831,-3.831 0,-2.115 1.716,-3.83 3.831,-3.83 z m 0,-0.624 c 2.46,0 4.455,1.995 4.455,4.454 0,2.46 -1.995,4.455 -4.455,4.455 -2.46,0 -4.454,-1.995 -4.454,-4.455 0,-2.459 1.995,-4.454 4.454,-4.454 z"
   id="path23"
   inkscape:connector-curvature="0"
   style="fill:none;stroke:#000000;stroke-width:0.155;stroke-miterlimit:2.61299992" />
<path
   clip-rule="evenodd"
   d="m 16.308973,27.158602 c 0.378,0 0.683,0.306 0.683,0.682 0,0.377 -0.305,0.683 -0.683,0.683 -0.376,0 -0.683,-0.306 -0.683,-0.683 0,-0.377 0.307,-0.682 0.683,-0.682"
   id="path25"
   inkscape:connector-curvature="0"
   style="fill-rule:evenodd" />
<circle
   stroke-miterlimit="2.613"
   cx="16.209"
   cy="27.877001"
   r="0.68199998"
   id="circle27"
   sodipodi:cx="16.209"
   sodipodi:cy="27.877001"
   sodipodi:rx="0.68199998"
   sodipodi:ry="0.68199998"
   style="fill:none;stroke:#000000;stroke-width:0.155;stroke-miterlimit:2.61299992"
   transform="translate(0.09997339,-0.03639789)" />
<path
   clip-rule="evenodd"
   d="m 34.017973,27.378602 c 0.377,0 0.683,0.306 0.683,0.681 0,0.377 -0.306,0.683 -0.683,0.683 -0.376,0 -0.683,-0.306 -0.683,-0.683 0,-0.376 0.307,-0.681 0.683,-0.681"
   id="path29"
   inkscape:connector-curvature="0"
   style="fill-rule:evenodd" />
<circle
   stroke-miterlimit="2.613"
   cx="33.917999"
   cy="28.096001"
   r="0.68199998"
   id="circle31"
   sodipodi:cx="33.917999"
   sodipodi:cy="28.096001"
   sodipodi:rx="0.68199998"
   sodipodi:ry="0.68199998"
   style="fill:none;stroke:#000000;stroke-width:0.155;stroke-miterlimit:2.61299992"
   transform="translate(0.09997339,-0.03639789)" />
<path
   clip-rule="evenodd"
   d="m 16.439973,27.163602 c 1.232,-1.74 2.465,-3.48 3.697,-5.221 0.424,-0.648 0.787,-0.415 0.404,0.246 -0.144,0.237 -0.289,0.472 -0.433,0.709 0.77,-0.029 1.541,-0.058 2.311,-0.087 -0.336,0.146 -0.642,0.3 -0.736,0.506 -0.588,0.029 -1.176,0.058 -1.763,0.087 0.854,0.844 1.704,1.687 2.557,2.531 l 0.266,0.625 c 0.084,0.166 -0.12,0.191 -0.337,0.055 -0.959,-0.907 -1.917,-1.813 -2.875,-2.719 -0.862,1.21 -1.724,2.42 -2.585,3.63 -0.106,0 -0.212,0 -0.318,0 -0.071,-0.063 -0.145,-0.126 -0.217,-0.188 0.009,-0.058 0.018,-0.116 0.029,-0.174"
   id="path33"
   inkscape:connector-curvature="0"
   style="fill-rule:evenodd" />
<path
   stroke-miterlimit="2.613"
   d="m 16.439973,27.163602 c 1.232,-1.74 2.465,-3.48 3.697,-5.221 0.424,-0.648 0.787,-0.415 0.404,0.246 -0.144,0.237 -0.289,0.472 -0.433,0.709 0.77,-0.029 1.541,-0.058 2.311,-0.087 -0.336,0.146 -0.642,0.3 -0.736,0.506 -0.588,0.029 -1.176,0.058 -1.763,0.087 0.854,0.844 1.704,1.687 2.557,2.531 l 0.266,0.625 c 0.084,0.166 -0.12,0.191 -0.337,0.055 -0.959,-0.907 -1.917,-1.813 -2.875,-2.719 -0.862,1.21 -1.724,2.42 -2.585,3.63 -0.106,0 -0.212,0 -0.318,0 -0.071,-0.063 -0.145,-0.126 -0.217,-0.188 0.009,-0.058 0.018,-0.116 0.029,-0.174 z"
   id="path35"
   inkscape:connector-curvature="0"
   style="fill:none;stroke:#000000;stroke-width:0.155;stroke-linejoin:round;stroke-miterlimit:2.61299992" />
<path
   clip-rule="evenodd"
   d="m 31.192973,23.957602 2.924,3.827 -0.344,0.595 -4.689,0.031 c -0.364,-0.072 -0.356,-0.631 0,-0.626 h 3.814 l 0.187,-0.344 -2.345,-3.225 c -0.188,-0.24 0,-0.589 0.453,-0.258"
   id="path37"
   inkscape:connector-curvature="0"
   style="fill-rule:evenodd" />
<path
   stroke-miterlimit="2.613"
   d="m 31.192973,23.957602 2.924,3.827 -0.344,0.595 -4.689,0.031 c -0.364,-0.072 -0.356,-0.631 0,-0.626 h 3.814 l 0.187,-0.344 -2.345,-3.225 c -0.188,-0.24 0,-0.589 0.453,-0.258 z"
   id="path39"
   inkscape:connector-curvature="0"
   style="fill:none;stroke:#000000;stroke-width:0.155;stroke-miterlimit:2.61299992" />
</svg>