<?xml version="1.0" encoding="UTF-8" standalone="no"?>
<!-- Generator: Adobe Illustrator 15.0.2, SVG Export Plug-In . SVG Version: 6.00 Build 0)  -->

<svg
   xmlns:dc="http://purl.org/dc/elements/1.1/"
   xmlns:cc="http://creativecommons.org/ns#"
   xmlns:rdf="http://www.w3.org/1999/02/22-rdf-syntax-ns#"
   xmlns:svg="http://www.w3.org/2000/svg"
   xmlns="http://www.w3.org/2000/svg"
   xmlns:sodipodi="http://sodipodi.sourceforge.net/DTD/sodipodi-0.dtd"
   xmlns:inkscape="http://www.inkscape.org/namespaces/inkscape"
   version="1.0"
   id="Layer_1"
   x="0px"
   y="0px"
   width="50.194336"
   height="50.195293"
   viewBox="0 0 50.194336 50.195292"
   enable-background="new 0 0 49.973 49.949"
   xml:space="preserve"
   inkscape:version="0.48.4 r9939"
   sodipodi:docname="Ajax.svg"><metadata
   id="metadata25"><rdf:RDF><cc:Work
       rdf:about=""><dc:format>image/svg+xml</dc:format><dc:type
         rdf:resource="http://purl.org/dc/dcmitype/StillImage" /></cc:Work></rdf:RDF></metadata><defs
   id="defs23" /><sodipodi:namedview
   pagecolor="#ffffff"
   bordercolor="#666666"
   borderopacity="1"
   objecttolerance="10"
   gridtolerance="10"
   guidetolerance="10"
   inkscape:pageopacity="0"
   inkscape:pageshadow="2"
   inkscape:window-width="1280"
   inkscape:window-height="1001"
   id="namedview21"
   showgrid="false"
   fit-margin-top="0.1"
   fit-margin-bottom="0.1"
   fit-margin-right="0.1"
   fit-margin-left="0.1"
   inkscape:zoom="9.4496384"
   inkscape:cx="33.162024"
   inkscape:cy="24.083673"
   inkscape:window-x="-8"
   inkscape:window-y="-8"
   inkscape:window-maximized="1"
   inkscape:current-layer="Layer_1" />
<path
   clip-rule="evenodd"
   d="M 1.1027215,22.414145 22.552722,1.0881452 c 1.412,-1.40399993 3.815,-1.29899993 5.336,0.233 l 21,21.1209998 c 1.525,1.532 1.615,3.934 0.203,5.338 l -21.451,21.327 c -1.412,1.404 -3.813,1.299 -5.336,-0.233 l -21.0000005,-21.121 c -1.52399995,-1.532 -1.61399995,-3.934 -0.202,-5.339"
   id="path3"
   style="fill:#ffd700;fill-opacity:1;fill-rule:evenodd;stroke:none"
   inkscape:connector-curvature="0" />
<path
   clip-rule="evenodd"
   d="M 2.4857215,23.326145 23.456722,2.4771452 c 0.914,-0.909 2.467,-0.841 3.454,0.15 l 20.666,20.7859998 c 0.986,0.992 1.045,2.546 0.131,3.455 l -20.971,20.851 c -0.912,0.907 -2.467,0.84 -3.453,-0.152 l -20.6660005,-20.786 c -0.986,-0.991 -1.046,-2.546 -0.132,-3.455"
   id="path5"
   style="fill:#ffd700;fill-opacity:1;fill-rule:evenodd;stroke:none"
   inkscape:connector-curvature="0" />
<path
   stroke-miterlimit="2.613"
   d="M 2.4857215,23.326145 23.456722,2.4771452 c 0.914,-0.909 2.467,-0.841 3.454,0.15 l 20.666,20.7859998 c 0.986,0.992 1.045,2.546 0.131,3.455 l -20.971,20.851 c -0.912,0.907 -2.467,0.84 -3.453,-0.152 l -20.6660005,-20.786 c -0.986,-0.991 -1.046,-2.546 -0.132,-3.455 z"
   id="path7"
   inkscape:connector-curvature="0"
   style="fill:none;stroke:#000000;stroke-width:1.63;stroke-miterlimit:2.61299992" />
<path
   clip-rule="evenodd"
   d="m 29.996722,11.635145 c 0.865,0 1.566,0.702 1.566,1.568 0,0.865 -0.701,1.566 -1.566,1.566 -0.865,0 -1.566,-0.701 -1.566,-1.566 -10e-4,-0.866 0.701,-1.568 1.566,-1.568"
   id="path9"
   inkscape:connector-curvature="0"
   style="fill-rule:evenodd" />
<path
   clip-rule="evenodd"
   d="m 26.535722,19.032145 3.461,-3.877 c 0.545,-0.598 1.818,-0.228 1.893,0.582 l 0.557,5.089 c -1.125,-0.088 -2.291,0.063 -3.416,0.561 l -0.15,-2.492 -1.332,1.429 c -0.923,0.621 -1.707,-0.643 -1.013,-1.292"
   id="path11"
   inkscape:connector-curvature="0"
   style="fill-rule:evenodd" />
<path
   clip-rule="evenodd"
   d="m 15.920722,29.528145 c 0.684,0 1.238,0.558 1.238,1.247 0,0.688 -0.555,1.246 -1.238,1.246 -0.683,0 -1.237,-0.559 -1.237,-1.246 0,-0.689 0.553,-1.247 1.237,-1.247 m 0.007,-2.223 c 1.897,0 3.435,1.552 3.435,3.462 0,1.912 -1.537,3.463 -3.435,3.463 -1.896,0 -3.435,-1.551 -3.435,-3.463 0,-1.91 1.538,-3.462 3.435,-3.462 z"
   id="path13"
   inkscape:connector-curvature="0"
   style="fill-rule:evenodd" />
<path
   clip-rule="evenodd"
   d="m 31.720722,24.193145 c 2.127,0 3.852,1.725 3.852,3.851 0,2.127 -1.725,3.851 -3.852,3.851 -2.125,0 -3.85,-1.724 -3.85,-3.851 10e-4,-2.126 1.725,-3.851 3.85,-3.851 m 0,-2.525 c 3.521,0 6.377,2.855 6.377,6.376 0,3.521 -2.855,6.377 -6.377,6.377 -3.52,0 -6.375,-2.856 -6.375,-6.377 0,-3.521 2.856,-6.376 6.375,-6.376 z"
   id="path15"
   inkscape:connector-curvature="0"
   style="fill-rule:evenodd" />
<path
   clip-rule="evenodd"
   d="m 31.720722,24.802145 c 1.791,0 3.244,1.451 3.244,3.242 0,1.791 -1.453,3.243 -3.244,3.243 -1.789,0 -3.242,-1.452 -3.242,-3.243 0,-1.791 1.453,-3.242 3.242,-3.242"
   id="path17"
   inkscape:connector-curvature="0"
   style="fill-rule:evenodd" />
<path
   clip-rule="evenodd"
   d="m 13.742722,26.792145 c -0.967,-1.776 -1.833,-3.427 -2.799,-5.203 -0.319,-1.285 0.512,-2.328 1.517,-2.38 4.348,-0.001 8.695,-0.003 13.043,-0.005 0.15,0.003 0.266,0.079 0.334,0.228 0.467,0.962 0.93,1.924 1.396,2.885 0.02,0.03 0.023,0.065 -0.01,0.122 -1.951,1.575 -2.744,4.233 -2.608,6.321 0.011,0.065 -0.002,0.111 -0.063,0.112 -1.557,0 -3.115,0 -4.672,-0.001 -0.069,0.002 -0.122,-0.07 -0.171,-0.154 -0.782,-1.813 -3.559,-2.962 -5.727,-1.821 -0.101,0.064 -0.181,0.029 -0.24,-0.104"
   id="path19"
   inkscape:connector-curvature="0"
   style="fill-rule:evenodd" />
</svg>