<?xml version="1.0" encoding="UTF-8" standalone="no"?>
<!-- Generator: Adobe Illustrator 15.0.2, SVG Export Plug-In . SVG Version: 6.00 Build 0)  -->

<svg
   xmlns:dc="http://purl.org/dc/elements/1.1/"
   xmlns:cc="http://creativecommons.org/ns#"
   xmlns:rdf="http://www.w3.org/1999/02/22-rdf-syntax-ns#"
   xmlns:svg="http://www.w3.org/2000/svg"
   xmlns="http://www.w3.org/2000/svg"
   xmlns:sodipodi="http://sodipodi.sourceforge.net/DTD/sodipodi-0.dtd"
   xmlns:inkscape="http://www.inkscape.org/namespaces/inkscape"
   version="1.0"
   id="Layer_1"
   x="0px"
   y="0px"
   width="50.9104"
   height="50.910507"
   viewBox="-0.427 -0.426 50.910402 50.910505"
   enable-background="new -0.427 -0.426 51.802 51.698"
   xml:space="preserve"
   inkscape:version="0.48.4 r9939"
   sodipodi:docname="Ajax.svg"><metadata
   id="metadata53"><rdf:RDF><cc:Work
       rdf:about=""><dc:format>image/svg+xml</dc:format><dc:type
         rdf:resource="http://purl.org/dc/dcmitype/StillImage" /></cc:Work></rdf:RDF></metadata><defs
   id="defs51" /><sodipodi:namedview
   pagecolor="#ffffff"
   bordercolor="#666666"
   borderopacity="1"
   objecttolerance="10"
   gridtolerance="10"
   guidetolerance="10"
   inkscape:pageopacity="0"
   inkscape:pageshadow="2"
   inkscape:window-width="1280"
   inkscape:window-height="1001"
   id="namedview49"
   showgrid="false"
   fit-margin-top="0.1"
   fit-margin-bottom="0.1"
   fit-margin-right="0.1"
   fit-margin-left="0.1"
   inkscape:zoom="12.911694"
   inkscape:cx="24.427532"
   inkscape:cy="23.690744"
   inkscape:window-x="-8"
   inkscape:window-y="-8"
   inkscape:window-maximized="1"
   inkscape:current-layer="Layer_1" />
<path
   d="M 0.69050713,22.307428 22.446507,0.67642829 c 1.433,-1.424 3.869,-1.318 5.414,0.236 l 21.299,21.42199971 c 1.548,1.554 1.64,3.991 0.205,5.416 l -21.756,21.632 c -1.434,1.424 -3.869,1.317 -5.414,-0.236 l -21.29999987,-21.424 c -1.545,-1.552 -1.637,-3.99 -0.204,-5.415"
   id="path3"
   style="fill:#ffd700;fill-opacity:1;stroke:none"
   inkscape:connector-curvature="0" />
<path
   d="M 2.0935071,23.232428 23.363507,2.0864283 c 0.928,-0.922 2.502,-0.853 3.502,0.153 l 20.963,21.0829997 c 1,1.006 1.06,2.581 0.132,3.505 l -21.268,21.145 c -0.928,0.922 -2.504,0.854 -3.504,-0.153 l -20.9619999,-21.082 c -1,-1.006 -1.059,-2.582 -0.133,-3.505"
   id="path5"
   style="fill:#ffd700;fill-opacity:1;stroke:none"
   inkscape:connector-curvature="0" />
<path
   stroke-miterlimit="2.613"
   d="M 2.0935071,23.232428 23.363507,2.0864283 c 0.928,-0.922 2.502,-0.853 3.502,0.153 l 20.963,21.0829997 c 1,1.006 1.06,2.581 0.132,3.505 l -21.268,21.145 c -0.928,0.922 -2.504,0.854 -3.504,-0.153 l -20.9619999,-21.082 c -1,-1.006 -1.059,-2.582 -0.133,-3.505 z"
   id="path7"
   inkscape:connector-curvature="0"
   style="fill:none;stroke:#000000;stroke-width:1.653;stroke-miterlimit:2.61299992" />
<path
   d="m 27.286507,21.418428 -3.382,11.464 c -0.887,2.932 1.352,3.658 2.253,1.521 l 3.195,-9.287 c 0.223,-0.729 0.865,-0.688 0.99,-0.103 l 2.074,9.172 c 0.344,2.109 2.983,2.605 2.696,-0.452 l -3.528,-16.563 c -0.113,-0.441 0.063,-0.532 0.461,-0.205 l 2.989,3.382 c 1.611,1.395 2.283,-0.218 1.406,-1.405 l -5.197,-5.904 c -0.457,-0.619 -1.065,-0.884 -1.825,-0.795 l -3.612,0.479 c -0.692,0.042 -1.282,0.574 -1.552,0.998 l -1.352,3.429 -2.062,2.048 c -1.27,0.796 -0.041,2.56 1.134,1.283 l 2.236,-1.996 1.176,-1.813 c 0.158,-0.452 0.366,-0.55 0.625,-0.294 l 1.275,5.041"
   id="path9"
   inkscape:connector-curvature="0" />
<path
   stroke-miterlimit="2.613"
   d="m 27.286507,21.418428 -3.382,11.464 c -0.887,2.932 1.352,3.658 2.253,1.521 l 3.195,-9.287 c 0.223,-0.729 0.865,-0.688 0.99,-0.103 l 2.074,9.172 c 0.344,2.109 2.983,2.605 2.696,-0.452 l -3.528,-16.563 c -0.113,-0.441 0.063,-0.532 0.461,-0.205 l 2.989,3.382 c 1.611,1.395 2.283,-0.218 1.406,-1.405 l -5.197,-5.904 c -0.457,-0.619 -1.065,-0.884 -1.825,-0.795 l -3.612,0.479 c -0.692,0.042 -1.282,0.574 -1.552,0.998 l -1.352,3.429 -2.062,2.048 c -1.27,0.796 -0.041,2.56 1.134,1.283 l 2.236,-1.996 1.176,-1.813 c 0.158,-0.452 0.366,-0.55 0.625,-0.294 l 1.275,5.041 z"
   id="path11"
   inkscape:connector-curvature="0"
   style="fill:none;stroke:#000000;stroke-width:0.15700001;stroke-miterlimit:2.61299992" />
<path
   d="m 26.737507,7.7734283 c 1.135,0 2.056,0.92 2.056,2.054 0,1.1339997 -0.921,2.0539997 -2.056,2.0539997 -1.133,0 -2.053,-0.92 -2.053,-2.0539997 0,-1.134 0.92,-2.054 2.053,-2.054"
   id="path13"
   inkscape:connector-curvature="0" />
<circle
   stroke-miterlimit="2.613"
   cx="27.167"
   cy="10.153"
   r="2.0539999"
   id="circle15"
   sodipodi:cx="27.167"
   sodipodi:cy="10.153"
   sodipodi:rx="2.0539999"
   sodipodi:ry="2.0539999"
   style="fill:none;stroke:#000000;stroke-width:0.15700001;stroke-miterlimit:2.61299992"
   transform="translate(-0.42949287,-0.32557171)" />
<polyline
   points="7.651,29.732 11.673,25.778 13.387,26.272 9.722,31.56 7.651,29.732 "
   id="polyline17"
   transform="translate(-0.42949287,-0.32557171)" />
<polygon
   stroke-miterlimit="2.613"
   points="11.673,25.778 13.387,26.272 9.722,31.56 7.651,29.732 "
   id="polygon19"
   style="fill:none;stroke:#000000;stroke-width:0.15700001;stroke-miterlimit:2.61299992"
   transform="translate(-0.42949287,-0.32557171)" />
<path
   d="m 18.527507,41.031428 h 3.287 l 0.183,-3.414 0.192,-11.434 -1.634,-1.302 0.955,3.925 h -1.735 l 1.045,5.414 c -0.043,1.189 -0.522,2.029 -2.205,1.904 l -0.088,4.907"
   id="path21"
   inkscape:connector-curvature="0" />
<path
   stroke-miterlimit="2.613"
   d="m 18.527507,41.031428 h 3.287 l 0.183,-3.414 0.192,-11.434 -1.634,-1.302 0.955,3.925 h -1.735 l 1.045,5.414 c -0.043,1.189 -0.522,2.029 -2.205,1.904 l -0.088,4.907 z"
   id="path23"
   inkscape:connector-curvature="0"
   style="fill:none;stroke:#000000;stroke-width:0.15700001;stroke-miterlimit:2.61299992" />
<path
   d="m 28.655507,29.552428 c -1.393,3.539 -2.248,7.307 -1.563,11.723 h 3.471 l -1.908,-11.723"
   id="path25"
   inkscape:connector-curvature="0" />
<path
   stroke-miterlimit="2.613"
   d="m 28.655507,29.552428 c -1.393,3.539 -2.248,7.307 -1.563,11.723 h 3.471 l -1.908,-11.723 z"
   id="path27"
   inkscape:connector-curvature="0"
   style="fill:none;stroke:#000000;stroke-width:0.15700001;stroke-miterlimit:2.61299992" />
<path
   d="m 33.882507,24.717428 2.326,10.085 c -0.076,0.692 -0.552,1.221 -1.611,1.586 l 0.344,0.746 2.435,-2.211 -3.189,-10.229 -0.305,0.023"
   id="path29"
   inkscape:connector-curvature="0" />
<path
   stroke-miterlimit="2.613"
   d="m 33.882507,24.717428 2.326,10.085 c -0.076,0.692 -0.552,1.221 -1.611,1.586 l 0.344,0.746 2.435,-2.211 -3.189,-10.229 -0.305,0.023 z"
   id="path31"
   inkscape:connector-curvature="0"
   style="fill:none;stroke:#000000;stroke-width:0.15700001;stroke-miterlimit:2.61299992" />
<polyline
   points="37.935,25.2 40.856,32.028 42.806,30.321 40.005,25.322 37.935,25.2 "
   id="polyline33"
   transform="translate(-0.42949287,-0.32557171)" />
<polygon
   stroke-miterlimit="2.613"
   points="40.856,32.028 42.806,30.321 40.005,25.322 37.935,25.2 "
   id="polygon35"
   style="fill:none;stroke:#000000;stroke-width:0.15700001;stroke-miterlimit:2.61299992"
   transform="translate(-0.42949287,-0.32557171)" />
<polyline
   points="13.593,28.958 11.949,34.367 14.47,36.725 14.499,36.313 13.045,34.583 14.499,29.07 13.593,28.958 "
   id="polyline37"
   transform="translate(-0.42949287,-0.32557171)" />
<polygon
   stroke-miterlimit="2.613"
   points="14.499,36.313 13.045,34.583 14.499,29.07 13.593,28.958 11.949,34.367 14.47,36.725 "
   id="polygon39"
   style="fill:none;stroke:#000000;stroke-width:0.15700001;stroke-miterlimit:2.61299992"
   transform="translate(-0.42949287,-0.32557171)" />
<path
   d="m 17.196507,16.315428 c 0.912,0 1.652,0.739 1.652,1.651 0,0.912 -0.74,1.651 -1.652,1.651 -0.912,0 -1.65,-0.739 -1.65,-1.651 0,-0.912 0.738,-1.651 1.65,-1.651"
   id="path41"
   inkscape:connector-curvature="0" />
<circle
   stroke-miterlimit="2.613"
   cx="17.625999"
   cy="18.292"
   r="1.651"
   id="circle43"
   sodipodi:cx="17.625999"
   sodipodi:cy="18.292"
   sodipodi:rx="1.651"
   sodipodi:ry="1.651"
   style="fill:none;stroke:#000000;stroke-width:0.15700001;stroke-miterlimit:2.61299992"
   transform="translate(-0.42949287,-0.32557171)" />
<path
   d="m 17.673507,20.126428 c -0.43,0 -0.859,0 -1.287,0 -0.393,0.045 -0.709,0.216 -0.952,0.617 -0.523,0.653 -1.045,1.307 -1.567,1.961 -0.56,0.485 -1.12,0.971 -1.68,1.457 -0.7,0.704 -0.081,1.486 0.951,0.841 0.467,-0.411 0.933,-0.822 1.399,-1.233 0.381,-0.41 0.887,-0.619 0.561,0.336 -0.485,1.347 -0.97,2.691 -1.455,4.035 l 1.623,0.084 -1.345,5.634 c -0.15,1.301 0.813,1.433 1.264,0.28 l 1.312,-5.914 0.729,0.029 c 0.392,1.887 0.784,3.772 1.175,5.66 0.133,1.905 1.738,1.676 1.232,-0.225 -0.28,-1.794 -0.56,-3.641 -0.839,-5.436 0.503,-0.056 1.007,-0.058 1.511,-0.113 -0.374,-1.85 -0.747,-3.7 -1.12,-5.549 0.803,0.467 1.604,0.934 2.408,1.402 -0.15,0.167 -0.299,0.336 -0.449,0.504 0.374,0.316 0.747,0.635 1.12,0.953 0.616,-0.767 1.231,-1.532 1.847,-2.299 -0.373,-0.317 -0.746,-0.636 -1.12,-0.952 -0.223,0.261 -0.446,0.522 -0.671,0.783 l -4.647,-2.855"
   id="path45"
   inkscape:connector-curvature="0" />
<path
   stroke-miterlimit="2.613"
   d="m 17.673507,20.126428 c -0.43,0 -0.859,0 -1.287,0 -0.393,0.045 -0.709,0.216 -0.952,0.617 -0.523,0.653 -1.045,1.307 -1.567,1.961 -0.56,0.485 -1.12,0.971 -1.68,1.457 -0.7,0.704 -0.081,1.486 0.951,0.841 0.467,-0.411 0.933,-0.822 1.399,-1.233 0.381,-0.41 0.887,-0.619 0.561,0.336 -0.485,1.347 -0.97,2.691 -1.455,4.035 l 1.623,0.084 -1.345,5.634 c -0.15,1.301 0.813,1.433 1.264,0.28 l 1.312,-5.914 0.729,0.029 c 0.392,1.887 0.784,3.772 1.175,5.66 0.133,1.905 1.738,1.676 1.232,-0.225 -0.28,-1.794 -0.56,-3.641 -0.839,-5.436 0.503,-0.056 1.007,-0.058 1.511,-0.113 -0.374,-1.85 -0.747,-3.7 -1.12,-5.549 0.803,0.467 1.604,0.934 2.408,1.402 -0.15,0.167 -0.299,0.336 -0.449,0.504 0.374,0.316 0.747,0.635 1.12,0.953 0.616,-0.767 1.231,-1.532 1.847,-2.299 -0.373,-0.317 -0.746,-0.636 -1.12,-0.952 -0.223,0.261 -0.446,0.522 -0.671,0.783 l -4.647,-2.855 z"
   id="path47"
   inkscape:connector-curvature="0"
   style="fill:none;stroke:#000000;stroke-width:0.15700001;stroke-miterlimit:2.61299992" />
</svg>