<?xml version="1.0" encoding="UTF-8" standalone="no"?>
<!-- Generator: Adobe Illustrator 15.0.2, SVG Export Plug-In . SVG Version: 6.00 Build 0)  -->

<svg
   xmlns:dc="http://purl.org/dc/elements/1.1/"
   xmlns:cc="http://creativecommons.org/ns#"
   xmlns:rdf="http://www.w3.org/1999/02/22-rdf-syntax-ns#"
   xmlns:svg="http://www.w3.org/2000/svg"
   xmlns="http://www.w3.org/2000/svg"
   xmlns:sodipodi="http://sodipodi.sourceforge.net/DTD/sodipodi-0.dtd"
   xmlns:inkscape="http://www.inkscape.org/namespaces/inkscape"
   version="1.0"
   id="Layer_1"
   x="0px"
   y="0px"
   width="50.908588"
   height="50.909508"
   viewBox="0 0 50.908588 50.909506"
   enable-background="new 0 0 50.791 50.705"
   xml:space="preserve"
   inkscape:version="0.48.4 r9939"
   sodipodi:docname="Ajax.svg"><metadata
   id="metadata17"><rdf:RDF><cc:Work
       rdf:about=""><dc:format>image/svg+xml</dc:format><dc:type
         rdf:resource="http://purl.org/dc/dcmitype/StillImage" /></cc:Work></rdf:RDF></metadata><defs
   id="defs15" /><sodipodi:namedview
   pagecolor="#ffffff"
   bordercolor="#666666"
   borderopacity="1"
   objecttolerance="10"
   gridtolerance="10"
   guidetolerance="10"
   inkscape:pageopacity="0"
   inkscape:pageshadow="2"
   inkscape:window-width="1280"
   inkscape:window-height="1001"
   id="namedview13"
   showgrid="false"
   fit-margin-top="0.1"
   fit-margin-bottom="0.1"
   fit-margin-right="0.1"
   fit-margin-left="0.1"
   inkscape:zoom="4.6543732"
   inkscape:cx="-8.1122138"
   inkscape:cy="25.454933"
   inkscape:window-x="-8"
   inkscape:window-y="-8"
   inkscape:window-maximized="1"
   inkscape:current-layer="Layer_1" />
<path
   clip-rule="evenodd"
   d="M 1.1171517,22.733077 22.873152,1.1020773 c 1.432,-1.42400009 3.869,-1.31700009 5.414,0.236 l 21.299,21.4219997 c 1.545,1.554 1.639,3.991 0.205,5.416 l -21.756,21.631 c -1.432,1.424 -3.868,1.318 -5.413,-0.236 l -21.3010003,-21.424 c -1.54400005,-1.553 -1.63700005,-3.99 -0.204,-5.414"
   id="path3"
   style="fill:#ffd700;fill-opacity:1;fill-rule:evenodd;stroke:none"
   inkscape:connector-curvature="0" />
<path
   clip-rule="evenodd"
   d="M 2.5221517,23.656077 23.791152,2.5090773 c 0.928,-0.922 2.505,-0.853 3.504,0.153 l 20.961,21.0819997 c 1,1.005 1.061,2.583 0.133,3.505 l -21.27,21.146 c -0.928,0.923 -2.503,0.854 -3.504,-0.152 l -20.9610003,-21.082 c -1,-1.006 -1.059,-2.583 -0.132,-3.505"
   id="path5"
   style="fill:#ffd700;fill-opacity:1;fill-rule:evenodd;stroke:none"
   inkscape:connector-curvature="0" />
<path
   stroke-miterlimit="2.613"
   d="M 2.5221517,23.656077 23.792152,2.5090773 c 0.927,-0.922 2.503,-0.854 3.503,0.152 l 20.961,21.0829997 c 1,1.006 1.061,2.582 0.133,3.505 l -21.27,21.146 c -0.927,0.922 -2.503,0.853 -3.504,-0.152 l -20.9610003,-21.083 c -0.999,-1.005 -1.06,-2.582 -0.132,-3.504 z"
   id="path7"
   inkscape:connector-curvature="0"
   style="fill:none;stroke:#000000;stroke-width:1.65100002;stroke-miterlimit:2.61299992" />
<path
   clip-rule="evenodd"
   d="m 20.748152,21.880077 h -4.031 v 8.146 h 4.031 v -8.146 m 6.756,0 h -4.138 v 8.146 h 4.138 v -8.146 z m 6.817,0 h -4.199 v 8.146 h 4.199 v -8.146 z m -21.013,-3.169 h 0.791 v -1.646 l 1.329,-1.49 1.289,1.49 v 1.646 h 4.031 v -1.646 l 1.329,-1.49 1.289,1.49 v 1.646 h 4.138 v -1.646 l 1.33,-1.49 1.287,1.49 v 1.646 h 4.199 v -1.646 l 1.33,-1.49 1.289,1.49 v 1.646 h 1.02 v 3.169 h -1.02 v 8.146 h 0.703 v 3.17 h -0.703 v 1.114 h -2.619 v -1.114 h -4.199 v 1.114 h -2.617 v -1.114 h -4.138 v 1.114 h -2.618 v -1.114 h -4.031 v 1.114 h -2.618 v -1.114 h -1.108 v -3.17 h 1.108 v -8.146 h -0.791 v -3.169 z"
   id="path9"
   inkscape:connector-curvature="0"
   style="fill-rule:evenodd" />
<path
   stroke-miterlimit="2.613"
   d="m 20.748152,21.880077 h -4.031 v 8.146 h 4.031 v -8.146 z m 6.756,0 h -4.138 v 8.146 h 4.138 v -8.146 z m 6.817,0 h -4.199 v 8.146 h 4.199 v -8.146 z m -21.013,-3.169 h 0.791 v -1.646 l 1.329,-1.49 1.289,1.49 v 1.646 h 4.031 v -1.646 l 1.329,-1.49 1.289,1.49 v 1.646 h 4.138 v -1.646 l 1.33,-1.49 1.287,1.49 v 1.646 h 4.199 v -1.646 l 1.33,-1.49 1.289,1.49 v 1.646 h 1.02 v 3.169 h -1.02 v 8.146 h 0.703 v 3.17 h -0.703 v 1.114 h -2.619 v -1.114 h -4.199 v 1.114 h -2.617 v -1.114 h -4.138 v 1.114 h -2.618 v -1.114 h -4.031 v 1.114 h -2.618 v -1.114 h -1.108 v -3.17 h 1.108 v -8.146 h -0.791 v -3.169 z"
   id="path11"
   inkscape:connector-curvature="0"
   style="fill:none;stroke:#000000;stroke-width:0.15700001;stroke-linejoin:round;stroke-miterlimit:2.61299992" />
</svg>