<?xml version="1.0" encoding="UTF-8" standalone="no"?>
<!-- Generator: Adobe Illustrator 15.0.2, SVG Export Plug-In . SVG Version: 6.00 Build 0)  -->

<svg
   xmlns:dc="http://purl.org/dc/elements/1.1/"
   xmlns:cc="http://creativecommons.org/ns#"
   xmlns:rdf="http://www.w3.org/1999/02/22-rdf-syntax-ns#"
   xmlns:svg="http://www.w3.org/2000/svg"
   xmlns="http://www.w3.org/2000/svg"
   xmlns:sodipodi="http://sodipodi.sourceforge.net/DTD/sodipodi-0.dtd"
   xmlns:inkscape="http://www.inkscape.org/namespaces/inkscape"
   version="1.0"
   id="Layer_1"
   x="0px"
   y="0px"
   width="50.491272"
   height="50.492832"
   viewBox="0 0 50.491274 50.492834"
   enable-background="new 0 0 50.281 50.204"
   xml:space="preserve"
   inkscape:version="0.48.4 r9939"
   sodipodi:docname="Ajax.svg"><metadata
   id="metadata21"><rdf:RDF><cc:Work
       rdf:about=""><dc:format>image/svg+xml</dc:format><dc:type
         rdf:resource="http://purl.org/dc/dcmitype/StillImage" /></cc:Work></rdf:RDF></metadata><defs
   id="defs19" /><sodipodi:namedview
   pagecolor="#ffffff"
   bordercolor="#666666"
   borderopacity="1"
   objecttolerance="10"
   gridtolerance="10"
   guidetolerance="10"
   inkscape:pageopacity="0"
   inkscape:pageshadow="2"
   inkscape:window-width="1280"
   inkscape:window-height="1001"
   id="namedview17"
   showgrid="false"
   fit-margin-top="0.1"
   fit-margin-bottom="0.1"
   fit-margin-right="0.1"
   fit-margin-left="0.1"
   inkscape:zoom="9.4016416"
   inkscape:cx="20.226092"
   inkscape:cy="26.529495"
   inkscape:window-x="-8"
   inkscape:window-y="-8"
   inkscape:window-maximized="1"
   inkscape:current-layer="Layer_1" />
<path
   clip-rule="evenodd"
   d="M 1.1081367,22.547417 22.685137,1.0944167 c 1.422,-1.41300006 3.837,-1.30700006 5.37,0.234 l 21.125,21.2470003 c 1.531,1.54 1.624,3.957 0.202,5.37 l -21.576,21.453 c -1.421,1.413 -3.837,1.307 -5.37,-0.234 l -21.1240003,-21.246 c -1.53299994,-1.542 -1.62399994,-3.958 -0.204,-5.371"
   id="path3"
   style="fill:#ffd700;fill-rule:evenodd;stroke:none;fill-opacity:1"
   inkscape:connector-curvature="0" />
<path
   clip-rule="evenodd"
   d="M 2.5001367,23.464417 23.595137,2.4924167 c 0.919,-0.915 2.482,-0.847 3.475,0.151 l 20.789,20.9080003 c 0.992,0.998 1.051,2.562 0.132,3.476 l -21.095,20.974 c -0.919,0.914 -2.483,0.846 -3.476,-0.152 l -20.7890003,-20.909 c -0.991,-0.997 -1.05,-2.561 -0.131,-3.476"
   id="path5"
   style="fill:#ffd700;fill-rule:evenodd;stroke:none;fill-opacity:1"
   inkscape:connector-curvature="0" />
<path
   stroke-miterlimit="2.613"
   d="M 2.5001367,23.464417 23.595137,2.4924167 c 0.919,-0.915 2.482,-0.847 3.475,0.151 l 20.789,20.9080003 c 0.992,0.998 1.051,2.562 0.132,3.476 l -21.095,20.974 c -0.919,0.914 -2.483,0.846 -3.476,-0.152 l -20.7890003,-20.909 c -0.991,-0.997 -1.05,-2.561 -0.131,-3.476 z"
   id="path7"
   inkscape:connector-curvature="0"
   style="fill:none;stroke:#000000;stroke-width:1.63;stroke-miterlimit:2.61299992" />
<path
   clip-rule="evenodd"
   d="m 14.231137,26.472417 c 0.013,-0.837 0.025,-1.672 0.039,-2.509 0.481,-3.01 1.415,-5.375 3.118,-6.797 1.187,-0.723 1.514,-3.563 1.472,-5.885 l 3.313,0.007 c -0.313,2.771 0.183,5.535 -2.356,8.674 -1.391,1.257 -1.835,2.681 -2.118,4.062 -0.006,0.825 -0.012,1.652 -0.017,2.479 0.728,-0.314 1.456,-0.63 2.184,-0.945 1.03,-0.422 1.438,0.349 0.973,1.1 -1.542,2.38 -3.083,4.76 -4.623,7.14 -0.274,0.476 -0.644,0.465 -0.904,-0.044 -1.448,-2.409 -2.896,-4.818 -4.345,-7.227 -0.446,-0.673 0.313,-1.531 1.094,-1.074 0.723,0.338 1.445,0.678 2.17,1.019"
   id="path9"
   inkscape:connector-curvature="0"
   style="fill-rule:evenodd" />
<path
   clip-rule="evenodd"
   d="m 28.236137,19.857417 c 0.04,0.836 0.081,1.671 0.122,2.506 0.583,2.992 1.594,5.324 3.343,6.689 1.211,0.683 1.633,3.512 1.668,5.831 l 3.313,-0.118 c -0.408,-2.757 -0.003,-5.536 -2.647,-8.59 -1.432,-1.21 -1.923,-2.617 -2.252,-3.986 -0.033,-0.826 -0.066,-1.652 -0.1,-2.478 0.738,0.29 1.477,0.58 2.215,0.871 1.043,0.388 1.425,-0.396 0.935,-1.131 -1.62,-2.327 -3.24,-4.654 -4.858,-6.981 -0.29,-0.466 -0.659,-0.443 -0.903,0.074 -1.367,2.456 -2.733,4.912 -4.1,7.368 -0.425,0.688 0.362,1.521 1.129,1.037 0.71,-0.363 1.422,-0.728 2.135,-1.092"
   id="path11"
   inkscape:connector-curvature="0"
   style="fill-rule:evenodd" />
<path
   clip-rule="evenodd"
   d="m 21.255137,34.006417 c 0.827,-3.787 7.023,-3.787 7.746,0 v 8.263 h -7.746 v -8.263"
   id="path13"
   inkscape:connector-curvature="0"
   style="fill-rule:evenodd" />
<path
   stroke-miterlimit="2.613"
   d="m 21.255137,34.006417 c 0.827,-3.787 7.023,-3.787 7.746,0 v 8.263 h -7.746 v -8.263 z"
   id="path15"
   inkscape:connector-curvature="0"
   style="fill:none;stroke:#000000;stroke-width:0.155;stroke-miterlimit:2.61299992" />
</svg>