<?xml version="1.0" encoding="UTF-8" standalone="no"?>
<!-- Generator: Adobe Illustrator 15.0.2, SVG Export Plug-In . SVG Version: 6.00 Build 0)  -->

<svg
   xmlns:dc="http://purl.org/dc/elements/1.1/"
   xmlns:cc="http://creativecommons.org/ns#"
   xmlns:rdf="http://www.w3.org/1999/02/22-rdf-syntax-ns#"
   xmlns:svg="http://www.w3.org/2000/svg"
   xmlns="http://www.w3.org/2000/svg"
   xmlns:sodipodi="http://sodipodi.sourceforge.net/DTD/sodipodi-0.dtd"
   xmlns:inkscape="http://www.inkscape.org/namespaces/inkscape"
   version="1.0"
   id="Layer_1"
   x="0px"
   y="0px"
   width="51.210308"
   height="51.212051"
   viewBox="0 0 51.210306 51.21205"
   enable-background="new 0 0 51.011 51.012"
   xml:space="preserve"
   inkscape:version="0.48.4 r9939"
   sodipodi:docname="Ajax.svg"><metadata
   id="metadata33"><rdf:RDF><cc:Work
       rdf:about=""><dc:format>image/svg+xml</dc:format><dc:type
         rdf:resource="http://purl.org/dc/dcmitype/StillImage" /></cc:Work></rdf:RDF></metadata><defs
   id="defs31" /><sodipodi:namedview
   pagecolor="#ffffff"
   bordercolor="#666666"
   borderopacity="1"
   objecttolerance="10"
   gridtolerance="10"
   guidetolerance="10"
   inkscape:pageopacity="0"
   inkscape:pageshadow="2"
   inkscape:window-width="1280"
   inkscape:window-height="1001"
   id="namedview29"
   showgrid="false"
   fit-margin-top="0.1"
   fit-margin-bottom="0.1"
   fit-margin-right="0.1"
   fit-margin-left="0.1"
   inkscape:zoom="9.2527247"
   inkscape:cx="21.823136"
   inkscape:cy="24.402998"
   inkscape:window-x="-8"
   inkscape:window-y="-8"
   inkscape:window-maximized="1"
   inkscape:current-layer="Layer_1" />
<path
   clip-rule="evenodd"
   d="m 50.086922,28.342849 -21.886,21.76 c -1.44,1.434 -3.892,1.326 -5.446,-0.236 l -21.4260001,-21.552 c -1.55399991,-1.563 -1.64699991,-4.014 -0.206,-5.447 L 23.008922,1.1078488 c 1.44,-1.43200005 3.892,-1.32500005 5.445,0.238 l 21.428,21.5500002 c 1.554,1.563 1.646,4.015 0.205,5.447"
   id="path3"
   style="fill:#ffd700;fill-opacity:1;fill-rule:evenodd;stroke:none"
   inkscape:connector-curvature="0" />
<path
   clip-rule="evenodd"
   d="m 48.674922,27.412849 -21.395,21.273 c -0.933,0.928 -2.52,0.857 -3.524,-0.154 l -21.0880001,-21.207 c -1.006,-1.014 -1.066,-2.599 -0.133,-3.527 L 23.930922,2.5268488 c 0.933,-0.928 2.518,-0.858 3.523,0.152 l 21.088,21.2080002 c 1.006,1.012 1.066,2.598 0.133,3.526"
   id="path5"
   style="fill:#ffd700;fill-opacity:1;fill-rule:evenodd;stroke:none"
   inkscape:connector-curvature="0" />
<path
   stroke-miterlimit="2.613"
   d="m 48.674922,27.412849 -21.395,21.273 c -0.933,0.928 -2.52,0.857 -3.524,-0.154 l -21.0880001,-21.207 c -1.006,-1.014 -1.066,-2.599 -0.133,-3.527 L 23.930922,2.5268488 c 0.933,-0.928 2.518,-0.858 3.523,0.152 l 21.088,21.2080002 c 1.006,1.012 1.066,2.598 0.133,3.526 z"
   id="path7"
   inkscape:connector-curvature="0"
   style="fill:none;stroke:#000000;stroke-width:1.653;stroke-miterlimit:2.61299992" />
<path
   clip-rule="evenodd"
   d="m 19.009922,18.608849 c 0.021,-0.029 0.045,-0.039 0.068,-0.041 0.831,0 1.661,0 2.492,0 0.07,0 0.124,0.022 0.121,0.117 v 1.494 h -3.511 c -0.085,-0.005 -0.082,-0.064 -0.06,-0.117 0.298,-0.483 0.594,-0.969 0.89,-1.453 m -2.719,1.438 c 0.788,-0.754 1.577,-1.508 2.365,-2.264 0.041,-0.032 0.087,-0.052 0.144,-0.046 1.112,-0.002 2.226,-0.004 3.339,-0.006 0.166,0.015 0.283,0.097 0.285,0.287 l -0.001,5.851 c 0.001,0.123 -0.067,0.212 -0.212,0.214 -1.076,0 -2.152,0 -3.229,0 -0.018,0 -0.035,-0.005 -0.051,-0.022 -1.093,-1.327 -3.209,-1.523 -4.468,10e-4 -0.013,0.013 -0.026,0.02 -0.042,0.021 -0.472,0 -0.941,0 -1.41,0 -0.165,-0.003 -0.214,-0.086 -0.21,-0.206 0,-1.205 0,-2.409 0,-3.614 -0.004,-0.188 0.1,-0.215 0.214,-0.217 1.092,0 2.184,0.001 3.276,0.001 z"
   id="path9"
   inkscape:connector-curvature="0"
   style="fill-rule:evenodd" />
<path
   clip-rule="evenodd"
   d="m 22.968922,14.565849 h 14.149 c 0.023,0 0.042,0.019 0.042,0.042 v 9.4 c 0,0.023 -0.019,0.041 -0.042,0.041 h -14.149 c -0.023,0 -0.042,-0.018 -0.042,-0.041 v -9.4 c 0,-0.024 0.019,-0.042 0.042,-0.042"
   id="path11"
   inkscape:connector-curvature="0"
   style="fill-rule:evenodd" />
<path
   clip-rule="evenodd"
   d="m 28.924922,24.150849 c 1.073,0 1.941,0.87 1.941,1.942 0,1.072 -0.868,1.941 -1.941,1.941 -1.071,0 -1.941,-0.869 -1.941,-1.941 0,-1.072 0.87,-1.942 1.941,-1.942"
   id="path13"
   inkscape:connector-curvature="0"
   style="fill-rule:evenodd" />
<path
   clip-rule="evenodd"
   d="m 33.425922,24.150849 c 1.07,0 1.94,0.87 1.94,1.942 0,1.072 -0.87,1.941 -1.94,1.941 -1.072,0 -1.942,-0.869 -1.942,-1.941 0,-1.072 0.87,-1.942 1.942,-1.942"
   id="path15"
   inkscape:connector-curvature="0"
   style="fill-rule:evenodd" />
<path
   clip-rule="evenodd"
   d="m 16.713922,24.150849 c 1.071,0 1.941,0.87 1.941,1.942 0,1.072 -0.87,1.941 -1.941,1.941 -1.071,0 -1.941,-0.869 -1.941,-1.941 0,-1.072 0.87,-1.942 1.941,-1.942"
   id="path17"
   inkscape:connector-curvature="0"
   style="fill-rule:evenodd" />
<path
   clip-rule="evenodd"
   d="m 18.232922,31.680849 c 0.31,-0.17 0.513,-0.371 0.641,-0.662 0.01,-0.01 0.02,-0.018 0.034,-0.018 h 1.011 c 0.023,0.002 0.043,0.021 0.039,0.047 v 5.563 c 0.001,0.023 -0.014,0.045 -0.043,0.045 h -1.12 c -0.021,0 -0.04,-0.018 -0.04,-0.041 l 0.001,-3.688 h -0.507 c -0.024,-0.002 -0.038,-0.016 -0.04,-0.041 v -1.17 c 0.002,-0.018 0.011,-0.03 0.024,-0.035"
   id="path19"
   inkscape:connector-curvature="0"
   style="fill-rule:evenodd" />
<path
   clip-rule="evenodd"
   d="m 27.752922,32.361849 c -0.317,0 -0.637,0 -0.954,0 -0.027,0 -0.057,0.016 -0.062,0.057 0,1.438 0,2.875 0,4.313 0.001,0.035 0.023,0.063 0.063,0.064 0.322,0 0.643,0 0.965,0 0.04,0 0.064,-0.029 0.064,-0.064 0.002,-0.936 0.002,-1.873 0.002,-2.811 0.429,-0.41 1.088,-0.361 1.401,0.004 10e-4,0.934 10e-4,1.869 0.003,2.805 -0.002,0.035 0.027,0.064 0.061,0.066 0.358,0 0.717,0 1.076,0 0.028,-0.002 0.058,-0.025 0.061,-0.059 l -0.002,-2.814 c 0.435,-0.432 1.007,-0.383 1.331,0.002 0.001,0.932 0.001,1.867 0.002,2.801 -0.002,0.031 0.012,0.066 0.063,0.07 0.355,0 0.713,0 1.068,0 0.029,0 0.064,-0.023 0.064,-0.063 0,-1.092 -10e-4,-2.182 -10e-4,-3.273 -0.149,-1.096 -2.025,-1.586 -3.052,-0.738 -0.03,0.027 -0.059,0.035 -0.083,0.02 -0.513,-0.473 -1.156,-0.648 -1.871,-0.047 -0.062,0.027 -0.118,0.043 -0.138,-0.049 0,-0.072 0,-0.148 0,-0.223 0.005,-0.031 -0.025,-0.061 -0.061,-0.061"
   id="path21"
   inkscape:connector-curvature="0"
   style="fill-rule:evenodd" />
<path
   clip-rule="evenodd"
   d="m 22.355922,33.377849 c -0.037,-1.596 2.301,-1.807 2.361,-0.002 l -0.001,1.471 c -0.137,1.457 -2.231,1.365 -2.346,0.006 l -0.014,-1.475 m -1.261,-0.438 c 0.163,-2.619 4.56,-2.988 4.87,-0.004 l -0.002,2.07 c -0.245,2.883 -4.739,2.727 -4.868,0.004 v -2.07 z"
   id="path23"
   inkscape:connector-curvature="0"
   style="fill-rule:evenodd" />
<path
   clip-rule="evenodd"
   d="m 16.026922,36.976849 c -1.005,-1.014 -1.984,-1.82 -2.99,-2.834 -0.069,-0.068 -0.064,-0.141 0,-0.215 0.998,-0.98 1.995,-1.961 2.993,-2.939 0.089,-0.096 0.285,-0.049 0.275,0.102 0,1.93 0,3.861 0,5.791 -0.012,0.158 -0.147,0.215 -0.278,0.095"
   id="path25"
   inkscape:connector-curvature="0"
   style="fill-rule:evenodd" />
<path
   clip-rule="evenodd"
   d="m 34.958922,36.976849 c 1.005,-1.014 1.984,-1.82 2.989,-2.834 0.07,-0.068 0.065,-0.141 0,-0.215 -0.997,-0.98 -1.995,-1.961 -2.993,-2.939 -0.089,-0.096 -0.284,-0.049 -0.274,0.102 0,1.93 0,3.861 0,5.791 0.012,0.158 0.146,0.215 0.278,0.095"
   id="path27"
   inkscape:connector-curvature="0"
   style="fill-rule:evenodd" />
</svg>