<?xml version="1.0" encoding="UTF-8" standalone="no"?>
<!-- Generator: Adobe Illustrator 15.0.2, SVG Export Plug-In . SVG Version: 6.00 Build 0)  -->

<svg
   xmlns:dc="http://purl.org/dc/elements/1.1/"
   xmlns:cc="http://creativecommons.org/ns#"
   xmlns:rdf="http://www.w3.org/1999/02/22-rdf-syntax-ns#"
   xmlns:svg="http://www.w3.org/2000/svg"
   xmlns="http://www.w3.org/2000/svg"
   xmlns:sodipodi="http://sodipodi.sourceforge.net/DTD/sodipodi-0.dtd"
   xmlns:inkscape="http://www.inkscape.org/namespaces/inkscape"
   version="1.0"
   id="Layer_1"
   x="0px"
   y="0px"
   width="50.491375"
   height="50.493599"
   viewBox="0 0 50.491375 50.4936"
   enable-background="new 0 0 50.292 50.293"
   xml:space="preserve"
   inkscape:version="0.48.4 r9939"
   sodipodi:docname="Ajax.svg"><metadata
   id="metadata15"><rdf:RDF><cc:Work
       rdf:about=""><dc:format>image/svg+xml</dc:format><dc:type
         rdf:resource="http://purl.org/dc/dcmitype/StillImage" /></cc:Work></rdf:RDF></metadata><defs
   id="defs13" /><sodipodi:namedview
   pagecolor="#ffffff"
   bordercolor="#666666"
   borderopacity="1"
   objecttolerance="10"
   gridtolerance="10"
   guidetolerance="10"
   inkscape:pageopacity="0"
   inkscape:pageshadow="2"
   inkscape:window-width="1280"
   inkscape:window-height="1001"
   id="namedview11"
   showgrid="false"
   fit-margin-top="0.1"
   fit-margin-bottom="0.1"
   fit-margin-right="0.1"
   fit-margin-left="0.1"
   inkscape:zoom="8"
   inkscape:cx="18.624848"
   inkscape:cy="26.349362"
   inkscape:window-x="-8"
   inkscape:window-y="-8"
   inkscape:window-maximized="1"
   inkscape:current-layer="Layer_1" />
<path
   clip-rule="evenodd"
   d="M 49.382385,22.547374 27.805384,1.0943739 c -1.421,-1.412 -3.837,-1.308 -5.37,0.234 L 1.3123843,22.574374 c -1.533,1.541 -1.625,3.958 -0.203,5.371 l 21.5759997,21.453 c 1.422,1.413 3.837,1.309 5.369,-0.233 l 21.125001,-21.247 c 1.533,-1.542 1.624,-3.958 0.203,-5.371"
   id="path3"
   style="fill:#ffd700;fill-opacity:1;fill-rule:evenodd;stroke:none"
   inkscape:connector-curvature="0" />
<path
   clip-rule="evenodd"
   d="M 47.990385,23.464374 26.895384,2.4923739 c -0.919,-0.914 -2.484,-0.846 -3.474,0.151 L 2.6303843,23.552374 c -0.992,0.997 -1.051,2.562 -0.131,3.477 l 21.0959997,20.972 c 0.919,0.914 2.482,0.846 3.474,-0.152 l 20.790001,-20.909 c 0.991,-0.996 1.05,-2.561 0.131,-3.476"
   id="path5"
   style="fill:#ffd700;fill-opacity:1;fill-rule:evenodd;stroke:none"
   inkscape:connector-curvature="0" />
<path
   stroke-miterlimit="2.613"
   d="M 47.990385,23.464374 26.895384,2.4923739 c -0.919,-0.914 -2.484,-0.846 -3.474,0.151 L 2.6303843,23.552374 c -0.992,0.997 -1.051,2.562 -0.131,3.477 l 21.0959997,20.972 c 0.919,0.914 2.482,0.846 3.474,-0.152 l 20.790001,-20.909 c 0.991,-0.996 1.05,-2.561 0.131,-3.476 z"
   id="path7"
   inkscape:connector-curvature="0"
   style="fill:none;stroke:#000000;stroke-width:1.63;stroke-miterlimit:2.61299992" />
<path
   clip-rule="evenodd"
   d="m 29.422385,18.614374 c -0.004,0.835 -0.007,1.672 -0.012,2.508 -0.071,2.744 -1.351,6.598 -4.699,8.568 -2.667,1.754 -3.786,2.991 -4.335,6.673 l -3.545,-0.003 c 0.268,-3.805 1.934,-6.957 5.219,-9.221 2.816,-1.627 3.88,-3.695 3.931,-6.04 -0.003,-0.826 -0.006,-1.652 -0.009,-2.478 -0.725,0.322 -1.449,0.645 -2.175,0.968 -1.024,0.434 -1.44,-0.332 -0.983,-1.088 1.514,-2.397 3.028,-4.794 4.543,-7.19 0.269,-0.478 0.639,-0.473 0.905,0.033 1.475,2.394 2.949,4.786 4.423,7.179 0.455,0.669 -0.295,1.535 -1.081,1.087 -0.727,-0.332 -1.454,-0.664 -2.182,-0.996"
   id="path9"
   inkscape:connector-curvature="0"
   style="fill:#000000;fill-rule:evenodd;stroke:none" />
</svg>