<?xml version="1.0" encoding="UTF-8" standalone="no"?>
<!-- Generator: Adobe Illustrator 15.0.2, SVG Export Plug-In . SVG Version: 6.00 Build 0)  -->

<svg
   xmlns:dc="http://purl.org/dc/elements/1.1/"
   xmlns:cc="http://creativecommons.org/ns#"
   xmlns:rdf="http://www.w3.org/1999/02/22-rdf-syntax-ns#"
   xmlns:svg="http://www.w3.org/2000/svg"
   xmlns="http://www.w3.org/2000/svg"
   xmlns:sodipodi="http://sodipodi.sourceforge.net/DTD/sodipodi-0.dtd"
   xmlns:inkscape="http://www.inkscape.org/namespaces/inkscape"
   version="1.0"
   id="Layer_1"
   x="0px"
   y="0px"
   width="50.491592"
   height="50.493248"
   viewBox="0 0 50.491593 50.493249"
   enable-background="new 0 0 50.292 50.293"
   xml:space="preserve"
   inkscape:version="0.48.4 r9939"
   sodipodi:docname="Ajax.svg"><metadata
   id="metadata17"><rdf:RDF><cc:Work
       rdf:about=""><dc:format>image/svg+xml</dc:format><dc:type
         rdf:resource="http://purl.org/dc/dcmitype/StillImage" /></cc:Work></rdf:RDF></metadata><defs
   id="defs15" /><sodipodi:namedview
   pagecolor="#ffffff"
   bordercolor="#666666"
   borderopacity="1"
   objecttolerance="10"
   gridtolerance="10"
   guidetolerance="10"
   inkscape:pageopacity="0"
   inkscape:pageshadow="2"
   inkscape:window-width="1280"
   inkscape:window-height="1001"
   id="namedview13"
   showgrid="false"
   fit-margin-top="0.1"
   fit-margin-bottom="0.1"
   fit-margin-right="0.1"
   fit-margin-left="0.1"
   inkscape:zoom="8"
   inkscape:cx="28.269684"
   inkscape:cy="14.972873"
   inkscape:window-x="-8"
   inkscape:window-y="-8"
   inkscape:window-maximized="1"
   inkscape:current-layer="Layer_1" />
<path
   clip-rule="evenodd"
   d="m 49.382992,22.547769 -21.576,-21.4529999 c -1.422,-1.41300005 -3.838,-1.30800005 -5.37,0.234 L 1.3119919,22.574769 c -1.533,1.541 -1.624,3.958 -0.203,5.371 l 21.5770001,21.453 c 1.421,1.412 3.837,1.308 5.371,-0.233 l 21.123,-21.247 c 1.533,-1.542 1.623,-3.959 0.203,-5.371"
   id="path3"
   inkscape:connector-curvature="0"
   style="fill:#ffd700;fill-rule:evenodd;stroke:none;fill-opacity:1" />
<path
   clip-rule="evenodd"
   d="m 47.990992,23.464769 -21.094,-20.9729999 c -0.92,-0.913 -2.484,-0.846 -3.475,0.151 L 2.6319919,23.551769 c -0.991,0.998 -1.051,2.562 -0.131,3.476 l 21.0940001,20.975 c 0.92,0.914 2.483,0.845 3.476,-0.152 l 20.789,-20.909 c 0.992,-0.998 1.051,-2.563 0.131,-3.477"
   id="path5"
   style="fill:#ffd700;fill-opacity:1;fill-rule:evenodd;stroke:none"
   inkscape:connector-curvature="0" />
<path
   stroke-miterlimit="2.613"
   d="m 47.990992,23.464769 -21.094,-20.9729999 c -0.92,-0.913 -2.484,-0.846 -3.475,0.151 L 2.6319919,23.551769 c -0.991,0.998 -1.051,2.562 -0.131,3.476 l 21.0940001,20.975 c 0.92,0.914 2.483,0.845 3.476,-0.152 l 20.789,-20.909 c 0.992,-0.998 1.051,-2.563 0.131,-3.477 z"
   id="path7"
   inkscape:connector-curvature="0"
   style="fill:none;stroke:#000000;stroke-width:1.63;stroke-miterlimit:2.61299992" />
<polyline
   clip-rule="evenodd"
   points="23.371,10.925 26.71,10.925 26.71,22.419 38.204,22.419 38.204,25.758   26.71,25.758 26.71,37.254 23.371,37.254 23.371,25.758 11.876,25.758 11.876,22.419 23.371,22.419 23.371,10.925 "
   id="polyline9"
   style="fill-rule:evenodd"
   transform="translate(0.0989919,0.09976905)" />
<polygon
   stroke-miterlimit="2.613"
   points="11.876,25.758 11.876,22.419 23.371,22.419 23.371,10.925 26.71,10.925 26.71,22.419 38.204,22.419 38.204,25.758 26.71,25.758 26.71,37.254 23.371,37.254 23.371,25.758 "
   id="polygon11"
   style="fill:none;stroke:#000000;stroke-width:0.71899998;stroke-miterlimit:2.61299992"
   transform="translate(0.0989919,0.09976905)" />
</svg>