<?xml version="1.0" encoding="utf-8"?>
<!-- Generator: Adobe Illustrator 15.0.2, SVG Export Plug-In . SVG Version: 6.00 Build 0)  -->
<!DOCTYPE svg PUBLIC "-//W3C//DTD SVG 1.1//EN" "http://www.w3.org/Graphics/SVG/1.1/DTD/svg11.dtd">
<svg version="1.1" id="Layer_1" xmlns="http://www.w3.org/2000/svg" xmlns:xlink="http://www.w3.org/1999/xlink" x="0px" y="0px"
	 width="50px" height="50px" viewBox="0 0 50 50" enable-background="new 0 0 50 50" xml:space="preserve">
<polygon fill="#D92827" points="24.938,50 14.627,49.883 7.435,42.624 0.24,35.366 0.24,25.066 0.24,14.765 7.554,7.506 
	14.748,0.132 25.061,0.25 35.25,0.25 42.445,7.506 49.76,14.881 49.641,25.183 49.641,35.483 42.445,42.742 35.13,50 "/>
<path fill="#FFFFFF" d="M2.158,15.583v18.964l13.31,13.461h18.823l13.43-13.346V15.701L34.411,2.239L15.587,2.123L2.158,15.583z
	 M15.108,48.712L1.439,34.781V15.232L15.228,1.419h19.544l13.787,13.93l-0.119,19.667L34.652,48.829L15.108,48.712z"/>
<g>
	<path fill="#FFFFFF" d="M9.593,26.006H7.046v7.281H4.695V16.694h4.898c2.571,0,4.31,1.857,4.31,4.656
		C13.903,24.372,12.36,26.006,9.593,26.006z M9.471,19.022H7.046v4.706h2.425c1.372,0,2.13-0.867,2.13-2.377
		C11.601,19.963,10.744,19.022,9.471,19.022z"/>
	<path fill="#FFFFFF" d="M22.403,33.287l-1.151-4.532h-3.527l-1.078,4.532h-2.375l4.09-16.593h2.302l4.09,16.593H22.403z
		 M19.464,21.647l-1.151,4.779h2.351L19.464,21.647z"/>
	<path fill="#FFFFFF" d="M33.181,33.287l-2.18-7.801h-2.253v7.801h-2.352V16.694h4.898c2.571,0,4.311,1.758,4.311,4.433
		c0,1.981-0.809,3.417-2.352,4.012l2.352,8.147H33.181z M31.172,19.022h-2.424v4.185h2.424c1.372,0,2.131-0.743,2.131-2.08
		C33.303,19.84,32.445,19.022,31.172,19.022z"/>
	<path fill="#FFFFFF" d="M37.763,33.287V16.694h7.714v2.328h-5.363v4.185h3.404v2.279h-3.404v5.473h6v2.328H37.763z"/>
</g>
</svg>
