<?xml version="1.0" encoding="utf-8"?>
<!-- Generator: Adobe Illustrator 15.0.2, SVG Export Plug-In . SVG Version: 6.00 Build 0)  -->
<!DOCTYPE svg PUBLIC "-//W3C//DTD SVG 1.1//EN" "http://www.w3.org/Graphics/SVG/1.1/DTD/svg11.dtd">
<svg version="1.1"
	 id="svg2" inkscape:version="0.48.2 r9819" sodipodi:docname="AJAX1.svg" xmlns:rdf="http://www.w3.org/1999/02/22-rdf-syntax-ns#" xmlns:cc="http://creativecommons.org/ns#" xmlns:dc="http://purl.org/dc/elements/1.1/" xmlns:sodipodi="http://sodipodi.sourceforge.net/DTD/sodipodi-0.dtd" xmlns:svg="http://www.w3.org/2000/svg" xmlns:inkscape="http://www.inkscape.org/namespaces/inkscape" sodipodi:version="0.32"
	 xmlns="http://www.w3.org/2000/svg" xmlns:xlink="http://www.w3.org/1999/xlink" x="0px" y="0px" width="525.477px"
	 height="525.477px" viewBox="0 0 525.477 525.477" enable-background="new 0 0 525.477 525.477" xml:space="preserve">
<sodipodi:namedview  width="601px" height="601px" inkscape:pageopacity="0.0" inkscape:window-y="-8" fit-margin-right="0" inkscape:current-layer="layer1" fit-margin-bottom="0" inkscape:window-x="-8" inkscape:window-height="1004" inkscape:pageshadow="2" inkscape:window-width="1280" id="base" objecttolerance="10" inkscape:cy="235.04871" showgrid="false" borderopacity="1.0" pagecolor="#ffffff" bordercolor="#666666" inkscape:cx="369.80155" guidetolerance="10" fit-margin-left="0" gridtolerance="10000" inkscape:zoom="0.64333334" fit-margin-top="0" inkscape:window-maximized="1" inkscape:document-units="px">
	</sodipodi:namedview>
<g>
	<path id="rect3651" inkscape:connector-curvature="0" fill="#C50000" d="M274.647,0.508C129.372-6.089,7.106,105.556,0.509,250.832
		c-6.598,145.273,105.046,267.54,250.321,274.137c145.274,6.598,267.541-105.046,274.138-250.321
		C531.566,129.372,419.922,7.107,274.647,0.508z"/>
	<path id="rect4540" fill="#FFFFFF" d="M272.378,50.458L272.378,50.458c-117.24-5.324-216.598,85.401-221.921,202.641l0,0
		c-5.324,117.24,85.401,216.597,202.642,221.921l0,0c117.239,5.324,216.596-85.401,221.921-202.642l0,0
		C480.344,155.139,389.619,55.782,272.378,50.458z"/>
</g>
<path fill="none" stroke="#C50000" stroke-width="55" stroke-miterlimit="10" d="M422.239,427.739"/>
<path fill="none" stroke="#C50000" stroke-width="55" stroke-miterlimit="10" d="M92.239,97.738"/>
<path stroke="#000000" stroke-width="10" stroke-miterlimit="10" d="M128.987,211.457c8.794-22.829,17.589-45.685,26.401-68.532
	c4.013-6.422,7.073-9.811,17.204-10.187c58.153-0.21,120.319-0.394,178.49-0.586c7.071,0.376,12.605,3.792,16.636,10.206
	c9.747,23.607,19.494,47.205,29.241,70.803c2.858,4.709,0.367,7.173-7.438,7.375c-84.938-0.184-169.878-0.376-254.817-0.559
	C125.452,218.328,128.438,214.7,128.987,211.457z"/>
<path stroke="#000000" stroke-width="5" stroke-miterlimit="10" d="M100.882,324.217h312.714c4.104,0,7.475,2.475,7.475,5.516v4.287
	c0,3.022-3.371,5.496-7.475,5.496H100.882c-4.123,0-7.475-2.474-7.475-5.496v-4.287C93.407,326.692,96.759,324.217,100.882,324.217"
	/>
<path stroke="#000000" stroke-width="5" stroke-miterlimit="10" d="M121.036,350.252h29.095c3.188,0,5.827,2.895,5.827,6.486v30.103
	c0,3.535-2.639,6.485-5.827,6.485h-29.095c-3.225,0-5.826-2.913-5.826-6.485v-30.103
	C115.209,353.166,117.811,350.252,121.036,350.252"/>
<path stroke="#000000" stroke-width="5" stroke-miterlimit="10" d="M365.758,350.252h29.113c3.225,0,5.845,2.895,5.845,6.486v30.103
	c0,3.535-2.62,6.485-5.845,6.485h-29.113c-3.188,0-5.79-2.913-5.79-6.485v-30.103C359.968,353.166,362.57,350.252,365.758,350.252"
	/>
<path stroke="#000000" stroke-width="10" stroke-miterlimit="10" d="M122.685,234.698h280.028
	c7.659,0.375,12.221,4.544,13.76,12.459v66.287H106.598v-66.828C108.614,239.205,112.993,234.515,122.685,234.698z"/>
<path fill="#FFFFFF" d="M139.284,206.016c8.098-19.495,16.178-38.97,24.294-58.437c3.665-5.479,6.504-8.391,15.812-8.694
	c53.426-0.183,110.571-0.338,163.997-0.503c6.504,0.32,11.616,3.225,15.299,8.702c8.959,20.136,17.937,40.244,26.914,60.38
	c2.62,4.012,0.348,6.091-6.87,6.284c-78.05-0.174-156.083-0.339-234.132-0.485C136.06,211.851,138.808,208.755,139.284,206.016"/>
<path fill="#FFFFFF" d="M139.028,255.658c12.202,0,22.096,9.756,22.096,21.785s-9.894,21.784-22.096,21.784
	c-12.203,0-22.096-9.756-22.096-21.784S126.825,255.658,139.028,255.658"/>
<path fill="#FFFFFF" d="M383.218,255.658c12.165,0,22.077,9.756,22.077,21.785s-9.894,21.784-22.077,21.784
	c-12.221,0-22.096-9.756-22.096-21.784S370.998,255.658,383.218,255.658z"/>
<line fill="none" stroke="#C50000" stroke-width="55" stroke-miterlimit="10" x1="92.239" y1="97.739" x2="422.239" y2="427.739"/>
</svg>
