<?xml version="1.0" encoding="utf-8"?>
<!-- Generator: Adobe Illustrator 15.0.2, SVG Export Plug-In . SVG Version: 6.00 Build 0)  -->
<!DOCTYPE svg PUBLIC "-//W3C//DTD SVG 1.1//EN" "http://www.w3.org/Graphics/SVG/1.1/DTD/svg11.dtd">
<svg version="1.1"
	 id="svg2" inkscape:version="0.48.2 r9819" sodipodi:docname="AJAX1.svg" xmlns:rdf="http://www.w3.org/1999/02/22-rdf-syntax-ns#" xmlns:cc="http://creativecommons.org/ns#" xmlns:dc="http://purl.org/dc/elements/1.1/" xmlns:sodipodi="http://sodipodi.sourceforge.net/DTD/sodipodi-0.dtd" xmlns:svg="http://www.w3.org/2000/svg" xmlns:inkscape="http://www.inkscape.org/namespaces/inkscape" sodipodi:version="0.32"
	 xmlns="http://www.w3.org/2000/svg" xmlns:xlink="http://www.w3.org/1999/xlink" x="0px" y="0px" width="525.477px"
	 height="525.477px" viewBox="0 0 525.477 525.477" enable-background="new 0 0 525.477 525.477" xml:space="preserve">
<sodipodi:namedview  width="601px" height="601px" inkscape:pageopacity="0.0" inkscape:window-y="-8" fit-margin-right="0" inkscape:current-layer="layer1" fit-margin-bottom="0" inkscape:window-x="-8" inkscape:window-height="1004" inkscape:pageshadow="2" inkscape:window-width="1280" id="base" objecttolerance="10" inkscape:cy="235.04871" showgrid="false" borderopacity="1.0" pagecolor="#ffffff" bordercolor="#666666" inkscape:cx="369.80155" guidetolerance="10" fit-margin-left="0" gridtolerance="10000" inkscape:zoom="0.64333334" fit-margin-top="0" inkscape:window-maximized="1" inkscape:document-units="px">
	</sodipodi:namedview>
<g>
	<path id="rect3651" inkscape:connector-curvature="0" fill="#C50000" d="M274.647,0.508C129.372-6.089,7.106,105.556,0.509,250.832
		c-6.598,145.273,105.046,267.54,250.321,274.137c145.274,6.598,267.541-105.046,274.138-250.321
		C531.566,129.372,419.922,7.107,274.647,0.508z"/>
	<path id="rect4540" fill="#FFFFFF" d="M272.378,50.458L272.378,50.458c-117.24-5.324-216.598,85.401-221.921,202.641l0,0
		c-5.324,117.24,85.401,216.597,202.642,221.921l0,0c117.239,5.324,216.596-85.401,221.921-202.642l0,0
		C480.344,155.139,389.619,55.782,272.378,50.458z"/>
</g>
<path fill="none" stroke="#C50000" stroke-width="55" stroke-miterlimit="10" d="M422.239,427.739"/>
<path fill="none" stroke="#C50000" stroke-width="55" stroke-miterlimit="10" d="M92.239,97.738"/>
<path d="M80.044,279.965c17.734-24.885,35.468-49.781,53.213-74.676c0.259-0.366,0.59-0.52,0.92-0.52c6.383,0,12.861,0,19.232,0
	c0.59,0,1.121,0.354,1.144,1.086c0,24.967,0,49.957,0,74.923c4.142,0,8.295,0,12.401,0c0.59-0.023,1.228,0.354,1.239,1.086v18.949
	c0.035,0.743-0.602,1.156-1.039,1.18c-4.802,0-9.581,0-14.383,0c0.023,7.752,0.023,15.504,0.023,23.255
	c0.047,0.673-0.472,1.216-1.038,1.24c-6.561,0-13.156,0-19.728,0c-0.708,0.023-1.192-0.473-1.204-1.122
	c0-7.54-0.023-15.078-0.023-22.618c-16.661-0.012-33.25,0-49.933-0.012c-0.649-0.047-1.086-0.555-1.086-1.074
	c0.024-7.009,0.024-14.029,0.024-21.038C79.879,280.413,79.973,280.165,80.044,279.965z"/>
<path d="M180.89,445.528c25.238-25.439,50.488-50.854,75.761-76.28c0.496-0.53,1.204-0.53,1.723,0
	c23.173,25.392,46.37,50.76,69.566,76.127c0.851,0.803,0.26,1.936-0.637,2.006c-48.565,0-97.105,0-145.647,0
	C180.618,447.25,180.335,446.058,180.89,445.528"/>
<path d="M180.89,79.955c25.238,25.433,50.488,50.836,75.761,76.274c0.496,0.531,1.204,0.531,1.723,0
	c23.173-25.368,46.37-50.753,69.566-76.139c0.851-0.785,0.26-1.912-0.637-1.994c-48.565,0-97.105,0-145.647,0
	C180.618,78.214,180.335,79.423,180.89,79.955"/>
<path d="M356.729,249.96c-5.427,0-10.843,0-16.306,0c-0.473,0.023-0.967,0.271-1.038,1.015c0,24.801,0,49.591,0,74.381
	c0.023,0.589,0.401,1.085,1.086,1.108c5.498,0,10.973,0,16.471,0c0.685,0,1.109-0.473,1.133-1.085c0-16.165,0-32.342,0-48.506
	c7.339-7.092,18.596-6.266,23.952,0.048c0,16.128,0.023,32.257,0.047,48.398c-0.023,0.602,0.448,1.108,1.015,1.132
	c6.136,0,12.271,0,18.383,0c0.495-0.023,0.991-0.412,1.038-1.002l-0.023-48.541c7.422-7.457,17.203-6.631,22.726,0.013
	c0.023,16.104,0.023,32.223,0.023,48.327c-0.023,0.544,0.212,1.146,1.108,1.216c6.089,0,12.153,0,18.241,0
	c0.52-0.013,1.086-0.377,1.109-1.074c-0.023-18.843-0.023-37.649-0.023-56.493c-2.549-18.914-34.595-27.361-52.128-12.731
	c-0.519,0.449-0.991,0.614-1.381,0.33c-8.79-8.153-19.811-11.197-31.963-0.802c-1.074,0.496-2.029,0.72-2.359-0.814
	c0-1.286,0-2.572,0-3.858C357.863,250.503,357.343,249.983,356.729,249.96"/>
<path d="M187.733,350.157c-1.404,3.422-5.227,2.644-4.778-1.18l0.118-31.231c4.908-12.731,22.56-6.396,20.223,5.438L187.733,350.157
	"/>
<path d="M219.72,293.534l22.925-2.349c0.638,5.168,2.597,9.298,5.817,12.318c3.209,3.044,6.927,4.555,11.114,4.555
	c4.803,0,8.885-1.947,12.248-5.841c3.303-3.905,5.002-9.805,5.002-17.675c0-7.351-1.65-12.896-4.979-16.577
	c-3.304-3.705-7.622-5.545-12.908-5.545c-6.584,0-12.53,2.937-17.77,8.801l-18.677-2.748l11.787-62.5h60.896v21.521h-43.421
	l-3.61,20.4c5.145-2.572,10.347-3.834,15.739-3.834c10.206,0,18.867,3.716,25.946,11.114c7.103,7.434,10.654,17.085,10.654,28.955
	c0,9.876-2.855,18.713-8.566,26.453c-7.834,10.607-18.677,15.869-32.54,15.869c-11.092,0-20.142-2.96-27.127-8.907
	C225.242,311.597,221.053,303.597,219.72,293.534"/>
<path fill="#FFFFFF" d="M104.291,278.703c7.894-11.894,15.822-23.905,23.716-35.822h2.301v38.395h-26.017V278.703"/>
</svg>
