<?xml version="1.0" encoding="utf-8"?>
<!-- Generator: Adobe Illustrator 15.0.2, SVG Export Plug-In . SVG Version: 6.00 Build 0)  -->
<!DOCTYPE svg PUBLIC "-//W3C//DTD SVG 1.1//EN" "http://www.w3.org/Graphics/SVG/1.1/DTD/svg11.dtd">
<svg version="1.1"
	 id="svg2" inkscape:version="0.48.2 r9819" sodipodi:docname="AJAX1.svg" xmlns:rdf="http://www.w3.org/1999/02/22-rdf-syntax-ns#" xmlns:cc="http://creativecommons.org/ns#" xmlns:dc="http://purl.org/dc/elements/1.1/" xmlns:sodipodi="http://sodipodi.sourceforge.net/DTD/sodipodi-0.dtd" xmlns:svg="http://www.w3.org/2000/svg" xmlns:inkscape="http://www.inkscape.org/namespaces/inkscape" sodipodi:version="0.32"
	 xmlns="http://www.w3.org/2000/svg" xmlns:xlink="http://www.w3.org/1999/xlink" x="0px" y="0px" width="525.477px"
	 height="525.477px" viewBox="0 0 525.477 525.477" enable-background="new 0 0 525.477 525.477" xml:space="preserve">
<sodipodi:namedview  width="601px" height="601px" inkscape:pageopacity="0.0" inkscape:window-y="-8" fit-margin-right="0" inkscape:current-layer="layer1" fit-margin-bottom="0" inkscape:window-x="-8" inkscape:window-height="1004" inkscape:pageshadow="2" inkscape:window-width="1280" id="base" objecttolerance="10" inkscape:cy="235.04871" showgrid="false" borderopacity="1.0" pagecolor="#ffffff" bordercolor="#666666" inkscape:cx="369.80155" guidetolerance="10" fit-margin-left="0" gridtolerance="10000" inkscape:zoom="0.64333334" fit-margin-top="0" inkscape:window-maximized="1" inkscape:document-units="px">
	</sodipodi:namedview>
<g>
	<path id="rect3651" inkscape:connector-curvature="0" fill="#C50000" d="M274.647,0.508C129.372-6.089,7.106,105.556,0.509,250.832
		c-6.598,145.273,105.046,267.54,250.321,274.137c145.274,6.598,267.541-105.046,274.138-250.321
		C531.566,129.372,419.922,7.107,274.647,0.508z"/>
	<path id="rect4540" fill="#FFFFFF" d="M272.378,50.458L272.378,50.458c-117.24-5.324-216.598,85.401-221.921,202.641l0,0
		c-5.324,117.24,85.401,216.597,202.642,221.921l0,0c117.239,5.324,216.596-85.401,221.921-202.642l0,0
		C480.344,155.139,389.619,55.782,272.378,50.458z"/>
</g>
<path fill="none" stroke="#C50000" stroke-width="55" stroke-miterlimit="10" d="M422.239,427.739"/>
<path fill="none" stroke="#C50000" stroke-width="55" stroke-miterlimit="10" d="M92.239,97.738"/>
<path d="M192.175,131.721c-0.387,0.41-0.387,0.796-0.049,1.159c4.347,4.082,8.67,8.163,12.993,12.244
	c0.35,0.29,0.917,0.29,1.292-0.169c10.59-11.422,25.563-12.244,36.285-4.938c4.734,3.248,3.369,11.628-2.379,11.942
	c-24.282,0.242-51.74,23.015-46.475,58.031c0.073,0.471,0.277,0.773,0.809,0.797c23.473,0,46.934,0,70.384,0
	c0.458,0.048,0.845-0.265,0.845-0.773c0-6.93,0-13.825,0-20.744c0-0.447-0.362-0.797-0.845-0.809
	c-16.229,0-30.622,0.012-46.851,0.012c0.181-6.085,8.284-13.137,17.025-14.683c20.479,0,39.87-22.097,26.564-42.032
	C245.604,109.793,209.296,111.062,192.175,131.721"/>
<path d="M291.235,143.977c0-7.426,0-14.803,0-22.229c0-0.278,0.17-0.508,0.338-0.604l16.409-7.655c0.508-0.242,1.1,0.084,1.075,0.7
	c0,9.901,0,19.778,0,29.655c2.861,0,6.073,0,8.959,0c0.677-0.024,0.7,0.242,0.7,0.785l0.024,16.023
	c-0.024,0.435-0.386,0.375-0.725,0.375h-9.418l-0.048,25.538c1.34,4.637,9.78,3.864,13.777-0.688
	c1.291-1.184,2.378,0.036,2.053,1.63c-1.221,5.724-2.428,11.495-3.671,17.243c-0.048,0.206-0.157,0.362-0.363,0.459
	c-10.335,6.87-25.742,2.898-28.193-13.198c0-10.228,0-20.443,0-30.682h-7.934c-0.506,0-0.676-0.253-0.676-0.688
	c0-5.337,0-10.662,0-16.011c0-0.531,0.277-0.676,0.676-0.676C286.574,143.977,288.892,143.977,291.235,143.977"/>
<path d="M217.205,259.881l43.602,44.169c0.301,0.302,1.014,0.302,1.315,0l42.274-44.241c1.207-1.292,0.627-3.019-1.208-2.922
	h-84.692C216.746,256.791,216.143,258.879,217.205,259.881"/>
<path d="M171.671,351.818h59.516c4.939-10.698,15.793-18.148,28.352-18.148c12.57,0,23.388,7.45,28.339,18.148h65.927v-26.709
	c0-3.501,2.584-6.352,5.725-6.352h35.861c3.164,0,5.747,2.851,5.747,6.352v80.623c0,3.465-2.583,6.338-5.747,6.338H359.53
	c-3.141,0-5.725-2.85-5.725-6.338v-27.397h-66.072c-5.047,10.516-15.77,17.773-28.194,17.773c-12.425,0-23.159-7.269-28.194-17.773
	h-59.673v27.397c0,3.465-2.583,6.338-5.747,6.338h-35.838c-3.164,0-5.748-2.85-5.748-6.338v-80.623c0-3.501,2.584-6.352,5.748-6.352
	h35.838c3.164,0,5.747,2.851,5.747,6.352V351.818"/>
</svg>
