<?xml version="1.0" encoding="utf-8"?>
<!-- Generator: Adobe Illustrator 15.0.2, SVG Export Plug-In . SVG Version: 6.00 Build 0)  -->
<!DOCTYPE svg PUBLIC "-//W3C//DTD SVG 1.1//EN" "http://www.w3.org/Graphics/SVG/1.1/DTD/svg11.dtd">
<svg version="1.1"
	 id="svg2" inkscape:version="0.48.2 r9819" sodipodi:docname="AJAX1.svg" xmlns:rdf="http://www.w3.org/1999/02/22-rdf-syntax-ns#" xmlns:cc="http://creativecommons.org/ns#" xmlns:dc="http://purl.org/dc/elements/1.1/" xmlns:sodipodi="http://sodipodi.sourceforge.net/DTD/sodipodi-0.dtd" xmlns:svg="http://www.w3.org/2000/svg" xmlns:inkscape="http://www.inkscape.org/namespaces/inkscape" sodipodi:version="0.32"
	 xmlns="http://www.w3.org/2000/svg" xmlns:xlink="http://www.w3.org/1999/xlink" x="0px" y="0px" width="525.477px"
	 height="525.477px" viewBox="0 0 525.477 525.477" enable-background="new 0 0 525.477 525.477" xml:space="preserve">
<sodipodi:namedview  width="601px" height="601px" inkscape:pageopacity="0.0" inkscape:window-y="-8" fit-margin-right="0" inkscape:current-layer="layer1" fit-margin-bottom="0" inkscape:window-x="-8" inkscape:window-height="1004" inkscape:pageshadow="2" inkscape:window-width="1280" id="base" objecttolerance="10" inkscape:cy="235.04871" showgrid="false" borderopacity="1.0" pagecolor="#ffffff" bordercolor="#666666" inkscape:cx="369.80155" guidetolerance="10" fit-margin-left="0" gridtolerance="10000" inkscape:zoom="0.64333334" fit-margin-top="0" inkscape:window-maximized="1" inkscape:document-units="px">
	</sodipodi:namedview>
<g>
	<path id="rect3651" inkscape:connector-curvature="0" fill="#C50000" d="M274.647,0.508C129.372-6.089,7.106,105.556,0.509,250.832
		c-6.598,145.273,105.046,267.54,250.321,274.137c145.274,6.598,267.541-105.046,274.138-250.321
		C531.566,129.372,419.922,7.107,274.647,0.508z"/>
	<path id="rect4540" fill="#FFFFFF" d="M272.378,50.458L272.378,50.458c-117.24-5.324-216.598,85.401-221.921,202.641l0,0
		c-5.324,117.24,85.401,216.597,202.642,221.921l0,0c117.239,5.324,216.596-85.401,221.921-202.642l0,0
		C480.344,155.139,389.619,55.782,272.378,50.458z"/>
</g>
<path fill="none" stroke="#C50000" stroke-width="55" stroke-miterlimit="10" d="M422.239,427.739"/>
<path fill="none" stroke="#C50000" stroke-width="55" stroke-miterlimit="10" d="M92.239,97.738"/>
<g>
	<path d="M263.476,235.811c51.492-5.309,102.827-4.918,154.012,0.203c12.814,0.816,14.785,9.588,16.799,18.943
		c1.901,10.232,1.608,23.749-2.219,34.575c-1.642,5.229-5.241,8.581-10.188,8.691l-161.63-0.022
		c-6.748,0.102-10.312-3.486-12.09-8.646c-3.542-9.063-3.045-23.054-2.117-34.576C247.901,240.147,255.802,236.1,263.476,235.811"/>
	<path d="M408.489,225.142c-46.421-3.809-94.007-3.605-138.107-0.022c-0.182-0.011-0.158-0.136-0.136-0.278l9.349-26.091
		c0.341-0.974,0.917-1.659,1.835-1.947c38.328-3.883,78.002-4.499,114.869-0.418c1.448,0.153,2.523,0.86,3.045,2.366l9.406,26.209
		C408.772,225.074,408.728,225.142,408.489,225.142 M258.541,230.502c-0.271,1.353,0.295,3.312,2.401,3.685
		c53.494-4.998,105.666-4.443,156.637,0.209c3.104,0.401,4.371-2.009,3.805-4.035c-3.985-14.071-7.97-28.028-11.977-42.108
		c-0.61-1.891-1.731-3.458-4.742-3.837c-42.641-4.313-85.677-5.308-129.38-0.011c-2.187,0.266-4.155,1.494-4.767,3.871
		C266.521,202.345,262.525,216.426,258.541,230.502z"/>
	<path d="M255.712,299.675h169.384c7.856,0,8.557,12.11,0,12.11H255.712C247.133,311.788,247.846,299.675,255.712,299.675"/>
	<path d="M392.995,316.134c-0.612,0.068-1.018,0.409-1.063,0.974c0,7.447,0.021,14.896,0.021,22.343
		c0.024,3.114,2.401,5.118,5.58,5.229c4.722,0,9.431,0,14.163,0c2.511-0.159,5.603-1.539,5.556-5.229
		c0-7.447,0.014-14.896,0.014-22.343c-0.014-0.521-0.408-0.952-1.056-0.974C408.468,316.134,400.737,316.134,392.995,316.134"/>
	<path d="M287.475,316.134c0.632,0.068,1.019,0.409,1.063,0.974c0,7.447,0,14.896,0,22.343c-0.024,3.114-2.398,5.118-5.595,5.229
		c-4.717,0-9.438,0-14.146,0c-2.514-0.159-5.616-1.539-5.582-5.229c0-7.447,0-14.896,0-22.343c0.012-0.521,0.407-0.952,1.053-0.974
		C272.01,316.134,279.733,316.134,287.475,316.134"/>
</g>
<g>
	<path d="M225.835,259.928l-77.375,52c-0.5,0.375-0.75,0.375-1.125,0.5c-1.25,0.375-2.25,0.625-2.875,0.625
		c-1.875,0-2.875-0.25-4.875-1.75c-2.125-1.5-2.875-3.875-2.875-6.25v-1.125c0-0.25,0-0.375,0.125-0.5l7.5-24.75h-37.5v-37.5h37.5
		l-7.5-24.875c-0.125-0.875-0.125-1.375-0.125-1.75c0-5.625,4.625-7.625,7.75-7.625c1.125,0,2.125,0.25,3.25,0.625
		c0,0,0.25,0.125,0.75,0.5L225.835,259.928z"/>
</g>
</svg>
