<?xml version="1.0" encoding="utf-8"?>
<!-- Generator: Adobe Illustrator 15.0.2, SVG Export Plug-In . SVG Version: 6.00 Build 0)  -->
<!DOCTYPE svg PUBLIC "-//W3C//DTD SVG 1.1//EN" "http://www.w3.org/Graphics/SVG/1.1/DTD/svg11.dtd">
<svg version="1.1"
	 id="svg2" inkscape:version="0.48.2 r9819" sodipodi:docname="AJAX1.svg" xmlns:rdf="http://www.w3.org/1999/02/22-rdf-syntax-ns#" xmlns:cc="http://creativecommons.org/ns#" xmlns:dc="http://purl.org/dc/elements/1.1/" xmlns:sodipodi="http://sodipodi.sourceforge.net/DTD/sodipodi-0.dtd" xmlns:svg="http://www.w3.org/2000/svg" xmlns:inkscape="http://www.inkscape.org/namespaces/inkscape" sodipodi:version="0.32"
	 xmlns="http://www.w3.org/2000/svg" xmlns:xlink="http://www.w3.org/1999/xlink" x="0px" y="0px" width="525.477px"
	 height="525.477px" viewBox="0 0 525.477 525.477" enable-background="new 0 0 525.477 525.477" xml:space="preserve">
<sodipodi:namedview  width="601px" height="601px" inkscape:pageopacity="0.0" inkscape:window-y="-8" fit-margin-right="0" inkscape:current-layer="layer1" fit-margin-bottom="0" inkscape:window-x="-8" inkscape:window-height="1004" inkscape:pageshadow="2" inkscape:window-width="1280" id="base" objecttolerance="10" inkscape:cy="235.04871" showgrid="false" borderopacity="1.0" pagecolor="#ffffff" bordercolor="#666666" inkscape:cx="369.80155" guidetolerance="10" fit-margin-left="0" gridtolerance="10000" inkscape:zoom="0.64333334" fit-margin-top="0" inkscape:window-maximized="1" inkscape:document-units="px">
	</sodipodi:namedview>
<g>
	<path id="rect3651" inkscape:connector-curvature="0" fill="#C50000" d="M274.647,0.508C129.372-6.089,7.106,105.556,0.509,250.832
		c-6.598,145.273,105.046,267.54,250.321,274.137c145.274,6.598,267.541-105.046,274.138-250.321
		C531.566,129.372,419.922,7.107,274.647,0.508z"/>
	<path id="rect4540" fill="#FFFFFF" d="M272.378,50.458L272.378,50.458c-117.24-5.324-216.598,85.401-221.921,202.641l0,0
		c-5.324,117.24,85.402,216.597,202.642,221.921l0,0c117.24,5.324,216.596-85.401,221.921-202.642l0,0
		C480.344,155.139,389.619,55.782,272.378,50.458z"/>
</g>
<path id="path38" inkscape:connector-curvature="0" sodipodi:nodetypes="cssccccccccscccccsscc" d="M68.724,242.397
	c10.635-0.063,294.875-1.84,294.875-1.853c0-0.122-0.552-1.952-4.375-14.039c-2.082-6.579-3.849-12.277-3.927-12.631
	c-0.106-0.483-0.155-0.945-0.13-1.938c0.04-1.549,0.203-2.32,0.799-3.587c1.159-2.463,3.347-4.112,6.168-4.708
	c0.707-0.149,1.088-0.129,2.318-0.103c1.641,0.036,2.429,0.133,3.47,0.625c0.405,0.192,76.767,51.488,85.932,57.721
	c0.258,0.174,0.471,0.317,0.474,0.32c0.028,0.034-9.208,6.454-58.683,40.658c-14.51,10.032-26.667,18.338-26.987,18.494
	c-1.033,0.506-1.819,0.671-3.46,0.728c-1.229,0.041-1.612,0.066-2.321-0.075c-3.377-0.669-5.909-3.018-6.822-6.241
	c-0.271-0.959-0.335-3.004-0.143-3.934c0.074-0.355,1.769-6.075,3.768-12.681c3.685-12.17,4.199-13.996,4.198-14.12
	c0.001-0.007-284.238,1.762-294.874,1.821L68.724,242.397z"/>
</svg>
