<?xml version="1.0" encoding="utf-8"?>
<!-- Generator: Adobe Illustrator 15.0.2, SVG Export Plug-In . SVG Version: 6.00 Build 0)  -->
<!DOCTYPE svg PUBLIC "-//W3C//DTD SVG 1.1//EN" "http://www.w3.org/Graphics/SVG/1.1/DTD/svg11.dtd">
<svg version="1.1"
	 id="svg2" inkscape:version="0.48.2 r9819" sodipodi:docname="AJAX1.svg" xmlns:rdf="http://www.w3.org/1999/02/22-rdf-syntax-ns#" xmlns:cc="http://creativecommons.org/ns#" xmlns:dc="http://purl.org/dc/elements/1.1/" xmlns:sodipodi="http://sodipodi.sourceforge.net/DTD/sodipodi-0.dtd" xmlns:svg="http://www.w3.org/2000/svg" xmlns:inkscape="http://www.inkscape.org/namespaces/inkscape" sodipodi:version="0.32"
	 xmlns="http://www.w3.org/2000/svg" xmlns:xlink="http://www.w3.org/1999/xlink" x="0px" y="0px" width="525.477px"
	 height="525.477px" viewBox="0 0 525.477 525.477" enable-background="new 0 0 525.477 525.477" xml:space="preserve">
<sodipodi:namedview  width="601px" height="601px" inkscape:pageopacity="0.0" inkscape:window-y="-8" fit-margin-right="0" inkscape:current-layer="layer1" fit-margin-bottom="0" inkscape:window-x="-8" inkscape:window-height="1004" inkscape:pageshadow="2" inkscape:window-width="1280" id="base" objecttolerance="10" inkscape:cy="235.04871" showgrid="false" borderopacity="1.0" pagecolor="#ffffff" bordercolor="#666666" inkscape:cx="369.80155" guidetolerance="10" fit-margin-left="0" gridtolerance="10000" inkscape:zoom="0.64333334" fit-margin-top="0" inkscape:window-maximized="1" inkscape:document-units="px">
	</sodipodi:namedview>
<g>
	<path id="rect3651" inkscape:connector-curvature="0" fill="#C50000" d="M0.509,274.647
		c6.597,145.275,128.863,256.919,274.138,250.321c145.275-6.597,256.919-128.863,250.321-274.137
		C518.372,105.556,396.106-6.089,250.831,0.508C105.555,7.107-6.088,129.372,0.509,274.647z"/>
	<path id="rect4540" fill="#FFFFFF" d="M50.458,272.378L50.458,272.378c5.325,117.24,104.682,207.966,221.921,202.642l0,0
		c117.24-5.324,207.966-104.682,202.642-221.921l0,0c-5.323-117.24-104.681-207.965-221.921-202.641l0,0
		C135.859,55.782,45.133,155.139,50.458,272.378z"/>
</g>
<path fill="none" stroke="#C50000" stroke-width="55" stroke-miterlimit="10" d="M103.239,427.739"/>
<path fill="none" stroke="#C50000" stroke-width="55" stroke-miterlimit="10" d="M433.239,97.738"/>
<path id="path23-4" inkscape:connector-curvature="0" d="M272.525,291.909v-90.337l-24.012,7.149
	c-3.235,1.151-6.854,0.22-9.156-2.325c-2.6-2.865-2.919-7.126-0.788-10.354l55.181-80.229l56.503,79.54
	c2.179,2.942,2.156,6.976-0.049,9.889c-2.104,2.77-5.706,3.921-9.03,2.894l-24.729-6.933v208.46h-43.92v-41.672
	c-3.356-17.993-13.289-34.243-28.056-45.481c-15.669-11.926-35.425-17.138-54.933-14.519l7.783,26.219
	c0.978,3.722-0.586,7.665-3.844,9.693c-2.913,1.837-6.654,1.788-9.522-0.115l-80.715-55.43l80.424-57.337
	c3.179-2.399,7.588-2.348,10.693,0.148c2.694,2.156,3.866,5.704,2.987,9.034l-8.151,26.467c14.761-1.765,29.721-0.469,43.968,3.791
	C247.631,274.797,261.044,282.114,272.525,291.909L272.525,291.909z"/>
</svg>
