<?xml version="1.0" encoding="utf-8"?>
<!-- Generator: Adobe Illustrator 15.0.2, SVG Export Plug-In . SVG Version: 6.00 Build 0)  -->
<!DOCTYPE svg PUBLIC "-//W3C//DTD SVG 1.1//EN" "http://www.w3.org/Graphics/SVG/1.1/DTD/svg11.dtd">
<svg version="1.1"
	 id="svg2" inkscape:version="0.48.2 r9819" sodipodi:docname="AJAX1.svg" xmlns:rdf="http://www.w3.org/1999/02/22-rdf-syntax-ns#" xmlns:cc="http://creativecommons.org/ns#" xmlns:dc="http://purl.org/dc/elements/1.1/" xmlns:sodipodi="http://sodipodi.sourceforge.net/DTD/sodipodi-0.dtd" xmlns:svg="http://www.w3.org/2000/svg" xmlns:inkscape="http://www.inkscape.org/namespaces/inkscape" sodipodi:version="0.32"
	 xmlns="http://www.w3.org/2000/svg" xmlns:xlink="http://www.w3.org/1999/xlink" x="0px" y="0px" width="525.477px"
	 height="525.477px" viewBox="0 0 525.477 525.477" enable-background="new 0 0 525.477 525.477" xml:space="preserve">
<sodipodi:namedview  width="601px" height="601px" inkscape:pageopacity="0.0" inkscape:window-y="-8" fit-margin-right="0" inkscape:current-layer="layer1" fit-margin-bottom="0" inkscape:window-x="-8" inkscape:window-height="1004" inkscape:pageshadow="2" inkscape:window-width="1280" id="base" objecttolerance="10" inkscape:cy="235.04871" showgrid="false" borderopacity="1.0" pagecolor="#ffffff" bordercolor="#666666" inkscape:cx="369.80155" guidetolerance="10" fit-margin-left="0" gridtolerance="10000" inkscape:zoom="0.64333334" fit-margin-top="0" inkscape:window-maximized="1" inkscape:document-units="px">
	</sodipodi:namedview>
<g>
	<path id="rect3651" inkscape:connector-curvature="0" fill="#C50000" d="M274.647,0.508C129.372-6.089,7.106,105.556,0.509,250.832
		c-6.598,145.273,105.046,267.54,250.321,274.137c145.274,6.598,267.541-105.046,274.138-250.321
		C531.566,129.372,419.922,7.107,274.647,0.508z"/>
	<path id="rect4540" fill="#FFFFFF" d="M272.378,50.458L272.378,50.458c-117.24-5.324-216.598,85.401-221.921,202.641l0,0
		c-5.324,117.24,85.402,216.597,202.642,221.921l0,0c117.24,5.324,216.596-85.401,221.921-202.642l0,0
		C480.344,155.139,389.619,55.782,272.378,50.458z"/>
</g>
<path id="path38" inkscape:connector-curvature="0" sodipodi:nodetypes="cssccccccccscccccsscc" d="M241.105,455.621
	c-0.063-10.635-1.84-294.875-1.853-294.875c-0.122,0-1.952,0.552-14.039,4.375c-6.579,2.082-12.277,3.848-12.631,3.927
	c-0.483,0.106-0.945,0.155-1.938,0.129c-1.549-0.04-2.32-0.203-3.587-0.799c-2.463-1.159-4.112-3.346-4.708-6.167
	c-0.149-0.707-0.129-1.088-0.103-2.319c0.036-1.641,0.133-2.429,0.625-3.469c0.192-0.405,51.488-76.767,57.721-85.932
	c0.174-0.258,0.317-0.471,0.32-0.474c0.034-0.028,6.453,9.208,40.657,58.683c10.032,14.51,18.338,26.667,18.494,26.987
	c0.506,1.034,0.671,1.82,0.728,3.46c0.041,1.229,0.066,1.612-0.075,2.321c-0.669,3.377-3.018,5.91-6.241,6.822
	c-0.959,0.271-3.004,0.335-3.934,0.143c-0.355-0.074-6.075-1.769-12.681-3.768c-12.17-3.684-13.996-4.199-14.12-4.198
	c-0.007-0.001,1.762,284.238,1.821,294.874L241.105,455.621z"/>
</svg>
