<?xml version="1.0" encoding="utf-8"?>
<!-- Generator: Adobe Illustrator 15.0.2, SVG Export Plug-In . SVG Version: 6.00 Build 0)  -->
<!DOCTYPE svg PUBLIC "-//W3C//DTD SVG 1.1//EN" "http://www.w3.org/Graphics/SVG/1.1/DTD/svg11.dtd">
<svg version="1.1"
	 id="svg2" inkscape:version="0.48.2 r9819" sodipodi:docname="AJAX1.svg" xmlns:rdf="http://www.w3.org/1999/02/22-rdf-syntax-ns#" xmlns:cc="http://creativecommons.org/ns#" xmlns:dc="http://purl.org/dc/elements/1.1/" xmlns:sodipodi="http://sodipodi.sourceforge.net/DTD/sodipodi-0.dtd" xmlns:svg="http://www.w3.org/2000/svg" xmlns:inkscape="http://www.inkscape.org/namespaces/inkscape" sodipodi:version="0.32"
	 xmlns="http://www.w3.org/2000/svg" xmlns:xlink="http://www.w3.org/1999/xlink" x="0px" y="0px" width="525.477px"
	 height="525.477px" viewBox="0 0 525.477 525.477" enable-background="new 0 0 525.477 525.477" xml:space="preserve">
<sodipodi:namedview  width="601px" height="601px" inkscape:pageopacity="0.0" inkscape:window-y="-8" fit-margin-right="0" inkscape:current-layer="layer1" fit-margin-bottom="0" inkscape:window-x="-8" inkscape:window-height="1004" inkscape:pageshadow="2" inkscape:window-width="1280" id="base" objecttolerance="10" inkscape:cy="235.04871" showgrid="false" borderopacity="1.0" pagecolor="#ffffff" bordercolor="#666666" inkscape:cx="369.80155" guidetolerance="10" fit-margin-left="0" gridtolerance="10000" inkscape:zoom="0.64333334" fit-margin-top="0" inkscape:window-maximized="1" inkscape:document-units="px">
	</sodipodi:namedview>
<g>
	<path id="rect3651" inkscape:connector-curvature="0" fill="#C50000" d="M274.647,0.508C129.372-6.089,7.106,105.556,0.509,250.832
		c-6.598,145.273,105.046,267.54,250.321,274.137c145.274,6.598,267.541-105.046,274.138-250.321
		C531.566,129.372,419.922,7.107,274.647,0.508z"/>
	<path id="rect4540" fill="#FFFFFF" d="M272.378,50.458L272.378,50.458c-117.24-5.324-216.598,85.401-221.921,202.641l0,0
		c-5.324,117.24,85.401,216.597,202.642,221.921l0,0c117.239,5.324,216.596-85.401,221.921-202.642l0,0
		C480.344,155.139,389.619,55.782,272.378,50.458z"/>
</g>
<path fill="none" stroke="#C50000" stroke-width="55" stroke-miterlimit="10" d="M422.239,427.739"/>
<path fill="none" stroke="#C50000" stroke-width="55" stroke-miterlimit="10" d="M92.239,97.738"/>
<path d="M269.672,116.659c0.049,0.074,0.135,0.147,0.183,0.221c68.564-4.357,119.652,34.698,142.967,80.669
	c0.209,0.354,0.209,0.746-0.098,1.114l-31.149,24.845c-0.563,0.563-1.37,0.281-1.7-0.44c-18.078-39.655-48.052-68.246-101.414-74.99
	c0.023,0.085,0.023,0.159,0.049,0.257c8.507,9.497,16.975,18.995,25.421,28.492c3.011,3.844-0.734,11.835-7.932,10.551
	c-38.284-9.13-76.568-18.237-114.853-27.355c-2.693-0.771-2.668-2.105-1.396-3.672c28.346-27.453,56.692-54.905,85.05-82.37
	c5.643-5.098,13.011-1.854,12.448,4.982C274.727,91.52,272.206,104.102,269.672,116.659"/>
<path d="M137.207,331.446c0.025-0.086,0.074-0.186,0.098-0.258c-38.113-57.182-29.863-120.948-1.762-164.177
	c0.22-0.342,0.563-0.538,1.016-0.465l37.122,14.54c0.758,0.221,0.93,1.053,0.453,1.665c-25.25,35.543-35.017,75.785-14.137,125.33
	c0.062-0.051,0.123-0.098,0.196-0.146c3.978-12.094,7.956-24.197,11.946-36.303c1.823-4.516,10.599-5.262,13.096,1.605
	c11.26,37.695,22.545,75.416,33.817,113.125c0.673,2.693-0.477,3.342-2.484,3.023C178.625,378.604,140.67,367.784,102.692,357
	c-7.246-2.338-8.115-10.342-1.934-13.256C112.913,339.659,125.054,335.559,137.207,331.446"/>
<path d="M389.201,337.969c-0.099,0-0.208,0.025-0.281,0.049c-30.562,61.514-89.972,86.189-141.412,83.348
	c-0.404-0.023-0.759-0.207-0.918-0.635l-5.888-39.436c-0.221-0.783,0.416-1.334,1.2-1.248c43.388,4.186,83.141-7.416,115.709-50.23
	c-0.073-0.023-0.183-0.074-0.257-0.098c-12.459,2.596-24.907,5.189-37.392,7.76c-4.834,0.672-9.84-6.572-5.14-12.141
	c27.072-28.592,54.11-57.17,81.194-85.749c2.009-1.934,3.134-1.249,3.868,0.637c9.583,38.31,19.118,76.569,28.714,114.853
	c1.591,7.467-4.921,12.215-10.551,8.299C408.428,354.932,398.833,346.438,389.201,337.969"/>
</svg>
