<?xml version="1.0" encoding="UTF-8" standalone="no"?>
<!-- Created with Inkscape (http://www.inkscape.org/) -->

<svg
   xmlns:dc="http://purl.org/dc/elements/1.1/"
   xmlns:cc="http://creativecommons.org/ns#"
   xmlns:rdf="http://www.w3.org/1999/02/22-rdf-syntax-ns#"
   xmlns:svg="http://www.w3.org/2000/svg"
   xmlns="http://www.w3.org/2000/svg"
   xmlns:sodipodi="http://sodipodi.sourceforge.net/DTD/sodipodi-0.dtd"
   xmlns:inkscape="http://www.inkscape.org/namespaces/inkscape"
   width="525.47699"
   height="525.47699"
   viewBox="0 0 525.47699 525.47699"
   version="1.1"
   id="svg8"
   inkscape:version="0.92.4 5da689c313, 2019-01-14"
   sodipodi:docname="Brasil_R-37.svg">
  <defs
     id="defs2" />
  <sodipodi:namedview
     id="base"
     pagecolor="#ffffff"
     bordercolor="#666666"
     borderopacity="1.0"
     inkscape:pageopacity="0.0"
     inkscape:pageshadow="2"
     inkscape:zoom="1.4142136"
     inkscape:cx="320.53366"
     inkscape:cy="346.63066"
     inkscape:document-units="px"
     inkscape:current-layer="layer1"
     showgrid="false"
     inkscape:window-width="1920"
     inkscape:window-height="1030"
     inkscape:window-x="1920"
     inkscape:window-y="25"
     inkscape:window-maximized="1"
     inkscape:snap-global="false"
     units="px">
    <inkscape:grid
       type="xygrid"
       id="grid46"
       originx="-1.9059693"
       originy="-49.212317" />
  </sodipodi:namedview>
  <metadata
     id="metadata5">
    <rdf:RDF>
      <cc:Work
         rdf:about="">
        <dc:format>image/svg+xml</dc:format>
        <dc:type
           rdf:resource="http://purl.org/dc/dcmitype/StillImage" />
        <dc:title></dc:title>
      </cc:Work>
    </rdf:RDF>
  </metadata>
  <g
     transform="matrix(0.99928536,0,0,0.99928536,0.18775831,0.18771607)"
     id="g580"
     style="display:inline"
     inkscape:label="circulo">
    <path
       id="rect3651"
       inkscape:connector-curvature="0"
       d="M 274.647,0.508 C 129.372,-6.089 7.106,105.556 0.509,250.832 -6.089,396.105 105.555,518.372 250.83,524.969 396.104,531.567 518.371,419.923 524.968,274.648 531.566,129.372 419.922,7.107 274.647,0.508 Z"
       style="display:inline;fill:#c50000" />
    <path
       id="rect4540"
       d="m 272.378,50.458 v 0 C 155.138,45.134 55.78,135.859 50.457,253.099 v 0 c -5.324,117.24 85.401,216.597 202.642,221.921 v 0 c 117.239,5.324 216.596,-85.401 221.921,-202.642 v 0 C 480.344,155.139 389.619,55.782 272.378,50.458 Z"
       inkscape:connector-curvature="0"
       style="display:inline;fill:#ffffff" />
  </g>
  <g
     inkscape:label="simbolo"
     inkscape:groupmode="layer"
     id="layer1"
     style="display:inline"
     transform="translate(-1.9059693,-279.27991)">
    <g
       id="g168"
       transform="matrix(0.71324756,0,0,0.71324756,80.511103,154.37215)">
      <path
         style="fill:#010101"
         d="M 67.90594,676.77348 C 51.59413,673.10147 41.74665,667.99184 30.76927,657.50411 17.73404,645.05033 11.44293,633.1408 8.29801,614.96437 4.47783,592.88518 11.4759,569.3384 26.70334,553.03498 41.55214,537.13695 60.04,529.13143 81.90594,529.13143 c 9.40654,0 19.90364,1.76558 27,4.5413 1.5517,0.60694 3.35423,-2.30174 14.67811,-23.68564 l 5.17811,-9.77829 -2.55008,-1.67088 c -3.20208,-2.09808 -10.18932,-3.11436 -22.05614,-3.20802 l -9.25,-0.073 v -22.43359 -22.43358 l 9.95761,-0.31642 9.9576,-0.31641 17.7924,18.60081 c 22.08449,23.08793 101.12633,104.8053 118.50121,122.51242 l 12.86719,13.11324 -4.28801,0.63143 c -2.3584,0.34729 -12.42092,0.92683 -22.36116,1.28788 -16.70273,0.60667 -18.60821,0.49393 -25.12929,-1.48678 -12.24648,-3.71976 -23.76351,-13.99567 -29.6632,-26.4666 -3.55924,-7.52361 -4.09227,-13.5436 -2.17243,-24.53532 2.44631,-14.00599 1.29322,-16.02762 -15.96192,-27.98472 -3.3,-2.28676 -9.70636,-6.85458 -14.23635,-10.1507 l -8.23636,-5.99295 -1.76364,2.67887 c -0.97001,1.47338 -4.91365,8.55442 -8.76365,15.73565 l -7,13.05677 9,9 c 15.58325,15.58325 21.45395,28.92482 22.25863,50.58429 0.56472,15.20031 -1.41724,24.69315 -7.91621,37.91571 -3.39489,6.90713 -5.87979,10.19408 -13.26011,17.54006 -10.20195,10.1545 -19.64792,15.78384 -32.60968,19.43378 -9.86487,2.77787 -25.36011,3.48153 -33.97263,1.54274 z m 30.31903,-22.96519 c 7.41229,-2.61578 17.75765,-8.90074 21.87534,-13.28958 12.41113,-13.22844 17.74754,-34.16268 12.84693,-50.39732 -3.04794,-10.09716 -7.2617,-17.67346 -13.20552,-23.74345 -2.75803,-2.81657 -5.33084,-5.12104 -5.71734,-5.12104 -0.66409,0 -12.6219,21.40522 -15.19497,27.19993 -0.98314,2.21408 -0.90417,3.32097 0.43883,6.15113 2.30363,4.85455 2.09851,13.06559 -0.45835,18.34735 -6.26389,12.93948 -27.4411,12.94473 -34.05967,0.008 -2.56798,-5.01924 -2.83031,-13.91353 -0.53978,-18.3011 3.22336,-6.17399 9.64108,-10.40531 15.78262,-10.40531 3.44674,0 5.15153,-2.37157 13.91288,-19.35446 6.16939,-11.95867 6.19869,-11.78519 -2.29922,-13.61318 -11.33226,-2.43768 -23.20022,-0.48372 -35.16601,5.78979 -30.45343,15.96636 -36.9322,58.40376 -12.6839,83.08247 10.74659,10.93735 22.87829,16.04088 38.14913,16.04847 7.48764,0.004 10.94445,-0.50502 16.31903,-2.4017 z m 332.95831,14.00404 c -5.38951,-5.53049 -12.04421,-12.44388 -14.78822,-15.3631 l -4.98912,-5.30766 7.77307,3.67964 c 15.2522,7.22015 30.09108,7.07215 45.18052,-0.45062 10.28175,-5.12592 14.48316,-8.67385 20.62072,-17.41341 13.4276,-19.12022 12.67991,-43.55529 -1.92407,-62.8801 -10.66334,-14.11034 -30.66571,-22.29748 -48.35318,-19.79137 -6.36779,0.90224 -14.79706,3.58632 -14.79706,4.71174 0,0.28786 0.9367,2.039 2.08156,3.89142 l 2.08156,3.36803 h 13.69593 c 10.56074,0 14.18658,0.34366 15.83926,1.50124 2.93397,2.05503 3.89449,6.94508 1.94777,9.91616 -1.36123,2.07749 -2.58876,2.41544 -11.08838,3.05268 -5.25673,0.39411 -9.5577,1.15416 -9.5577,1.68899 0,3.11506 2.23173,4.84177 6.28518,4.86289 8.71058,0.0454 16.56835,6.00665 18.78922,14.25436 3.40646,12.65061 -5.54202,24.72368 -18.32502,24.72368 -8.33631,0 -14.31097,-3.84846 -17.85352,-11.5 -2.29778,-4.96297 -2.38527,-9.66191 -0.28881,-15.51209 l 1.61694,-4.51209 -4.31528,-6.76876 -4.31528,-6.76876 -11.04315,0.28085 -11.04315,0.28085 -2.41631,6 c -1.88277,4.67513 -2.51687,8.4398 -2.87172,17.04925 -0.42652,10.34837 -0.26125,11.61254 2.60547,19.92943 l 3.06086,8.88018 -14.02787,-13.92943 -14.02786,-13.92943 0.54752,-6.25 c 0.60978,-6.96057 0.56025,-7.00106 -6.54394,-5.35024 l -3.66673,0.85205 -58.23191,-59.99046 c -33.02816,-34.0256 -57.19373,-59.66518 -55.83327,-59.23891 1.31925,0.41335 7.34863,2.89719 13.39863,5.51963 17.39327,7.53932 24.57064,9.46569 35,9.39381 8.37118,-0.0577 47.33739,-4.0365 97,-9.90458 22.16672,-2.61919 29.1905,-3.98876 44.37299,-8.65226 11.05249,-3.39492 14.43237,-3.57368 17.10157,-0.90448 3.61653,3.61653 3.51017,6.48774 -1.00652,27.17182 -2.3811,10.90415 -4.10484,20.05015 -3.83055,20.32444 0.27429,0.27429 4.06806,0.99428 8.43061,1.59998 32.61658,4.52849 60.22483,26.76183 70.57023,56.83127 1.02392,2.97607 1.86167,5.56558 1.86167,5.75448 0,0.1889 -2.67344,0.34345 -5.94098,0.34345 -3.26754,0 -6.15592,0.34777 -6.41862,0.77282 -0.26269,0.42505 0.20634,3.68755 1.0423,7.25 1.97799,8.42923 1.33266,29.22785 -1.13179,36.47718 -10.44229,30.71655 -33.97718,50.08767 -64.76269,53.30493 l -7.71177,0.80593 z m -238.18356,-245.96047 -5.33789,-5.40504 3.87205,-2.45996 c 9.45145,-6.00463 36.11336,-20.72996 37.53397,-20.72996 0.8626,0 2.75406,0.93266 4.20323,2.07258 2.03692,1.60224 2.63486,2.9523 2.63486,5.94911 0,4.60034 -1.70216,6.10923 -15.5,13.73998 -4.95,2.73755 -11.7,6.60992 -15,8.60527 -3.3,1.99536 -6.24037,3.62908 -6.53416,3.63049 -0.29379,0.001 -2.93621,-2.4297 -5.87206,-5.40247 z"
         id="path170"
         inkscape:connector-curvature="0" />
    </g>
  </g>
  <line
     stroke-miterlimit="10"
     x1="100.39856"
     y1="95.352905"
     x2="425.07843"
     y2="430.12408"
     id="line612"
     style="display:inline;fill:none;stroke:#c50000;stroke-width:54.96069336;stroke-miterlimit:10"
     inkscape:label="tarja" />
</svg>
