<?xml version="1.0" encoding="utf-8"?>
<!-- Generator: Adobe Illustrator 15.0.2, SVG Export Plug-In . SVG Version: 6.00 Build 0)  -->
<!DOCTYPE svg PUBLIC "-//W3C//DTD SVG 1.1//EN" "http://www.w3.org/Graphics/SVG/1.1/DTD/svg11.dtd">
<svg version="1.1"
	 id="svg2" inkscape:version="0.48.2 r9819" sodipodi:docname="AJAX1.svg" xmlns:rdf="http://www.w3.org/1999/02/22-rdf-syntax-ns#" xmlns:cc="http://creativecommons.org/ns#" xmlns:dc="http://purl.org/dc/elements/1.1/" xmlns:sodipodi="http://sodipodi.sourceforge.net/DTD/sodipodi-0.dtd" xmlns:svg="http://www.w3.org/2000/svg" xmlns:inkscape="http://www.inkscape.org/namespaces/inkscape" sodipodi:version="0.32"
	 xmlns="http://www.w3.org/2000/svg" xmlns:xlink="http://www.w3.org/1999/xlink" x="0px" y="0px" width="525.477px"
	 height="525.477px" viewBox="0 0 525.477 525.477" enable-background="new 0 0 525.477 525.477" xml:space="preserve">
<sodipodi:namedview  width="601px" height="601px" inkscape:pageopacity="0.0" inkscape:window-y="-8" fit-margin-right="0" inkscape:current-layer="layer1" fit-margin-bottom="0" inkscape:window-x="-8" inkscape:window-height="1004" inkscape:pageshadow="2" inkscape:window-width="1280" id="base" objecttolerance="10" inkscape:cy="235.04871" showgrid="false" borderopacity="1.0" pagecolor="#ffffff" bordercolor="#666666" inkscape:cx="369.80155" guidetolerance="10" fit-margin-left="0" gridtolerance="10000" inkscape:zoom="0.64333334" fit-margin-top="0" inkscape:window-maximized="1" inkscape:document-units="px">
	</sodipodi:namedview>
<g>
	<path id="rect3651" inkscape:connector-curvature="0" fill="#C50000" d="M274.647,0.508C129.372-6.089,7.106,105.556,0.509,250.832
		c-6.598,145.273,105.046,267.54,250.321,274.137c145.274,6.598,267.541-105.046,274.138-250.321
		C531.566,129.372,419.922,7.107,274.647,0.508z"/>
	<path id="rect4540" fill="#FFFFFF" d="M272.378,50.458L272.378,50.458c-117.24-5.324-216.598,85.401-221.921,202.641l0,0
		c-5.324,117.24,85.401,216.597,202.642,221.921l0,0c117.239,5.324,216.596-85.401,221.921-202.642l0,0
		C480.344,155.139,389.619,55.782,272.378,50.458z"/>
</g>
<path fill="none" stroke="#C50000" stroke-width="55" stroke-miterlimit="10" d="M422.239,427.739"/>
<path fill="none" stroke="#C50000" stroke-width="55" stroke-miterlimit="10" d="M92.239,97.738"/>
<g>
	<path d="M130.278,244.425c11.514-11.015,23.043-22.031,34.559-33.074c0.599-0.471,1.27-0.757,2.098-0.671
		c16.251-0.029,32.518-0.057,48.784-0.086c2.426,0.214,4.138,1.413,4.167,4.195l-0.014,85.485c0.014,1.795-0.984,3.096-3.096,3.125
		c-15.724,0-31.448,0-47.187,0c-0.257,0-0.5-0.072-0.742-0.316c-15.966-19.391-46.887-22.26-65.279,0.016
		c-0.186,0.186-0.386,0.285-0.614,0.301c-6.892,0-13.755,0-20.604,0c-2.411-0.045-3.125-1.258-3.068-3.012
		c0-17.607,0-35.188,0-52.794c-0.057-2.754,1.456-3.14,3.125-3.182C98.358,244.411,114.326,244.425,130.278,244.425z"/>
	<path d="M227.847,164.349h206.739c0.328,0,0.613,0.271,0.613,0.614v137.35c0,0.328-0.285,0.6-0.613,0.6H227.847
		c-0.328,0-0.614-0.271-0.614-0.6v-137.35C227.233,164.606,227.519,164.349,227.847,164.349"/>
	<path d="M314.872,304.395c15.681,0,28.366,12.715,28.366,28.381c0,15.654-12.686,28.354-28.366,28.354
		c-15.653,0-28.366-12.699-28.366-28.354C286.505,317.11,299.218,304.395,314.872,304.395"/>
	<path d="M380.635,304.395c15.639,0,28.352,12.715,28.352,28.381c0,15.654-12.713,28.354-28.352,28.354
		c-15.667,0-28.381-12.699-28.381-28.354C352.254,317.11,364.968,304.395,380.635,304.395"/>
	<path d="M136.456,304.395c15.653,0,28.366,12.715,28.366,28.381c0,15.654-12.713,28.354-28.366,28.354
		s-28.366-12.699-28.366-28.354C108.09,317.11,120.803,304.395,136.456,304.395"/>
	<path fill="#FFFFFF" d="M170.001,223.421c0.314-0.428,0.657-0.57,0.999-0.6c12.142,0,24.271,0,36.414,0
		c1.013,0,1.798,0.329,1.755,1.712v21.831h-51.295c-1.241-0.071-1.199-0.941-0.871-1.712
		C161.354,237.59,165.678,230.499,170.001,223.421"/>
</g>
<line fill="none" stroke="#C50000" stroke-width="55" stroke-miterlimit="10" x1="92.239" y1="97.739" x2="422.239" y2="427.739"/>
</svg>
